<svg id="Layer_1" data-name="Layer 1" xmlns="http://www.w3.org/2000/svg" viewBox="0 0 63.91 100"><title>op1_6</title><path d="M33.79,0C50.61,0,59.84,9,62,20.62H50.75c-2-6.51-9-10.58-17.51-10.58-17.77,0-22.79,15.6-22.93,37.31h.14C11.8,42.88,21,34.74,33.38,34.74c20.49,0,30.53,15.33,30.53,30.93,0,20-8,34.33-30.53,34.33C17.37,100,0,92.13,0,51.83,0,22.66,4.48,0,33.79,0Zm-.41,90c15.33,0,19.67-10.72,19.67-24.15,0-9.36-5.7-21-19.81-21-12.89,0-20.76,9.09-20.76,21.57C12.48,80.6,20.76,90,33.38,90Z"/></svg>