<svg id="Layer_1" data-name="Layer 1" xmlns="http://www.w3.org/2000/svg" viewBox="0 0 57.53 100"><title>op1_8</title><path d="M12.35,49.93C3.8,44,.27,38.13.27,26.87.27,8.55,13.7,0,28.9,0S57.53,8.55,57.53,26.87c0,11.39-3.66,17.23-12.21,23.06,8.68,6,12.21,11.67,12.21,23.2C57.53,91.59,44.1,100,28.77,100S0,91.59,0,73.13C0,61.47,3.66,55.77,12.35,49.93ZM28.77,89.55c10.44,0,17.91-6,17.91-16.42,0-12.21-7.47-18.45-17.91-18.45S10.86,60.92,10.86,73.13C10.86,83.58,18.32,89.55,28.77,89.55Zm.13-44.37c10.31,0,17.78-6.37,17.78-18.31,0-10.45-7.47-16.42-17.78-16.42s-17.77,6-17.77,16.42C11.13,38.81,18.59,45.18,28.9,45.18Z"/></svg>