<svg id="Layer_1" data-name="Layer 1" xmlns="http://www.w3.org/2000/svg" viewBox="0 0 63.91 100"><title>op1_9</title><path d="M30.12,100c-16.82,0-26-9-28.22-20.62H13.16c2,6.51,9,10.58,17.5,10.58,17.78,0,22.8-15.6,22.94-37.31h-.14C52.1,57.12,42.88,65.26,30.53,65.26,10,65.26,0,49.93,0,34.33,0,14.38,8,0,30.53,0c16,0,33.38,7.87,33.38,48.17C63.91,77.34,59.43,100,30.12,100Zm.41-90C15.2,10,10.86,20.76,10.86,34.19c0,9.36,5.69,21,19.8,21,12.9,0,20.76-9.09,20.76-21.57C51.42,19.4,43.15,10,30.53,10Z"/></svg>