<svg id="Layer_1" data-name="Layer 1" xmlns="http://www.w3.org/2000/svg" viewBox="0 0 117.14 100"><defs><style>.cls-1{fill:#e5dfdf;}.cls-2{fill:#dddbdb;}.cls-3{opacity:0.05;}.cls-4{fill:#c22327;}.cls-5{fill:#999;}.cls-6{fill:#3a8b7c;}.cls-7{fill:#cecece;}</style></defs><title>n_v05</title><rect class="cls-1" x="77.51" width="0.88" height="11.21" rx="0.43" ry="0.43"/><rect class="cls-2" x="20.77" y="11.43" width="0.88" height="5.49"/><rect class="cls-2" x="17.25" y="10.11" width="7.91" height="2.42" rx="1.18" ry="1.18"/><path class="cls-2" d="M26,61.1H19.45A2.1,2.1,0,0,1,17.36,59V51.87H28.13V59A2.09,2.09,0,0,1,26,61.1Z"/><path class="cls-2" d="M29.56,74.07H23.19V60h-.88V74.07H15.93a.88.88,0,1,0,0,1.75H29.56a.88.88,0,1,0,0-1.75Z"/><path class="cls-3" d="M17.36,58.9s9.83.85,9.75-3.53,1-1.52,1-1.52v5.56a2.31,2.31,0,0,1-2.2,1.69H19.12A2.35,2.35,0,0,1,17.36,58.9Z"/><rect class="cls-4" x="104.18" y="20.88" width="6.37" height="30.77" rx="3.1" ry="3.1"/><rect class="cls-5" x="8.72" y="96.26" width="104.13" height="3.74"/><path class="cls-1" d="M117.07,98.42l-8.34-52.54a61.85,61.85,0,0,1-.67-13l.65-12a5.15,5.15,0,0,0-5.14-5.44H16.48c-5.05,0-5.71,5.43-5.71,5.43V47a8.35,8.35,0,0,0,8.35,8.35h7.47A8.35,8.35,0,0,0,35,47V39.56H77.41a2.34,2.34,0,0,1,2.12,1.35h0A21.82,21.82,0,0,1,78,62h0a29.63,29.63,0,0,0-4.74,17.79H9.58A9.56,9.56,0,0,0,0,89.34H0A9.56,9.56,0,0,0,9.58,98.9H116.67A.41.41,0,0,0,117.07,98.42Z"/><circle class="cls-6" cx="93.71" cy="36.07" r="12.25"/><circle class="cls-4" cx="93.94" cy="36.28" r="4.63"/><path class="cls-3" d="M11.26,49.86S35.16,56.7,28.13,36L75,36.26s1.09.23,3.18,3.42L35,39.56V47s-.22,7-6.82,8.21l-9.52.13A9.3,9.3,0,0,1,11.26,49.86Z"/><rect class="cls-7" x="72.46" y="13.85" width="10.99" height="1.54" rx="0.75" ry="0.75"/><rect class="cls-7" x="72.46" y="3.52" width="10.99" height="1.54" rx="0.75" ry="0.75"/><path class="cls-6" d="M82,6.37a.44.44,0,0,0-.44-.44A.44.44,0,0,0,82,5.49a.44.44,0,0,0-.44-.44H74.33a.44.44,0,0,0-.44.44.43.43,0,0,0,.44.44.44.44,0,0,0-.44.44.43.43,0,0,0,.44.44.44.44,0,0,0-.44.44.43.43,0,0,0,.44.44.44.44,0,1,0,0,.88.44.44,0,1,0,0,.88.44.44,0,1,0,0,.88.44.44,0,0,0,0,.88.44.44,0,1,0,0,.88.43.43,0,0,0-.44.44.44.44,0,0,0,.44.44.43.43,0,0,0-.44.44.44.44,0,0,0,.44.44h7.25a.44.44,0,0,0,.44-.44.44.44,0,0,0-.44-.44.44.44,0,0,0,.44-.44.44.44,0,0,0-.44-.44.44.44,0,0,0,0-.88.44.44,0,1,0,0-.88.44.44,0,1,0,0-.88.44.44,0,0,0,0-.88.44.44,0,0,0,0-.88A.44.44,0,0,0,82,7.25a.44.44,0,0,0-.44-.44A.44.44,0,0,0,82,6.37Z"/><path class="cls-3" d="M82,6.37a.43.43,0,0,0-.44-.44A.43.43,0,0,0,82,5.49c0-.44-.48-.44-.48-.44h-.11a.13.13,0,0,0,0,.12.43.43,0,0,1,.14.32.44.44,0,0,1-.14.33.15.15,0,0,0,0,.23.43.43,0,0,1,.14.32.44.44,0,0,1-.14.33.15.15,0,0,0,0,.23.43.43,0,0,1,.14.32.44.44,0,0,1-.14.33.15.15,0,0,0,0,.23.44.44,0,0,1,0,.64.16.16,0,0,0,0,.24.44.44,0,0,1,0,.64.16.16,0,0,0,0,.24.44.44,0,0,1,0,.64.16.16,0,0,0,0,.24.44.44,0,0,1,0,.64.16.16,0,0,0,0,.24.44.44,0,0,1,0,.64.16.16,0,0,0,0,.24.42.42,0,0,1,.13.39.44.44,0,0,1-.45.37H74.29a.44.44,0,1,0,0,.88h7.25a.44.44,0,0,0,0-.88.44.44,0,1,0,0-.88.44.44,0,0,0,0-.88.44.44,0,1,0,0-.88.44.44,0,1,0,0-.88A.43.43,0,0,0,82,9c0-.44-.31-.45-.31-.45s.31,0,.31-.43a.43.43,0,0,0-.44-.44.44.44,0,0,0,0-.88A.43.43,0,0,0,82,6.37Z"/><path class="cls-3" d="M0,89.45s4,4.62,19.78,4.4,88.35-1.1,88.35-1.1L105,40.91l.3-21.79s-.58-3.74-2.93-3.74c0,0,4.18-.27,5.43,2.17s1,3,.81,5.7S108.1,32,108.1,32a77,77,0,0,0,1.07,16.64c1.6,9.13,4.68,29.45,4.68,29.45l3.29,20.34a.43.43,0,0,1-.44.44L9,98.88S.22,98.24,0,89.45Z"/></svg>