<svg id="Layer_3" data-name="Layer 3" xmlns="http://www.w3.org/2000/svg" viewBox="0 0 144.04 100"><defs><style>.cls-1{fill:#c32227;}.cls-2{fill:none;stroke:#fff;stroke-linecap:round;stroke-linejoin:round;stroke-width:0.2px;stroke-dasharray:1 1 1 1 1 1;}.cls-3{fill:#419484;}</style></defs><title>n_v06</title><rect class="cls-1" width="95.18" height="66.24"/><rect class="cls-2" x="2.54" y="2.54" width="90.1" height="60.15"/><line class="cls-2" x1="3.43" y1="3.17" x2="91.75" y2="61.55"/><line class="cls-2" x1="3.68" y1="61.55" x2="91.75" y2="3.43"/><rect class="cls-3" x="48.86" y="33.76" width="95.18" height="66.24"/><path class="cls-2" d="M59.53,35.79S54.36,41,61.47,42.91c2.23.6,3.66.48,4.58,0,2.32-1.13.7-4.66-1.73-3.8A3.28,3.28,0,0,0,62.4,41a5.25,5.25,0,0,0,2.23,6.65,9,9,0,0,0,1.7.75c3.88,1.29,7.76,3.23,2.58,11s-12.29,2-11-1.29,7.76-6.47,12.29,1.94,14.88,4.53,15.52.65,1.94-4.53-3.88-6.47a5,5,0,0,1-3.72-3.87,5.2,5.2,0,0,1,3.71-5.83c1.66-.47,3.64-.2,5.19,2.58,3.69,6.65-9.46,4.87-4.87-2.45a9.17,9.17,0,0,1,8.75-4.09c5.44.56,10.22,2.66,13.58,2.66s11.65-1.94,5.83-5.82-11,2.59-7.77,8.41,10.36,2.59,10.36,2.59,8.41-1.94,6.46,9.05c0,0-3.89,7.24-10.14,2.09A3.33,3.33,0,0,1,108.6,55c1.1-1.4,3.54-2.11,9,1.1A14.5,14.5,0,0,0,127.78,58c3.24-.65,5.83-2.43,3.24-7-5.18-9.05-5.18-9.05-1.94-14.87s12.29,2.58,9.06,5.82-7.77,1.94-7.77,0,3.88-6.47,10.35,0,1.3,11,0,11.64a24.31,24.31,0,0,0-6.29,5.93c-3.86,5.35-.3,13,6.3,13.09,1.61,0,2.82-.5,2.58-2.2-.65-4.53-9.06-1.94-8.41,2.59s9.06,7.12,5.82,14.88-12.29,8.41-16.17,3.88,1.94-9.7,5.18-9.06,6.47,8.42,0,7.77-3.89-8.41-3.89-10.35.65-11-7.11-11-11,4.53-10.35,9.06,9.7,4.52,7.76,1.29-7.76-3.23-8.41.65S111,85.28,111,85.28s10.28,4,3.74,10.12a10.74,10.74,0,0,1-11.82,2c-2.54-1.18-3.46-2.87-3.63-4.5a5.73,5.73,0,0,1,4.64-6.09c2.59-.54,5.78-.5,5.78,3,0,5.82-7.76.65-9.7-3.23s-2.59-6.47-.65-11.65c0,0,5.82-7.11,1.29-9.7s-11-1.3-10.35,3.88S98,74.93,98,72.34s-5.83-5.17-9.71-3.23c-3.34,1.67-8.12,4.3-6.5,8.3a5.54,5.54,0,0,0,2.4,2.64c1.52.88,4.1,2.57,4.1,3.94,0,1.94-2.59,3.88-7.76,3.88s-12.29-5.18-5.82-8.41,9.7,5.82,3.88,9.7-1.94,7.12,0,7.12,5.82,0,7.11-1.94-2.58-4.53-5.82-2.59-3.23,5.18-8.41,6.47-9.7,0-11.64-3.88-1.94-5.18.64-7.12,8.41.65,7.12,3.24-9.06,1.94-7.76-4.53A9.92,9.92,0,0,1,67,78.17s7.12-5.18,1.3-8.41-11.65.64-11.65,2.58,1.3,7.12,7.76,4.53-5.82-8.41-9.7-3.88-5.82-2.59-5.82-2.59"/></svg>