<svg id="Layer_2" data-name="Layer 2" xmlns="http://www.w3.org/2000/svg" viewBox="0 0 100.5 100.15"><defs><style>.cls-1{fill:#419484;}.cls-2{fill:#c32227;}.cls-3{fill:#f4f4f4;}.cls-10,.cls-11,.cls-12,.cls-13,.cls-14,.cls-15,.cls-16,.cls-17,.cls-18,.cls-19,.cls-20,.cls-21,.cls-22,.cls-4,.cls-5,.cls-6,.cls-7,.cls-8,.cls-9{fill:none;stroke:#fff;stroke-linecap:round;stroke-linejoin:round;}.cls-4,.cls-5{stroke-width:0.5px;}.cls-5{stroke-dasharray:2 2 2 2;}.cls-10,.cls-11,.cls-12,.cls-13,.cls-14,.cls-15,.cls-16,.cls-17,.cls-18,.cls-19,.cls-20,.cls-21,.cls-22,.cls-6,.cls-7,.cls-8,.cls-9{stroke-width:0.2px;}.cls-7{stroke-dasharray:0.98 0.98 0.98 0.98;}.cls-8{stroke-dasharray:0.98 0.98 0.98 0.98 0.98 0.98;}.cls-9{stroke-dasharray:0.91 0.91 0.91 0.91;}.cls-10{stroke-dasharray:0.91 0.91 0.91 0.91 0.91 0.91;}.cls-11{stroke-dasharray:0.92 0.92 0.92 0.92;}.cls-12{stroke-dasharray:0.92 0.92 0.92 0.92 0.92 0.92;}.cls-13{stroke-dasharray:0.97 0.97 0.97 0.97;}.cls-14{stroke-dasharray:0.97 0.97 0.97 0.97 0.97 0.97;}.cls-15{stroke-dasharray:1.01 1.01 1.01 1.01;}.cls-16{stroke-dasharray:1.01 1.01 1.01 1.01 1.01 1.01;}.cls-17{stroke-dasharray:0.98 0.98 0.98 0.98;}.cls-18{stroke-dasharray:0.98 0.98 0.98 0.98 0.98 0.98;}.cls-19{stroke-dasharray:1 1 1 1;}.cls-20{stroke-dasharray:1 1 1 1 1 1;}.cls-21{stroke-dasharray:1 1 1 1;}.cls-22{stroke-dasharray:1 1 1 1 1 1;}.cls-23{fill:#fff;opacity:0.1;}</style></defs><title>n_v03</title><rect class="cls-1" x="0.25" y="0.1" width="33.3" height="33.3"/><rect class="cls-2" x="33.55" y="33.4" width="33.3" height="33.3"/><rect class="cls-3" x="33.55" y="0.1" width="33.3" height="33.3"/><rect class="cls-3" x="66.85" y="33.4" width="33.3" height="33.3"/><rect class="cls-3" x="0.25" y="33.4" width="33.3" height="33.3"/><rect class="cls-3" x="33.55" y="66.7" width="33.3" height="33.3"/><rect class="cls-1" x="0.25" y="66.7" width="33.3" height="33.3"/><rect class="cls-1" x="66.85" y="66.7" width="33.3" height="33.3"/><rect class="cls-1" x="66.85" y="0.1" width="33.3" height="33.3"/><line class="cls-4" x1="100.25" y1="99.9" x2="100.18" y2="99.71"/><line class="cls-5" x1="100.05" y1="99.32" x2="99.59" y2="97.98"/><path class="cls-6" d="M99.53,97.78l0-.13-.12-.34"/><path class="cls-7" d="M99,96.41a11.8,11.8,0,0,0-1.87-2.85"/><path class="cls-8" d="M96.77,93.2a12,12,0,0,0-3.61-2.59,4.53,4.53,0,0,0-3.71-.06h0A1.89,1.89,0,0,0,88.32,92L88,94.41a4.12,4.12,0,0,1-6.24,2.92h0a7.57,7.57,0,0,1-3.22-8.76l1-3.16a8.18,8.18,0,0,1,4-4.76"/><path class="cls-6" d="M84,80.44l.46-.19h0l.47-.16"/><path class="cls-9" d="M85.85,79.88a8.1,8.1,0,0,1,3.18.05"/><path class="cls-10" d="M89.48,80A8.14,8.14,0,0,1,92,81.2l.73.5a2.31,2.31,0,0,0,1.31.41"/><path class="cls-6" d="M94.46,82.07a2,2,0,0,0,.47-.15h0a4.69,4.69,0,0,0,.45-.21"/><path class="cls-11" d="M96.16,81.22a6.45,6.45,0,0,0,2-2.46"/><path class="cls-12" d="M98.37,78.33a6.56,6.56,0,0,0,.4-1.71h0a6.46,6.46,0,0,0-1.76-5L95.52,70a6.45,6.45,0,0,0-2.76-1.7l-1.61-.49a2.45,2.45,0,0,0-1.71.12"/><path class="cls-6" d="M89,68.2a3,3,0,0,0-.38.33h0c-.11.13-.22.25-.34.37"/><path class="cls-13" d="M87.62,69.57a16.52,16.52,0,0,1-2.7,2"/><path class="cls-14" d="M84.5,71.84a16.92,16.92,0,0,1-4.21,1.68h0a1.71,1.71,0,0,1-1.39-.25h0A17.46,17.46,0,0,1,73,66.49h0A6.52,6.52,0,0,1,74,59.33"/><path class="cls-6" d="M74.31,59l.37-.34h0a4.1,4.1,0,0,1,.4-.29"/><path class="cls-15" d="M76,57.91a3.75,3.75,0,0,1,2.32,0h0a3.07,3.07,0,0,1,1,.54"/><path class="cls-16" d="M79.72,58.79a3.34,3.34,0,0,1,.8,3.19,2.45,2.45,0,0,0,4.53,1.79l2.16-4.08a4.1,4.1,0,0,1,1.7-1.7"/><path class="cls-6" d="M89.37,57.78a3.68,3.68,0,0,1,.47-.15h0a4.37,4.37,0,0,1,.5-.09"/><path class="cls-17" d="M91.32,57.53a4.13,4.13,0,0,1,1.35.41h0a4,4,0,0,0,2,.41"/><path class="cls-18" d="M95.11,58.3A4,4,0,0,0,97,57.45l.29-.23a5.85,5.85,0,0,0,2.08-5.09h0a5.83,5.83,0,0,0-2.64-4.3L94.46,46.4A4.28,4.28,0,0,0,88.34,48a4.9,4.9,0,0,0-.53,2.76l0,.39a3.18,3.18,0,0,1-.76,2.4"/><path class="cls-6" d="M86.74,53.94a3,3,0,0,1-.41.28h0a2.35,2.35,0,0,1-.45.22"/><path class="cls-19" d="M84.91,54.66A3.14,3.14,0,0,1,82,53.09L82,53"/><path class="cls-20" d="M81.74,52.6l-.1-.16a15.11,15.11,0,0,0-5.13-5.32,5.34,5.34,0,0,0-6.25.43l-.66.55a3.42,3.42,0,0,0-1.23,2.63v.18a9.59,9.59,0,0,1-3.74,7.61l-.07,0a5.62,5.62,0,0,0-2,2.89l-.64,2.18a5.68,5.68,0,0,0,1.24,5.42l2,2.15a1.32,1.32,0,0,0,1.44.35l.1,0a6.56,6.56,0,0,1,6.4,1l.18.13a8.47,8.47,0,0,1,3.13,5.43l0,.11a8.72,8.72,0,0,1-1.53,6.3c-.82,1.17-1.74,2.46-2.42,3.42a3.53,3.53,0,0,1-2.79,1.48H69.6A3.65,3.65,0,0,1,66,86.82c-.08-.28-.17-.55-.25-.83a3,3,0,0,0-3.62-2l-.06,0A3.06,3.06,0,0,0,60,86.09c-.12.37-.24.78-.37,1.19A5.36,5.36,0,0,0,62,93.47l.18.11a1.7,1.7,0,0,1,.05,2.9l-.3.18a14.55,14.55,0,0,1-7.78,2.24H54a5.44,5.44,0,0,1-4.09-1.84l0,0a5.57,5.57,0,0,1-1.4-3.7V90.79a4.18,4.18,0,0,1,1.89-3.5l.16-.1A5.73,5.73,0,0,0,53.1,82l0-.23a13.58,13.58,0,0,0-2.87-7.4l-.15-.19a6.75,6.75,0,0,0-6.72-2.42l-.12,0a10.21,10.21,0,0,0-6.77,5l-.42.74a2.73,2.73,0,0,0,0,2.67l.07.12a5.8,5.8,0,0,0,5.09,3h.14a2,2,0,0,1,1.81,1.15l0,.07a9.31,9.31,0,0,1-.12,8l-.58,1.15A9.26,9.26,0,0,1,37.92,98l-1.38.62a6.38,6.38,0,0,1-5.65-.25l-.23-.12a13.34,13.34,0,0,1-6.39-8.12l-.08-.29a2.14,2.14,0,0,1,1.94-2.71h.27a5.17,5.17,0,0,0,4.66-6.59l0-.13a6.88,6.88,0,0,0-3.46-4.19c-.52-.28-1.1-.57-1.67-.86a6.66,6.66,0,0,0-8.22,1.73l-.07.09a6.82,6.82,0,0,0-1,7l.95,2.19a5.77,5.77,0,0,1-.92,6.08l-.2.23A8.64,8.64,0,0,1,4.92,94.15l-.3-.21a8.13,8.13,0,0,1-3.39-5.89l0-.19a25.22,25.22,0,0,1,6-18.68l.36-.42a4.06,4.06,0,0,1,5.62-.52h0a6.6,6.6,0,0,0,4.59,1.42l2.12-.16a6.39,6.39,0,0,0,5.89-5.86l0-.3a5.07,5.07,0,0,0-4-5.41l-.27-.06a4.78,4.78,0,0,1-3.7-5.55l0-.11a8.19,8.19,0,0,1,4.52-5.89l1.7-.82a7.86,7.86,0,0,1,6.89.06l.13.07a8.14,8.14,0,0,1,4.14,9.73l-.66,2.12a11.51,11.51,0,0,1-3.66,5.43l-.14.11a3.2,3.2,0,0,0-.34,4.63l.07.08a7.86,7.86,0,0,0,5.77,2.52h1.84A7.82,7.82,0,0,0,43.66,68L44.6,67a6.09,6.09,0,0,0,1-7.29l0-.08a10.37,10.37,0,0,1-1.35-5.12v-3.1a10.43,10.43,0,0,1,5.11-9l.14-.08a3.27,3.27,0,0,1,4.38,1l0,0a3.32,3.32,0,0,1,.44,2.82c-.3,1-.71,2.38-1,3.48a6.16,6.16,0,0,0,.09,3.75l.08.23a3.55,3.55,0,0,0,5.64,1.54l.23-.2a8.74,8.74,0,0,0,3.06-7.64l0-.17a11.39,11.39,0,0,1,4.38-10.29l2.67-2.07a1.7,1.7,0,0,1,2.24.15l.09.09A18.45,18.45,0,0,0,79,39.55l.35.12a23.73,23.73,0,0,0,13.15.53l.32-.07a7.68,7.68,0,0,0,5.65-5.75l0-.15a10.51,10.51,0,0,0-2.1-9l-.28-.35a2.72,2.72,0,0,0-3.88-.36l0,0a7.74,7.74,0,0,0-2.49,4l-.23.93A3.51,3.51,0,0,1,84.78,32l-.1,0a5.82,5.82,0,0,1-3.49-3.83l-.06-.24a10.2,10.2,0,0,1,1.09-8l.15-.24a9.87,9.87,0,0,1,9.46-4.71l.22,0a2.8,2.8,0,0,0,2.62-1.27l.15-.24A8.15,8.15,0,0,0,93,2.52l-.23-.18a6.81,6.81,0,0,0-5-1.39l-.34,0A14.48,14.48,0,0,0,75.71,9.88l-.09.22a7.9,7.9,0,0,0-.08,5.76l.16.42a15.83,15.83,0,0,1,1,5.53v.31A9.47,9.47,0,0,1,71.5,30.6l-.31.15a14.68,14.68,0,0,1-10.94.92L60,31.59a4.84,4.84,0,0,1-3.4-4.9v-.08a5,5,0,0,1,3-4.28l2.44-1a4.94,4.94,0,0,0,2.43-6.77l-.09-.18a1.39,1.39,0,0,1,.29-1.64l.16-.16a6.79,6.79,0,0,0,.64-9.24l-.09-.11a4.92,4.92,0,0,0-5.28-1.6l-3,.92a5.06,5.06,0,0,0-2,1.15l-1,.94a4.91,4.91,0,0,0-1.1,5.5"/><path class="cls-6" d="M53.28,10.54a3,3,0,0,0,.27.42h0l.49.1"/><path class="cls-21" d="M55,11.26l.45.09a3.31,3.31,0,0,1,2.32,1.77"/><path class="cls-22" d="M58,13.59a3,3,0,0,1,.09.32l.41,1.93a3.65,3.65,0,0,1-.64,2.95L57.7,19a36.82,36.82,0,0,0-6.45,14.17l-.07.36a8.22,8.22,0,0,1-4.33,5.59l-.4.2A12.34,12.34,0,0,1,32.2,37l-.2-.19a12.77,12.77,0,0,1-2.51-14.62l.22-.47a5.14,5.14,0,0,1,4.91-2.89h.22a4.29,4.29,0,0,1,3.81,2.85l.11.32a4.72,4.72,0,0,0,7.38,2.13l.36-.29a11,11,0,0,0,3.73-11.76l-.08-.24A11.38,11.38,0,0,0,38.86,3.74l-5.29.17a2.5,2.5,0,0,0-2.08,3.76l.13.22A5.18,5.18,0,0,1,31,14l-.18.19a5.4,5.4,0,0,1-7.07.73l-.11-.08a5.49,5.49,0,0,1-2.21-5.59l.17-.84A5.76,5.76,0,0,0,16.92,1.6l-.32-.06A11,11,0,0,0,7.32,4.16l-.14.13A11.29,11.29,0,0,0,3.82,15.7l.05.2a4.16,4.16,0,0,0,6.77,2h0a3.74,3.74,0,0,1,4.16-.54l.49.24a6.75,6.75,0,0,1,3.15,8.78h0a6.75,6.75,0,0,1-4.92,3.9h0A9.9,9.9,0,0,0,8.34,33L5.82,35.55a3.92,3.92,0,0,0-.88,4.2h0a3.92,3.92,0,0,0,4.71,2.33L13.42,41a3.58,3.58,0,0,1,4.45,2.61h0a3.64,3.64,0,0,1-.44,2.73h0A14,14,0,0,1,8.1,52.68L1.63,53.86"/><line class="cls-6" x1="1.14" y1="53.95" x2="0.65" y2="54.04"/><line class="cls-4" x1="0.45" y1="54.08" x2="0.25" y2="54.11"/><polygon class="cls-23" points="42.79 99.9 0.35 99.9 0.35 0 61.27 0 42.79 99.9"/></svg>