<svg id="Layer_1" data-name="Layer 1" xmlns="http://www.w3.org/2000/svg" viewBox="0 0 76.1 100"><defs><style>.cls-1{fill:#3d897c;}.cls-2{fill:#fafbfc;}.cls-3{fill:#111;}.cls-4{fill:#a50c0c;}.cls-5{fill:#fff;opacity:0.1;}</style></defs><title>n_v04</title><path class="cls-1" d="M43.21,29.23l1.33-.77a.86.86,0,0,0,.44-.75V15.3c2-.11,4.06-.3,6.13-.62a.39.39,0,0,0,.32-.38V2.58a.76.76,0,0,0-.57-.74l-3.81-1A25.53,25.53,0,0,0,34.29.78l-4.2,1.06a.76.76,0,0,0-.57.74V14.29a.39.39,0,0,0,.33.39c.83.12,3.19.42,6.39.6V27.71a.86.86,0,0,0,.42.75l1.31.78A35.21,35.21,0,0,0,19,36.5l-3.19-3.67,2-1.71a.42.42,0,0,0,0-.58L8.06,19.25h0l0-.06a28.88,28.88,0,0,0-8.07,7H.06l0,0L9.83,37.5a.41.41,0,0,0,.58,0l1.95-1.69,3.21,3.7A35.44,35.44,0,1,0,43.21,29.23Z"/><circle class="cls-2" cx="40.66" cy="64.57" r="33.23"/><path class="cls-3" d="M40.66,93.37A28.8,28.8,0,1,1,61,84.94,28.62,28.62,0,0,1,40.66,93.37Zm0-57.47A28.67,28.67,0,1,0,69.34,64.57,28.7,28.7,0,0,0,40.66,35.9Z"/><rect class="cls-3" x="40.6" y="32.38" width="0.13" height="3.36"/><rect class="cls-3" x="40.6" y="93.36" width="0.13" height="3.36"/><rect class="cls-3" x="8.49" y="64.48" width="3.36" height="0.13"/><rect class="cls-3" x="69.47" y="64.48" width="3.36" height="0.13"/><rect class="cls-3" x="12.58" y="79.73" width="3.36" height="0.13" transform="translate(-38.01 17.84) rotate(-30.02)"/><rect class="cls-3" x="65.39" y="49.24" width="3.36" height="0.13" transform="translate(-15.67 40.13) rotate(-29.99)"/><rect class="cls-3" x="23.74" y="90.89" width="3.36" height="0.13" transform="translate(-66.05 67.45) rotate(-59.98)"/><rect class="cls-3" x="54.23" y="38.08" width="3.36" height="0.13" transform="translate(-5.09 67.47) rotate(-59.98)"/><rect class="cls-3" x="67" y="78.11" width="0.13" height="3.36" transform="translate(-35.57 97.98) rotate(-60)"/><rect class="cls-3" x="14.19" y="47.62" width="0.13" height="3.36" transform="translate(-35.57 37) rotate(-60)"/><rect class="cls-3" x="55.84" y="89.27" width="0.13" height="3.36" transform="translate(-37.99 40.14) rotate(-30)"/><rect class="cls-3" x="25.35" y="36.46" width="0.13" height="3.36" transform="translate(-15.67 17.82) rotate(-30)"/><path d="M55.29,41.41H53.63l-.17,1.13a1.62,1.62,0,0,1,.35,0,1.73,1.73,0,0,1,.94.24,1.23,1.23,0,0,1,.63,1.12,1.52,1.52,0,0,1-1.63,1.49,2.11,2.11,0,0,1-1.09-.27l.15-.45a1.94,1.94,0,0,0,.94.24,1,1,0,0,0,1-.94c0-.57-.38-1-1.26-1a4.73,4.73,0,0,0-.6,0l.28-2.09h2.09Z"/><path class="cls-4" d="M40,37.7a2.43,2.43,0,0,0-.44,0A1.77,1.77,0,0,0,38,39.28h0a1.32,1.32,0,0,1,1.06-.5,1.29,1.29,0,0,1,1.31,1.41A1.46,1.46,0,0,1,39,41.73c-.93,0-1.54-.73-1.54-1.86a2.75,2.75,0,0,1,.73-2,2.41,2.41,0,0,1,1.4-.65l.43,0Zm-.16,2.52a.89.89,0,0,0-.91-1,1,1,0,0,0-.84.54A.53.53,0,0,0,38,40c0,.72.34,1.25,1,1.25S39.82,40.85,39.82,40.22Z"/><path class="cls-4" d="M43.84,39.42c0,1.49-.55,2.31-1.52,2.31s-1.43-.8-1.44-2.25.63-2.27,1.52-2.27S43.84,38,43.84,39.42Zm-2.37.07c0,1.14.35,1.78.89,1.78s.89-.7.89-1.82-.27-1.78-.89-1.78S41.47,38.3,41.47,39.49Z"/><path class="cls-4" d="M40,88.13a1.89,1.89,0,0,0-2,1.58h0a1.33,1.33,0,0,1,2.37.91A1.46,1.46,0,0,1,39,92.16c-.93,0-1.54-.73-1.54-1.87a2.75,2.75,0,0,1,.73-2,2.46,2.46,0,0,1,1.4-.64,2.72,2.72,0,0,1,.43,0Zm-.16,2.52a.89.89,0,0,0-.91-1,1,1,0,0,0-.84.54.47.47,0,0,0-.07.26c0,.72.34,1.25,1,1.25S39.82,91.28,39.82,90.65Z"/><path class="cls-4" d="M43.84,89.85c0,1.49-.55,2.31-1.52,2.31s-1.43-.8-1.44-2.25.63-2.27,1.52-2.27S43.84,88.46,43.84,89.85Zm-2.37.07c0,1.13.35,1.78.89,1.78s.89-.71.89-1.82S43,88.1,42.36,88.1,41.47,88.73,41.47,89.92Z"/><path class="cls-4" d="M63.38,62.71h0l-.76.41-.12-.45,1-.51H64v4.37h-.57Z"/><path class="cls-4" d="M68.15,62.66H66.49l-.17,1.12.36,0a1.87,1.87,0,0,1,.94.23,1.25,1.25,0,0,1,.62,1.12,1.52,1.52,0,0,1-1.63,1.5,2.14,2.14,0,0,1-1.08-.27l.14-.45a2,2,0,0,0,.94.24,1,1,0,0,0,1-.95c0-.56-.38-1-1.25-1a4.53,4.53,0,0,0-.61.05l.28-2.1h2.09Z"/><path class="cls-4" d="M15.11,66.53V65.34h-2V65L15,62.16h.64v2.72h.61v.46h-.61v1.19Zm0-1.65V63.42c0-.23,0-.46,0-.69h0c-.13.26-.24.45-.36.65l-1.07,1.49h1.43Z"/><path class="cls-4" d="M19.34,62.66H17.68l-.17,1.12.35,0a1.82,1.82,0,0,1,.94.23,1.24,1.24,0,0,1,.63,1.12,1.52,1.52,0,0,1-1.63,1.5,2.22,2.22,0,0,1-1.09-.27l.15-.45a1.94,1.94,0,0,0,.94.24,1,1,0,0,0,1-.95c0-.56-.38-1-1.26-1a4.51,4.51,0,0,0-.6.05l.28-2.1h2.09Z"/><path d="M60,50.48h0l-.76.41-.12-.45,1-.51h.5V54.3H60Z"/><path d="M65.09,52.06c0,1.49-.55,2.31-1.52,2.31s-1.43-.8-1.45-2.25.64-2.27,1.52-2.27S65.09,50.67,65.09,52.06Zm-2.37.07c0,1.14.35,1.78.88,1.78s.9-.7.9-1.82-.28-1.78-.89-1.78S62.72,50.94,62.72,52.13Z"/><path d="M58.6,79v-.36l.46-.45c1.12-1.07,1.63-1.63,1.63-2.29a.78.78,0,0,0-.87-.85,1.47,1.47,0,0,0-.92.37L58.71,75A1.89,1.89,0,0,1,60,74.59a1.23,1.23,0,0,1,1.33,1.28c0,.8-.58,1.45-1.5,2.34l-.35.32v0h2V79Z"/><path d="M65,76.81c0,1.48-.55,2.3-1.52,2.3S62,78.31,62,76.87s.63-2.28,1.52-2.28S65,75.41,65,76.81Zm-2.37.06c0,1.14.35,1.79.89,1.79s.89-.71.89-1.83-.27-1.78-.88-1.78S62.58,75.68,62.58,76.87Z"/><path d="M49.59,88.72v-.36l.47-.45c1.11-1.07,1.62-1.63,1.62-2.29a.77.77,0,0,0-.86-.85,1.47,1.47,0,0,0-.93.37l-.19-.42a1.88,1.88,0,0,1,1.24-.44,1.22,1.22,0,0,1,1.33,1.27c0,.8-.58,1.46-1.5,2.34l-.35.33h2v.49Z"/><path d="M55.65,84.85H54L53.81,86a2.87,2.87,0,0,1,.36,0,1.85,1.85,0,0,1,.94.24,1.25,1.25,0,0,1,.63,1.12,1.51,1.51,0,0,1-1.63,1.49A2.2,2.2,0,0,1,53,88.53l.15-.46a1.92,1.92,0,0,0,.93.25,1,1,0,0,0,1-.95c0-.57-.39-1-1.26-1a4.36,4.36,0,0,0-.6,0l.28-2.1h2.09Z"/><path d="M25.66,87.5a2,2,0,0,0,1,.28c.76,0,1-.48,1-.85,0-.61-.56-.87-1.13-.87h-.33v-.45h.33c.43,0,1-.22,1-.74,0-.35-.22-.65-.76-.65a1.67,1.67,0,0,0-.88.28l-.15-.43a2.14,2.14,0,0,1,1.14-.33c.86,0,1.25.51,1.25,1a1.09,1.09,0,0,1-.8,1h0a1.14,1.14,0,0,1,1,1.13c0,.69-.54,1.31-1.59,1.31A2.26,2.26,0,0,1,25.5,88Z"/><path d="M31.58,84.31H29.91l-.17,1.12.36,0a1.85,1.85,0,0,1,.94.23,1.26,1.26,0,0,1,.63,1.12A1.52,1.52,0,0,1,30,88.26,2.18,2.18,0,0,1,29,88l.15-.45a2,2,0,0,0,.93.24,1,1,0,0,0,1-1c0-.56-.38-1-1.26-1a4.36,4.36,0,0,0-.6,0l.28-2.1h2.09Z"/><path d="M17.67,78.37V77.18h-2v-.39L17.59,74h.64v2.71h.61v.47h-.61v1.19Zm0-1.66V75.25c0-.23,0-.45,0-.68h0c-.14.25-.24.44-.36.64L16.24,76.7h1.43Z"/><path d="M22.19,76.13c0,1.49-.55,2.31-1.52,2.31s-1.43-.8-1.44-2.25.63-2.27,1.52-2.27S22.19,74.74,22.19,76.13Zm-2.37.07c0,1.14.35,1.78.89,1.78s.89-.7.89-1.82-.27-1.78-.89-1.78S19.82,75,19.82,76.2Z"/><path d="M19.93,49.21H18.26l-.17,1.13a1.73,1.73,0,0,1,.36,0,1.87,1.87,0,0,1,.94.23A1.27,1.27,0,0,1,20,51.67a1.52,1.52,0,0,1-1.63,1.49,2.08,2.08,0,0,1-1.09-.27l.15-.45a1.9,1.9,0,0,0,.93.24,1,1,0,0,0,1-1c0-.56-.39-1-1.26-1a4.9,4.9,0,0,0-.61,0l.29-2.09h2.09Z"/><path d="M23.67,50.85c0,1.49-.55,2.31-1.52,2.31s-1.43-.8-1.44-2.25.63-2.27,1.52-2.27S23.67,49.46,23.67,50.85Zm-2.37.07c0,1.14.35,1.78.89,1.78s.89-.7.89-1.82-.27-1.78-.89-1.78S21.3,49.73,21.3,50.92Z"/><path d="M29.21,41.41H27.54l-.17,1.13a1.73,1.73,0,0,1,.36,0,1.78,1.78,0,0,1,.94.24,1.24,1.24,0,0,1,.62,1.12,1.51,1.51,0,0,1-1.62,1.49,2.08,2.08,0,0,1-1.09-.27l.15-.45a1.9,1.9,0,0,0,.93.24,1,1,0,0,0,1-.94c0-.57-.39-1-1.26-1a4.77,4.77,0,0,0-.61,0l.29-2.09h2.09Z"/><path d="M32.66,41.41H31l-.17,1.13a1.66,1.66,0,0,1,.36,0,1.78,1.78,0,0,1,.94.24,1.24,1.24,0,0,1,.62,1.12,1.51,1.51,0,0,1-1.62,1.49A2.06,2.06,0,0,1,30,45.09l.14-.45a2,2,0,0,0,.94.24,1,1,0,0,0,1-.94c0-.57-.38-1-1.25-1a4.77,4.77,0,0,0-.61,0l.28-2.09h2.1Z"/><path class="cls-4" d="M39.8,48.17a.62.62,0,0,0,.29.09.26.26,0,0,0,.3-.26c0-.18-.17-.26-.34-.26H40v-.13h.1c.13,0,.29-.07.29-.23s-.06-.19-.23-.19a.5.5,0,0,0-.26.08l-.05-.13a.66.66,0,0,1,.35-.1.33.33,0,0,1,.37.32.31.31,0,0,1-.24.3h0a.33.33,0,0,1,.29.33c0,.21-.16.4-.48.4a.73.73,0,0,1-.34-.09Z"/><path class="cls-4" d="M41.67,47.71c0,.44-.17.69-.46.69s-.43-.24-.43-.68S41,47,41.23,47,41.67,47.29,41.67,47.71Zm-.72,0c0,.34.11.53.27.53s.27-.21.27-.55-.09-.53-.27-.53S41,47.37,41,47.73Z"/><path class="cls-4" d="M40.14,56.45h0l-.23.12,0-.13.28-.16h.16V57.6h-.18Z"/><path class="cls-4" d="M41.58,56.43h-.5l0,.34h.1a.53.53,0,0,1,.28.07.36.36,0,0,1,.19.34.45.45,0,0,1-.49.45.62.62,0,0,1-.32-.08l0-.14a.63.63,0,0,0,.28.07.28.28,0,0,0,.31-.28c0-.17-.11-.29-.37-.29h-.19l.09-.63h.63Z"/><path d="M45,49.53h-.5l-.05.33h.11a.64.64,0,0,1,.28.07.4.4,0,0,1,.19.34.46.46,0,0,1-.49.45.69.69,0,0,1-.33-.08l0-.14a.49.49,0,0,0,.28.08.29.29,0,0,0,.31-.29c0-.17-.12-.29-.38-.29l-.18,0,.08-.63H45Z"/><path d="M44,54.07h0l-.23.12,0-.14L44,53.9h.16v1.31H44Z"/><path d="M45.52,54.54c0,.45-.16.69-.45.69s-.43-.24-.43-.67.18-.68.45-.68S45.52,54.12,45.52,54.54Zm-.71,0c0,.34.11.54.27.54s.27-.22.27-.55-.09-.54-.27-.54S44.81,54.2,44.81,54.56Z"/><path d="M35.8,55.09V55l.14-.14c.33-.31.49-.48.49-.68a.24.24,0,0,0-.26-.26.45.45,0,0,0-.28.11l-.06-.12a.56.56,0,0,1,.37-.14.38.38,0,0,1,.41.39c0,.24-.18.43-.46.7l-.1.1h.59v.15Z"/><path d="M37.71,54.42c0,.44-.17.69-.46.69s-.43-.24-.43-.67.19-.69.45-.69S37.71,54,37.71,54.42Zm-.72,0c0,.34.11.53.27.53s.27-.21.27-.54-.08-.54-.27-.54S37,54.08,37,54.44Z"/><path d="M36.07,50.47v-.11l.14-.14c.34-.32.49-.49.49-.68a.24.24,0,0,0-.26-.26.45.45,0,0,0-.28.11l-.06-.12a.56.56,0,0,1,.37-.14.38.38,0,0,1,.41.38c0,.25-.18.44-.46.71l-.1.09h.59v.15Z"/><path d="M37.89,49.3h-.5l0,.34h.1a.65.65,0,0,1,.29.07.38.38,0,0,1,.18.34.45.45,0,0,1-.48.45.63.63,0,0,1-.33-.08l0-.14a.67.67,0,0,0,.28.07.29.29,0,0,0,.32-.28c0-.17-.12-.29-.38-.29h-.18l.08-.63h.63Z"/><path class="cls-3" d="M40.66,58.57a6.24,6.24,0,1,1,6.25-6.24A6.25,6.25,0,0,1,40.66,58.57Zm0-12.35a6.11,6.11,0,1,0,6.11,6.11A6.12,6.12,0,0,0,40.66,46.22Z"/><path class="cls-3" d="M40.66,59.39a7.06,7.06,0,1,1,7.06-7.06A7.07,7.07,0,0,1,40.66,59.39Zm0-14a6.93,6.93,0,1,0,6.93,6.92A6.92,6.92,0,0,0,40.66,45.41Z"/><path class="cls-3" d="M43,64.79a2.42,2.42,0,0,0-1.26-2.13,1,1,0,0,1-.52-.86l-.59-29.15-.6,29.12a1,1,0,0,1-.52.85,2.42,2.42,0,0,0-.07,4.3.86.86,0,0,1,.47.78L39.65,82a1,1,0,0,0,1,1.07,1,1,0,0,0,1-1l-.29-14.38a.88.88,0,0,1,.43-.77A2.41,2.41,0,0,0,43,64.79Z"/><circle class="cls-1" cx="40.61" cy="64.79" r="2.02"/><circle class="cls-3" cx="40.61" cy="64.79" r="0.81"/><path class="cls-5" d="M40.61,0a26,26,0,0,0-6.32.78l-4.2,1.06a.76.76,0,0,0-.57.74V14.29a.39.39,0,0,0,.33.39c.83.12,3.19.42,6.39.6V27.71a.86.86,0,0,0,.42.75l1.31.78A35.21,35.21,0,0,0,19,36.5l-3.19-3.67,2-1.71a.42.42,0,0,0,0-.58L8.06,19.25h0l0-.06a28.88,28.88,0,0,0-8.07,7H.06l0,0L9.83,37.5a.41.41,0,0,0,.58,0l1.95-1.69,3.21,3.7a35.43,35.43,0,0,0,25,60.45Z"/></svg>