<svg id="Layer_4" data-name="Layer 4" xmlns="http://www.w3.org/2000/svg" viewBox="0 0 77.6 100"><defs><style>.cls-1{fill:#d39f29;}.cls-2{fill:#c22327;}.cls-3{fill:#f2bfb1;}.cls-4{fill:#1c1c1c;}.cls-4,.cls-9{opacity:0.05;}.cls-5{fill:#161616;}.cls-6{fill:#fcfcfc;}.cls-7{fill:#f06c46;}.cls-8{fill:#0a0a0a;}.cls-9{fill:#fff;}.cls-10{fill:#409083;}</style></defs><title>n_v01</title><path class="cls-1" d="M67.43,74.32C69.34,68.4,65.69,60.91,65,59.61a14.75,14.75,0,0,1-1.42-4.52V49.81a18.84,18.84,0,0,0-.06-6.48l-50.06-.26a17.06,17.06,0,0,0-.18,5.27v7.18A14.54,14.54,0,0,1,12,59.35c-.7,1.3-4.35,8.79-2.44,14.71s.87,8.88.09,9.84c-.48.58.51,2.38,1.35,3.68a2.75,2.75,0,0,0,.19.28c3.14-10.94,14.2-19,27.36-19S62.8,77,65.91,88l0,0c.85-1.31,1.89-3.17,1.4-3.77C66.56,83.2,65.52,80.24,67.43,74.32Z"/><path class="cls-2" d="M59.45,94.8A14.51,14.51,0,0,0,60,90.73C60,81,50.52,73.19,38.8,73.19S17.57,81,17.57,90.73a14.87,14.87,0,0,0,.57,4.07c-7.55-2-13.85-5-18.14-8.64C3.56,91,10.43,95,19.19,97.46A73.92,73.92,0,0,0,38.8,100a74,74,0,0,0,19.61-2.54C67.17,95,74,91,77.6,86.16,73.3,89.83,67,92.84,59.45,94.8Z"/><rect class="cls-3" x="28.14" y="59.17" width="19.32" height="28.38" rx="9.66" ry="9.66"/><path class="cls-4" d="M48.06,75.28c0,2.21-8.59,4.26-12.75,4.26s-7.09-.57-7.09-2.78,3.37-4,7.53-4S48.06,73.07,48.06,75.28Z"/><path class="cls-3" d="M50.62,76.76H25.21c-4.92,0-10.75-6.35-10.75-11.28l.87-24h46.3l.87,24C62.5,70.41,55.54,76.76,50.62,76.76Z"/><ellipse class="cls-5" cx="27.21" cy="59.26" rx="8.79" ry="11.58"/><path class="cls-6" d="M33.07,54.09c0,3.31-2.18,2.24-6,4.29-2.8,1.49-6-1-6-4.29a6,6,0,0,1,12,0Z"/><ellipse class="cls-5" cx="49.75" cy="59.26" rx="8.79" ry="11.58"/><path class="cls-6" d="M55.75,54.27c0,3.3-2.17,2.23-6,4.28-2.8,1.5-6-1-6-4.28a6,6,0,0,1,12,0Z"/><path class="cls-1" d="M59.69,46.2s-.29,4.88,2.06,7.4a5.69,5.69,0,0,1,1.13,5.66s1.65-3.83-.52-6.27-.78-7.24-.78-7.24l-.35-1.29Z"/><path class="cls-1" d="M17.27,46.2s.29,4.88-2.06,7.4a5.69,5.69,0,0,0-1.13,5.66s-1.65-3.83.52-6.27.78-7.24.78-7.24l.35-1.29Z"/><path class="cls-1" d="M38.48,44.46v0Z"/><path class="cls-1" d="M64.42,44.45v0Z"/><path class="cls-1" d="M15,44.9a28.24,28.24,0,0,1-1.39,7.75,15.24,15.24,0,0,0,0,8.53S14,61.09,14,64"/><path class="cls-1" d="M62,44.9a28.24,28.24,0,0,0,1.39,7.75,15.24,15.24,0,0,1,0,8.53S62.93,61.09,63,64"/><path class="cls-1" d="M38.57,27.75c-13.93,0-25.23,9.34-25.23,16.67v.06c.06,1.77,11.33,3.2,25.23,3.2s25.18-1.43,25.23-3.2v-.06C63.81,37.09,52.51,27.75,38.57,27.75Z"/><ellipse class="cls-7" cx="38.48" cy="65.35" rx="2.39" ry="1.48"/><path class="cls-8" d="M42.23,69.23c0,.79-1.6,2-3.57,2s-3.56-1.25-3.56-2,1.59-.13,3.56-.13S42.23,68.43,42.23,69.23Z"/><path class="cls-9" d="M38.84,27.75h-.27c-13.09,0-23.86,8.24-25.11,15.32h0a17.06,17.06,0,0,0-.18,5.27v5.55A13.85,13.85,0,0,0,13,56.74a13.54,13.54,0,0,1-1,2.61c-.7,1.3-4.35,8.79-2.44,14.71s.87,8.88.09,9.84c-.48.58.51,2.38,1.35,3.68a7,7,0,0,0,2.3,2.24H17.6c0,.3,0,.6,0,.91a14.87,14.87,0,0,0,.57,4.07c-7.55-2-13.85-5-18.14-8.64C3.56,91,10.43,95,19.19,97.46A73.92,73.92,0,0,0,38.8,100h0Z"/><path class="cls-10" d="M40.18,23.33v1.56H37.89v-1.5c-3.24-.36-6-2.8-6-5.95h2.53a4.09,4.09,0,0,0,3.51,3.78V12.69a1.78,1.78,0,0,0-.24-.12c-2.82-1.27-5-2.8-5-6S35,1.68,37.92,1.35V0h2.29V1.35c3.28.42,5.17,2.5,5.17,6H43.1C42.94,5,41.8,3.88,40.21,3.55V11c3.49,1.6,5.53,3.31,5.53,6.53C45.74,20.29,43.49,22.76,40.18,23.33ZM37.92,10V3.49A3.34,3.34,0,0,0,35,6.55C35,8.42,36.3,9.32,37.92,10Zm5.45,7.52c0-1.48-1-2.56-3.19-3.73v7.33A3.92,3.92,0,0,0,43.37,17.53Z"/><path class="cls-10" d="M52,28.59l-.25.32-.48-.38.25-.31A1.69,1.69,0,0,1,51.29,26l.52.42a1.07,1.07,0,0,0,.1,1.36L53.32,26s0,0,0-.06a1.76,1.76,0,0,1,0-2.06,1.39,1.39,0,0,1,2-.22l.23-.28.47.38-.22.28a1.45,1.45,0,0,1,.08,2.09l-.47-.38a.94.94,0,0,0,0-1.25L54.09,26c.45.91.59,1.6.06,2.27A1.65,1.65,0,0,1,52,28.59Zm1.62-.68c.25-.3.22-.7,0-1.3L52.4,28.13A1,1,0,0,0,53.65,27.91Zm.12-2.45,1.08-1.35a.88.88,0,0,0-1.11.15A1,1,0,0,0,53.77,25.46Z"/><path class="cls-10" d="M65.45,19.29l-.2.76-1.11-.3.2-.73a3.2,3.2,0,0,1-2.15-3.66l1.22.33A2.06,2.06,0,0,0,64.62,18l1.11-4.14-.1-.09c-1.21-1-2-2-1.64-3.53a2.62,2.62,0,0,1,3.23-1.86l.17-.65L68.5,8l-.18.66a2.74,2.74,0,0,1,1.73,3.55l-1.1-.3A1.8,1.8,0,0,0,68,9.72l-1,3.59c1.48,1.23,2.25,2.33,1.83,3.88A3.1,3.1,0,0,1,65.45,19.29Zm.64-6.74.85-3.16a1.68,1.68,0,0,0-1.81,1.11C64.89,11.4,65.4,12,66.09,12.55Zm1.66,4.35c.19-.72-.16-1.37-1.06-2.22l-1,3.55A2,2,0,0,0,67.75,16.9Z"/><path class="cls-10" d="M18.64,30.24l.65.83L18.08,32l-.62-.8a4.3,4.3,0,0,1-5.65-.66l1.33-1a2.77,2.77,0,0,0,3.43.56l-3.52-4.53-.17,0c-2,.49-3.8.57-5.1-1.1S7,20.93,8.4,19.53l-.55-.72,1.21-.94.55.72a3.67,3.67,0,0,1,5.19,1l-1.21.94a2.41,2.41,0,0,0-3.07-.8l3.05,3.93c2.51-.59,4.29-.52,5.62,1.18A4.18,4.18,0,0,1,18.64,30.24ZM12,24.11,9.28,20.66A2.25,2.25,0,0,0,9,23.48C9.77,24.47,10.82,24.42,12,24.11Zm6,1.75c-.6-.78-1.59-.94-3.22-.67l3,3.89A2.61,2.61,0,0,0,17.94,25.86Z"/><path class="cls-10" d="M20.62,16l.06.52-.76.08-.05-.5a2.15,2.15,0,0,1-2.23-1.76l.84-.09a1.37,1.37,0,0,0,1.31,1.13l-.31-2.84-.08,0c-1-.32-1.76-.75-1.87-1.8a1.75,1.75,0,0,1,1.56-1.94L19,8.31l.76-.08.05.45a1.83,1.83,0,0,1,1.93,1.8l-.76.08a1.19,1.19,0,0,0-1.09-1.15l.26,2.47c1.22.41,2,.9,2.07,2A2.09,2.09,0,0,1,20.62,16ZM19.4,11.64l-.24-2.17a1.14,1.14,0,0,0-.86,1.13C18.37,11.22,18.83,11.47,19.4,11.64ZM21.48,14c-.06-.49-.44-.82-1.2-1.13l.27,2.44A1.31,1.31,0,0,0,21.48,14Z"/></svg>