<svg id="Layer_1" data-name="Layer 1" xmlns="http://www.w3.org/2000/svg" xmlns:xlink="http://www.w3.org/1999/xlink" viewBox="0 0 59.78 100"><defs><style>.cls-1{fill:#c3c4c6;}.cls-2{fill:#a4a4a5;}.cls-3{fill:#bcbcbc;}.cls-4{fill:#b2b2b2;}.cls-5{fill:#464647;}.cls-6{fill:#353535;opacity:0.5;}.cls-7{fill:#2b2b2b;}.cls-8{fill:#3d3c3c;}.cls-9{fill:#c4c4c4;}.cls-10{fill:#111;}.cls-11{fill:url(#linear-gradient);}.cls-12{fill:#333;}.cls-13{opacity:0.75;fill:url(#radial-gradient);}.cls-14{fill:#32947d;}.cls-15{fill:#909195;}</style><linearGradient id="linear-gradient" x1="38.31" y1="22.16" x2="45.17" y2="13.31" gradientUnits="userSpaceOnUse"><stop offset="0" stop-color="#666"/><stop offset="1" stop-color="#1a1a1a"/></linearGradient><radialGradient id="radial-gradient" cx="40.38" cy="19.66" r="3.64" gradientUnits="userSpaceOnUse"><stop offset="0" stop-color="#fff"/><stop offset="1" stop-color="#1a1a1a" stop-opacity="0"/></radialGradient></defs><title>n_v02</title><path class="cls-1" d="M24.4,29s1.53,3.35-1.53,10.91A321.08,321.08,0,0,1,5.35,76.4c-9.48,17.14-4.22,20.68-.48,22.31s11.2,4.78,17.71-13.41,15.8-39.25,15.8-39.25,3.06-6.89,8.13-9.09ZM14.27,90.23c-1.41,2.72-4.08,4.13-6,3.15s-2.25-4-.83-6.69,4.08-4.13,6-3.15S15.69,87.51,14.27,90.23Z"/><path class="cls-2" d="M14.65,89.37c-1.41,2.71-4.08,4.13-6,3.15C7,91.65,6.54,89.17,7.47,86.71c-1.41,2.71-1,5.7.84,6.67s4.55-.43,6-3.15a8.45,8.45,0,0,0,.39-.88Z"/><path class="cls-3" d="M35,45.16h0a4.26,4.26,0,0,1-5.64,2.59l-1.17-.52a4.26,4.26,0,0,1-1.84-5.93h0a1.24,1.24,0,0,0-.54-1.73l-2.4-1.08c-.16.46-.34.94-.54,1.43-2,4.88-4.75,11.51-9,20.21l15.69,7c4.69-11.67,8.84-21.07,8.84-21.07s.12-.27.35-.72l-2.08-.93A1.24,1.24,0,0,0,35,45.16Z"/><path class="cls-4" d="M35,45.78h0a4.37,4.37,0,0,1-5.88,2.49l-1.25-.56a4.36,4.36,0,0,1-2.07-6h0a1.27,1.27,0,0,0-.61-1.76l-2-.88c-.11.29-.23.59-.35.89-2,5-4.86,13.49-9.26,22.44L28.66,68.6c4.78-11.91,9.72-22.55,9.72-22.55s0-.08.1-.22l-1.76-.78A1.27,1.27,0,0,0,35,45.78Z"/><rect class="cls-5" x="22.29" y="49.31" width="5.65" height="14.46" rx="2.82" ry="2.82" transform="translate(23.45 -5.31) rotate(22.41)"/><path class="cls-6" d="M29.6,52.15a2.47,2.47,0,0,1-.17.57l-3.36,8.15a2.82,2.82,0,0,1-5.41-.77,2.82,2.82,0,0,0,5.39,1.58l3.36-8.14A2.9,2.9,0,0,0,29.6,52.15Z"/><rect class="cls-7" x="23.53" y="49.55" width="5.65" height="7.95" rx="2.82" ry="2.82" transform="translate(22.4 -6.01) rotate(22.41)"/><circle class="cls-8" cx="40.68" cy="19.1" r="19.1"/><circle class="cls-9" cx="40.68" cy="19.1" r="18.49"/><circle class="cls-10" cx="40.68" cy="19.1" r="5.96"/><circle class="cls-11" cx="40.68" cy="19.1" r="5.6"/><circle class="cls-12" cx="40.68" cy="19.1" r="5.25"/><circle class="cls-9" cx="40.68" cy="19.1" r="2.13"/><circle class="cls-13" cx="40.68" cy="19.1" r="2.13"/><path d="M38,20.15l0,.15-.86.16a.45.45,0,0,1-.35-.07.48.48,0,0,1-.18-.31.49.49,0,0,1,.06-.34.45.45,0,0,1,.28-.21h0a.45.45,0,0,1,.32.06.49.49,0,0,1,.21.26s0,0,0,0,0,0,0,0a.47.47,0,0,1,0,.17l-.06.14h0Zm-1-.46a.26.26,0,0,0-.2.13.32.32,0,0,0-.06.23.31.31,0,0,0,.13.19.25.25,0,0,0,.22.05.32.32,0,0,0,.22-.12.32.32,0,0,0,0-.23.31.31,0,0,0-.13-.2A.28.28,0,0,0,37,19.69Z"/><path d="M37.36,18.5l.43.19-.06.13-.83-.36a.4.4,0,0,1-.24-.22.44.44,0,0,1,0-.32.43.43,0,0,1,.22-.2.41.41,0,0,1,.31,0,.35.35,0,0,1,.21.22.48.48,0,0,1,0,.24s0,0,0,0h.1l.52-.12-.07.17-.62.15h-.06s0,0,0,0,0,0,0,0l0,0ZM36.81,18a.24.24,0,0,0,.13.32.25.25,0,0,0,.19,0,.26.26,0,0,0,.13-.14.17.17,0,0,0,0-.17.23.23,0,0,0-.14-.13.2.2,0,0,0-.17,0A.18.18,0,0,0,36.81,18Z"/><path d="M38.23,17.37l-.87-1,.46-.4.1.12-.27.24h0a.09.09,0,0,0,0,.05,0,0,0,0,0,0,0h0l.15.18s0,0,0,0,0,0,0,0l0,0,.26-.22.1.12-.26.23,0,0s0,0,0,0l0,0h0l.21.25.05,0h0s0,0,0,0l.3-.26.12.13Z"/><path d="M39.51,16.48l-.14,0L39,15.24l.86.56.06,0h0v0s0-.05,0-.07v-.05L39.75,15l.15,0,.37,1.29-.88-.57,0,0h0s0,0,0,.06l0,0Z"/><path d="M40.9,16.26,41.28,15h.14l0,0a.73.73,0,0,1,.43.31.64.64,0,0,1,.07.52.66.66,0,0,1-.39.45.74.74,0,0,1-.44,0Zm.23-.16s0,.07.07.09a.48.48,0,0,0,.32-.05.54.54,0,0,0,.28-.33.49.49,0,0,0-.07-.4.53.53,0,0,0-.25-.21s-.08,0-.09,0Z"/><path d="M42.8,16.69l-.25.26-.12-.12.63-.63a.43.43,0,0,1,.31-.14.41.41,0,0,1,.43.43.4.4,0,0,1-.13.31l-.63.64-.11-.12.23-.23,0,0,0,0a0,0,0,0,0,0,0l0,0,0,0-.25-.25,0,0h0s0,0,0,0Zm.63.12.13-.13a.29.29,0,0,0,.08-.19.23.23,0,0,0-.08-.2.22.22,0,0,0-.19-.06.32.32,0,0,0-.2.1l-.12.11,0,0a0,0,0,0,0,0,0s0,0,0,0l0,0,.22.22,0,0,0,0h.06l0,0Z"/><path d="M44.53,18.17a.26.26,0,0,0,.07-.1.14.14,0,0,0,0-.09.2.2,0,0,0-.09-.11.23.23,0,0,0-.14,0c-.06,0-.1.08-.12.19a2.07,2.07,0,0,1,0,.3.41.41,0,0,1-.27.24.44.44,0,0,1-.3,0,.36.36,0,0,1-.18-.24.39.39,0,0,1,0-.26.46.46,0,0,1,.18-.21l.1.14a.2.2,0,0,0-.12.12.18.18,0,0,0,0,.16.27.27,0,0,0,.11.15.23.23,0,0,0,.18,0,.27.27,0,0,0,.19-.21l0-.3a.28.28,0,0,1,.21-.21.33.33,0,0,1,.26,0,.32.32,0,0,1,.16.21.31.31,0,0,1,0,.19.29.29,0,0,1-.12.15Z"/><path d="M43.63,19.74l1.31.26v.18a.71.71,0,0,1-.28.46.59.59,0,0,1-.51.12.64.64,0,0,1-.48-.35.67.67,0,0,1-.06-.44Zm.18.22s-.07,0-.08.07a.45.45,0,0,0,.08.32.49.49,0,0,0,.35.24.46.46,0,0,0,.39-.11.43.43,0,0,0,.18-.26s0-.08,0-.09Z"/><path d="M42.67,21.67a.64.64,0,0,1,.19-.47.65.65,0,0,1,.48-.19.61.61,0,0,1,.47.2.68.68,0,0,1,.19.47.65.65,0,0,1-.2.47.64.64,0,0,1-.47.19.61.61,0,0,1-.47-.2A.64.64,0,0,1,42.67,21.67Zm.67-.51a.51.51,0,0,0-.37.15.5.5,0,0,0-.15.37A.49.49,0,0,0,43,22a.51.51,0,0,0,.37.15.51.51,0,0,0,.51-.51.5.5,0,0,0-.15-.37A.49.49,0,0,0,43.34,21.16Z"/><path d="M41.5,21.92l.28,1.3-.18,0-.23-1.08s0,0,0-.05h-.07l-.36.08,0-.16Z"/><path d="M40.14,22.4l.09-.35.16,0-.23.87a.43.43,0,0,1-.2.27.42.42,0,0,1-.33.05.44.44,0,0,1-.3-.54l.23-.87.15,0-.08.32v.05a.08.08,0,0,0,0,0,0,0,0,0,0,0,0l0,0h0l.33.09h.07s0,0,0,0Zm-.6.21,0,.18a.3.3,0,0,0,0,.21.26.26,0,0,0,.17.13.24.24,0,0,0,.2,0A.35.35,0,0,0,40,22.9l0-.16v0a0,0,0,0,0,0,0s0,0,0,0l0,0-.31-.08h-.09l0,0s0,0,0,0Z"/><path d="M38.65,21.92l.31-.34.11.1-.6.67a.46.46,0,0,1-.29.15.38.38,0,0,1-.3-.1.34.34,0,0,1-.12-.27.38.38,0,0,1,.1-.29.35.35,0,0,1,.28-.13.43.43,0,0,1,.23.07h0a0,0,0,0,0,0,0s0,0,0-.06l.06-.54.13.12-.05.64a.35.35,0,0,1,0,.06s0,0,0,0h0l0,0Zm-.67.36a.2.2,0,0,0,.18.06.25.25,0,0,0,.17-.08.28.28,0,0,0,.06-.18.22.22,0,0,0-.09-.17.2.2,0,0,0-.17-.05A.26.26,0,0,0,38,22a.27.27,0,0,0-.06.17A.19.19,0,0,0,38,22.28Z"/><circle cx="37.63" cy="21.14" r="0.24"/><circle cx="42.2" cy="22.36" r="0.24"/><circle cx="44.33" cy="19.13" r="0.24"/><path class="cls-14" d="M10.66,75.54a12.31,12.31,0,0,1,12,9.62C28,70.34,35.1,53.69,37.53,48.1h0A3.47,3.47,0,0,0,33,50L28,62.57a4.91,4.91,0,0,1-6.45,2.71h0a5.36,5.36,0,0,1-2.5-6.8l5.12-11.95a3.65,3.65,0,0,0-1.95-4.81h0A325,325,0,0,1,5.35,76.5c-.07.11-.13.22-.19.33A12.37,12.37,0,0,1,10.66,75.54Z"/><path class="cls-15" d="M30.08,34.75h0l-2.75,6.68a3.87,3.87,0,0,0,2.1,5.06h0a3.88,3.88,0,0,0,5.07-2.1l2.75-6.69h0A18.5,18.5,0,0,1,30.08,34.75Z"/></svg>