<?xml version="1.0" encoding="utf-8"?>
<!-- Generator: Adobe Illustrator 22.0.0, SVG Export Plug-In . SVG Version: 6.00 Build 0)  -->
<svg version="1.1" xmlns="http://www.w3.org/2000/svg" xmlns:xlink="http://www.w3.org/1999/xlink" x="0px" y="0px"
	 viewBox="0 0 1000 1000" style="enable-background:new 0 0 1000 1000;" xml:space="preserve">
<style type="text/css">
	.st0{display:none;}
	.st1{display:inline;fill:#FBB03B;}
	.st2{display:inline;}
	.st3{fill:#EDEDED;}
	.st4{display:inline;fill:#178C7E;}
	.st5{fill:#FBB03B;}
	.st6{fill:#E8E8E8;}
	.st7{fill:none;stroke:#178C7E;stroke-miterlimit:10;}
	.st8{fill:#178C7E;}
	.st9{display:inline;fill:#E8E8E8;}
	.st10{display:inline;fill:#0D5151;}
	.st11{display:none;fill:none;}
	.st12{fill:none;}
	.st13{fill:#0D5151;}
</style>
<g id="Layer_1" class="st0">
	<path class="st1" d="M560.5,245.2H0v244.2h525.7c19.2,0,34.8-15.6,34.8-34.8V245.2z"/>
	<g class="st2">
		<path class="st3" d="M560.5,245.2H0V1h525.7c19.2,0,34.8,15.6,34.8,34.8V245.2z"/>
	</g>
	<path class="st4" d="M439.5,754.9H1000V999H474.3c-19.2,0-34.8-15.6-34.8-34.8V754.9z"/>
	<g class="st2">
		<path class="st3" d="M439.5,754.9H1000V510.7H474.3c-19.2,0-34.8,15.6-34.8,34.8V754.9z"/>
	</g>
	<g class="st2">
		<g>
			<path class="st5" d="M179.3,109.5c0.5,0,1,0.2,1.2,0.7l0.1,0.1c0.2,0.3,0.3,0.7,0.2,1.2c-0.1,0.4-0.3,0.8-0.7,1
				c-7.8,5-16.8,7.6-26.1,7.6c-9,0-17.7-2.5-25.4-7.2c-0.4-0.2-0.6-0.6-0.7-1c-0.1-0.4,0-0.8,0.2-1.2c0.3-0.4,0.7-0.7,1.2-0.7
				c0.3,0,0.5,0.1,0.8,0.2c7.1,4.4,15.3,6.7,23.7,6.7c8.7,0,17.2-2.5,24.5-7.2C178.8,109.6,179,109.5,179.3,109.5 M179.3,109
				c-0.4,0-0.7,0.1-1.1,0.3c-7,4.5-15.3,7.2-24.2,7.2c-8.6,0-16.6-2.4-23.4-6.6c-0.3-0.2-0.7-0.3-1-0.3c-0.6,0-1.3,0.3-1.7,0.9v0
				c-0.6,0.9-0.4,2.2,0.6,2.8c7.4,4.6,16.2,7.3,25.6,7.3c9.7,0,18.7-2.8,26.3-7.7c1-0.6,1.2-1.9,0.6-2.8l-0.1-0.1
				C180.6,109.3,180,109,179.3,109L179.3,109z"/>
		</g>
		<g>
			<path class="st5" d="M154.2,23.5c0.8,0,1.5,0,2.3,0.1c12,0.6,23.3,5.6,31.8,14.1c8.6,8.6,13.6,19.8,14.1,31.8
				c0.6,13.2-4,25.7-13,35.3l-0.3,0.3l0.2,0.3l19.9,29.2l0.2,0.3l0.3-0.1c2.6-0.4,5.3-0.6,7.9-0.6c26.6,0,48.3,21.7,48.3,48.3
				c0,26.6-21.7,48.3-48.3,48.3c-0.2,0-0.5,0-0.8,0c-12.5-0.2-24.2-5.2-33.2-14c-8.9-8.9-14-20.6-14.3-33c-0.5-20,11.6-38.4,30.1-46
				c0.3,0.7,0.4,1.5,0.2,2.2c-0.2,0.9-0.9,1.6-1.7,2c-16,7.7-26,24.1-25.6,41.9c0.6,23,20.5,43,43.5,43.8c0.5,0,1.1,0,1.6,0
				c12.2,0,23.7-4.8,32.2-13.6c8.5-8.7,13.1-20.3,12.8-32.5c-0.5-23.4-19.3-42.7-42.6-44c-0.8,0-1.6-0.1-2.4-0.1c-3,0-6,0.3-8.9,0.9
				l-23.3-34.1c8.9-8.6,13.8-20.1,13.8-32.5c0-24.8-20.2-45.1-45.1-45.1c-0.6,0-1.2,0-1.8,0c-23.3,0.9-42.3,19.9-43.2,43.2
				c-0.5,13.3,4.8,26.1,14.6,35l-22.7,33.2c-2.7-0.5-5.5-0.8-8.3-0.8c-24.8,0-45.1,20.2-45.1,45.1s20.2,45.1,45.1,45.1
				c0.6,0,1.2,0,1.8,0c23-0.9,41.9-19.6,43.2-42.5c1-18.5-9.2-35.5-25.9-43.4c-0.9-0.4-1.5-1.2-1.8-2.1c-0.2-0.8-0.1-1.6,0.2-2.3
				c18.5,7.1,30.9,25.2,30.9,45c0,26.6-21.7,48.3-48.3,48.3c-0.8,0-1.5,0-2.3-0.1c-12-0.6-23.3-5.6-31.8-14.1S45,196.8,44.4,184.8
				c-0.6-13.3,4.1-26,13.3-35.6c9.2-9.6,21.6-14.9,34.9-14.9c2.4,0,4.7,0.2,7.1,0.5l0.3,0l0.2-0.3l19.4-28.5l0.2-0.3l-0.3-0.3
				c-8.8-9.1-13.7-21-13.7-33.7c0-12.9,5-25,14.1-34.1C129.2,28.5,141.3,23.5,154.2,23.5 M154.2,23c-26.9,0-48.8,21.8-48.8,48.8
				c0,13.2,5.3,25.2,13.8,34l-19.4,28.5c-2.3-0.3-4.7-0.5-7.2-0.5c-27.7,0-50,23.1-48.7,51.1c1.1,25,21.4,45.3,46.4,46.4
				c0.8,0,1.5,0.1,2.3,0.1c26.9,0,48.8-21.8,48.8-48.8c0-20.9-13.1-38.7-31.6-45.7c-1.3,1.9-0.5,4.4,1.5,5.4
				c15.9,7.4,26.7,23.9,25.7,42.9c-1.2,22.8-19.9,41.1-42.7,42c-0.6,0-1.2,0-1.8,0c-24.6,0-44.6-20-44.6-44.6
				c0-24.6,20-44.6,44.6-44.6c2.9,0,5.8,0.3,8.5,0.8l23.2-33.9c-9.5-8.5-15.3-21.1-14.7-34.9c0.9-23,19.7-41.8,42.7-42.7
				c0.6,0,1.2,0,1.8,0c24.6,0,44.6,20,44.6,44.6c0,12.8-5.4,24.3-14,32.4l23.7,34.7c2.9-0.6,6-0.9,9.1-0.9c0.8,0,1.6,0,2.4,0.1
				c23.1,1.2,41.7,20.3,42.2,43.5c0.6,25.1-19.6,45.6-44.5,45.6c-0.5,0-1,0-1.6,0c-22.7-0.8-42.4-20.6-43-43.3
				c-0.5-18.2,10-34.1,25.3-41.4c2-1,2.7-3.5,1.5-5.3h0c-18.4,7.3-31.4,25.5-30.8,46.6c0.6,26,22,47.2,48,47.5c0.3,0,0.5,0,0.8,0
				c26.9,0,48.8-21.8,48.8-48.8c0-26.9-21.8-48.8-48.8-48.8c-2.7,0-5.4,0.2-8,0.7l-19.9-29.2c8.7-9.2,13.8-21.9,13.2-35.7
				c-1.2-25-21.4-45.2-46.4-46.4C155.7,23,154.9,23,154.2,23L154.2,23z"/>
		</g>
	</g>
	<g class="st2">
		<g>
			<path class="st5" d="M395.4,116.5c-8.6,0-16.6-2.4-23.4-6.6c-0.9-0.6-2.1-0.3-2.7,0.6v0c-0.6,0.9-0.4,2.2,0.6,2.8
				c7.4,4.6,16.2,7.3,25.6,7.3c9.7,0,18.7-2.8,26.3-7.7c1-0.6,1.2-1.9,0.6-2.8l-0.1-0.1c-0.6-0.9-1.8-1.1-2.7-0.6
				C412.7,113.8,404.4,116.5,395.4,116.5z"/>
		</g>
		<g>
			<path class="st5" d="M459,133.7c-2.7,0-5.4,0.2-8,0.7l-19.9-29.2c8.7-9.2,13.8-21.9,13.2-35.7c-1.2-25-21.4-45.2-46.4-46.4
				c-28-1.3-51.1,21-51.1,48.7c0,13.2,5.3,25.2,13.8,34l-19.4,28.5c-2.3-0.3-4.7-0.5-7.2-0.5c-27.7,0-50,23.1-48.7,51.1
				c1.1,25,21.4,45.3,46.4,46.4c28,1.3,51.1-21,51.1-48.7c0-20.9-13.1-38.7-31.6-45.7l0,0c-1.3,1.9-0.5,4.4,1.5,5.4
				c15.9,7.4,26.7,23.9,25.7,42.9c-1.2,22.8-19.9,41.1-42.7,42c-25.4,1-46.4-19.3-46.4-44.5c0-24.6,20-44.6,44.6-44.6
				c2.9,0,5.8,0.3,8.5,0.8l23.2-33.9c-9.5-8.5-15.3-21.1-14.7-34.9c0.9-23,19.7-41.8,42.7-42.7c25.4-1,46.4,19.3,46.4,44.5
				c0,12.8-5.4,24.3-14,32.4l23.7,34.7c3.7-0.8,7.5-1.1,11.5-0.9c23.1,1.2,41.7,20.3,42.2,43.5c0.6,25.6-20.5,46.5-46.1,45.6
				c-22.7-0.8-42.4-20.6-43-43.3c-0.5-18.2,10-34.1,25.3-41.4c2-1,2.7-3.5,1.5-5.3v0c-18.4,7.3-31.4,25.5-30.8,46.6
				c0.6,26,22,47.2,48,47.5c27.3,0.4,49.5-21.6,49.5-48.8C507.8,155.6,485.9,133.7,459,133.7z"/>
		</g>
	</g>
	<g class="st2">
		<g>
			<path class="st6" d="M179.3,353.7c0.5,0,1,0.2,1.2,0.7l0.1,0.1c0.2,0.3,0.3,0.7,0.2,1.2c-0.1,0.4-0.3,0.8-0.7,1
				c-7.8,5-16.8,7.6-26.1,7.6c-9,0-17.7-2.5-25.4-7.2c-0.4-0.2-0.6-0.6-0.7-1c-0.1-0.4,0-0.8,0.2-1.2c0.3-0.4,0.7-0.7,1.2-0.7
				c0.3,0,0.5,0.1,0.8,0.2c7.1,4.4,15.3,6.7,23.7,6.7c8.7,0,17.2-2.5,24.5-7.2C178.8,353.7,179,353.7,179.3,353.7 M179.3,353.2
				c-0.4,0-0.7,0.1-1.1,0.3c-7,4.5-15.3,7.2-24.2,7.2c-8.6,0-16.6-2.4-23.4-6.6c-0.3-0.2-0.7-0.3-1-0.3c-0.6,0-1.3,0.3-1.7,0.9
				c-0.6,0.9-0.4,2.2,0.6,2.8c7.4,4.6,16.2,7.3,25.6,7.3c9.7,0,18.7-2.8,26.3-7.7c1-0.6,1.2-1.9,0.6-2.8L181,354
				C180.6,353.5,180,353.2,179.3,353.2L179.3,353.2z"/>
		</g>
		<g>
			<path class="st6" d="M154.2,267.7c0.8,0,1.5,0,2.3,0.1c12,0.6,23.3,5.6,31.8,14.1c8.6,8.6,13.6,19.8,14.1,31.8
				c0.6,13.2-4,25.7-13,35.3l-0.3,0.3l0.2,0.3l19.9,29.2l0.2,0.3l0.3-0.1c2.6-0.4,5.3-0.6,7.9-0.6c26.6,0,48.3,21.7,48.3,48.3
				S244.2,475,217.6,475c-0.2,0-0.5,0-0.8,0c-12.5-0.2-24.2-5.2-33.2-14c-8.9-8.9-14-20.6-14.3-33c-0.5-20,11.6-38.4,30.1-46
				c0.3,0.7,0.4,1.5,0.2,2.2c-0.2,0.9-0.9,1.6-1.7,2c-16,7.7-26,24.1-25.6,41.9c0.6,23,20.5,43,43.5,43.8c0.5,0,1.1,0,1.6,0
				c12.2,0,23.7-4.8,32.2-13.6c8.5-8.7,13.1-20.3,12.8-32.5c-0.5-23.4-19.3-42.7-42.6-44c-0.8,0-1.6-0.1-2.4-0.1c-3,0-6,0.3-8.9,0.9
				l-23.3-34.1c8.9-8.6,13.8-20.1,13.8-32.5c0-24.8-20.2-45.1-45.1-45.1c-0.6,0-1.2,0-1.8,0c-23.3,0.9-42.3,19.9-43.2,43.2
				c-0.5,13.3,4.8,26.1,14.6,35l-22.7,33.2c-2.7-0.5-5.5-0.8-8.3-0.8c-24.8,0-45.1,20.2-45.1,45.1s20.2,45.1,45.1,45.1
				c0.6,0,1.2,0,1.8,0c23-0.9,41.9-19.6,43.2-42.5c1-18.5-9.2-35.5-25.9-43.4c-0.9-0.4-1.5-1.2-1.8-2.1c-0.2-0.8-0.1-1.6,0.2-2.3
				c18.5,7.1,30.9,25.2,30.9,45c0,26.6-21.7,48.3-48.3,48.3c-0.8,0-1.5,0-2.3-0.1c-12-0.6-23.3-5.6-31.8-14.1
				C50,452.2,45,440.9,44.4,429c-0.6-13.3,4.1-26,13.3-35.6c9.2-9.6,21.6-14.9,34.9-14.9c2.4,0,4.7,0.2,7.1,0.5l0.3,0l0.2-0.3
				l19.4-28.5l0.2-0.3l-0.3-0.3c-8.8-9.1-13.7-21-13.7-33.7c0-12.9,5-25,14.1-34.1C129.2,272.7,141.3,267.7,154.2,267.7
				 M154.2,267.2c-26.9,0-48.8,21.8-48.8,48.8c0,13.2,5.3,25.2,13.8,34l-19.4,28.5c-2.3-0.3-4.7-0.5-7.2-0.5
				c-27.7,0-50,23.1-48.7,51.1c1.1,25,21.4,45.3,46.4,46.4c0.8,0,1.5,0.1,2.3,0.1c26.9,0,48.8-21.8,48.8-48.8
				c0-20.9-13.1-38.7-31.6-45.7v0c-1.3,1.9-0.5,4.4,1.5,5.4c15.9,7.4,26.7,23.9,25.7,42.9c-1.2,22.8-19.9,41.1-42.7,42
				c-0.6,0-1.2,0-1.8,0c-24.6,0-44.6-20-44.6-44.6c0-24.6,20-44.6,44.6-44.6c2.9,0,5.8,0.3,8.5,0.8l23.2-33.9
				c-9.5-8.5-15.3-21.1-14.7-34.9c0.9-23,19.7-41.8,42.7-42.7c0.6,0,1.2,0,1.8,0c24.6,0,44.6,20,44.6,44.6c0,12.8-5.4,24.3-14,32.4
				l23.7,34.7c2.9-0.6,6-0.9,9.1-0.9c0.8,0,1.6,0,2.4,0.1c23.1,1.2,41.7,20.3,42.2,43.5c0.6,25.1-19.6,45.6-44.5,45.6
				c-0.5,0-1,0-1.6,0c-22.7-0.8-42.4-20.6-43-43.3c-0.5-18.2,10-34.1,25.3-41.4c2-1,2.7-3.5,1.5-5.3h0
				c-18.4,7.3-31.4,25.5-30.8,46.6c0.6,26,22,47.2,48,47.5c0.3,0,0.5,0,0.8,0c26.9,0,48.8-21.8,48.8-48.8
				c0-26.9-21.8-48.8-48.8-48.8c-2.7,0-5.4,0.2-8,0.7l-19.9-29.2c8.7-9.2,13.8-21.9,13.2-35.7c-1.2-25-21.4-45.2-46.4-46.4
				C155.7,267.2,154.9,267.2,154.2,267.2L154.2,267.2z"/>
		</g>
	</g>
	<g class="st2">
		<g>
			<path class="st6" d="M395.4,360.6c-8.6,0-16.6-2.4-23.4-6.6c-0.9-0.6-2.1-0.3-2.7,0.6l0,0c-0.6,0.9-0.4,2.2,0.6,2.8
				c7.4,4.6,16.2,7.3,25.6,7.3c9.7,0,18.7-2.8,26.3-7.7c1-0.6,1.2-1.9,0.6-2.8l-0.1-0.1c-0.6-0.9-1.8-1.1-2.7-0.6
				C412.7,358,404.4,360.6,395.4,360.6z"/>
		</g>
		<g>
			<path class="st6" d="M459,377.9c-2.7,0-5.4,0.2-8,0.7l-19.9-29.2c8.7-9.2,13.8-21.9,13.2-35.7c-1.2-25-21.4-45.2-46.4-46.4
				c-28-1.3-51.1,21-51.1,48.7c0,13.2,5.3,25.2,13.8,34l-19.4,28.5c-2.3-0.3-4.7-0.5-7.2-0.5c-27.7,0-50,23.1-48.7,51.1
				c1.1,25,21.4,45.3,46.4,46.4c28,1.3,51.1-21,51.1-48.7c0-20.9-13.1-38.7-31.6-45.7v0c-1.3,1.9-0.5,4.4,1.5,5.4
				c15.9,7.4,26.7,23.9,25.7,42.9c-1.2,22.8-19.9,41.1-42.7,42c-25.4,1-46.4-19.3-46.4-44.5c0-24.6,20-44.6,44.6-44.6
				c2.9,0,5.8,0.3,8.5,0.8l23.2-33.9c-9.5-8.5-15.3-21.1-14.7-34.9c0.9-23,19.7-41.8,42.7-42.7c25.4-1,46.4,19.3,46.4,44.5
				c0,12.8-5.4,24.3-14,32.4l23.7,34.7c3.7-0.8,7.5-1.1,11.5-0.9c23.1,1.2,41.7,20.3,42.2,43.5c0.6,25.6-20.5,46.5-46.1,45.6
				c-22.7-0.8-42.4-20.6-43-43.3c-0.5-18.2,10-34.1,25.3-41.4c2-1,2.7-3.5,1.5-5.3l0,0c-18.4,7.3-31.4,25.5-30.8,46.6
				c0.6,26,22,47.2,48,47.5c27.3,0.4,49.5-21.6,49.5-48.8C507.8,399.7,485.9,377.9,459,377.9z"/>
		</g>
	</g>
	<g class="st2">
		<path class="st7" d="M617.8,535.9c-53.6,1.3-96.9,45.7-96.9,99.3c0,49.1,35.6,89.8,82.4,97.8c3.1,0.5,6-1.9,6-5v-2.7
			c-45.9-5.5-81.3-45.2-79.9-92.9c1.4-46.9,39-85.4,85.8-87.8c52.3-2.8,95.7,38.9,95.7,90.6c0,48.7-38.3,88.4-86.4,90.6v-3.3v-5.9
			v-0.8c-1.4,0.1-2.9,0.1-4.3,0.1c-45.9,0-82.8-38.2-80.7-84.6c1.9-41.4,35.5-75,76.9-76.9c46.3-2.1,84.6,34.8,84.6,80.7
			c0,39.7-28.7,72.8-66.5,79.5c-1.7,0.3-2.8,1.7-2.8,3.4v4c43.7-5.7,77.2-43.4,76.2-88.8c-1-46.5-38.9-84.6-85.5-85.7
			c-49.4-1.2-89.8,38.5-89.8,87.6c0,47.1,37.2,85.5,83.8,87.5v3.1v7.3v1.2c1.3,0,2.6,0.1,3.9,0.1c54.8,0,99.3-44.4,99.3-99.3
			C719.4,579.5,673.7,534.5,617.8,535.9z"/>
		<path class="st7" d="M665.7,638.1c0-3.5-2.9-6.4-6.4-6.4h-32.1v-0.3c0-1.8-1.5-3.3-3.3-3.3h-0.2v-52.8h-0.6
			c-3.5,0-6.4,2.9-6.4,6.4v46.4h-0.2c-1.8,0-3.3,1.5-3.3,3.3v0.3h-11.9v0.6c0,3.5,2.9,6.4,6.4,6.4h5.4v0c0,1.8,1.5,3.3,3.3,3.3h0.2
			v10.8h0.6c3.5,0,6.4-2.9,6.4-6.4V642h0.2c1.8,0,3.3-1.5,3.3-3.3v0h38.5V638.1z"/>
	</g>
	<g class="st2">
		<path class="st8" d="M843.3,535.9c-53.6,1.3-96.9,45.7-96.9,99.3c0,49.1,35.6,89.8,82.4,97.8c3.1,0.5,6-1.9,6-5v-2.7
			c-45.9-5.5-81.3-45.2-79.9-92.9c1.4-46.9,39-85.4,85.8-87.8c52.3-2.8,95.7,38.9,95.7,90.6c0,48.7-38.3,88.4-86.4,90.6v-3.3v-5.9
			v-0.8c-1.4,0.1-2.9,0.1-4.3,0.1c-45.9,0-82.8-38.2-80.7-84.6c1.9-41.4,35.5-75,76.9-76.9c46.3-2.1,84.6,34.8,84.6,80.7
			c0,39.7-28.7,72.8-66.5,79.5c-1.7,0.3-2.8,1.7-2.8,3.4v4c43.7-5.7,77.2-43.4,76.2-88.8c-1-46.5-38.9-84.6-85.5-85.7
			c-49.4-1.2-89.8,38.5-89.8,87.6c0,47.1,37.2,85.5,83.8,87.5v3.1v7.3v1.2c1.3,0,2.6,0.1,3.9,0.1c54.8,0,99.3-44.4,99.3-99.3
			C945,579.5,899.2,534.5,843.3,535.9z"/>
		<path class="st8" d="M891.2,638.1c0-3.5-2.9-6.4-6.4-6.4h-32.1v-0.3c0-1.8-1.5-3.3-3.3-3.3h-0.2v-52.8h-0.6
			c-3.5,0-6.4,2.9-6.4,6.4v46.4H842c-1.8,0-3.3,1.5-3.3,3.3v0.3h-11.9v0.6c0,3.5,2.9,6.4,6.4,6.4h5.4v0c0,1.8,1.5,3.3,3.3,3.3h0.2
			v10.8h0.6c3.5,0,6.4-2.9,6.4-6.4V642h0.2c1.8,0,3.3-1.5,3.3-3.3v0h38.5V638.1z"/>
	</g>
	<g class="st2">
		<g>
			<path class="st3" d="M628.2,781.8c54.2,0,98.3,44.1,98.3,98.3c0,54.2-44.1,98.3-98.3,98.3c-1,0-2,0-2.9-0.1V978v-7.3v-3.1v-1
				l-1,0c-22.3-1-43.2-10.4-58.7-26.6c-15.6-16.2-24.1-37.5-24.1-60c0-23.1,9-44.9,25.4-61.3c16.4-16.4,38.1-25.4,61.3-25.4
				c0.7,0,1.4,0,2.1,0c22.3,0.5,43.3,9.6,59.1,25.5c15.9,15.9,24.9,36.9,25.4,59.2c0.5,21.6-7,42.4-21.1,58.7
				c-13.7,15.8-32.5,26.1-53.1,29V963c0-1.2,0.9-2.2,2-2.4c39-6.9,67.4-40.8,67.4-80.5c0-45.1-36.7-81.8-81.8-81.8
				c-1.3,0-2.6,0-3.9,0.1c-41.7,1.9-75.9,36.1-77.8,77.8c-1,22.6,7,44,22.5,60.3c15.6,16.3,36.6,25.3,59.1,25.3c1.1,0,2.2,0,3.3-0.1
				v5.7v3.3v1l1,0c49-2.3,87.4-42.6,87.4-91.6c0-50.6-41.2-91.8-91.8-91.8c-1.6,0-3.3,0-5,0.1c-47.2,2.5-85.3,41.5-86.8,88.8
				c-1.4,47.6,32.9,87.8,79.9,93.8v1.8c0,2.3-1.9,4.1-4.1,4.1c-0.2,0-0.5,0-0.7-0.1c-22.6-3.9-43.2-15.6-58.2-33.2
				c-15.1-17.7-23.4-40.3-23.4-63.6c0-25.7,9.9-50,28-68.6c18.1-18.6,42.2-29.1,67.8-29.7C626.6,781.8,627.4,781.8,628.2,781.8
				 M628.2,780.8c-0.8,0-1.6,0-2.4,0c-53.6,1.3-96.9,45.7-96.9,99.3c0,49.1,35.6,89.8,82.4,97.8c0.3,0.1,0.6,0.1,0.9,0.1
				c2.8,0,5.1-2.2,5.1-5.1v-2.7c-45.9-5.5-81.3-45.2-79.9-92.9c1.4-46.9,39-85.4,85.8-87.8c1.6-0.1,3.3-0.1,4.9-0.1
				c50.1,0,90.8,40.6,90.8,90.8c0,48.7-38.3,88.4-86.4,90.6v-3.3v-5.9v-0.8c-1.4,0.1-2.9,0.1-4.3,0.1c-45.9,0-82.8-38.2-80.7-84.6
				c1.9-41.4,35.5-75,76.9-76.9c1.3-0.1,2.6-0.1,3.8-0.1c44.6,0,80.8,36.2,80.8,80.8c0,39.7-28.7,72.8-66.5,79.5
				c-1.7,0.3-2.8,1.7-2.8,3.4v4c43.7-5.7,77.2-43.4,76.2-88.8c-1-46.5-38.9-84.6-85.5-85.7c-0.7,0-1.4,0-2.1,0
				c-48.4,0-87.6,39.2-87.6,87.6c0,47.1,37.2,85.5,83.8,87.5v3.1v7.3v1.2c1.3,0,2.6,0.1,3.9,0.1c54.8,0,99.3-44.4,99.3-99.3
				C727.4,825.3,683,780.8,628.2,780.8L628.2,780.8z"/>
		</g>
		<g>
			<path class="st3" d="M630.7,821.4v51.8v1h1h0.2c1.2,0,2.3,1,2.3,2.3v0.3v1h1h32.1c2.9,0,5.2,2.2,5.4,5h-37.5l-1,0v1
				c0,1.2-1,2.3-2.3,2.3h-0.2h-1v1v4.4c0,2.9-2.2,5.2-5,5.4V887v-1h-1h-0.2c-1.2,0-2.3-1-2.3-2.3v-1h-1h-5.4c-2.9,0-5.2-2.2-5.4-5
				h10.8h1v-1v-0.3c0-1.2,1-2.3,2.3-2.3h0.2h1v-1v-46.4C625.7,823.9,627.9,821.5,630.7,821.4 M631.7,820.3h-0.6
				c-3.5,0-6.4,2.9-6.4,6.4v46.4h-0.2c-1.8,0-3.3,1.5-3.3,3.3v0.3h-11.9v0.6c0,3.5,2.9,6.4,6.4,6.4h5.4v0c0,1.8,1.5,3.3,3.3,3.3h0.2
				v10.8h0.6c3.5,0,6.4-2.9,6.4-6.4V887h0.2c1.8,0,3.3-1.5,3.3-3.3v0h38.5v-0.6c0-3.5-2.9-6.4-6.4-6.4h-32.1v-0.3
				c0-1.8-1.5-3.3-3.3-3.3h-0.2V820.3L631.7,820.3z"/>
		</g>
	</g>
	<g class="st2">
		<g>
			<path class="st3" d="M851.3,780.9c-53.6,1.3-96.9,45.7-96.9,99.3c0,49.1,35.6,89.8,82.4,97.8c3.1,0.5,6-1.9,6-5v-2.7
				c-45.9-5.5-81.3-45.2-79.9-92.9c1.4-46.9,39-85.4,85.8-87.8c52.3-2.8,95.7,38.9,95.7,90.6c0,48.7-38.3,88.4-86.4,90.6v-3.3v-5.9
				v-0.8c-1.4,0.1-2.9,0.1-4.3,0.1c-45.9,0-82.8-38.2-80.7-84.6c1.9-41.4,35.5-75,76.9-76.9c46.3-2.1,84.6,34.8,84.6,80.7
				c0,39.7-28.7,72.8-66.5,79.5c-1.7,0.3-2.8,1.7-2.8,3.4v4c43.7-5.7,77.2-43.4,76.2-88.8c-1-46.5-38.9-84.6-85.5-85.7
				c-49.4-1.2-89.8,38.5-89.8,87.6c0,47.1,37.2,85.5,83.8,87.5v3.1v7.3v1.2c1.3,0,2.6,0.1,3.9,0.1c54.8,0,99.3-44.4,99.3-99.3
				C953,824.5,907.2,779.5,851.3,780.9z"/>
		</g>
		<g>
			<path class="st3" d="M899.2,883.1c0-3.5-2.9-6.4-6.4-6.4h-32.1v-0.3c0-1.8-1.5-3.3-3.3-3.3h-0.2v-52.8h-0.6
				c-3.5,0-6.4,2.9-6.4,6.4v46.4H850c-1.8,0-3.3,1.5-3.3,3.3v0.3h-11.9v0.6c0,3.5,2.9,6.4,6.4,6.4h5.4v0c0,1.8,1.5,3.3,3.3,3.3h0.2
				v10.8h0.6c3.5,0,6.4-2.9,6.4-6.4V887h0.2c1.8,0,3.3-1.5,3.3-3.3v0h38.5V883.1z"/>
		</g>
	</g>
</g>
<g id="HIERARQUIA" class="st0">
	<g>
		<g class="st2">
			<path class="st5" d="M494.3,462.2c-37,0-71.6-10.5-101-28.6c-3.9-2.4-9-1.3-11.7,2.5l0,0c-2.8,4.1-1.6,9.7,2.6,12.3
				c32.1,19.9,70,31.5,110.6,31.5c41.9,0,80.8-12.3,113.6-33.4c4.1-2.7,5.3-8.2,2.5-12.2l-0.4-0.6c-2.6-3.9-7.9-4.9-11.8-2.4
				C568.7,450.8,532.8,462.2,494.3,462.2z"/>
		</g>
		<g class="st2">
			<path class="st5" d="M768.5,536.6c-11.7,0-23.1,1-34.3,2.8l-85.9-126.1c37.5-39.9,59.6-94.4,56.8-154.1
				C700.1,151.5,612.7,64,504.9,59c-120.8-5.6-220.5,90.7-220.5,210.3c0,57.1,22.8,108.9,59.7,146.8l-83.6,122.8
				c-10.1-1.5-20.4-2.3-31-2.3c-119.6,0-215.8,99.7-210.3,220.4c5,107.8,92.5,195.4,200.3,200.3C340.3,963,440,866.7,440,747.1
				c0-90.2-56.7-167-136.4-197l0,0c-5.6,8.1-2.4,19.1,6.6,23.3c68.6,32,115.2,103.3,110.7,185C415.6,856.8,335,936,236.6,939.8
				c-109.7,4.3-200-83.4-200-192.1c0-106.2,86.1-192.3,192.3-192.3c12.6,0,24.8,1.2,36.7,3.5l100-146.2
				c-40.9-36.8-65.9-90.9-63.5-150.8c4-99.4,84.8-180.3,184.3-184.3c109.8-4.4,200.2,83.3,200.2,192.1c0,55.1-23.2,104.8-60.4,139.8
				l102.4,149.7c15.9-3.3,32.5-4.7,49.5-3.8c99.8,5.2,179.7,87.7,182,187.6c2.5,110.5-88.2,200.5-199,196.6
				c-98-3.4-182.8-89-185.4-187c-2.1-78.6,43.1-147,109.1-178.7c8.7-4.2,11.7-15,6.3-22.9l0,0c-79.5,31.4-135.3,109.9-133.1,201.1
				c2.8,112.2,94.9,203.5,207.2,205.2C883,959.4,979,864.5,979,747.1C979,630.9,884.8,536.6,768.5,536.6z"/>
		</g>
	</g>
	<g class="st2">
		<g>
			<path class="st6" d="M494.3,462.2c-37,0-71.6-10.5-101-28.6c-3.9-2.4-9-1.3-11.7,2.5l0,0c-2.8,4.1-1.6,9.7,2.6,12.3
				c32.1,19.9,70,31.5,110.6,31.5c41.9,0,80.8-12.3,113.6-33.4c4.1-2.7,5.3-8.2,2.5-12.2l-0.4-0.6c-2.6-3.9-7.9-4.9-11.8-2.4
				C568.7,450.8,532.8,462.2,494.3,462.2z"/>
		</g>
		<g>
			<path class="st6" d="M768.5,536.6c-11.7,0-23.1,1-34.3,2.8l-85.9-126.1c37.5-39.9,59.6-94.4,56.8-154.1
				C700.1,151.5,612.7,64,504.9,59c-120.8-5.6-220.5,90.7-220.5,210.3c0,57.1,22.8,108.9,59.7,146.8l-83.6,122.8
				c-10.1-1.5-20.4-2.3-31-2.3c-119.6,0-215.8,99.7-210.3,220.4c5,107.8,92.5,195.4,200.3,200.3C340.3,963,440,866.7,440,747.1
				c0-90.2-56.7-167-136.4-197l0,0c-5.6,8.1-2.4,19.1,6.6,23.3c68.6,32,115.2,103.3,110.7,185C415.6,856.8,335,936,236.6,939.8
				c-109.7,4.3-200-83.4-200-192.1c0-106.2,86.1-192.3,192.3-192.3c12.6,0,24.8,1.2,36.7,3.5l100-146.2
				c-40.9-36.8-65.9-90.9-63.5-150.8c4-99.4,84.8-180.3,184.3-184.3c109.8-4.4,200.2,83.3,200.2,192.1c0,55.1-23.2,104.8-60.4,139.8
				l102.4,149.7c15.9-3.3,32.5-4.7,49.5-3.8c99.8,5.2,179.7,87.7,182,187.6c2.5,110.5-88.2,200.5-199,196.6
				c-98-3.4-182.8-89-185.4-187c-2.1-78.6,43.1-147,109.1-178.7c8.7-4.2,11.7-15,6.3-22.9l0,0c-79.5,31.4-135.3,109.9-133.1,201.1
				c2.8,112.2,94.9,203.5,207.2,205.2C883,959.4,979,864.5,979,747.1C979,630.9,884.8,536.6,768.5,536.6z"/>
		</g>
	</g>
</g>
<g id="RELOGIO" class="st0">
	<g class="st2">
		<path class="st8" d="M488.6,80c-231.3,5.5-418.1,197.1-418,428.5c0.1,211.7,153.8,387.4,355.7,421.9c13.5,2.3,25.9-8,25.9-21.7
			V897C254.2,873.4,101.4,702,107.6,496.2c6.1-202.3,168.1-368.4,370.3-379c225.9-11.9,412.8,167.8,412.8,391.1
			c0,210-165.3,381.4-372.9,391.1v-14.2v-25.3v-3.6c-6.2,0.3-12.4,0.5-18.7,0.5c-197.9,0-357.3-165-348.1-365
			c8.2-178.5,153.1-323.5,331.7-331.7c200-9.2,365,150.2,365,348.1c0,171.5-123.9,314-287.1,343c-7.1,1.3-12.3,7.5-12.3,14.8v17.1
			c188.4-24.5,333.3-187.4,329-383.4C872.7,298.9,709,134.9,508.2,130.1c-213.1-5.1-387.4,166.2-387.4,378.1
			c0,203.2,160.3,369,361.4,377.8v13.4v31.4v5.4c5.6,0.2,11.1,0.4,16.8,0.4c236.6,0,428.4-191.8,428.4-428.4
			C927.4,268.2,729.9,74.3,488.6,80z"/>
		<path class="st8" d="M695.3,521.3c0-15.3-12.4-27.6-27.6-27.6H529v-1.4c0-7.8-6.3-14.1-14.1-14.1h-0.7V250.4h-2.7
			c-15.3,0-27.7,12.4-27.7,27.7v200.2h-0.7c-7.8,0-14.1,6.3-14.1,14.1v1.4h-51.1v2.7c0,15.3,12.4,27.7,27.7,27.7H469v0
			c0,7.8,6.3,14.1,14.1,14.1h0.7v46.8h2.8c15.3,0,27.6-12.4,27.6-27.6v-19.1h0.7c7.8,0,14.1-6.3,14.1-14.1v0h166.3V521.3z"/>
	</g>
	<g class="st2">
		<g>
			<path class="st3" d="M488.6,80c-231.3,5.5-418.1,197.1-418,428.5c0.1,211.7,153.8,387.4,355.7,421.9c13.5,2.3,25.9-8,25.9-21.7
				V897C254.2,873.4,101.4,702,107.6,496.2c6.1-202.3,168.1-368.4,370.3-379c225.9-11.9,412.8,167.8,412.8,391.1
				c0,210-165.3,381.4-372.9,391.1v-14.2v-25.3v-3.6c-6.2,0.3-12.4,0.5-18.7,0.5c-197.9,0-357.3-165-348.1-365
				c8.2-178.5,153.1-323.5,331.7-331.7c200-9.2,365,150.2,365,348.1c0,171.5-123.9,314-287.1,343c-7.1,1.3-12.3,7.5-12.3,14.8v17.1
				c188.4-24.5,333.3-187.4,329-383.4C872.7,298.9,709,134.9,508.2,130.1c-213.1-5.1-387.4,166.2-387.4,378.1
				c0,203.2,160.3,369,361.4,377.8v13.4v31.4v5.4c5.6,0.2,11.1,0.4,16.8,0.4c236.6,0,428.4-191.8,428.4-428.4
				C927.4,268.2,729.9,74.3,488.6,80z"/>
		</g>
		<g>
			<path class="st3" d="M695.3,521.3c0-15.3-12.4-27.6-27.6-27.6H529v-1.4c0-7.8-6.3-14.1-14.1-14.1h-0.7V250.4h-2.7
				c-15.3,0-27.7,12.4-27.7,27.7v200.2h-0.7c-7.8,0-14.1,6.3-14.1,14.1v1.4h-51.1v2.7c0,15.3,12.4,27.7,27.7,27.7H469v0
				c0,7.8,6.3,14.1,14.1,14.1h0.7v46.8h2.8c15.3,0,27.6-12.4,27.6-27.6v-19.1h0.7c7.8,0,14.1-6.3,14.1-14.1v0h166.3V521.3z"/>
		</g>
	</g>
</g>
<g id="CALENDARIO" class="st0">
	<path class="st9" d="M813.5,116H136.5c-14.1,0-25.5,12.8-25.5,28.5V213h17.9v-33.1c0-14.9,10.9-27,24.2-27h0
		c13.3,0,24.2,12.2,24.2,27V213h32.5v-34c0-14.9,10.9-27,24.2-27h0c13.3,0,24.2,12.2,24.2,27v34h32.5v-34c0-14.9,10.9-27,24.2-27h0
		c13.3,0,24.2,12.2,24.2,27v34h32.5v-33.1c0-14.9,10.9-27,24.2-27h0c13.3,0,24.2,12.2,24.2,27V213h32.5v-33.1
		c0-14.9,10.9-27,24.2-27h0c13.3,0,24.2,12.2,24.2,27V213h32.5v-33.1c0-14.9,10.9-27,24.2-27h0c13.3,0,24.2,12.2,24.2,27V213h32.5
		v-34c0-14.9,10.9-27,24.2-27h0c13.3,0,24.2,12.2,24.2,27v34h32.5v-34c0-14.9,10.9-27,24.2-27h0c13.3,0,24.2,12.2,24.2,27v34H776
		v-34c0-14.9,10.9-27,24.2-27h0c13.3,0,24.2,12.2,24.2,27v34H839v-68.5C839,128.8,827.6,116,813.5,116z"/>
	<path class="st9" d="M152.5,266.9H151c-9.2,0-16.7-7.5-16.7-16.7v-64.5c0-9.2,7.5-16.7,16.7-16.7h1.5c9.2,0,16.7,7.5,16.7,16.7
		v64.5C169.1,259.4,161.6,266.9,152.5,266.9z"/>
	<path class="st9" d="M233.4,267h-1.5c-9.2,0-16.7-7.5-16.7-16.7v-64.6c0-9.2,7.5-16.7,16.7-16.7h1.5c9.2,0,16.7,7.5,16.7,16.7v64.6
		C250.1,259.5,242.6,267,233.4,267z"/>
	<path class="st9" d="M314.3,267h-1.5c-9.2,0-16.7-7.5-16.7-16.7v-64.6c0-9.2,7.5-16.7,16.7-16.7h1.5c9.2,0,16.7,7.5,16.7,16.7v64.6
		C331,259.5,323.5,267,314.3,267z"/>
	<path class="st9" d="M395.3,267h-1.5c-9.2,0-16.7-7.5-16.7-16.7v-64.6c0-9.2,7.5-16.7,16.7-16.7h1.5c9.2,0,16.7,7.5,16.7,16.7v64.6
		C411.9,259.5,404.4,267,395.3,267z"/>
	<path class="st9" d="M476.2,267h-1.5c-9.2,0-16.7-7.5-16.7-16.7v-64.6c0-9.2,7.5-16.7,16.7-16.7h1.5c9.2,0,16.7,7.5,16.7,16.7v64.6
		C492.9,259.5,485.4,267,476.2,267z"/>
	<path class="st9" d="M557.1,267h-1.5c-9.2,0-16.7-7.5-16.7-16.7v-64.6c0-9.2,7.5-16.7,16.7-16.7h1.5c9.2,0,16.7,7.5,16.7,16.7v64.6
		C573.8,259.5,566.3,267,557.1,267z"/>
	<path class="st9" d="M638.1,267h-1.5c-9.2,0-16.7-7.5-16.7-16.7v-64.6c0-9.2,7.5-16.7,16.7-16.7h1.5c9.2,0,16.7,7.5,16.7,16.7v64.6
		C654.7,259.5,647.2,267,638.1,267z"/>
	<path class="st9" d="M719,267h-1.5c-9.2,0-16.7-7.5-16.7-16.7v-64.6c0-9.2,7.5-16.7,16.7-16.7h1.5c9.2,0,16.7,7.5,16.7,16.7v64.6
		C735.7,259.5,728.2,267,719,267z"/>
	<path class="st9" d="M799.9,267h-1.5c-9.2,0-16.7-7.5-16.7-16.7v-64.6c0-9.2,7.5-16.7,16.7-16.7h1.5c9.2,0,16.7,7.5,16.7,16.7v64.6
		C816.6,259.5,809.1,267,799.9,267z"/>
	<path class="st9" d="M823.5,222v31.1c0,14.9-10.9,27-24.2,27h0c-13.3,0-24.2-12.2-24.2-27V222h-32.5v31.1c0,14.9-10.9,27-24.2,27h0
		c-13.3,0-24.2-12.2-24.2-27V222h-32.5v31.1c0,14.9-10.9,27-24.2,27h0c-13.3,0-24.2-12.2-24.2-27V222h-32.5v32
		c0,14.9-10.9,27-24.2,27h0c-13.3,0-24.2-12.2-24.2-27v-32H500v32c0,14.9-10.9,27-24.2,27h0c-13.3,0-24.2-12.2-24.2-27v-32h-32.5v32
		c0,14.9-10.9,27-24.2,27h0c-13.3,0-24.2-12.2-24.2-27v-32h-32.5v31.1c0,14.9-10.9,27-24.2,27h0c-13.3,0-24.2-12.2-24.2-27V222
		h-32.5v31.1c0,14.9-10.9,27-24.2,27h0c-13.3,0-24.2-12.2-24.2-27V222h-32.5v32c0,14.9-10.9,27-24.2,27h0c-13.3,0-24.2-12.2-24.2-27
		v-32h-17v564.1c0,17.1,12.4,30.9,27.7,30.9h672.6c15.3,0,27.7-13.8,27.7-30.9V222H823.5z M824.7,726.8c0,11.7-8.5,21.2-19,21.2
		H147.9c-10.5,0-19-9.5-19-21.2V326h695.8V726.8z"/>
	<path class="st9" d="M254,462h-97c-6.6,0-12-5.4-12-12v-97c0-6.6,5.4-12,12-12h97c6.6,0,12,5.4,12,12v97
		C266,456.6,260.6,462,254,462z"/>
	<path class="st9" d="M254,599h-97c-6.6,0-12-5.4-12-12v-97c0-6.6,5.4-12,12-12h97c6.6,0,12,5.4,12,12v97
		C266,593.6,260.6,599,254,599z"/>
	<path class="st9" d="M254,736h-97c-6.6,0-12-5.4-12-12v-97c0-6.6,5.4-12,12-12h97c6.6,0,12,5.4,12,12v97
		C266,730.6,260.6,736,254,736z"/>
	<path class="st9" d="M391,462h-97c-6.6,0-12-5.4-12-12v-97c0-6.6,5.4-12,12-12h97c6.6,0,12,5.4,12,12v97
		C403,456.6,397.6,462,391,462z"/>
	<path class="st9" d="M391,599h-97c-6.6,0-12-5.4-12-12v-97c0-6.6,5.4-12,12-12h97c6.6,0,12,5.4,12,12v97
		C403,593.6,397.6,599,391,599z"/>
	<path class="st9" d="M391,736h-97c-6.6,0-12-5.4-12-12v-97c0-6.6,5.4-12,12-12h97c6.6,0,12,5.4,12,12v97
		C403,730.6,397.6,736,391,736z"/>
	<path class="st9" d="M527,462h-97c-6.6,0-12-5.4-12-12v-97c0-6.6,5.4-12,12-12h97c6.6,0,12,5.4,12,12v97
		C539,456.6,533.6,462,527,462z"/>
	<path class="st9" d="M527,599h-97c-6.6,0-12-5.4-12-12v-97c0-6.6,5.4-12,12-12h97c6.6,0,12,5.4,12,12v97
		C539,593.6,533.6,599,527,599z"/>
	<path class="st9" d="M527,736h-97c-6.6,0-12-5.4-12-12v-97c0-6.6,5.4-12,12-12h97c6.6,0,12,5.4,12,12v97
		C539,730.6,533.6,736,527,736z"/>
	<path class="st9" d="M660,462h-97c-6.6,0-12-5.4-12-12v-97c0-6.6,5.4-12,12-12h97c6.6,0,12,5.4,12,12v97
		C672,456.6,666.6,462,660,462z"/>
	<path class="st9" d="M660,599h-97c-6.6,0-12-5.4-12-12v-97c0-6.6,5.4-12,12-12h97c6.6,0,12,5.4,12,12v97
		C672,593.6,666.6,599,660,599z"/>
	<path class="st9" d="M660,736h-97c-6.6,0-12-5.4-12-12v-97c0-6.6,5.4-12,12-12h97c6.6,0,12,5.4,12,12v97
		C672,730.6,666.6,736,660,736z"/>
	<path class="st9" d="M796,462h-97c-6.6,0-12-5.4-12-12v-97c0-6.6,5.4-12,12-12h97c6.6,0,12,5.4,12,12v97
		C808,456.6,802.6,462,796,462z"/>
	<path class="st9" d="M796,599h-97c-6.6,0-12-5.4-12-12v-97c0-6.6,5.4-12,12-12h97c6.6,0,12,5.4,12,12v97
		C808,593.6,802.6,599,796,599z"/>
	<path class="st9" d="M796,736h-97c-6.6,0-12-5.4-12-12v-97c0-6.6,5.4-12,12-12h97c6.6,0,12,5.4,12,12v97
		C808,730.6,802.6,736,796,736z"/>
</g>
<g id="TENDA" class="st0">
	<path class="st10" d="M877.8,940c-251.3,0-502.5,0-753.8,0c-14.9-6.2-19.2-17.5-19.2-33.3c0.4-147.7,0-295.3,0.2-443
		c0-10-2.1-15.1-12.3-19.3c-37.1-15-56.7-53-46-86.9c31-98.1,62.2-196.1,93.4-294.1c5.3-16.5,11.9-21.5,28.8-21.5
		c220.7,0,441.4,0,662.1,0c17.6,0,24.5,5.1,29.9,21.8c31.1,97.7,62.2,195.3,93.1,293c1.7,5.3,2.9,11,2.8,16.4
		c-0.7,33-18.5,55.1-47.4,67.7c-11,4.8-13.2,10.4-13.2,21.2c0.6,148.5,0.6,296.9,1.3,445.4C897.8,923.4,893.4,934.6,877.8,940z
		 M803.1,399.6c-17,33-41.8,51.4-77.3,51.2c-35.4-0.1-59.4-19.5-76.2-50.8c-16.3,30.6-39.8,48.2-73.5,48.4
		c-34.1,0.2-57.4-18.3-74-48.2c-17.1,32.3-41.5,50.8-77.2,50.7c-35.5-0.2-59.5-19.3-76.3-50.9c-16.3,30.5-39.7,48.2-73.4,48.4
		c-34.1,0.2-57.5-18.2-74.2-48.3c-10.3,20-23.1,35.2-42.4,43.2c-6.8,2.8-8.5,6.7-8.4,13.5c0.3,45.3,0.1,90.7,0.1,136
		c0,5.5,0,11,0,16.8c233,0,464.6,0,697.2,0c0-54.5,0.1-108.2-0.2-161.9c0-2.4-2.6-5.9-4.9-7.1C825.2,431.9,812.8,418.7,803.1,399.6z
		 M788.7,358.7c-1.7-9.4-3.1-17.6-4.6-25.8c-15.9-84.6-31.8-169.1-47.5-253.7c-1.5-8.3-4.9-13.5-13.7-13.5
		c-28.1-0.1-56.1-0.2-84.2,0c-8.6,0.1-13.5,4.5-12.7,13.7c2.3,24.7,4.7,49.5,7,74.2c6.1,65,12.4,130,18,195.1
		c0.8,8.8,3.1,11.6,12,11.5c38.1-0.5,76.2-0.3,114.3-0.5C780.7,359.7,784.1,359.1,788.7,358.7z M360.2,358.9c45.6,0,89.8,0,134,0
		c0.4-2.3,0.7-3.4,0.7-4.6c0.3-91,0.5-182.1,1-273.1c0.1-11.5-5.3-15.7-16.2-15.6c-25.7,0.2-51.3,0.3-77-0.1
		c-11.5-0.2-16.3,4.5-17.3,16.1c-4.9,57.1-10.5,114.1-15.7,171.2C366.4,287.9,363.4,323,360.2,358.9z M78.4,359.9
		c40.9,0,72.1,0.2,110.5-0.4c2.6,0,6.8-5.7,7.5-9.3c7.1-35.7,18.6-71.6,25.3-107.4c9.9-52.7,22.4-105.5,32.2-158.2
		c2.7-14.7-1-18.8-16.3-18.9c-17.2-0.1-34.5,0.7-51.7-0.2c-12.3-0.6-17.9,4.2-21.4,15.8c-20,65.9-40.6,131.6-60.9,197.3
		C95.5,304.8,87.3,331.1,78.4,359.9z M502.5,640.5c-20.6,0-21.6,0.5-21.4,20.4c0.1,8.8-2.7,14-11.1,17.5
		c-14.2,6-24.4,16.7-30.7,30.8c-12.7,28.4-3,58.4,25.6,75.5c14.4,8.6,30.1,14.9,44.9,22.8c8.5,4.5,13.4,12,10.7,21.9
		c-2.7,9.8-10.8,13.5-20.3,14c-17.4,1-33.5-2.7-46.8-14.8c-4.2-3.9-8-6.2-13.3-1c-17.1,16.7-13.7,41.4,7.7,51.4
		c5.4,2.5,11.1,4.8,17,5.8c11.2,1.9,15.5,7.8,15.1,19.1c-0.2,4.7,1.8,13.3,4,13.7c10.3,1.8,21.3,3,31.6,1.3
		c9.4-1.5,7.3-11.4,6.8-18.2c-0.7-10.2,2.9-15.9,12.4-20.4c29.6-13.9,43.2-43.6,35.1-74.9c-5.3-20.5-19.5-33.6-37.6-43
		c-12.1-6.3-24.6-11.7-36.7-17.8c-7.4-3.7-13.4-10-9.4-18.2c2.4-5,9.3-10,14.9-11c14.7-2.5,28.4,1.8,40.9,10.3
		c3.1,2.1,9.8,4.6,10.1,4.1c5.8-9.7,11.6-19.4,15.7-29.8c3.3-8.4-1.6-14.5-9.8-17.7c-7.8-3.1-16.1-5.3-23.2-9.5
		c-4.4-2.6-9.4-7.8-10-12.3C522,640.6,522.6,640.5,502.5,640.5z M673.4,385c3.1,22.1,27.8,41.3,52.5,41.6
		c24.9,0.3,49.8-18.7,53.7-41.6C744.1,385,708.8,385,673.4,385z M70.3,385c7.6,25.6,31.8,43,55.8,41.6c25.2-1.4,47.4-19.1,51.5-41.6
		C142,385,106.7,385,70.3,385z M371.7,384.8c5.9,25,31.9,43.7,56.1,41.7c26-2.1,48.7-20.8,50.2-41.7
		C442.9,384.8,407.8,384.8,371.7,384.8z"/>
	<g>
		<path class="st9" d="M868.8,958c-251.3,0-502.5,0-753.8,0c-14.9-6.2-19.2-17.5-19.2-33.3c0.4-147.7,0-295.3,0.2-443
			c0-10-2.1-15.1-12.3-19.3c-37.1-15-56.7-53-46-86.9c31-98.1,62.2-196.1,93.4-294.1c5.3-16.5,11.9-21.5,28.8-21.5
			c220.7,0,441.4,0,662.1,0c17.6,0,24.5,5.1,29.9,21.8c31.1,97.7,62.2,195.3,93.1,293c1.7,5.3,2.9,11,2.8,16.4
			c-0.7,33-18.5,55.1-47.4,67.7c-11,4.8-13.2,10.4-13.2,21.2c0.6,148.5,0.6,296.9,1.3,445.4C888.8,941.4,884.4,952.6,868.8,958z
			 M794.1,417.6c-17,33-41.8,51.4-77.3,51.2c-35.4-0.1-59.4-19.5-76.2-50.8c-16.3,30.6-39.8,48.2-73.5,48.4
			c-34.1,0.2-57.4-18.3-74-48.2c-17.1,32.3-41.5,50.8-77.2,50.7c-35.5-0.2-59.5-19.3-76.3-50.9c-16.3,30.5-39.7,48.2-73.4,48.4
			c-34.1,0.2-57.5-18.2-74.2-48.3c-10.3,20-23.1,35.2-42.4,43.2c-6.8,2.8-8.5,6.7-8.4,13.5c0.3,45.3,0.1,90.7,0.1,136
			c0,5.5,0,11,0,16.8c233,0,464.6,0,697.2,0c0-54.5,0.1-108.2-0.2-161.9c0-2.4-2.6-5.9-4.9-7.1C816.2,449.9,803.8,436.7,794.1,417.6
			z M779.7,376.7c-1.7-9.4-3.1-17.6-4.6-25.8c-15.9-84.6-31.8-169.1-47.5-253.7c-1.5-8.3-4.9-13.5-13.7-13.5
			c-28.1-0.1-56.1-0.2-84.2,0c-8.6,0.1-13.5,4.5-12.7,13.7c2.3,24.7,4.7,49.5,7,74.2c6.1,65,12.4,130,18,195.1
			c0.8,8.8,3.1,11.6,12,11.5c38.1-0.5,76.2-0.3,114.3-0.5C771.7,377.7,775.1,377.1,779.7,376.7z M351.2,376.9c45.6,0,89.8,0,134,0
			c0.4-2.3,0.7-3.4,0.7-4.6c0.3-91,0.5-182.1,1-273.1c0.1-11.5-5.3-15.7-16.2-15.6c-25.7,0.2-51.3,0.3-77-0.1
			c-11.5-0.2-16.3,4.5-17.3,16.1c-4.9,57.1-10.5,114.1-15.7,171.2C357.4,305.9,354.4,341,351.2,376.9z M69.4,377.9
			c40.9,0,72.1,0.2,110.5-0.4c2.6,0,6.8-5.7,7.5-9.3c7.1-35.7,18.6-71.6,25.3-107.4c9.9-52.7,22.4-105.5,32.2-158.2
			c2.7-14.7-1-18.8-16.3-18.9c-17.2-0.1-34.5,0.7-51.7-0.2c-12.3-0.6-17.9,4.2-21.4,15.8c-20,65.9-40.6,131.6-60.9,197.3
			C86.5,322.8,78.3,349.1,69.4,377.9z M493.5,658.5c-20.6,0-21.6,0.5-21.4,20.4c0.1,8.8-2.7,14-11.1,17.5
			c-14.2,6-24.4,16.7-30.7,30.8c-12.7,28.4-3,58.4,25.6,75.5c14.4,8.6,30.1,14.9,44.9,22.8c8.5,4.5,13.4,12,10.7,21.9
			c-2.7,9.8-10.8,13.5-20.3,14c-17.4,1-33.5-2.7-46.8-14.8c-4.2-3.9-8-6.2-13.3-1c-17.1,16.7-13.7,41.4,7.7,51.4
			c5.4,2.5,11.1,4.8,17,5.8c11.2,1.9,15.5,7.8,15.1,19.1c-0.2,4.7,1.8,13.3,4,13.7c10.3,1.8,21.3,3,31.6,1.3
			c9.4-1.5,7.3-11.4,6.8-18.2c-0.7-10.2,2.9-15.9,12.4-20.4c29.6-13.9,43.2-43.6,35.1-74.9c-5.3-20.5-19.5-33.6-37.6-43
			c-12.1-6.3-24.6-11.7-36.7-17.8c-7.4-3.7-13.4-10-9.4-18.2c2.4-5,9.3-10,14.9-11c14.7-2.5,28.4,1.8,40.9,10.3
			c3.1,2.1,9.8,4.6,10.1,4.1c5.8-9.7,11.6-19.4,15.7-29.8c3.3-8.4-1.6-14.5-9.8-17.7c-7.8-3.1-16.1-5.3-23.2-9.5
			c-4.4-2.6-9.4-7.8-10-12.3C513,658.6,513.6,658.5,493.5,658.5z M664.4,403c3.1,22.1,27.8,41.3,52.5,41.6
			c24.9,0.3,49.8-18.7,53.7-41.6C735.1,403,699.8,403,664.4,403z M61.3,403c7.6,25.6,31.8,43,55.8,41.6
			c25.2-1.4,47.4-19.1,51.5-41.6C133,403,97.7,403,61.3,403z M362.7,402.8c5.9,25,31.9,43.7,56.1,41.7c26-2.1,48.7-20.8,50.2-41.7
			C433.9,402.8,398.8,402.8,362.7,402.8z"/>
	</g>
</g>
<g id="CALENDARIO_x2B_RELOGIO" class="st0">
	<circle class="st6" cx="723.8" cy="689.3" r="237.5"/>
	<g class="st2">
		<path class="st6" d="M798.8,68L68.5,68C53.3,68,41,81.8,41,98.8l0,73.9l19.3,0l0-35.7c0-16,11.8-29.2,26.1-29.2h0
			c14.4,0,26.1,13.1,26.1,29.2l0,35.7l35,0l0-36.6c0-16,11.8-29.2,26.1-29.2h0c14.4,0,26.1,13.1,26.1,29.2l0,36.6l35,0l0-36.6
			c0-16,11.8-29.2,26.1-29.2h0c14.4,0,26.1,13.1,26.1,29.2l0,36.6l35,0l0-35.7c0-16,11.8-29.2,26.1-29.2h0
			c14.4,0,26.1,13.1,26.1,29.2l0,35.7l35,0l0-35.7c0-16,11.8-29.2,26.1-29.2h0c14.4,0,26.1,13.1,26.1,29.2l0,35.7l35,0l0-35.7
			c0-16,11.8-29.2,26.1-29.2h0c14.4,0,26.1,13.1,26.1,29.2l0,35.7l35,0l0-36.6c0-16,11.8-29.2,26.1-29.2h0
			c14.4,0,26.1,13.1,26.1,29.2l0,36.6l35,0l0-36.6c0-16,11.8-29.2,26.1-29.2h0c14.4,0,26.1,13.1,26.1,29.2l0,36.6l35,0l0-36.6
			c0-16,11.8-29.2,26.1-29.2h0c14.4,0,26.1,13.1,26.1,29.2l0,36.6l15.7,0l0-73.9C826.3,81.7,814,68,798.8,68z"/>
		<path class="st6" d="M88,230.9l-4.2,0c-9.2,0-16.7-7.5-16.7-16.7l0-72.2c0-9.2,7.5-16.7,16.7-16.7l4.2,0c9.2,0,16.7,7.5,16.7,16.7
			l0,72.2C104.7,223.4,97.2,230.9,88,230.9z"/>
		<path class="st6" d="M175.3,230.9l-4.2,0c-9.2,0-16.7-7.5-16.7-16.7l0-72.3c0-9.2,7.5-16.7,16.7-16.7l4.2,0
			c9.2,0,16.7,7.5,16.7,16.7l0,72.3C192,223.4,184.5,230.9,175.3,230.9z"/>
		<path class="st6" d="M262.6,230.9l-4.2,0c-9.2,0-16.7-7.5-16.7-16.7l0-72.3c0-9.2,7.5-16.7,16.7-16.7l4.2,0
			c9.2,0,16.7,7.5,16.7,16.7l0,72.3C279.3,223.4,271.8,230.9,262.6,230.9z"/>
		<path class="st6" d="M350,230.9l-4.2,0c-9.2,0-16.7-7.5-16.7-16.7l0-72.3c0-9.2,7.5-16.7,16.7-16.7l4.2,0
			c9.2,0,16.7,7.5,16.7,16.7l0,72.3C366.6,223.4,359.1,230.9,350,230.9z"/>
		<path class="st6" d="M437.3,230.9l-4.2,0c-9.2,0-16.7-7.5-16.7-16.7l0-72.3c0-9.2,7.5-16.7,16.7-16.7l4.2,0
			c9.2,0,16.7,7.5,16.7,16.7l0,72.3C454,223.4,446.4,230.9,437.3,230.9z"/>
		<path class="st6" d="M524.6,230.9l-4.2,0c-9.2,0-16.7-7.5-16.7-16.7l0-72.3c0-9.2,7.5-16.7,16.7-16.7l4.2,0
			c9.2,0,16.7,7.5,16.7,16.7l0,72.3C541.3,223.4,533.8,230.9,524.6,230.9z"/>
		<path class="st6" d="M611.9,230.9l-4.2,0c-9.2,0-16.7-7.5-16.7-16.7l0-72.3c0-9.2,7.5-16.7,16.7-16.7l4.2,0
			c9.2,0,16.7,7.5,16.7,16.7l0,72.3C628.6,223.4,621.1,230.9,611.9,230.9z"/>
		<path class="st6" d="M698.2,230.9l-4.2,0c-9.2,0-16.7-7.5-16.7-16.7l0-72.3c0-9.2,7.5-16.7,16.7-16.7l4.2,0
			c9.2,0,16.7,7.5,16.7,16.7l0,72.3C714.9,223.4,707.4,230.9,698.2,230.9z"/>
		<path class="st6" d="M785.5,230.9l-4.2,0c-9.2,0-16.7-7.5-16.7-16.7l0-72.3c0-9.2,7.5-16.7,16.7-16.7l4.2,0
			c9.2,0,16.7,7.5,16.7,16.7l0,72.3C802.2,223.4,794.7,230.9,785.5,230.9z"/>
		<path class="st6" d="M196.2,441.3l-106.5,0c-6.6,0-12-5.4-12-12l0-106.5c0-6.6,5.4-12,12-12l106.5,0c6.6,0,12,5.4,12,12l0,106.5
			C208.2,435.9,202.8,441.3,196.2,441.3z"/>
		<path class="st6" d="M196.2,589.1l-106.5,0c-6.6,0-12-5.4-12-12l0-106.5c0-6.6,5.4-12,12-12l106.5,0c6.6,0,12,5.4,12,12l0,106.5
			C208.2,583.7,202.8,589.1,196.2,589.1z"/>
		<path class="st6" d="M196.2,736.9l-106.5,0c-6.6,0-12-5.4-12-12l0-106.5c0-6.6,5.4-12,12-12l106.5,0c6.6,0,12,5.4,12,12l0,106.5
			C208.2,731.5,202.8,736.9,196.2,736.9z"/>
		<path class="st6" d="M344,441.3l-106.5,0c-6.6,0-12-5.4-12-12l0-106.5c0-6.6,5.4-12,12-12l106.5,0c6.6,0,12,5.4,12,12l0,106.5
			C356,435.9,350.6,441.3,344,441.3z"/>
		<path class="st6" d="M344,589.1l-106.5,0c-6.6,0-12-5.4-12-12l0-106.5c0-6.6,5.4-12,12-12l106.5,0c6.6,0,12,5.4,12,12l0,106.5
			C356,583.7,350.6,589.1,344,589.1z"/>
		<path class="st6" d="M344,736.9l-106.5,0c-6.6,0-12-5.4-12-12l0-106.5c0-6.6,5.4-12,12-12l106.5,0c6.6,0,12,5.4,12,12l0,106.5
			C356,731.5,350.6,736.9,344,736.9z"/>
		<path class="st6" d="M490.7,441.3l-106.5,0c-6.6,0-12-5.4-12-12l0-106.5c0-6.6,5.4-12,12-12l106.5,0c6.6,0,12,5.4,12,12l0,106.5
			C502.7,435.9,497.3,441.3,490.7,441.3z"/>
		<path class="st11" d="M60.3,294.6l0,432.4c0,12.6,9.2,22.8,20.5,22.8l341.9,0c-1-4.3-1.9-8.6-2.7-12.9l-34.9,0
			c-7.1,0-12.9-5.8-12.9-12.9l0-104.6c0-7.1,5.8-12.9,12.9-12.9l41.2,0c1.7-5.8,3.5-11.6,5.5-17.3l-46.7,0
			c-7.1,0-12.9-5.8-12.9-12.9l0-104.6c0-7.1,5.8-12.9,12.9-12.9l104.6,0c7.1,0,12.9,5.8,12.9,12.9l0,7.4
			c14.6-14.2,30.8-26.8,48.2-37.6l-22.3,0c-7.1,0-12.9-5.8-12.9-12.9l0-104.6c0-7.1,5.8-12.9,12.9-12.9l104.6,0
			c7.1,0,12.9,5.8,12.9,12.9l0,79.9c5.3-1.1,10.7-2,16.2-2.7l0-77.2c0-7.1,5.8-12.9,12.9-12.9l104.6,0c7.1,0,12.9,5.8,12.9,12.9
			l0,89.1c6.1,2,12.1,4.3,18,6.7l0-124.9L60.3,294.6z"/>
		<path class="st6" d="M80.8,749.9c-11.3,0-20.5-10.2-20.5-22.8l0-432.4l750.6-0.1l0,124.9c5.2,2.1,10.4,4.4,15.5,6.8l0-243.9
			l-16.7,0l0,33.5c0,16-11.8,29.2-26.1,29.2h0c-14.4,0-26.1-13.1-26.1-29.2l0-33.5l-35,0l0,33.5c0,16-11.8,29.2-26.1,29.2h0
			c-14.4,0-26.1-13.1-26.1-29.2l0-33.5l-35,0l0,33.5c0,16-11.8,29.2-26.1,29.2h0c-14.4,0-26.1-13.1-26.1-29.2l0-33.5l-35,0l0,34.5
			c0,16-11.8,29.2-26.1,29.2h0c-14.4,0-26.1-13.1-26.1-29.2l0-34.5l-35,0l0,34.5c0,16-11.8,29.2-26.1,29.2h0
			c-14.4,0-26.1-13.1-26.1-29.2l0-34.5l-35,0l0,34.5c0,16-11.8,29.2-26.1,29.2h0c-14.4,0-26.1-13.1-26.1-29.2l0-34.5l-35,0l0,33.5
			c0,16-11.8,29.2-26.1,29.2h0c-14.4,0-26.1-13.1-26.1-29.2l0-33.5l-35,0l0,33.5c0,16-11.8,29.2-26.1,29.2h0
			c-14.4,0-26.1-13.1-26.1-29.2l0-33.5l-35,0l0,34.5c0,16-11.8,29.2-26.1,29.2h0c-14.4,0-26.1-13.1-26.1-29.2l0-34.5l-18.4,0
			L41,790.9c0,18.4,13.4,33.4,29.9,33.4l380.4,0c-12.8-23.1-22.6-48-28.6-74.4L80.8,749.9z"/>
		<path class="st6" d="M502.7,478.9l0-7.4c0-7.1-5.8-12.9-12.9-12.9l-104.6,0c-7.1,0-12.9,5.8-12.9,12.9l0,104.6
			c0,7.1,5.8,12.9,12.9,12.9l46.7,0C446.8,547,471.3,509.4,502.7,478.9z"/>
		<path class="st6" d="M426.3,606.3l-41.2,0c-7.1,0-12.9,5.8-12.9,12.9l0,104.6c0,7.1,5.8,12.9,12.9,12.9l34.9,0
			c-3.1-16.8-4.7-34.1-4.7-51.8C415.4,657.8,419.2,631.4,426.3,606.3z"/>
		<path class="st6" d="M646.2,323.7c0-7.1-5.8-12.9-12.9-12.9l-104.6,0c-7.1,0-12.9,5.8-12.9,12.9l0,104.6c0,7.1,5.8,12.9,12.9,12.9
			l22.3,0c28.8-17.9,60.9-30.8,95.3-37.7L646.2,323.7z"/>
		<path class="st6" d="M792.9,412.7l0-89.1c0-7.1-5.8-12.9-12.9-12.9l-104.6,0c-7.1,0-12.9,5.8-12.9,12.9l0,77.2
			c13-1.8,26.4-2.8,39.9-2.8C734,398.1,764.4,403.2,792.9,412.7z"/>
		<g>
			<g>
				<path class="st3" d="M695.7,430.8C557.4,434.1,445.7,548.7,445.8,687c0.1,126.6,92,231.6,212.7,252.2c8.1,1.4,15.5-4.8,15.5-13
					l0-7c-118.5-14.1-209.8-116.5-206.1-239.6c3.6-121,100.5-220.2,221.4-226.6c135-7.1,246.8,100.3,246.8,233.8
					c0,125.6-98.8,228-222.9,233.9l0-8.5l0-15.2l0-2.1c-3.7,0.2-7.4,0.3-11.2,0.3c-118.3,0-213.7-98.6-208.2-218.2
					c4.9-106.7,91.5-193.4,198.3-198.3c119.6-5.5,218.2,89.8,218.2,208.1c0,102.5-74.1,187.8-171.6,205.1c-4.3,0.8-7.4,4.5-7.4,8.8
					l0,10.2c112.6-14.6,199.2-112,196.7-229.2c-2.6-120.1-100.5-218.1-220.6-221c-127.4-3-231.6,99.4-231.6,226.1
					c0,121.5,95.9,220.6,216.1,225.8l0,8l0,18.8l0,3.2c3.3,0.1,6.7,0.3,10,0.3c141.4,0,256.1-114.7,256.1-256.1
					C958,543.3,840,427.3,695.7,430.8z"/>
			</g>
			<g>
				<path class="st3" d="M819.3,694.6c0-9.1-7.4-16.5-16.5-16.5l-82.9,0l0-0.8c0-4.6-3.8-8.4-8.4-8.4H711l0-136.3l-1.6,0
					c-9.1,0-16.6,7.4-16.6,16.6l0,119.7l-0.4,0c-4.6,0-8.4,3.8-8.4,8.4l0,0.8l-30.6,0l0,1.6c0,9.1,7.4,16.6,16.6,16.6l14,0v0
					c0,4.6,3.8,8.4,8.4,8.4l0.4,0l0,28l1.7,0c9.1,0,16.5-7.4,16.5-16.5l0-11.4h0.4c4.6,0,8.4-3.8,8.4-8.4v0l99.4,0L819.3,694.6z"/>
			</g>
		</g>
	</g>
	<path class="st12" d="M60.3,294.6l0,432.4c0,12.6,9.2,22.8,20.5,22.8l341.9,0c-1-4.3-1.9-8.6-2.7-12.9l-34.9,0
		c-7.1,0-12.9-5.8-12.9-12.9l0-104.6c0-7.1,5.8-12.9,12.9-12.9l41.2,0c1.7-5.8,3.5-11.6,5.5-17.3l-46.7,0c-7.1,0-12.9-5.8-12.9-12.9
		l0-104.6c0-7.1,5.8-12.9,12.9-12.9l104.6,0c7.1,0,12.9,5.8,12.9,12.9l0,7.4c14.6-14.2,30.8-26.8,48.2-37.6l-22.3,0
		c-7.1,0-12.9-5.8-12.9-12.9l0-104.6c0-7.1,5.8-12.9,12.9-12.9l104.6,0c7.1,0,12.9,5.8,12.9,12.9l0,79.9c5.3-1.1,10.7-2,16.2-2.7
		l0-77.2c0-7.1,5.8-12.9,12.9-12.9l104.6,0c7.1,0,12.9,5.8,12.9,12.9l0,89.1c6.1,2,12.1,4.3,18,6.7l0-124.9L60.3,294.6z"/>
	<g class="st2">
		<path class="st13" d="M798.8,68H68.5C53.3,68,41,81.8,41,98.8v73.9h19.3V137c0-16,11.8-29.2,26.1-29.2h0
			c14.4,0,26.1,13.1,26.1,29.2v35.7h35V136c0-16,11.8-29.2,26.1-29.2h0c14.4,0,26.1,13.1,26.1,29.2v36.6h35V136
			c0-16,11.8-29.2,26.1-29.2h0c14.4,0,26.1,13.1,26.1,29.2v36.6h35V137c0-16,11.8-29.2,26.1-29.2h0c14.4,0,26.1,13.1,26.1,29.2v35.7
			h35V137c0-16,11.8-29.2,26.1-29.2h0c14.4,0,26.1,13.1,26.1,29.2v35.7h35V137c0-16,11.8-29.2,26.1-29.2h0
			c14.4,0,26.1,13.1,26.1,29.2v35.7h35V136c0-16,11.8-29.2,26.1-29.2h0c14.4,0,26.1,13.1,26.1,29.2v36.6h35V136
			c0-16,11.8-29.2,26.1-29.2h0c14.4,0,26.1,13.1,26.1,29.2v36.6h35V136c0-16,11.8-29.2,26.1-29.2h0c14.4,0,26.1,13.1,26.1,29.2v36.6
			h15.7V98.8C826.4,81.8,814,68,798.8,68z"/>
		<path class="st13" d="M88,230.8h-4.2c-9.2,0-16.7-7.5-16.7-16.7V142c0-9.2,7.5-16.7,16.7-16.7H88c9.2,0,16.7,7.5,16.7,16.7v72.2
			C104.7,223.3,97.2,230.8,88,230.8z"/>
		<path class="st13" d="M175.4,230.9h-4.2c-9.2,0-16.7-7.5-16.7-16.7v-72.3c0-9.2,7.5-16.7,16.7-16.7h4.2c9.2,0,16.7,7.5,16.7,16.7
			v72.3C192,223.4,184.5,230.9,175.4,230.9z"/>
		<path class="st13" d="M262.7,230.9h-4.2c-9.2,0-16.7-7.5-16.7-16.7v-72.3c0-9.2,7.5-16.7,16.7-16.7h4.2c9.2,0,16.7,7.5,16.7,16.7
			v72.3C279.3,223.4,271.8,230.9,262.7,230.9z"/>
		<path class="st13" d="M350,230.9h-4.2c-9.2,0-16.7-7.5-16.7-16.7v-72.3c0-9.2,7.5-16.7,16.7-16.7h4.2c9.2,0,16.7,7.5,16.7,16.7
			v72.3C366.7,223.4,359.2,230.9,350,230.9z"/>
		<path class="st13" d="M437.3,230.9h-4.2c-9.2,0-16.7-7.5-16.7-16.7v-72.3c0-9.2,7.5-16.7,16.7-16.7h4.2c9.2,0,16.7,7.5,16.7,16.7
			v72.3C454,223.4,446.5,230.9,437.3,230.9z"/>
		<path class="st13" d="M524.6,230.9h-4.2c-9.2,0-16.7-7.5-16.7-16.7v-72.3c0-9.2,7.5-16.7,16.7-16.7h4.2c9.2,0,16.7,7.5,16.7,16.7
			v72.3C541.3,223.4,533.8,230.9,524.6,230.9z"/>
		<path class="st13" d="M611.9,230.9h-4.2c-9.2,0-16.7-7.5-16.7-16.7v-72.3c0-9.2,7.5-16.7,16.7-16.7h4.2c9.2,0,16.7,7.5,16.7,16.7
			v72.3C628.6,223.4,621.1,230.9,611.9,230.9z"/>
		<path class="st13" d="M698.2,230.9H694c-9.2,0-16.7-7.5-16.7-16.7v-72.3c0-9.2,7.5-16.7,16.7-16.7h4.2c9.2,0,16.7,7.5,16.7,16.7
			v72.3C714.9,223.4,707.4,230.9,698.2,230.9z"/>
		<path class="st13" d="M785.6,230.9h-4.2c-9.2,0-16.7-7.5-16.7-16.7v-72.3c0-9.2,7.5-16.7,16.7-16.7h4.2c9.2,0,16.7,7.5,16.7,16.7
			v72.3C802.2,223.4,794.7,230.9,785.6,230.9z"/>
		<path class="st13" d="M196.2,441.3l-106.5,0c-6.6,0-12-5.4-12-12l0-106.5c0-6.6,5.4-12,12-12l106.5,0c6.6,0,12,5.4,12,12l0,106.5
			C208.2,435.9,202.8,441.3,196.2,441.3z"/>
		<path class="st13" d="M196.2,589.1H89.7c-6.6,0-12-5.4-12-12V470.5c0-6.6,5.4-12,12-12h106.5c6.6,0,12,5.4,12,12v106.5
			C208.2,583.7,202.8,589.1,196.2,589.1z"/>
		<path class="st13" d="M196.2,736.9H89.7c-6.6,0-12-5.4-12-12V618.3c0-6.6,5.4-12,12-12h106.5c6.6,0,12,5.4,12,12v106.5
			C208.2,731.5,202.8,736.9,196.2,736.9z"/>
		<path class="st13" d="M344,441.3H237.5c-6.6,0-12-5.4-12-12V322.7c0-6.6,5.4-12,12-12H344c6.6,0,12,5.4,12,12v106.5
			C356,435.9,350.6,441.3,344,441.3z"/>
		<path class="st13" d="M344,589.1H237.5c-6.6,0-12-5.4-12-12V470.5c0-6.6,5.4-12,12-12H344c6.6,0,12,5.4,12,12v106.5
			C356,583.7,350.6,589.1,344,589.1z"/>
		<path class="st13" d="M344,736.9H237.5c-6.6,0-12-5.4-12-12V618.3c0-6.6,5.4-12,12-12H344c6.6,0,12,5.4,12,12v106.5
			C356,731.5,350.6,736.9,344,736.9z"/>
		<path class="st13" d="M490.7,441.3H384.2c-6.6,0-12-5.4-12-12V322.7c0-6.6,5.4-12,12-12h106.5c6.6,0,12,5.4,12,12v106.5
			C502.7,435.9,497.3,441.3,490.7,441.3z"/>
		<path class="st13" d="M80.8,749.9c-11.3,0-20.5-10.2-20.5-22.8l0-432.4l750.6-0.1l0,124.9c5.2,2.1,10.4,4.4,15.5,6.8l0-243.9
			l-16.7,0l0,33.5c0,16-11.8,29.2-26.1,29.2h0c-14.4,0-26.1-13.1-26.1-29.2l0-33.5l-35,0l0,33.5c0,16-11.8,29.2-26.1,29.2h0
			c-14.4,0-26.1-13.1-26.1-29.2l0-33.5l-35,0l0,33.5c0,16-11.8,29.2-26.1,29.2h0c-14.4,0-26.1-13.1-26.1-29.2l0-33.5l-35,0l0,34.5
			c0,16-11.8,29.2-26.1,29.2h0c-14.4,0-26.1-13.1-26.1-29.2l0-34.5l-35,0l0,34.5c0,16-11.8,29.2-26.1,29.2h0
			c-14.4,0-26.1-13.1-26.1-29.2l0-34.5l-35,0l0,34.5c0,16-11.8,29.2-26.1,29.2h0c-14.4,0-26.1-13.1-26.1-29.2l0-34.5l-35,0l0,33.5
			c0,16-11.8,29.2-26.1,29.2h0c-14.4,0-26.1-13.1-26.1-29.2l0-33.5l-35,0l0,33.5c0,16-11.8,29.2-26.1,29.2h0
			c-14.4,0-26.1-13.1-26.1-29.2l0-33.5l-35,0l0,34.5c0,16-11.8,29.2-26.1,29.2h0c-14.4,0-26.1-13.1-26.1-29.2l0-34.5l-18.4,0
			L41,790.9c0,18.4,13.4,33.4,29.9,33.4l380.4,0c-12.8-23.1-22.6-48-28.6-74.4L80.8,749.9z"/>
		<path class="st13" d="M502.7,478.9v-7.4c0-7.1-5.8-12.9-12.9-12.9H385.1c-7.1,0-12.9,5.8-12.9,12.9v104.6
			c0,7.1,5.8,12.9,12.9,12.9h46.7C446.8,547,471.3,509.4,502.7,478.9z"/>
		<path class="st13" d="M426.3,606.3h-41.2c-7.1,0-12.9,5.8-12.9,12.9v104.6c0,7.1,5.8,12.9,12.9,12.9H420
			c-3.1-16.8-4.7-34.1-4.7-51.8C415.4,657.8,419.2,631.4,426.3,606.3z"/>
		<path class="st13" d="M646.2,323.7c0-7.1-5.8-12.9-12.9-12.9H528.6c-7.1,0-12.9,5.8-12.9,12.9v104.6c0,7.1,5.8,12.9,12.9,12.9
			h22.3c28.8-17.9,60.9-30.8,95.3-37.7V323.7z"/>
		<path class="st13" d="M792.9,412.7v-89.1c0-7.1-5.8-12.9-12.9-12.9H675.3c-7.1,0-12.9,5.8-12.9,12.9v77.2
			c13-1.8,26.4-2.8,39.9-2.8C734,398.1,764.5,403.3,792.9,412.7z"/>
		<g>
			<path class="st13" d="M695.7,430.8c-138.3,3.3-250,117.9-249.9,256.2c0.1,126.6,92,231.6,212.7,252.3c8.1,1.4,15.5-4.8,15.5-13
				v-7c-118.5-14.1-209.8-116.5-206.1-239.6c3.6-121,100.5-220.2,221.4-226.6C824.3,445.9,936,553.3,936,686.8
				c0,125.6-98.8,228-222.9,233.8v-8.5V897v-2.1c-3.7,0.2-7.4,0.3-11.2,0.3c-118.3,0-213.6-98.7-208.1-218.2
				c4.9-106.7,91.6-193.4,198.3-198.3c119.6-5.5,218.2,89.8,218.2,208.1c0,102.5-74.1,187.7-171.6,205.1c-4.3,0.8-7.4,4.5-7.4,8.8
				V911c112.6-14.6,199.2-112,196.7-229.2c-2.6-120.1-100.5-218.1-220.6-221c-127.4-3-231.6,99.3-231.6,226
				c0,121.5,95.9,220.6,216.1,225.9v8v18.8v3.2c3.3,0.1,6.7,0.3,10,0.3c141.4,0,256.1-114.7,256.1-256.1
				C958,543.3,840,427.4,695.7,430.8z"/>
			<path class="st13" d="M819.3,694.7c0-9.1-7.4-16.5-16.5-16.5h-82.9v-0.8c0-4.6-3.8-8.4-8.4-8.4H711V532.7h-1.6
				c-9.1,0-16.6,7.4-16.6,16.6v119.7h-0.4c-4.6,0-8.4,3.8-8.4,8.4v0.8h-30.6v1.6c0,9.1,7.4,16.6,16.6,16.6h14v0
				c0,4.6,3.8,8.4,8.4,8.4h0.4v28h1.7c9.1,0,16.5-7.4,16.5-16.5v-11.4h0.4c4.6,0,8.4-3.8,8.4-8.4v0h99.4V694.7z"/>
		</g>
	</g>
</g>
<g id="Layer_7">
	<g>
		<g>
			<path class="st6" d="M437.7,611.3L437.7,611.3c-12.5,11.4-32.6,3.4-33.9-13.4v0c-1.1-14.6-16.8-23.2-29.8-16.4h0
				c-7.9,4.2-16.6,2.6-22.6-2.3l-182.1,330l120.9-65.9l18.2,140.5l158.8-370.1C460.2,604.8,446.7,603.1,437.7,611.3z"/>
			<path class="st6" d="M708.1,582.6c-5.1,2-11.1,1.9-16.7-1.1h0c-12.9-6.9-28.6,1.8-29.8,16.4v0c-1.3,16.9-21.4,24.8-33.9,13.4l0,0
				c-10.8-9.9-28.2-5.4-32.9,8.4l0,0c-0.3,0.8-0.6,1.5-0.9,2.2l155.3,361.8l18.2-140.5l120.9,65.9L708.1,582.6z"/>
			<path class="st6" d="M811.9,359L811.9,359c-11.7-8.8-10.6-26.7,2.1-33.9h0c14.7-8.3,13.4-30-2.3-36.4h0
				c-13.5-5.6-16.9-23.2-6.4-33.3l0,0c12.2-11.7,5.5-32.3-11.3-34.7l0,0c-14.5-2-22.1-18.3-14.5-30.7v0c8.9-14.4-2.7-32.7-19.5-30.8
				l0,0c-14.5,1.7-26-12.2-21.6-26.2l0,0c5-16.1-10.8-31-26.6-25h0c-13.7,5.2-28.2-5.3-27.5-20v0c0.8-16.9-18.1-27.3-31.9-17.6h0
				c-11.9,8.5-28.6,1.8-31.6-12.5v0c-3.4-16.6-24.4-22-35.3-9.1l0,0c-9.5,11.2-27.3,8.9-33.7-4.3v0c-7.4-15.2-29.1-15.2-36.5,0v0
				c-6.4,13.2-24.2,15.4-33.7,4.3v0c-10.9-12.9-31.9-7.5-35.3,9.1v0c-2.9,14.3-19.6,21-31.6,12.5h0c-13.8-9.8-32.8,0.7-31.9,17.6v0
				c0.7,14.6-13.8,25.2-27.5,20h0c-15.8-6-31.6,8.8-26.6,25v0c4.3,14-7.1,27.8-21.6,26.2l0,0c-16.8-1.9-28.4,16.4-19.5,30.8v0
				c7.7,12.5,0,28.7-14.5,30.7l0,0c-16.8,2.3-23.4,22.9-11.3,34.7v0c10.5,10.2,7.2,27.8-6.4,33.3h0c-15.6,6.4-17,28.1-2.3,36.4h0
				c12.7,7.2,13.9,25.1,2.1,33.9l0,0c-13.6,10.1-9.5,31.4,6.8,35.8h0c14.1,3.8,19.7,20.9,10.5,32.3l0,0c-10.6,13.2-1.4,32.8,15.5,33
				h0c14.6,0.2,24.3,15.3,18.2,28.7v0c-7,15.4,6.8,32.1,23.2,28.1l0,0c14.2-3.5,27.3,8.8,24.7,23.2v0c-3,16.7,14.6,29.4,29.5,21.4h0
				c12.9-6.9,28.6,1.8,29.8,16.4v0c1.3,16.9,21.4,24.8,33.9,13.4l0,0c10.8-9.9,28.2-5.4,32.9,8.4v0c5.4,16,26.9,18.7,36.2,4.6l0,0
				c8-12.3,26-12.3,34,0v0c9.2,14.2,30.7,11.4,36.2-4.6l0,0c4.7-13.9,22.1-18.3,32.9-8.4l0,0c12.5,11.4,32.6,3.4,33.9-13.4v0
				c1.1-14.6,16.8-23.2,29.8-16.4h0c14.9,8,32.5-4.8,29.5-21.4v0c-2.6-14.4,10.5-26.7,24.7-23.2l0,0c16.4,4,30.2-12.7,23.2-28.1l0,0
				c-6.1-13.3,3.6-28.5,18.2-28.7h0c16.9-0.2,26.1-19.8,15.5-33l0,0c-9.2-11.4-3.6-28.5,10.5-32.3h0
				C821.4,390.4,825.4,369.1,811.9,359z M533.7,546.8c-123.4,0-223.3-100-223.3-223.3s100-223.3,223.3-223.3S757,200.1,757,323.4
				S657,546.8,533.7,546.8z"/>
		</g>
		<g>
			<path class="st6" d="M651.5,242.2c0,4.2-1.7,8-4.7,11.3c-1.2,1.3-2.4,2.7-3.8,3.8c-1.7,1.3-3.7,2-5.5,3c-0.5,0.3-0.5-0.2-0.6-0.3
				c-0.9-2-2-3.8-3.4-5.5c-2.4-3-5.4-5.1-9-6.3c-5.7-1.8-11.3-1.3-16.7,1.2c-1.2,0.6-2.4,1.1-3.6,1.9c-0.4,0.3-0.7,0.4-0.8-0.4
				c-0.3-3.3-1-6.6-1.9-9.8c-1-3.6-2.1-7.1-2-10.9c0.1-2.8,1.4-4.9,3.6-6.6c1.8-1.3,3.8-2,5.9-2.3c2.1-0.4,5.5,1.4,6.5,3.3
				c0.3,0.5-0.1,0.9-0.2,1.3c-0.4,1.2-1.1,2.4-1,3.8c0,0.9,0.2,1.6,1.1,1.8c0.9,0.3,1.8-0.3,2.2-1.3c0.5-1.4,0.6-2.8,0.1-4.2
				c-0.2-0.6,0-1.2,0.4-1.6c1.9-1.6,3.9-2.9,6.4-3.4c3.3-0.7,6.2,0,8.9,1.9c2.5,1.7,3.4,4.3,4.2,7c0.1,0.4,0,0.7-0.4,1
				c-1.3,0.8-2.4,1.8-2.6,3.4c-0.2,1.4,0.2,2.7,1.1,3.7c0.8,0.8,1.9,0.4,2.7-0.9c0.8-1.4,1-2.9,1-4.5c0-1.3,0-1.3,1.3-1.4
				c5.8-0.6,9.4,3.1,10.5,7.9C651.5,240.1,651.4,241,651.5,242.2z"/>
			<path class="st6" d="M457.8,264.2c-2.4-0.9-4.5-2.2-6.9-3.1c-2.1-0.8-4.3-1.2-6.5-1.6c-1.3-0.2-2.5-0.1-3.8-0.2
				c-2.2,0-4.4,0.5-6.6,0.9c-2.1,0.3-4.2,0.7-6.3,0.9c-2.2,0.2-4.3,0.2-6.4,0.1c-4.6-0.1-8.8-1.3-12.4-4.3c-2.6-2.2-4.2-4.9-4.9-8.1
				c-0.7-3.3,0.4-6.4,2.2-9.1c2.2-3.3,5.3-5.2,9.1-6.3c2.1-0.6,4.2-0.9,6.3-0.7c2.9,0.3,5.8,1,8.6,2c5,1.7,9.6,4.2,13.6,7.5
				c4.1,3.4,7.4,7.4,10.1,12c1.6,2.7,3.1,5.5,3.7,8.6C457.8,263.3,457.8,263.7,457.8,264.2z"/>
			<path class="st6" d="M443.2,264.7c5-0.1,9.5,0.8,13.8,2.7c0.2,0.1,0.4,0.2,0.6,0.3c0.1,0.1,0.3,0.3,0.3,0.4
				c0,0.2-0.3,0.2-0.5,0.3c-3.2,1-6,2.7-8.2,5.1c-1.6,1.7-2.7,3.7-3.7,5.8c-1.6,3.6-2.9,7.4-4.1,11.1c-0.8,2.6-1.6,5.2-2.5,7.7
				c-1.1,3-2.6,5.8-5.1,7.9c-4.1,3.4-8.6,3.7-13.1,0.5c-3.8-2.7-5.6-6.5-6.4-11.1c-0.9-5.2,0.1-9.9,2.2-14.6c1.5-3.4,3.6-6.4,6.2-9
				c2.7-2.7,6.2-4.4,9.8-5.5C436.1,265.3,439.8,264.5,443.2,264.7z"/>
			<path class="st6" d="M470.6,236.6c-0.1,1.8,0.2,3.3,0.2,4.9c-0.1,4.9-1.3,9.5-3.2,13.9c-0.9,2.1-2,4-3.1,6
				c-0.3,0.5-0.6,1-1.3,0.8c-1-0.3-2.1-0.2-2.3-1.6c-0.5-2.8-1-5.6-2.2-8.3c-1.3-2.9-2.8-5.7-5-8.1c-2.1-2.4-4.3-4.8-6.5-7.1
				c-1.9-2-3.8-4.1-5.6-6.2c-2.2-2.7-3.1-5.8-2.6-9.3c0.2-1.5,0.3-3,0.8-4.4c1-3,3.3-5,6.1-6c4.2-1.6,8.4-1.6,12.4,0.6
				c3.1,1.7,5.3,4.2,7.2,7.1c2.4,3.6,3.8,7.6,4.5,11.9C470.3,232.8,470.6,234.8,470.6,236.6z"/>
			<path class="st6" d="M535.5,439c-1.9,0-3.6-0.8-5-1.9c-2.1-1.6-3.8-3.5-5.2-5.7c-0.2-0.3-0.3-0.5-0.3-0.8c0.1-1.3-0.3-2.6-0.2-4
				c0-0.8-0.2-1.6-1.3-1.9c-0.6-0.2-0.8,0-1,0.5c-0.5,1.5-0.4,2.9,0.3,4.3c0.6,1.3,0.6,2.6,0.3,4c-0.5,2.1-0.9,4.2-1.4,6.3
				c-0.5,1.8-1.2,3.6-2.8,4.7c-2.7,2-6.5,0.3-7.2-3.4c-0.6-3,0.5-5.7,1.5-8.4c0.2-0.6,0.4-1.1,0.7-1.7c0.3-0.6,0.6-1.3,1.2-1.6
				c1.5-0.9,2.1-2.4,2.5-4c0.1-0.5-0.2-0.8-0.5-1.1c-0.5-0.4-0.9-0.2-1.4,0.1c-0.8,0.5-1.2,1.3-1.4,2.1c-0.7,2.8-2.8,3.8-5.2,4.4
				c-1.8,0.5-3.6,0.7-5.5,0.1c-2.1-0.6-2.3-2.1-1.9-3.8c0.3-1.5,1.3-2.5,2.5-3.4c2.4-1.6,5-2.5,7.8-3.3c3.3-1,6.7-1.9,10-2.8
				c0.7-0.2,1.4-0.7,1.7-1.5c2.4-5,4.5-10.1,6-15.5c0.5-1.7,1-3.3,1.5-5c0.2-0.6,0.4-0.9,1.1-0.6c0.9,0.4,1.8,0.8,2.7,1
				c0.7,0.2,0.6,0.5,0.4,1c-0.8,2-1.7,4-2.5,6c-2.1,5.4-4.1,10.7-6.2,16.1c-0.3,0.8-0.1,1.4,0.5,2c2.9,2.7,5.8,5.3,8.6,8
				c1.7,1.6,2.7,3.6,3,5.9C539,437.3,537.5,439,535.5,439z"/>
			<path class="st6" d="M593.2,414.7c-1,0.1-1.8-0.2-2.5-0.9c-1.1-1-2.3-1.3-3.8-0.9c-0.7,0.2-1.2,0.6-1.3,1.3
				c-0.1,0.8,0.4,1.2,1,1.5c0.7,0.4,1.5,0.7,2.3,0.6c1.9-0.3,3,0.5,3.7,2.2c1.4,2.9,3,5.6,3.8,8.8c0.5,1.9,0.1,3.9-1.3,4.7
				c-1.9,1.1-3.8,1.1-5.7,0.1c-3.6-2-5.9-5.2-7.4-8.9c-0.1-0.3-0.3-0.6-0.5-1c-0.5-0.9-0.6-1.8-0.1-2.8c0.6-1.4,1.2-2.8,0.2-4.3
				c-0.5-0.8-1.4-1.4-2.1-1.2c-1,0.3-1.4,0.9-1.5,2.1c0,1.1,0.1,2.1,0.7,3.1c0.8,1.4,0.1,2.5-0.8,3.4c-2.1,2.2-4.2,4.5-7.1,5.8
				c-1.4,0.6-2.6,0.3-3.6-0.5c-1.1-0.8-1.6-2-1.4-3.5c0.3-1.8,0.7-3.5,1.7-5c1.1-1.7,2.5-3.2,4.1-4.5c0.9-0.7,1.8-1.4,2.6-2.2
				c0.9-0.9,1.3-1.9,0.9-3.2c-1.3-5-3-9.9-5.1-14.6c-0.9-1.9-2.3-3.5-3.9-4.9c-0.5-0.5-0.5-0.7,0.2-1c1.1-0.4,2.2-0.9,3.3-1.4
				c0.5-0.2,0.7,0,0.8,0.4c1.4,3.8,2.9,7.6,4.3,11.5c1.1,2.9,2.6,5.5,4.2,8.1c0.6,1,1.7,1.4,2.8,1.5c2.4,0.2,4.7-0.5,7.1-1.1
				c2.7-0.7,5.4-1.6,8.1-2.4c2-0.6,3.3-0.2,4.1,1.1c0.9,1.4,0.6,4.1-0.5,5.3c-1.6,1.7-3.6,2.5-5.8,2.8
				C594.4,414.6,593.8,414.8,593.2,414.7z"/>
			<path class="st6" d="M637.2,286.1c0.7,0.4,0.9,1.2,1.2,1.8c1.8,3.3,3.7,6.7,4.5,10.5c0.7,3.5,1.1,7-0.7,10.3
				c-0.6,1.2-1.5,2.1-2.6,2.8c-0.4,0.2-0.6,0.3-1-0.2c-0.7-0.9-1.5-1.8-2.9-1.7c-0.7,0-1.2,0.3-1.4,0.9c-0.3,0.6-0.2,1.2,0.3,1.7
				c0.8,0.9,1.7,1.4,2.9,1.3c0.7-0.1,0.9,0.2,0.9,0.8c0,1.4-0.1,2.8-1,4c-1.2,1.7-3,2.5-4.9,3c-2.4,0.6-4.9,0.5-7.3,0
				c-0.6-0.1-0.3-0.4-0.2-0.7c1.7-4,3.4-8.1,5-12.1c1.9-5,3.7-10,5.2-15.1C635.9,291.1,636.5,288.6,637.2,286.1z"/>
			<path class="st6" d="M637.8,283.1c0.8-5.4,1.1-10.8,0.8-16.3c2.2,0.6,4,1.7,5.7,2.9c3.1,2.2,6,4.6,8.8,7.1c1,0.9,1,1-0.3,1.5
				C648,280.2,643,281.9,637.8,283.1z"/>
			<path class="st6" d="M539.5,392.3c-1.9-0.1-2.6-0.8-2.6-2.7c0.1-1.2,1.2-2.1,2.6-2c1.6,0.1,2.5,1.9,1.9,3.4
				c-0.1,0.2-0.4,0.4-0.3,0.7C540.6,392,540.1,392.2,539.5,392.3z"/>
			<path class="st6" d="M578.7,377.3c-1.4-1.1-1.7-2.7-0.6-3.8c1.3-1.3,3.4-0.8,3.9,1c0,0.1,0.1,0.2,0.2,0.3
				C581.2,375.8,580,376.6,578.7,377.3z"/>
			<path class="st6" d="M486.1,365.2c0.8-0.4,1.5-1,2.4-0.8c1.6,0.4,2.3,1.8,1.7,3.4c-0.1,0.2-0.1,0.4-0.2,0.5
				C488.5,367.5,487.3,366.3,486.1,365.2z"/>
			<path class="st6" d="M473.7,352c1.1-0.8,2.4-0.7,3.2,0.1c0.9,1,0.8,2.4-0.2,3.6C475.5,354.7,474.6,353.3,473.7,352z"/>
			<path class="st6" d="M606.5,349.1c-0.8-0.9-1.3-1.9-0.6-3.1c0.6-1.1,1.8-1.5,3.2-1C608.2,346.4,607.4,347.8,606.5,349.1z"/>
			<path class="st6" d="M508.1,273.5c-0.5,1.3-1.4,2.1-2.5,1.9c-1.3-0.2-2.1-1.1-2.3-2.5C504.9,273.1,506.5,273.3,508.1,273.5z"/>
			<path class="st6" d="M587.5,412.4c0.2-0.1,0.3-0.2,0.5-0.3c0.5-0.1,1,0,1.2,0.4c0.4,0.5-0.2,0.3-0.4,0.3c-0.2,0-0.4-0.1-0.5-0.2
				C588,412.7,587.7,412.8,587.5,412.4z"/>
			<path class="st6" d="M635.4,269.9c-0.1-1.5,0-3-0.3-4.5c-0.3-1.4-0.5-2.9-1.1-4.2c-2.2-4.3-5.5-7.4-9.9-9.3
				c-3.4-1.5-7-1.5-10.6-1.1c-2.1,0.3-4.1,0.9-6,1.8c-2.1,1-4.2,1.9-5.9,3.6c-2.8,2.7-6,4.9-9.4,6.7c-5.4,2.9-11,5.2-16.9,6.9
				c-4,1.2-8.1,2.2-12.2,2.9c-2.2,0.4-4.3,0.8-6.5,1c-1.7,0.2-3.4,0.4-5.2,0.6c-3.1,0.4-6.2,0.7-9.2,0.7c-5.7,0-11.4,0.2-17.1-0.1
				c-2.3-0.1-4.5-0.2-6.8-0.4c-3.4-0.2-6.8-0.6-10.2-1c-0.2,0.2-0.4,0.4-0.5,0.6c-1.1,1.5-3,1.4-3.8-0.3c-0.1-0.3-0.2-0.6-0.4-0.9
				c-2.2-0.3-4.4-0.7-6.5-1c-4-0.6-8-1.3-11.9-2.2c-4.5-1-8.9-1.9-13.4-3c-3.4-0.8-6.7-1.5-10.1-2.5c-0.2,1.2,0,2.3,0,3.4
				c-0.2,3.9,0,7.8-0.2,11.7c-0.1,1.5-0.1,3.1-0.1,4.6c-0.1,3.5-0.5,7-0.4,10.5c0,5.3-0.2,10.6,0.1,16c0.2,3,0.4,6,0.8,9
				c0.3,2.5,0.7,5.1,1.3,7.5c1,4.3,2.4,8.4,4.1,12.4c1.9,4.4,3.9,8.8,6.7,12.7c0.3,0,0.5-0.1,0.8-0.1c0.9-0.3,1.6-0.1,2.2,0.5
				c0.6,0.6,0.7,1.7,0.2,2.6c-0.1,0.3-0.4,0.5-0.3,0.8c0.2,0.8,0.9,1.3,1.5,1.9c2.6,2.6,5,5.3,8,7.6c0.4,0.1,0.7-0.2,1.1-0.3
				c0.8-0.4,1.6-0.3,2.3,0.3c0.7,0.5,0.8,1.3,0.6,2.1c-0.1,0.3-0.3,0.7-0.1,1c1.3,1.3,2.9,2.3,4.4,3.3c5,3.5,10.3,6.4,15.9,8.8
				c3.8,1.7,7.6,3.5,11.4,5.3c1.5,0.7,3,1.5,4.6,2.1c1.7,0.7,3.4,1.5,4.8,2.8c2.5,2.3,5.3,2.8,8.4,1.6c-0.2-0.3-0.5-0.2-0.8-0.3
				c-1.3-0.4-1.8-1.5-1.4-2.8c0.3-1,1.6-1.6,2.6-1.3c1.1,0.4,1.7,1.6,1.3,2.7c-0.1,0.3-0.4,0.6-0.1,1c0.2-0.1,0.5-0.3,0.7-0.4
				c2.1-1.5,4.4-2.8,6.9-3.6c3.9-1.2,7.9-1.8,12-1.9c1.3,0,2.6-0.2,3.9-0.3c1.6-0.1,3.2-0.4,4.4-1.5c0.7-0.6,1.3-1.5,2.2-2
				c2.6-1.5,5.1-3.1,7.6-4.8c0-0.4-0.3-0.5-0.4-0.7c-0.8-1-0.6-2.5,0.4-3.2c1-0.7,2.3-0.3,3,0.8c0.2,0.2,0.1,0.7,0.6,0.7
				c4.3-2.9,8.3-6.2,12-9.9c2.9-2.8,5.6-5.9,7.9-9.2c1.5-2.2,3.1-4.3,4.3-6.6c0.1-0.4-0.2-0.6-0.3-0.9c-0.8-1.6,0.1-3.2,1.9-3.2
				c0.3,0,0.7,0.1,1,0c1.9-3,3.6-6.2,5.2-9.4c3.3-6.4,6.4-13,9.2-19.7c2.2-5.2,4.2-10.4,6-15.7c1.2-3.4,2.3-6.8,3.3-10.3
				c0.9-3.2,1.5-6.5,2-9.8c0.2-1.4,0.3-2.8,0.4-4.2C635.3,273.9,635.5,271.9,635.4,269.9z M578.3,310.6c-4.3,3.5-8.7,6.7-13.4,9.6
				c-2.5,1.6-5.1,3.1-7.8,4.5c-3.5,1.9-7.3,3.2-11,4.5c-4.1,1.4-8.3,2.7-12.6,3.4c-2.3,0.4-4.6,0.7-6.9,0.9c-2,0.2-3.9,0.1-5.9,0.1
				c-3.9,0.2-7.8-0.2-11.6-1.4c-4.2-1.3-7.6-3.6-10.4-7c-1.7-2.1-3.1-4.3-4.2-6.8c-0.7-1.8-0.9-3.7-0.9-5.5c0-3.1,0.7-6.1,2.6-8.6
				c1.7-2.3,3.9-3.9,6.6-4.9c0.5-0.2,0.9,0,1.2,0.4c2.1,2.4,4.8,2.5,7.7,2.3c1.9-0.2,2.5-1.7,1.3-3.3c-0.9-1.2-2.2-1.9-3.8-2
				c-1.5-0.1-3.1,0-4.5,0.5c-0.6,0.2-1.1,0.2-1.5-0.3c-1.7-2.1-3.3-4.2-4-6.9c-1-4.1-0.6-7.9,2.7-11c1.5-1.4,3.4-1.8,5.3-1.9
				c5-0.4,9.3,1.4,13.4,4.1c3.4,2.2,6.9,4.1,10.4,6c7.5,4.1,15.1,8.1,22.8,11.8c8,3.8,15.9,7.8,24.3,10.6
				C578.8,309.9,578.8,310.2,578.3,310.6z M627.2,267.6c-0.6,1.2-1.8,1.9-2.9,1.8c-1.3-0.2-2.6-1.3-2.9-2.5c-0.4-1.6-0.3-3,0.6-4.4
				c1.4-2.1,4-2,5.2,0.2c0.4,0.8,0.6,1.6,0.5,2.3C627.7,266,627.6,266.8,627.2,267.6z"/>
			<path class="st6" d="M588.2,269c0,1.4-0.9,2.3-2.4,2.3c-1.3,0-2.3-1-2.3-2.3c0-1.4,1-2.4,2.4-2.4
				C587.4,266.6,588.2,267.5,588.2,269z"/>
			<path class="st6" d="M464.1,317.1c-1.5,0-2.4-0.8-2.4-2.3c0-1.5,0.9-2.4,2.3-2.4c1.3,0,2.4,1.1,2.4,2.4
				C466.4,316.1,465.5,317.1,464.1,317.1z"/>
			<path class="st6" d="M513,366.2c-1.4,0-2.2-0.9-2.2-2.3c0-1.4,1-2.4,2.3-2.4c1.4,0,2.4,1.1,2.4,2.5
				C515.5,365.3,514.5,366.2,513,366.2z"/>
			<path class="st6" d="M608.6,266c0-1.4,1-2.4,2.4-2.3c1.4,0,2.3,1,2.3,2.4c0,1.4-1,2.4-2.4,2.3C609.5,268.4,608.6,267.4,608.6,266
				z"/>
			<path class="st6" d="M624,276.6c1.3,0,2.3,0.9,2.3,2.2c0,1.3-1.1,2.5-2.4,2.5c-1.5,0-2.4-1-2.4-2.5
				C621.6,277.4,622.4,276.6,624,276.6z"/>
			<path class="st6" d="M489.4,287.1c0-1.5,0.9-2.4,2.4-2.4c1.3,0,2.3,1.1,2.3,2.4c0,1.4-1,2.3-2.4,2.3
				C490.3,289.4,489.4,288.5,489.4,287.1z"/>
			<path class="st6" d="M564.6,362.2c0-1.4,1-2.3,2.4-2.3c1.3,0,2.3,1.1,2.3,2.4c0,1.3-1.1,2.3-2.4,2.3
				C565.4,364.6,564.6,363.7,564.6,362.2z"/>
			<path class="st6" d="M486.9,339.8c0-1.5,0.8-2.3,2.3-2.3c1.4,0,2.4,1,2.4,2.3c0,1.4-1.1,2.4-2.5,2.4
				C487.9,342.2,486.6,341.2,486.9,339.8z"/>
			<path class="st6" d="M516.1,341c-1.5,0-2.3-0.8-2.3-2.3c0-1.4,1-2.4,2.4-2.4c1.3,0,2.4,1.2,2.3,2.5
				C518.5,340.2,517.5,341,516.1,341z"/>
			<path class="st6" d="M538.5,336.2c0-1.4,0.9-2.4,2.2-2.4c1.4,0,2.5,1,2.5,2.4c0,1.3-1,2.3-2.4,2.3
				C539.4,338.5,538.5,337.6,538.5,336.2z"/>
			<path class="st6" d="M596.9,282.3c-1.6,0-2.2-0.8-2.3-2.5c-0.1-1.5,1.3-2.2,2.3-2.2c1.3,0,2.5,1.2,2.4,2.5
				C599.3,281.2,598.5,282.5,596.9,282.3z"/>
			<path class="st6" d="M467,292c-1.4,0-2.3-0.8-2.3-2.2c0-1.5,0.9-2.5,2.4-2.5c1.3,0,2.4,1.2,2.3,2.5
				C469.4,291.1,468.4,292,467,292z"/>
			<path class="st6" d="M583,291.8c1.4,0,2.2,0.9,2.2,2.3c0,1.5-0.9,2.4-2.3,2.4c-1.3,0-2.4-1.1-2.4-2.5
				C580.5,292.7,581.5,291.8,583,291.8z"/>
			<path class="st6" d="M609.1,317.9c1.4,0,2.3,0.9,2.3,2.3c0,1.4-1,2.4-2.4,2.4c-1.2,0-2.3-1.1-2.3-2.4
				C606.6,318.8,607.6,317.9,609.1,317.9z"/>
			<path class="st6" d="M592.7,334.2c0-1.4,0.9-2.4,2.3-2.3c1.3,0,2.4,1.1,2.4,2.4c0,1.1-0.8,2.4-2.5,2.3
				C593.5,336.5,592.7,335.7,592.7,334.2z"/>
			<path class="st6" d="M551.5,349c0-1.5,0.8-2.3,2.3-2.3c1.3,0,2.4,1.1,2.4,2.3c0,1.4-1.1,2.5-2.5,2.4
				C552.3,351.4,551.5,350.5,551.5,349z"/>
			<path class="st6" d="M523.8,376.7c0-1.5,0.8-2.3,2.3-2.3c1.3,0,2.4,1,2.4,2.3c0,1.4-1.1,2.5-2.5,2.4
				C524.7,379.1,523.8,378.2,523.8,376.7z"/>
			<path class="st6" d="M477,325.3c1.4,0,2.4,1.1,2.4,2.4c0,1.2-1.2,2.3-2.4,2.3c-1.4,0-2.3-1-2.3-2.5
				C474.7,326.1,475.6,325.3,477,325.3z"/>
			<path class="st6" d="M570.1,335.1c0,1.3-1.1,2.4-2.3,2.3c-1.5-0.1-2.4-1-2.4-2.4c0-1.3,1.1-2.5,2.4-2.4
				C569,332.7,570.3,333.8,570.1,335.1z"/>
			<path class="st6" d="M542.4,362.8c0,1.2-1.2,2.4-2.4,2.3c-1.5-0.1-2.3-1.1-2.3-2.4c0-1.3,1.2-2.6,2.4-2.4
				C541.4,360.4,542.7,361.4,542.4,362.8z"/>
			<path class="st6" d="M544.9,286.5c-1.3,0-2.4-1.1-2.4-2.3c0.1-1.5,1-2.4,2.4-2.4c1.3,0,2.5,1.1,2.4,2.3
				C547.3,285.4,546.1,286.7,544.9,286.5z"/>
			<path class="st6" d="M612.1,293c0,1.5-0.8,2.3-2.3,2.3c-1.7,0-2.3-1.1-2.4-2.3c-0.1-1.2,1.2-2.4,2.5-2.4
				C611.3,290.6,612.1,291.6,612.1,293z"/>
			<path class="st6" d="M623,308.5c-1.5,0-2.4-1-2.4-2.4c0-1.2,1.2-2.4,2.4-2.3c1.3,0,2.5,1.2,2.4,2.5
				C625.3,307.6,624.6,308.5,623,308.5z"/>
			<path class="st6" d="M483,276.1c0.2,1.5-1,2.2-2.2,2.3c-1.3,0.1-2.6-1.2-2.5-2.5c0.1-1.2,0.6-2.2,2.4-2.2
				C482.2,273.7,483,274.5,483,276.1z"/>
			<path class="st6" d="M595.9,304.7c1.4,0,2.3,0.9,2.3,2.3c0,1.3-1.1,2.4-2.3,2.4c-1.3,0-2.4-1.1-2.4-2.4
				C593.5,305.5,594.3,304.7,595.9,304.7z"/>
			<path class="st6" d="M558.3,299.4c-1.1,0-2.1-0.5-2.8-1.4c0.1-0.5-0.3-0.9-0.2-1.4c0.3-1.2,1.1-1.9,2.3-1.9
				c1.1,0,2.1,0.7,2.3,1.6c0.3,1.3-0.1,2.3-1.2,2.9C558.7,299.3,558.5,299.3,558.3,299.4z"/>
			<path class="st6" d="M571.8,285.3c-1.5,0-2.3-0.9-2.3-2.3c0-1.7,1.2-2.3,2.4-2.4c1.2-0.1,2.3,1.2,2.3,2.4
				C574.3,284.4,573.3,285.3,571.8,285.3z"/>
			<path class="st6" d="M583.3,348.3c0,1.7-1.2,2.3-2.4,2.4c-1.2,0.1-2.3-1.2-2.3-2.4c0-1.4,1-2.3,2.4-2.3
				C582.5,346,583.3,346.8,583.3,348.3z"/>
			<path class="st6" d="M527.2,347.5c1.5,0,2.3,0.8,2.3,2.3c0,1.4-0.9,2.4-2.2,2.4c-1.3,0-2.5-1.2-2.5-2.4
				C524.8,348.6,525.7,347.3,527.2,347.5z"/>
			<path class="st6" d="M593.9,363.4c-1.5,0-2.4-0.8-2.4-2.3c0-1.2,1.2-2.4,2.4-2.4c1.2,0,2.4,1.1,2.3,2.4
				C596.2,362.6,595.4,363.4,593.9,363.4z"/>
			<path class="st6" d="M480.4,300.7c0,1.4-1,2.4-2.2,2.4c-1.3,0-2.5-1.2-2.5-2.4c0.1-1.1,0.7-2.4,2.4-2.3
				C479.6,298.5,480.4,299.3,480.4,300.7z"/>
			<path class="st6" d="M553.3,373.6c1.5,0,2.3,0.9,2.3,2.3c0,1.7-1.2,2.3-2.4,2.4c-1.2,0.1-2.3-1.2-2.3-2.4
				C550.9,374.5,551.8,373.6,553.3,373.6z"/>
			<path class="st6" d="M504.4,352.9c0.2,1.5-1.1,2.2-2.3,2.3c-1.2,0.1-2.5-1.1-2.4-2.3c0.1-1.2,0.7-2.4,2.5-2.4
				C503.6,350.5,504.4,351.3,504.4,352.9z"/>
			<path class="st6" d="M579.5,320.9c0-1.4,0.9-2.3,2.2-2.3c1.3,0,2.6,1.2,2.4,2.4c-0.1,1.2-1.1,2.4-2.5,2.3
				C580.3,323.3,579.5,322.5,579.5,320.9z"/>
			<path class="st6" d="M492,311.4c0.1,0.2,0.2,0.4,0.2,0.7c0,1.2,0,2.4,0,3.6c-1.1,0.3-2.1,0.4-3-0.5c-0.7-0.8-0.7-1.6-0.4-2.5
				C489.3,311.6,490.4,311.1,492,311.4z"/>
			<path class="st6" d="M510.3,300.9c-1.8-0.1-3.4-0.4-4.7-1.5c-0.2-0.1-0.4-0.3-0.4-0.5c0-0.3,0.3-0.2,0.5-0.3
				c1.4-0.4,2.8-0.5,4.2-0.2c0.7,0.2,1.3,0.5,1.8,1.1c0.6,0.6,0.4,1.1-0.4,1.3C511,300.8,510.6,300.9,510.3,300.9z"/>
			<path class="st6" d="M623.3,266.7c-1.1-1.1-0.5-3.1,0.6-3.8c0.4-0.3,0.9-0.2,1.3-0.1c0.2,0,0.3,0.3,0.4,0.5
				c0.1,0.3-0.3,0.3-0.3,0.3C623.6,263.9,623.3,265.1,623.3,266.7z"/>
			<path class="st6" d="M625.4,267.2c-0.3-0.2-0.4-0.6-0.6-1c-0.3-0.4,0.1-0.7,0.3-1c0.1-0.2,0.4-0.1,0.5,0.1
				c0.1,0.4,0.7,0.7,0.3,1.3C625.7,266.7,625.5,267,625.4,267.2z"/>
		</g>
	</g>
	<g>
		<g>
			<path class="st13" d="M437.7,611.3L437.7,611.3c-12.5,11.4-32.6,3.4-33.9-13.4v0c-1.1-14.6-16.8-23.2-29.8-16.4h0
				c-7.9,4.2-16.6,2.6-22.6-2.3l-182.1,330l120.9-65.9l18.2,140.5l158.8-370.1C460.2,604.8,446.7,603.1,437.7,611.3z"/>
			<path class="st13" d="M708.1,582.6c-5.1,2-11.1,1.9-16.7-1.1h0c-12.9-6.9-28.6,1.8-29.8,16.4v0c-1.3,16.9-21.4,24.8-33.9,13.4
				l0,0c-10.8-9.9-28.2-5.4-32.9,8.4l0,0c-0.3,0.8-0.6,1.5-0.9,2.2l155.3,361.8l18.2-140.5l120.9,65.9L708.1,582.6z"/>
			<path class="st13" d="M811.9,359L811.9,359c-11.7-8.8-10.6-26.7,2.1-33.9h0c14.7-8.3,13.4-30-2.3-36.4h0
				c-13.5-5.6-16.9-23.2-6.4-33.3l0,0c12.2-11.7,5.5-32.3-11.3-34.7l0,0c-14.5-2-22.1-18.3-14.5-30.7v0c8.9-14.4-2.7-32.7-19.5-30.8
				l0,0c-14.5,1.7-26-12.2-21.6-26.2l0,0c5-16.1-10.8-31-26.6-25h0c-13.7,5.2-28.2-5.3-27.5-20v0c0.8-16.9-18.1-27.3-31.9-17.6h0
				c-11.9,8.5-28.6,1.8-31.6-12.5v0c-3.4-16.6-24.4-22-35.3-9.1l0,0c-9.5,11.2-27.3,8.9-33.7-4.3v0c-7.4-15.2-29.1-15.2-36.5,0v0
				c-6.4,13.2-24.2,15.4-33.7,4.3v0c-10.9-12.9-31.9-7.5-35.3,9.1v0c-2.9,14.3-19.6,21-31.6,12.5h0c-13.8-9.8-32.8,0.7-31.9,17.6v0
				c0.7,14.6-13.8,25.2-27.5,20h0c-15.8-6-31.6,8.8-26.6,25v0c4.3,14-7.1,27.8-21.6,26.2l0,0c-16.8-1.9-28.4,16.4-19.5,30.8v0
				c7.7,12.5,0,28.7-14.5,30.7l0,0c-16.8,2.3-23.4,22.9-11.3,34.7v0c10.5,10.2,7.2,27.8-6.4,33.3h0c-15.6,6.4-17,28.1-2.3,36.4h0
				c12.7,7.2,13.9,25.1,2.1,33.9l0,0c-13.6,10.1-9.5,31.4,6.8,35.8h0c14.1,3.8,19.7,20.9,10.5,32.3l0,0c-10.6,13.2-1.4,32.8,15.5,33
				h0c14.6,0.2,24.3,15.3,18.2,28.7v0c-7,15.4,6.8,32.1,23.2,28.1l0,0c14.2-3.5,27.3,8.8,24.7,23.2v0c-3,16.7,14.6,29.4,29.5,21.4h0
				c12.9-6.9,28.6,1.8,29.8,16.4v0c1.3,16.9,21.4,24.8,33.9,13.4l0,0c10.8-9.9,28.2-5.4,32.9,8.4v0c5.4,16,26.9,18.7,36.2,4.6l0,0
				c8-12.3,26-12.3,34,0v0c9.2,14.2,30.7,11.4,36.2-4.6l0,0c4.7-13.9,22.1-18.3,32.9-8.4l0,0c12.5,11.4,32.6,3.4,33.9-13.4v0
				c1.1-14.6,16.8-23.2,29.8-16.4h0c14.9,8,32.5-4.8,29.5-21.4v0c-2.6-14.4,10.5-26.7,24.7-23.2l0,0c16.4,4,30.2-12.7,23.2-28.1l0,0
				c-6.1-13.3,3.6-28.5,18.2-28.7h0c16.9-0.2,26.1-19.8,15.5-33l0,0c-9.2-11.4-3.6-28.5,10.5-32.3h0
				C821.4,390.4,825.4,369.1,811.9,359z M533.7,546.8c-123.4,0-223.3-100-223.3-223.3s100-223.3,223.3-223.3S757,200.1,757,323.4
				S657,546.8,533.7,546.8z"/>
		</g>
		<g>
			<path class="st13" d="M651.5,242.2c0,4.2-1.7,8-4.7,11.3c-1.2,1.3-2.4,2.7-3.8,3.8c-1.7,1.3-3.7,2-5.5,3
				c-0.5,0.3-0.5-0.2-0.6-0.3c-0.9-2-2-3.8-3.4-5.5c-2.4-3-5.4-5.1-9-6.3c-5.7-1.8-11.3-1.3-16.7,1.2c-1.2,0.6-2.4,1.1-3.6,1.9
				c-0.4,0.3-0.7,0.4-0.8-0.4c-0.3-3.3-1-6.6-1.9-9.8c-1-3.6-2.1-7.1-2-10.9c0.1-2.8,1.4-4.9,3.6-6.6c1.8-1.3,3.8-2,5.9-2.3
				c2.1-0.4,5.5,1.4,6.5,3.3c0.3,0.5-0.1,0.9-0.2,1.3c-0.4,1.2-1.1,2.4-1,3.8c0,0.9,0.2,1.6,1.1,1.8c0.9,0.3,1.8-0.3,2.2-1.3
				c0.5-1.4,0.6-2.8,0.1-4.2c-0.2-0.6,0-1.2,0.4-1.6c1.9-1.6,3.9-2.9,6.4-3.4c3.3-0.7,6.2,0,8.9,1.9c2.5,1.7,3.4,4.3,4.2,7
				c0.1,0.4,0,0.7-0.4,1c-1.3,0.8-2.4,1.8-2.6,3.4c-0.2,1.4,0.2,2.7,1.1,3.7c0.8,0.8,1.9,0.4,2.7-0.9c0.8-1.4,1-2.9,1-4.5
				c0-1.3,0-1.3,1.3-1.4c5.8-0.6,9.4,3.1,10.5,7.9C651.5,240.1,651.4,241,651.5,242.2z"/>
			<path class="st13" d="M457.8,264.2c-2.4-0.9-4.5-2.2-6.9-3.1c-2.1-0.8-4.3-1.2-6.5-1.6c-1.3-0.2-2.5-0.1-3.8-0.2
				c-2.2,0-4.4,0.5-6.6,0.9c-2.1,0.3-4.2,0.7-6.3,0.9c-2.2,0.2-4.3,0.2-6.4,0.1c-4.6-0.1-8.8-1.3-12.4-4.3c-2.6-2.2-4.2-4.9-4.9-8.1
				c-0.7-3.3,0.4-6.4,2.2-9.1c2.2-3.3,5.3-5.2,9.1-6.3c2.1-0.6,4.2-0.9,6.3-0.7c2.9,0.3,5.8,1,8.6,2c5,1.7,9.6,4.2,13.6,7.5
				c4.1,3.4,7.4,7.4,10.1,12c1.6,2.7,3.1,5.5,3.7,8.6C457.8,263.3,457.8,263.7,457.8,264.2z"/>
			<path class="st13" d="M443.2,264.7c5-0.1,9.5,0.8,13.8,2.7c0.2,0.1,0.4,0.2,0.6,0.3c0.1,0.1,0.3,0.3,0.3,0.4
				c0,0.2-0.3,0.2-0.5,0.3c-3.2,1-6,2.7-8.2,5.1c-1.6,1.7-2.7,3.7-3.7,5.8c-1.6,3.6-2.9,7.4-4.1,11.1c-0.8,2.6-1.6,5.2-2.5,7.7
				c-1.1,3-2.6,5.8-5.1,7.9c-4.1,3.4-8.6,3.7-13.1,0.5c-3.8-2.7-5.6-6.5-6.4-11.1c-0.9-5.2,0.1-9.9,2.2-14.6c1.5-3.4,3.6-6.4,6.2-9
				c2.7-2.7,6.2-4.4,9.8-5.5C436.1,265.3,439.8,264.5,443.2,264.7z"/>
			<path class="st13" d="M470.6,236.6c-0.1,1.8,0.2,3.3,0.2,4.9c-0.1,4.9-1.3,9.5-3.2,13.9c-0.9,2.1-2,4-3.1,6
				c-0.3,0.5-0.6,1-1.3,0.8c-1-0.3-2.1-0.2-2.3-1.6c-0.5-2.8-1-5.6-2.2-8.3c-1.3-2.9-2.8-5.7-5-8.1c-2.1-2.4-4.3-4.8-6.5-7.1
				c-1.9-2-3.8-4.1-5.6-6.2c-2.2-2.7-3.1-5.8-2.6-9.3c0.2-1.5,0.3-3,0.8-4.4c1-3,3.3-5,6.1-6c4.2-1.6,8.4-1.6,12.4,0.6
				c3.1,1.7,5.3,4.2,7.2,7.1c2.4,3.6,3.8,7.6,4.5,11.9C470.3,232.8,470.6,234.8,470.6,236.6z"/>
			<path class="st13" d="M535.5,439c-1.9,0-3.6-0.8-5-1.9c-2.1-1.6-3.8-3.5-5.2-5.7c-0.2-0.3-0.3-0.5-0.3-0.8c0.1-1.3-0.3-2.6-0.2-4
				c0-0.8-0.2-1.6-1.3-1.9c-0.6-0.2-0.8,0-1,0.5c-0.5,1.5-0.4,2.9,0.3,4.3c0.6,1.3,0.6,2.6,0.3,4c-0.5,2.1-0.9,4.2-1.4,6.3
				c-0.5,1.8-1.2,3.6-2.8,4.7c-2.7,2-6.5,0.3-7.2-3.4c-0.6-3,0.5-5.7,1.5-8.4c0.2-0.6,0.4-1.1,0.7-1.7c0.3-0.6,0.6-1.3,1.2-1.6
				c1.5-0.9,2.1-2.4,2.5-4c0.1-0.5-0.2-0.8-0.5-1.1c-0.5-0.4-0.9-0.2-1.4,0.1c-0.8,0.5-1.2,1.3-1.4,2.1c-0.7,2.8-2.8,3.8-5.2,4.4
				c-1.8,0.5-3.6,0.7-5.5,0.1c-2.1-0.6-2.3-2.1-1.9-3.8c0.3-1.5,1.3-2.5,2.5-3.4c2.4-1.6,5-2.5,7.8-3.3c3.3-1,6.7-1.9,10-2.8
				c0.7-0.2,1.4-0.7,1.7-1.5c2.4-5,4.5-10.1,6-15.5c0.5-1.7,1-3.3,1.5-5c0.2-0.6,0.4-0.9,1.1-0.6c0.9,0.4,1.8,0.8,2.7,1
				c0.7,0.2,0.6,0.5,0.4,1c-0.8,2-1.7,4-2.5,6c-2.1,5.4-4.1,10.7-6.2,16.1c-0.3,0.8-0.1,1.4,0.5,2c2.9,2.7,5.8,5.3,8.6,8
				c1.7,1.6,2.7,3.6,3,5.9C539,437.3,537.5,439,535.5,439z"/>
			<path class="st13" d="M593.2,414.7c-1,0.1-1.8-0.2-2.5-0.9c-1.1-1-2.3-1.3-3.8-0.9c-0.7,0.2-1.2,0.6-1.3,1.3
				c-0.1,0.8,0.4,1.2,1,1.5c0.7,0.4,1.5,0.7,2.3,0.6c1.9-0.3,3,0.5,3.7,2.2c1.4,2.9,3,5.6,3.8,8.8c0.5,1.9,0.1,3.9-1.3,4.7
				c-1.9,1.1-3.8,1.1-5.7,0.1c-3.6-2-5.9-5.2-7.4-8.9c-0.1-0.3-0.3-0.6-0.5-1c-0.5-0.9-0.6-1.8-0.1-2.8c0.6-1.4,1.2-2.8,0.2-4.3
				c-0.5-0.8-1.4-1.4-2.1-1.2c-1,0.3-1.4,0.9-1.5,2.1c0,1.1,0.1,2.1,0.7,3.1c0.8,1.4,0.1,2.5-0.8,3.4c-2.1,2.2-4.2,4.5-7.1,5.8
				c-1.4,0.6-2.6,0.3-3.6-0.5c-1.1-0.8-1.6-2-1.4-3.5c0.3-1.8,0.7-3.5,1.7-5c1.1-1.7,2.5-3.2,4.1-4.5c0.9-0.7,1.8-1.4,2.6-2.2
				c0.9-0.9,1.3-1.9,0.9-3.2c-1.3-5-3-9.9-5.1-14.6c-0.9-1.9-2.3-3.5-3.9-4.9c-0.5-0.5-0.5-0.7,0.2-1c1.1-0.4,2.2-0.9,3.3-1.4
				c0.5-0.2,0.7,0,0.8,0.4c1.4,3.8,2.9,7.6,4.3,11.5c1.1,2.9,2.6,5.5,4.2,8.1c0.6,1,1.7,1.4,2.8,1.5c2.4,0.2,4.7-0.5,7.1-1.1
				c2.7-0.7,5.4-1.6,8.1-2.4c2-0.6,3.3-0.2,4.1,1.1c0.9,1.4,0.6,4.1-0.5,5.3c-1.6,1.7-3.6,2.5-5.8,2.8
				C594.4,414.6,593.8,414.8,593.2,414.7z"/>
			<path class="st13" d="M637.2,286.1c0.7,0.4,0.9,1.2,1.2,1.8c1.8,3.3,3.7,6.7,4.5,10.5c0.7,3.5,1.1,7-0.7,10.3
				c-0.6,1.2-1.5,2.1-2.6,2.8c-0.4,0.2-0.6,0.3-1-0.2c-0.7-0.9-1.5-1.8-2.9-1.7c-0.7,0-1.2,0.3-1.4,0.9c-0.3,0.6-0.2,1.2,0.3,1.7
				c0.8,0.9,1.7,1.4,2.9,1.3c0.7-0.1,0.9,0.2,0.9,0.8c0,1.4-0.1,2.8-1,4c-1.2,1.7-3,2.5-4.9,3c-2.4,0.6-4.9,0.5-7.3,0
				c-0.6-0.1-0.3-0.4-0.2-0.7c1.7-4,3.4-8.1,5-12.1c1.9-5,3.7-10,5.2-15.1C635.9,291.1,636.5,288.6,637.2,286.1z"/>
			<path class="st13" d="M637.8,283.1c0.8-5.4,1.1-10.8,0.8-16.3c2.2,0.6,4,1.7,5.7,2.9c3.1,2.2,6,4.6,8.8,7.1c1,0.9,1,1-0.3,1.5
				C648,280.2,643,281.9,637.8,283.1z"/>
			<path class="st13" d="M539.5,392.3c-1.9-0.1-2.6-0.8-2.6-2.7c0.1-1.2,1.2-2.1,2.6-2c1.6,0.1,2.5,1.9,1.9,3.4
				c-0.1,0.2-0.4,0.4-0.3,0.7C540.6,392,540.1,392.2,539.5,392.3z"/>
			<path class="st13" d="M578.7,377.3c-1.4-1.1-1.7-2.7-0.6-3.8c1.3-1.3,3.4-0.8,3.9,1c0,0.1,0.1,0.2,0.2,0.3
				C581.2,375.8,580,376.6,578.7,377.3z"/>
			<path class="st13" d="M486.1,365.2c0.8-0.4,1.5-1,2.4-0.8c1.6,0.4,2.3,1.8,1.7,3.4c-0.1,0.2-0.1,0.4-0.2,0.5
				C488.5,367.5,487.3,366.3,486.1,365.2z"/>
			<path class="st13" d="M473.7,352c1.1-0.8,2.4-0.7,3.2,0.1c0.9,1,0.8,2.4-0.2,3.6C475.5,354.7,474.6,353.3,473.7,352z"/>
			<path class="st13" d="M606.5,349.1c-0.8-0.9-1.3-1.9-0.6-3.1c0.6-1.1,1.8-1.5,3.2-1C608.2,346.4,607.4,347.8,606.5,349.1z"/>
			<path class="st13" d="M508.1,273.5c-0.5,1.3-1.4,2.1-2.5,1.9c-1.3-0.2-2.1-1.1-2.3-2.5C504.9,273.1,506.5,273.3,508.1,273.5z"/>
			<path class="st13" d="M587.5,412.4c0.2-0.1,0.3-0.2,0.5-0.3c0.5-0.1,1,0,1.2,0.4c0.4,0.5-0.2,0.3-0.4,0.3c-0.2,0-0.4-0.1-0.5-0.2
				C588,412.7,587.7,412.8,587.5,412.4z"/>
			<path class="st13" d="M635.4,269.9c-0.1-1.5,0-3-0.3-4.5c-0.3-1.4-0.5-2.9-1.1-4.2c-2.2-4.3-5.5-7.4-9.9-9.3
				c-3.4-1.5-7-1.5-10.6-1.1c-2.1,0.3-4.1,0.9-6,1.8c-2.1,1-4.2,1.9-5.9,3.6c-2.8,2.7-6,4.9-9.4,6.7c-5.4,2.9-11,5.2-16.9,6.9
				c-4,1.2-8.1,2.2-12.2,2.9c-2.2,0.4-4.3,0.8-6.5,1c-1.7,0.2-3.4,0.4-5.2,0.6c-3.1,0.4-6.2,0.7-9.2,0.7c-5.7,0-11.4,0.2-17.1-0.1
				c-2.3-0.1-4.5-0.2-6.8-0.4c-3.4-0.2-6.8-0.6-10.2-1c-0.2,0.2-0.4,0.4-0.5,0.6c-1.1,1.5-3,1.4-3.8-0.3c-0.1-0.3-0.2-0.6-0.4-0.9
				c-2.2-0.3-4.4-0.7-6.5-1c-4-0.6-8-1.3-11.9-2.2c-4.5-1-8.9-1.9-13.4-3c-3.4-0.8-6.7-1.5-10.1-2.5c-0.2,1.2,0,2.3,0,3.4
				c-0.2,3.9,0,7.8-0.2,11.7c-0.1,1.5-0.1,3.1-0.1,4.6c-0.1,3.5-0.5,7-0.4,10.5c0,5.3-0.2,10.6,0.1,16c0.2,3,0.4,6,0.8,9
				c0.3,2.5,0.7,5.1,1.3,7.5c1,4.3,2.4,8.4,4.1,12.4c1.9,4.4,3.9,8.8,6.7,12.7c0.3,0,0.5-0.1,0.8-0.1c0.9-0.3,1.6-0.1,2.2,0.5
				c0.6,0.6,0.7,1.7,0.2,2.6c-0.1,0.3-0.4,0.5-0.3,0.8c0.2,0.8,0.9,1.3,1.5,1.9c2.6,2.6,5,5.3,8,7.6c0.4,0.1,0.7-0.2,1.1-0.3
				c0.8-0.4,1.6-0.3,2.3,0.3c0.7,0.5,0.8,1.3,0.6,2.1c-0.1,0.3-0.3,0.7-0.1,1c1.3,1.3,2.9,2.3,4.4,3.3c5,3.5,10.3,6.4,15.9,8.8
				c3.8,1.7,7.6,3.5,11.4,5.3c1.5,0.7,3,1.5,4.6,2.1c1.7,0.7,3.4,1.5,4.8,2.8c2.5,2.3,5.3,2.8,8.4,1.6c-0.2-0.3-0.5-0.2-0.8-0.3
				c-1.3-0.4-1.8-1.5-1.4-2.8c0.3-1,1.6-1.6,2.6-1.3c1.1,0.4,1.7,1.6,1.3,2.7c-0.1,0.3-0.4,0.6-0.1,1c0.2-0.1,0.5-0.3,0.7-0.4
				c2.1-1.5,4.4-2.8,6.9-3.6c3.9-1.2,7.9-1.8,12-1.9c1.3,0,2.6-0.2,3.9-0.3c1.6-0.1,3.2-0.4,4.4-1.5c0.7-0.6,1.3-1.5,2.2-2
				c2.6-1.5,5.1-3.1,7.6-4.8c0-0.4-0.3-0.5-0.4-0.7c-0.8-1-0.6-2.5,0.4-3.2c1-0.7,2.3-0.3,3,0.8c0.2,0.2,0.1,0.7,0.6,0.7
				c4.3-2.9,8.3-6.2,12-9.9c2.9-2.8,5.6-5.9,7.9-9.2c1.5-2.2,3.1-4.3,4.3-6.6c0.1-0.4-0.2-0.6-0.3-0.9c-0.8-1.6,0.1-3.2,1.9-3.2
				c0.3,0,0.7,0.1,1,0c1.9-3,3.6-6.2,5.2-9.4c3.3-6.4,6.4-13,9.2-19.7c2.2-5.2,4.2-10.4,6-15.7c1.2-3.4,2.3-6.8,3.3-10.3
				c0.9-3.2,1.5-6.5,2-9.8c0.2-1.4,0.3-2.8,0.4-4.2C635.3,273.9,635.5,271.9,635.4,269.9z M578.3,310.6c-4.3,3.5-8.7,6.7-13.4,9.6
				c-2.5,1.6-5.1,3.1-7.8,4.5c-3.5,1.9-7.3,3.2-11,4.5c-4.1,1.4-8.3,2.7-12.6,3.4c-2.3,0.4-4.6,0.7-6.9,0.9c-2,0.2-3.9,0.1-5.9,0.1
				c-3.9,0.2-7.8-0.2-11.6-1.4c-4.2-1.3-7.6-3.6-10.4-7c-1.7-2.1-3.1-4.3-4.2-6.8c-0.7-1.8-0.9-3.7-0.9-5.5c0-3.1,0.7-6.1,2.6-8.6
				c1.7-2.3,3.9-3.9,6.6-4.9c0.5-0.2,0.9,0,1.2,0.4c2.1,2.4,4.8,2.5,7.7,2.3c1.9-0.2,2.5-1.7,1.3-3.3c-0.9-1.2-2.2-1.9-3.8-2
				c-1.5-0.1-3.1,0-4.5,0.5c-0.6,0.2-1.1,0.2-1.5-0.3c-1.7-2.1-3.3-4.2-4-6.9c-1-4.1-0.6-7.9,2.7-11c1.5-1.4,3.4-1.8,5.3-1.9
				c5-0.4,9.3,1.4,13.4,4.1c3.4,2.2,6.9,4.1,10.4,6c7.5,4.1,15.1,8.1,22.8,11.8c8,3.8,15.9,7.8,24.3,10.6
				C578.8,309.9,578.8,310.2,578.3,310.6z M627.2,267.6c-0.6,1.2-1.8,1.9-2.9,1.8c-1.3-0.2-2.6-1.3-2.9-2.5c-0.4-1.6-0.3-3,0.6-4.4
				c1.4-2.1,4-2,5.2,0.2c0.4,0.8,0.6,1.6,0.5,2.3C627.7,266,627.6,266.8,627.2,267.6z"/>
			<path class="st13" d="M588.2,269c0,1.4-0.9,2.3-2.4,2.3c-1.3,0-2.3-1-2.3-2.3c0-1.4,1-2.4,2.4-2.4
				C587.4,266.6,588.2,267.5,588.2,269z"/>
			<path class="st13" d="M464.1,317.1c-1.5,0-2.4-0.8-2.4-2.3c0-1.5,0.9-2.4,2.3-2.4c1.3,0,2.4,1.1,2.4,2.4
				C466.4,316.1,465.5,317.1,464.1,317.1z"/>
			<path class="st13" d="M513,366.2c-1.4,0-2.2-0.9-2.2-2.3c0-1.4,1-2.4,2.3-2.4c1.4,0,2.4,1.1,2.4,2.5
				C515.5,365.3,514.5,366.2,513,366.2z"/>
			<path class="st13" d="M608.6,266c0-1.4,1-2.4,2.4-2.3c1.4,0,2.3,1,2.3,2.4c0,1.4-1,2.4-2.4,2.3
				C609.5,268.4,608.6,267.4,608.6,266z"/>
			<path class="st13" d="M624,276.6c1.3,0,2.3,0.9,2.3,2.2c0,1.3-1.1,2.5-2.4,2.5c-1.5,0-2.4-1-2.4-2.5
				C621.6,277.4,622.4,276.6,624,276.6z"/>
			<path class="st13" d="M489.4,287.1c0-1.5,0.9-2.4,2.4-2.4c1.3,0,2.3,1.1,2.3,2.4c0,1.4-1,2.3-2.4,2.3
				C490.3,289.4,489.4,288.5,489.4,287.1z"/>
			<path class="st13" d="M564.6,362.2c0-1.4,1-2.3,2.4-2.3c1.3,0,2.3,1.1,2.3,2.4c0,1.3-1.1,2.3-2.4,2.3
				C565.4,364.6,564.6,363.7,564.6,362.2z"/>
			<path class="st13" d="M486.9,339.8c0-1.5,0.8-2.3,2.3-2.3c1.4,0,2.4,1,2.4,2.3c0,1.4-1.1,2.4-2.5,2.4
				C487.9,342.2,486.6,341.2,486.9,339.8z"/>
			<path class="st13" d="M516.1,341c-1.5,0-2.3-0.8-2.3-2.3c0-1.4,1-2.4,2.4-2.4c1.3,0,2.4,1.2,2.3,2.5
				C518.5,340.2,517.5,341,516.1,341z"/>
			<path class="st13" d="M538.5,336.2c0-1.4,0.9-2.4,2.2-2.4c1.4,0,2.5,1,2.5,2.4c0,1.3-1,2.3-2.4,2.3
				C539.4,338.5,538.5,337.6,538.5,336.2z"/>
			<path class="st13" d="M596.9,282.3c-1.6,0-2.2-0.8-2.3-2.5c-0.1-1.5,1.3-2.2,2.3-2.2c1.3,0,2.5,1.2,2.4,2.5
				C599.3,281.2,598.5,282.5,596.9,282.3z"/>
			<path class="st13" d="M467,292c-1.4,0-2.3-0.8-2.3-2.2c0-1.5,0.9-2.5,2.4-2.5c1.3,0,2.4,1.2,2.3,2.5
				C469.4,291.1,468.4,292,467,292z"/>
			<path class="st13" d="M583,291.8c1.4,0,2.2,0.9,2.2,2.3c0,1.5-0.9,2.4-2.3,2.4c-1.3,0-2.4-1.1-2.4-2.5
				C580.5,292.7,581.5,291.8,583,291.8z"/>
			<path class="st13" d="M609.1,317.9c1.4,0,2.3,0.9,2.3,2.3c0,1.4-1,2.4-2.4,2.4c-1.2,0-2.3-1.1-2.3-2.4
				C606.6,318.8,607.6,317.9,609.1,317.9z"/>
			<path class="st13" d="M592.7,334.2c0-1.4,0.9-2.4,2.3-2.3c1.3,0,2.4,1.1,2.4,2.4c0,1.1-0.8,2.4-2.5,2.3
				C593.5,336.5,592.7,335.7,592.7,334.2z"/>
			<path class="st13" d="M551.5,349c0-1.5,0.8-2.3,2.3-2.3c1.3,0,2.4,1.1,2.4,2.3c0,1.4-1.1,2.5-2.5,2.4
				C552.3,351.4,551.5,350.5,551.5,349z"/>
			<path class="st13" d="M523.8,376.7c0-1.5,0.8-2.3,2.3-2.3c1.3,0,2.4,1,2.4,2.3c0,1.4-1.1,2.5-2.5,2.4
				C524.7,379.1,523.8,378.2,523.8,376.7z"/>
			<path class="st13" d="M477,325.3c1.4,0,2.4,1.1,2.4,2.4c0,1.2-1.2,2.3-2.4,2.3c-1.4,0-2.3-1-2.3-2.5
				C474.7,326.1,475.6,325.3,477,325.3z"/>
			<path class="st13" d="M570.1,335.1c0,1.3-1.1,2.4-2.3,2.3c-1.5-0.1-2.4-1-2.4-2.4c0-1.3,1.1-2.5,2.4-2.4
				C569,332.7,570.3,333.8,570.1,335.1z"/>
			<path class="st13" d="M542.4,362.8c0,1.2-1.2,2.4-2.4,2.3c-1.5-0.1-2.3-1.1-2.3-2.4c0-1.3,1.2-2.6,2.4-2.4
				C541.4,360.4,542.7,361.4,542.4,362.8z"/>
			<path class="st13" d="M544.9,286.5c-1.3,0-2.4-1.1-2.4-2.3c0.1-1.5,1-2.4,2.4-2.4c1.3,0,2.5,1.1,2.4,2.3
				C547.3,285.4,546.1,286.7,544.9,286.5z"/>
			<path class="st13" d="M612.1,293c0,1.5-0.8,2.3-2.3,2.3c-1.7,0-2.3-1.1-2.4-2.3c-0.1-1.2,1.2-2.4,2.5-2.4
				C611.3,290.6,612.1,291.6,612.1,293z"/>
			<path class="st13" d="M623,308.5c-1.5,0-2.4-1-2.4-2.4c0-1.2,1.2-2.4,2.4-2.3c1.3,0,2.5,1.2,2.4,2.5
				C625.3,307.6,624.6,308.5,623,308.5z"/>
			<path class="st13" d="M483,276.1c0.2,1.5-1,2.2-2.2,2.3c-1.3,0.1-2.6-1.2-2.5-2.5c0.1-1.2,0.6-2.2,2.4-2.2
				C482.2,273.7,483,274.5,483,276.1z"/>
			<path class="st13" d="M595.9,304.7c1.4,0,2.3,0.9,2.3,2.3c0,1.3-1.1,2.4-2.3,2.4c-1.3,0-2.4-1.1-2.4-2.4
				C593.5,305.5,594.3,304.7,595.9,304.7z"/>
			<path class="st13" d="M558.3,299.4c-1.1,0-2.1-0.5-2.8-1.4c0.1-0.5-0.3-0.9-0.2-1.4c0.3-1.2,1.1-1.9,2.3-1.9
				c1.1,0,2.1,0.7,2.3,1.6c0.3,1.3-0.1,2.3-1.2,2.9C558.7,299.3,558.5,299.3,558.3,299.4z"/>
			<path class="st13" d="M571.8,285.3c-1.5,0-2.3-0.9-2.3-2.3c0-1.7,1.2-2.3,2.4-2.4c1.2-0.1,2.3,1.2,2.3,2.4
				C574.3,284.4,573.3,285.3,571.8,285.3z"/>
			<path class="st13" d="M583.3,348.3c0,1.7-1.2,2.3-2.4,2.4c-1.2,0.1-2.3-1.2-2.3-2.4c0-1.4,1-2.3,2.4-2.3
				C582.5,346,583.3,346.8,583.3,348.3z"/>
			<path class="st13" d="M527.2,347.5c1.5,0,2.3,0.8,2.3,2.3c0,1.4-0.9,2.4-2.2,2.4c-1.3,0-2.5-1.2-2.5-2.4
				C524.8,348.6,525.7,347.3,527.2,347.5z"/>
			<path class="st13" d="M593.9,363.4c-1.5,0-2.4-0.8-2.4-2.3c0-1.2,1.2-2.4,2.4-2.4c1.2,0,2.4,1.1,2.3,2.4
				C596.2,362.6,595.4,363.4,593.9,363.4z"/>
			<path class="st13" d="M480.4,300.7c0,1.4-1,2.4-2.2,2.4c-1.3,0-2.5-1.2-2.5-2.4c0.1-1.1,0.7-2.4,2.4-2.3
				C479.6,298.5,480.4,299.3,480.4,300.7z"/>
			<path class="st13" d="M553.3,373.6c1.5,0,2.3,0.9,2.3,2.3c0,1.7-1.2,2.3-2.4,2.4c-1.2,0.1-2.3-1.2-2.3-2.4
				C550.9,374.5,551.8,373.6,553.3,373.6z"/>
			<path class="st13" d="M504.4,352.9c0.2,1.5-1.1,2.2-2.3,2.3c-1.2,0.1-2.5-1.1-2.4-2.3c0.1-1.2,0.7-2.4,2.5-2.4
				C503.6,350.5,504.4,351.3,504.4,352.9z"/>
			<path class="st13" d="M579.5,320.9c0-1.4,0.9-2.3,2.2-2.3c1.3,0,2.6,1.2,2.4,2.4c-0.1,1.2-1.1,2.4-2.5,2.3
				C580.3,323.3,579.5,322.5,579.5,320.9z"/>
			<path class="st13" d="M492,311.4c0.1,0.2,0.2,0.4,0.2,0.7c0,1.2,0,2.4,0,3.6c-1.1,0.3-2.1,0.4-3-0.5c-0.7-0.8-0.7-1.6-0.4-2.5
				C489.3,311.6,490.4,311.1,492,311.4z"/>
			<path class="st13" d="M510.3,300.9c-1.8-0.1-3.4-0.4-4.7-1.5c-0.2-0.1-0.4-0.3-0.4-0.5c0-0.3,0.3-0.2,0.5-0.3
				c1.4-0.4,2.8-0.5,4.2-0.2c0.7,0.2,1.3,0.5,1.8,1.1c0.6,0.6,0.4,1.1-0.4,1.3C511,300.8,510.6,300.9,510.3,300.9z"/>
			<path class="st13" d="M623.3,266.7c-1.1-1.1-0.5-3.1,0.6-3.8c0.4-0.3,0.9-0.2,1.3-0.1c0.2,0,0.3,0.3,0.4,0.5
				c0.1,0.3-0.3,0.3-0.3,0.3C623.6,263.9,623.3,265.1,623.3,266.7z"/>
			<path class="st13" d="M625.4,267.2c-0.3-0.2-0.4-0.6-0.6-1c-0.3-0.4,0.1-0.7,0.3-1c0.1-0.2,0.4-0.1,0.5,0.1
				c0.1,0.4,0.7,0.7,0.3,1.3C625.7,266.7,625.5,267,625.4,267.2z"/>
		</g>
	</g>
</g>
</svg>
