<?xml version="1.0" encoding="utf-8"?>
<!-- Generator: Adobe Illustrator 22.0.0, SVG Export Plug-In . SVG Version: 6.00 Build 0)  -->
<svg version="1.1" id="Layer_1" xmlns="http://www.w3.org/2000/svg" xmlns:xlink="http://www.w3.org/1999/xlink" x="0px" y="0px"
	 viewBox="0 0 110 210" style="enable-background:new 0 0 110 210;" xml:space="preserve">
<style type="text/css">
	.st0{display:none;}
	.st1{display:inline;}
	.st2{display:inline;fill:#EBEDED;}
	.st3{fill:#16484E;}
	.st4{display:inline;fill:#16484E;}
	.st5{fill:#FF0B0B;}
	.st6{fill:#FFFFFF;}
	.st7{opacity:0.5;fill:#16484E;}
</style>
<g id="_x30_14" class="st0">
	<g id="_x30_06_2_" class="st1">
		<g class="st0">
			<path class="st2" d="M87.9,62.2v-4.9c-3.8,1.3-7.5,2.6-11.2,3.8c-6.8,2.3-13.6,4.6-20.4,7c-0.8,0.3-1.5,0.5-2.4,0.2
				C45,65.2,36,62.2,27.1,59.1c-0.5-0.2-1.1,0.2-1.1,0.8l0,4.8c0,0.1,0,0.3,0,0.5c-0.1,5.8,0,11.7-0.1,17.6c0,1.3,0.4,2.3,1.3,3.3
				c14.2,15.6,41,15.8,55.4,0.3c0.8-0.9,1.1-1.8,1.1-3c0-4.8,0-9.5,0-14.3c0-0.7-0.6-1.1-1.3-0.9l-3.3,1.2c0,4.4,0,8.7,0,13
				c0,0.7-0.3,1.1-0.8,1.6c-12.9,12.4-34.1,12.3-46.8-0.2c-0.7-0.7-1.1-1.3-1.1-2.3c0.1-4.9,0.1-9.9,0-14.9c0-1.3,0.3-1.5,1.5-1
				c6.8,2.4,13.6,4.6,20.4,7c1.7,0.6,3.3,0.6,5,0c7.1-2.5,14.3-4.9,21.8-7.5c0,0,0,0,0,0l5.2-1.8c0,0,0,0,0,0c0.3-0.1,0.7-0.2,1-0.3
				l0.1,0v0C86.2,62.7,87.1,62.5,87.9,62.2z"/>
			<path class="st2" d="M101.8,51.6c-14.5-4.8-28.9-9.9-43.4-14.7c-1.4-0.5-2.8-0.9-4.3-0.5c-0.4,0.1-0.7,0.3-1.1,0.4
				C37.8,42,22.6,47.1,7.5,52.3C6.2,52.7,5,53.2,5,54.8c0,1.6,1.2,2.1,2.5,2.5c4.9,1.6,9.7,3.3,14.6,5l0.1-4.8
				c-2.1-0.7-4.1-1.4-6.2-2.1c-0.4-0.1-0.8-0.3-1.5-0.6c5.9-2,11.6-4,17.2-5.9c7.1-2.4,14.2-4.8,21.3-7.3c1.2-0.4,2.3-0.4,3.5,0
				c12.2,4.2,24.5,8.4,36.8,12.6c0.5,0.2,1,0.3,1.9,0.7c-0.5,0.2-1,0.3-1.5,0.5c-0.8,0.3-1.4,1.1-1.4,1.9l0,3.8
				c0.1,0.1,0.1,0.3,0.1,0.5c-0.5,3.9,1.2,8.1-1.1,11.8C91,73.8,91.1,74.4,91,75c0,2.8,0,5.7,0,8.5c0,2.4,1.4,3.8,3.6,3.9
				c2.3,0,3.8-1.5,3.8-3.9c0-2.9,0-5.8,0-8.7c0-0.6,0-1.3-0.4-1.7C96.7,71.7,97,70,97,68.3c0-2.3,0.1-4.5,0-6.7
				c-0.1-1.8,0.4-2.7,2.2-3.2c1.9-0.6,4.1-0.7,5.5-2.6c0.1-0.3,0.1-0.6,0.2-0.9C104.6,52.8,103.3,52.1,101.8,51.6z"/>
		</g>
		<g>
			<path class="st3" d="M87.9,62.2v-1c0-1.9-1.9-3.2-3.7-2.6c-2.5,0.9-5,1.7-7.5,2.6c-6.8,2.3-13.6,4.6-20.4,7
				c-0.8,0.3-1.5,0.5-2.4,0.2C45,65.2,36,62.2,27.1,59.1c-0.5-0.2-1.1,0.2-1.1,0.8l0,4.8c0,0.1,0,0.3,0,0.5
				c-0.1,5.8,0,11.7-0.1,17.6c0,1.3,0.4,2.3,1.3,3.3c14.2,15.6,41,15.8,55.4,0.3c0.8-0.9,1.1-1.8,1.1-3c0-4.8,0-9.5,0-14.3
				c0-0.7-0.6-1.1-1.3-0.9l-3.3,1.2c0,4.4,0,8.7,0,13c0,0.7-0.3,1.1-0.8,1.6c-12.9,12.4-34.1,12.3-46.8-0.2
				c-0.7-0.7-1.1-1.3-1.1-2.3c0.1-4.9,0.1-9.9,0-14.9c0-1.3,0.3-1.5,1.5-1c6.8,2.4,13.6,4.6,20.4,7c1.7,0.6,3.3,0.6,5,0
				c7.1-2.5,14.3-4.9,21.8-7.5c0,0,0,0,0,0l5.2-1.8c0,0,0,0,0,0c0.3-0.1,0.7-0.2,1-0.3l0.1,0v0C86.2,62.7,87.1,62.5,87.9,62.2z"/>
			<path class="st3" d="M5,54.8c0,1.6,1.2,2.1,2.5,2.5c3.6,1.2,7.2,2.5,10.8,3.7c1.9,0.6,3.9-0.7,3.9-2.7l0-0.8
				c-2.1-0.7-4.1-1.4-6.2-2.1c-0.4-0.1-0.8-0.3-1.5-0.6c5.9-2,11.6-4,17.2-5.9c7.1-2.4,14.2-4.8,21.3-7.3c1.2-0.4,2.3-0.4,3.5,0
				c12.2,4.2,24.5,8.4,36.8,12.6c0.5,0.2,1,0.3,1.9,0.7c-0.5,0.2-1,0.3-1.5,0.5c-0.8,0.3-1.4,1.1-1.4,1.9l0,3.8
				c0.1,0.1,0.1,0.3,0.1,0.5c-0.5,3.9,1.2,8.1-1.1,11.8C91,73.8,91.1,74.4,91,75c0,2.8,0,5.7,0,8.5c0,2.4,1.4,3.8,3.6,3.9
				c2.3,0,3.8-1.5,3.8-3.9c0-2.9,0-5.8,0-8.7c0-0.6,0-1.3-0.4-1.7C96.7,71.7,97,70,97,68.3c0-2.3,0.1-4.5,0-6.7
				c-0.1-1.8,0.4-2.7,2.2-3.2c1.9-0.6,4.1-0.7,5.5-2.6c0.1-0.3,0.1-0.6,0.2-0.9c-0.3-2-1.6-2.7-3-3.2c-14.5-4.8-28.9-9.9-43.4-14.7
				c-1.4-0.5-2.8-0.9-4.3-0.5c-0.4,0.1-0.7,0.3-1.1,0.4C37.8,42,22.6,47.1,7.5,52.3C6.2,52.7,5,53.2,5,54.8"/>
		</g>
	</g>
	<path class="st4" d="M77,127.9c-2.5,3.1-6,3.9-6.9,4C81,136.7,94.3,149,98,164.5c0.4,1.6-0.9,3.1-2.5,3.1H11.2
		c2.2-19.1,21-36.7,40.4-38.3c1.1,0.1,2.2,0.2,3.3,0.2c16.7,0,30.2-13.5,30.2-30.2c0-3.1-0.5-6.1-1.3-8.9c-1.1,1.4-2.6,3.1-4.8,4.7
		c0.2,1.4,0.4,2.8,0.4,4.2c0,13.5-10.9,24.4-24.4,24.4s-24.4-10.9-24.4-24.4c0-1.2,0.1-2.5,0.3-3.7c-2.2-1.1-3.9-2.5-5.2-3.7
		c-0.6,2.3-0.9,4.8-0.9,7.3c0,11.1,6,20.8,15,26.1c-19.9,6.8-35.1,25.8-34.8,48c0,0.2,0,0.4,0,0.6h0.6h5.4h88h3.6h1.3
		c0.7,0,1.2-0.5,1.2-1.2c0,0,0,0,0,0C105,153.1,93.6,136,77,127.9z"/>
</g>
<g id="_x30_15" class="st0">
	<path class="st4" d="M105,83.5V75c0-1.7-1.4-3.1-3.1-3.1H8.1C6.4,71.9,5,73.3,5,75v8.6H105z"/>
	<rect x="78.8" y="121.7" class="st4" width="22.3" height="11.7"/>
	<g class="st1">
		<path class="st3" d="M13.4,132.2c-1.7-0.7-3-1.6-3.9-2.8c-0.9-1.2-1.4-2.5-1.4-4c0-1.1,0.3-2.1,0.9-2.9c0.6-0.8,1.3-1.2,2.2-1.2
			c0.6,0,1,0.2,1.4,0.5c0.4,0.4,0.6,0.8,0.6,1.4c0,0.6-0.3,1.3-0.9,2.1c-0.3,0.5-0.6,0.9-0.7,1.2c-0.1,0.3-0.2,0.6-0.2,1
			c0,0.9,0.3,1.8,0.9,2.6c0.6,0.8,1.4,1.4,2.4,1.8c1,0.4,2.1,0.6,3.5,0.6h0.2v-16.7l-1.5-0.8c-1.4-0.8-2.4-1.5-3.2-2
			c-0.7-0.5-1.4-1.1-2-1.7c-1.5-1.7-2.3-3.6-2.3-5.8c0-1.4,0.3-2.6,1-3.8c0.6-1.2,1.5-2.1,2.7-2.9c1.5-0.9,3.2-1.4,5.2-1.6v-3.9H5
			v40.9c0,1.7,1.4,3.1,3.1,3.1h10.2v-4.1C16.7,133.2,15.1,132.9,13.4,132.2z"/>
		<path class="st3" d="M22.8,131.4c0.7-0.6,1.3-1.4,1.8-2.5c0.4-1.1,0.7-2.2,0.7-3.4c0-3.4-1.9-6.4-5.8-8.9v16
			c0.8-0.1,1.4-0.2,1.9-0.4C21.9,132,22.4,131.7,22.8,131.4z"/>
		<path class="st3" d="M13.3,100.5c-0.5,1-0.8,2-0.8,3.2c0,1.4,0.4,2.7,1.2,3.8c0.4,0.6,0.9,1.2,1.5,1.6c0.6,0.4,1.5,1.1,2.9,1.9
			l0.3,0.2V97.8c-1.2,0.1-2.1,0.3-2.9,0.6C14.5,98.9,13.8,99.6,13.3,100.5z"/>
		<path class="st3" d="M19.5,93.4v3.9c1.8,0.1,3.3,0.5,4.7,1.2c1.1,0.6,2,1.3,2.7,2.2c0.6,0.9,1,2,1,3.1c0,0.9-0.3,1.6-0.8,2.2
			c-0.5,0.6-1.1,0.9-1.9,0.9c-0.6,0-1-0.2-1.4-0.6c-0.4-0.4-0.6-0.9-0.6-1.5c0-0.4,0.1-0.7,0.2-1.1l0.5-1c0.2-0.4,0.2-0.8,0.2-1.3
			c0-0.7-0.2-1.3-0.6-1.9c-0.4-0.5-1-0.9-1.7-1.2c-0.6-0.2-1.4-0.4-2.3-0.5v14l0.3,0.2c3.1,1.8,5.2,3.4,6.5,4.9c0.8,1,1.5,2.1,2,3.3
			c0.5,1.2,0.7,2.4,0.7,3.7c0,1.7-0.4,3.3-1.2,4.6c-0.8,1.4-2,2.5-3.4,3.2c-1.4,0.7-3,1.2-4.8,1.4v4.2h82.5c1.7,0,3.1-1.4,3.1-3.1
			V93.4H19.5z M101.8,134H78.3v-12.9h23.5V134z"/>
	</g>
</g>
<g id="_x30_16" class="st0">
	<g class="st1">
		<g>
			<g>
				<path class="st5" d="M17.1,69.8c0,2.9-0.5,4.7-3.1,4.7h-0.6c-0.3,0-0.6,0.3-0.6,0.7v1.6c0,0.4-0.3,0.7-0.7,0.7h-0.2
					c-0.4,0-0.7-0.3-0.7-0.7V66c0-0.4,0.3-0.7,0.7-0.7h2C16.1,65.3,17.1,66.6,17.1,69.8z M15.5,69.8c0-2.9-0.7-2.9-1.6-2.9h-0.5
					c-0.3,0-0.5,0.3-0.5,0.7v4.6c0,0.4,0.3,0.7,0.6,0.7H14C14.9,73,15.5,73,15.5,69.8z"/>
				<path class="st5" d="M22.5,77.6H22c-0.4,0-0.9-0.3-1.1-0.6l-1.2-1.8c-0.2-0.3-0.5-0.6-0.7-0.6c-0.1,0-0.3,0.3-0.3,0.7v1.6
					c0,0.4-0.3,0.7-0.7,0.7H18c-0.4,0-0.7-0.3-0.7-0.7V66c0-0.4,0.3-0.7,0.7-0.7h2c2.1,0,3.3,2.4,3.3,4.8c0,1.1-0.2,2.1-0.7,2.9
					c-0.2,0.4-0.5,0.7-0.8,0.9c-0.3,0.3-0.4,0.6-0.2,1l1.3,2.1C23.1,77.3,22.9,77.6,22.5,77.6z M21.1,72.2c0.3-0.5,0.5-1.3,0.5-2.1
					c0-1.6-0.6-3.2-1.6-3.2h-0.5c-0.3,0-0.5,0.3-0.5,0.7v4.6c0,0.4,0.3,0.7,0.6,0.7h0.6C20.3,73,20.7,73,21.1,72.2z"/>
				<path class="st5" d="M31.3,71.4c0,4.2-1.2,6.3-3.7,6.3S24,75.6,24,71.4c0-4.2,1.2-6.3,3.7-6.3S31.3,67.2,31.3,71.4z M29.7,71.4
					c0-4.7-1.5-4.7-2.1-4.7c-0.6,0-2.1,0-2.1,4.7c0,4.7,1.6,4.7,2.1,4.7C28.1,76.1,29.7,76.1,29.7,71.4z"/>
				<path class="st5" d="M38.9,77.6h-0.4c-0.4,0-0.8-0.3-1-0.6L36,73.6c-0.2-0.4-0.4-0.4-0.6,0l-1.5,3.4c-0.2,0.4-0.6,0.6-1,0.6
					h-0.4c-0.4,0-0.6-0.3-0.4-0.6l2.4-5.3c0.2-0.4,0.2-0.9,0-1.3l-2-4.4c-0.2-0.4,0-0.6,0.4-0.6h0.4c0.4,0,0.8,0.3,1,0.6l1.1,2.5
					c0.2,0.4,0.4,0.4,0.6,0l1.1-2.5c0.2-0.4,0.6-0.6,1-0.6h0.4c0.4,0,0.6,0.3,0.4,0.6l-2,4.4c-0.2,0.4-0.2,0.9,0,1.3l2.4,5.3
					C39.5,77.3,39.3,77.6,38.9,77.6z"/>
				<path class="st5" d="M41.8,66v10.9c0,0.4-0.3,0.7-0.7,0.7h-0.2c-0.4,0-0.7-0.3-0.7-0.7V66c0-0.4,0.3-0.7,0.7-0.7h0.2
					C41.5,65.3,41.8,65.6,41.8,66z"/>
				<path class="st5" d="M49.7,66v10.9c0,0.4-0.3,0.7-0.7,0.7h-0.2c-0.4,0-0.7-0.3-0.7-0.7v-5.5c0-0.4-0.1-0.4-0.3,0l-1.5,4.2
					c-0.1,0.4-0.3,0.4-0.5,0l-1.5-4.1c-0.1-0.4-0.2-0.4-0.2,0v5.4c0,0.4-0.3,0.7-0.7,0.7h-0.2c-0.4,0-0.7-0.3-0.7-0.7V66
					c0-0.4,0.3-0.7,0.7-0.7c0.4,0,0.8,0.3,0.9,0.6l1.7,4.8c0.1,0.4,0.3,0.4,0.5,0l1.8-4.8c0.1-0.4,0.5-0.6,0.9-0.6
					C49.4,65.3,49.7,65.6,49.7,66z"/>
				<path class="st5" d="M57.7,77.6h-0.3c-0.4,0-0.8-0.3-0.9-0.7l-0.3-1.3c-0.1-0.4-0.5-0.7-0.9-0.7h-1.9c-0.4,0-0.8,0.3-0.9,0.7
					l-0.4,1.3c-0.1,0.4-0.5,0.7-0.9,0.7H51c-0.4,0-0.6-0.3-0.5-0.7l3.1-11.1c0.1-0.4,0.5-0.7,0.8-0.7c0.3,0,0.7,0.3,0.8,0.7l3,11.1
					C58.3,77.3,58.1,77.6,57.7,77.6z M55.4,72.6l-0.8-3c-0.1-0.4-0.3-0.4-0.4,0l-0.8,3c-0.1,0.4,0.1,0.7,0.5,0.7h1
					C55.3,73.3,55.5,73,55.4,72.6z"/>
				<path class="st5" d="M68.1,66v0.2c0,0.4-0.3,0.7-0.7,0.7h-0.7c-0.4,0-0.7,0.3-0.7,0.7v9.3c0,0.4-0.3,0.7-0.7,0.7h-0.2
					c-0.4,0-0.7-0.3-0.7-0.7v-9.3c0-0.4-0.3-0.7-0.7-0.7h-0.7c-0.4,0-0.7-0.3-0.7-0.7V66c0-0.4,0.3-0.7,0.7-0.7h4.4
					C67.8,65.3,68.1,65.6,68.1,66z"/>
				<path class="st5" d="M75,66v5.6c0,4.2-0.3,6.1-3,6.1c-2.6,0-3-2.1-3-6.1V66c0-0.4,0.3-0.7,0.7-0.7h0.2c0.4,0,0.7,0.3,0.7,0.7
					v5.6c0,4.5,0.6,4.5,1.4,4.5c1,0,1.4,0,1.4-4.5V66c0-0.4,0.3-0.7,0.7-0.7h0.2C74.7,65.3,75,65.6,75,66z"/>
				<path class="st5" d="M81,77.6h-0.5c-0.4,0-0.9-0.3-1.1-0.6l-1.2-1.8c-0.2-0.3-0.5-0.6-0.7-0.6c-0.1,0-0.3,0.3-0.3,0.7v1.6
					c0,0.4-0.3,0.7-0.7,0.7h-0.2c-0.4,0-0.7-0.3-0.7-0.7V66c0-0.4,0.3-0.7,0.7-0.7h2c2.1,0,3.3,2.4,3.3,4.8c0,1.1-0.2,2.1-0.7,2.9
					c-0.2,0.4-0.5,0.7-0.8,0.9c-0.3,0.3-0.4,0.6-0.2,1l1.3,2.1C81.6,77.3,81.4,77.6,81,77.6z M79.6,72.2c0.3-0.5,0.5-1.3,0.5-2.1
					c0-1.6-0.6-3.2-1.6-3.2h-0.5c-0.3,0-0.5,0.3-0.5,0.7v4.6c0,0.4,0.3,0.7,0.6,0.7h0.6C78.8,73,79.2,73,79.6,72.2z"/>
				<path class="st5" d="M89.6,66v10.9c0,0.4-0.3,0.7-0.7,0.7h-0.2c-0.4,0-0.7-0.3-0.7-0.7v-5.5c0-0.4-0.1-0.4-0.3,0l-1.5,4.2
					c-0.1,0.4-0.3,0.4-0.5,0l-1.5-4.1c-0.1-0.4-0.2-0.4-0.2,0v5.4c0,0.4-0.3,0.7-0.7,0.7h-0.2c-0.4,0-0.7-0.3-0.7-0.7V66
					c0-0.4,0.3-0.7,0.7-0.7c0.4,0,0.8,0.3,0.9,0.6l1.7,4.8c0.1,0.4,0.3,0.4,0.5,0l1.8-4.8c0.1-0.4,0.5-0.6,0.9-0.6
					C89.3,65.3,89.6,65.6,89.6,66z"/>
				<path class="st5" d="M97.6,77.6h-0.3c-0.4,0-0.8-0.3-0.9-0.7l-0.3-1.3c-0.1-0.4-0.5-0.7-0.9-0.7h-1.9c-0.4,0-0.8,0.3-0.9,0.7
					l-0.4,1.3c-0.1,0.4-0.5,0.7-0.9,0.7H91c-0.4,0-0.6-0.3-0.5-0.7l3.1-11.1c0.1-0.4,0.5-0.7,0.8-0.7c0.3,0,0.7,0.3,0.8,0.7l3,11.1
					C98.2,77.3,98,77.6,97.6,77.6z M95.3,72.6l-0.8-3c-0.1-0.4-0.3-0.4-0.4,0l-0.8,3c-0.1,0.4,0.1,0.7,0.5,0.7h1
					C95.2,73.3,95.4,73,95.3,72.6z"/>
			</g>
			<g>
				<path class="st5" d="M27,110.3v0.6c0,0.9-0.7,1.7-1.6,1.7H12c-0.9,0-1.1-0.5-0.5-1.2l2-2.1c2.7-2.8,9.9-11.4,9.9-16.8
					c0-3.4-1.7-5.2-3.3-5.2c-0.7,0-1.3,0.3-1.8,0.9c-0.3,0.4-0.7,1.1-0.9,2.2c-0.2,0.9-0.9,1.6-1.8,1.6H15c-0.9,0-1.6-0.7-1.5-1.6
					c0.2-1.9,0.8-3.4,1.8-4.6c1.2-1.5,2.9-2.4,4.8-2.4c1.9,0,3.7,0.9,5,2.5c1.4,1.7,2.1,3.9,2.1,6.6c0,4.9-3.8,10.9-7,14.9
					c-0.5,0.7-0.3,1.3,0.6,1.3h4.5C26.2,108.7,27,109.4,27,110.3z"/>
				<path class="st5" d="M44,92.5c0,0.3,0,0.6,0,0.8c0,3.1-1.8,7.7-5.4,13.7c-0.8,1.5-1.7,2.9-2.5,4.1c-0.5,0.7-1.6,1.4-2.6,1.4
					h-1.4c-0.9,0-1.2-0.6-0.7-1.4c1.4-2,3.1-4.7,4.7-7.5c0.4-0.8,0.7-1.4,0.5-1.4h-0.2c-4.2,0-7.5-4.3-7.5-9.7
					c0-5.4,3.2-9.7,7.5-9.7C40.7,82.9,44,87.1,44,92.5z M40.1,92.5c0-3.1-1.6-5.8-3.6-5.8c-2,0-3.7,2.6-3.7,5.8
					c0,3.1,1.7,5.8,3.7,5.8C38.5,98.3,40.1,95.7,40.1,92.5z"/>
				<path class="st5" d="M62.5,81.7l-12.4,31.8c-0.3,0.9-1.3,1.6-2.2,1.6H47c-0.9,0-1.4-0.7-1.1-1.6l12.4-31.8
					c0.3-0.9,1.3-1.5,2.2-1.5h0.8C62.4,80.2,62.8,80.9,62.5,81.7z"/>
				<path class="st5" d="M81.4,97.9c0,3.7,0,14.8-8.5,14.8c-8.5,0-8.5-11.2-8.5-14.8c0-3.7,0-14.8,8.5-14.8
					C81.4,83,81.4,94.2,81.4,97.9z M77.5,97.9c0-11-3.4-11-4.7-11c-1.2,0-4.6,0-4.6,11c0,11,3.4,11,4.6,11
					C74.1,108.8,77.5,108.8,77.5,97.9z"/>
				<path class="st5" d="M98.2,103.2c0,5.4-3.3,9.7-7.5,9.7c-4.2,0-7.5-4.3-7.5-9.7v-0.7c0-4.6,3.9-12.5,6.8-17.9
					c0.5-0.8,1.6-1.4,2.5-1.4h1.1c0.9,0,1.2,0.6,0.8,1.4c-1.2,2.2-2.7,4.9-3.9,7.5c-0.4,0.8-0.5,1.4-0.3,1.4h0.5
					C94.9,93.6,98.2,97.8,98.2,103.2z M94.3,103.2c0-3.1-1.6-5.8-3.6-5.8c-2,0-3.7,2.7-3.7,5.8c0,3.1,1.7,5.8,3.7,5.8
					C92.7,109,94.3,106.3,94.3,103.2z"/>
			</g>
		</g>
		<g>
			<polygon class="st5" points="7.8,80.6 7.8,61.3 27.4,61.3 27.4,58.5 5,58.5 5,80.6 			"/>
			<polygon class="st5" points="7.8,96.7 5,96.7 5,118.8 27.4,118.8 27.4,116 7.8,116 			"/>
			<polygon class="st5" points="101.8,80.6 104.6,80.6 104.6,58.5 82.2,58.5 82.2,61.3 101.8,61.3 			"/>
			<polygon class="st5" points="101.8,96.7 101.8,116 82.2,116 82.2,118.8 104.6,118.8 104.6,96.7 			"/>
		</g>
	</g>
	<g class="st1">
		<path class="st5" d="M30,63.1l-2.3,1.6c-0.1,0-0.2,0.1-0.4,0.1h-0.2c-0.2,0-0.3,0-0.2-0.1l1.3-1.6c0.1,0,0.2-0.1,0.4-0.1h1.1
			C30,63.1,30,63.1,30,63.1z"/>
	</g>
	<g class="st1">
		<rect x="9.7" y="118.3" transform="matrix(0.979 -0.2037 0.2037 0.979 -25.2478 14.2718)" width="93.9" height="22.9"/>
		<g>
			<path class="st6" d="M21.6,131.6l1.2,5.4c0.9,4,1,5.9-1.6,6.5c-2.5,0.5-3.4-1.3-4.2-5.2l-1.2-5.4c-0.1-0.4,0.2-0.7,0.5-0.8l0.2,0
				c0.4-0.1,0.7,0.2,0.8,0.5l1.2,5.4c0.9,4.3,1.6,4.2,2.3,4c0.9-0.2,1.4-0.3,0.4-4.6l-1.2-5.4c-0.1-0.4,0.2-0.7,0.5-0.8l0.2,0
				C21.1,131,21.5,131.3,21.6,131.6z"/>
			<path class="st6" d="M28.8,140.8l0,0.2c0.1,0.4-0.2,0.7-0.5,0.8l-2.9,0.6c-0.4,0.1-0.7-0.2-0.8-0.5l-2.3-10.4
				c-0.1-0.4,0.2-0.7,0.5-0.8l0.2,0c0.4-0.1,0.7,0.2,0.8,0.5l1.9,8.9c0.1,0.4,0.4,0.6,0.8,0.5l1.4-0.3
				C28.4,140.1,28.8,140.4,28.8,140.8z"/>
			<path class="st6" d="M32.9,129.2l0,0.2c0.1,0.4-0.2,0.7-0.5,0.8l-0.7,0.1c-0.4,0.1-0.6,0.4-0.5,0.8l1.9,8.9
				c0.1,0.4-0.2,0.7-0.5,0.8l-0.2,0c-0.4,0.1-0.7-0.2-0.8-0.5l-1.9-8.9c-0.1-0.4-0.4-0.6-0.8-0.5l-0.7,0.1c-0.4,0.1-0.7-0.2-0.8-0.5
				l0-0.2c-0.1-0.4,0.2-0.7,0.5-0.8l4.2-0.9C32.5,128.6,32.8,128.8,32.9,129.2z"/>
			<path class="st6" d="M35.4,128.6l2.3,10.4c0.1,0.4-0.2,0.7-0.5,0.8l-0.2,0c-0.4,0.1-0.7-0.2-0.8-0.5L33.9,129
				c-0.1-0.4,0.2-0.7,0.5-0.8l0.2,0C35,128,35.3,128.3,35.4,128.6z"/>
			<path class="st6" d="M43.2,126.9l2.3,10.4c0.1,0.4-0.2,0.7-0.5,0.8l-0.2,0c-0.4,0.1-0.7-0.2-0.8-0.5l-1.2-5.3
				c-0.1-0.4-0.2-0.4-0.2,0l-0.6,4.3c-0.1,0.4-0.3,0.4-0.5,0.1l-2.3-3.6c-0.2-0.3-0.3-0.3-0.2,0.1l1.1,5.2c0.1,0.4-0.2,0.7-0.5,0.8
				l-0.2,0c-0.4,0.1-0.7-0.2-0.8-0.5l-2.3-10.4c-0.1-0.4,0.2-0.7,0.5-0.8c0.4-0.1,0.8,0.1,1,0.4l2.7,4.2c0.2,0.3,0.4,0.3,0.4-0.1
				l0.7-5c0.1-0.4,0.4-0.7,0.8-0.8C42.8,126.3,43.2,126.5,43.2,126.9z"/>
			<path class="st6" d="M53.4,136.4l-0.3,0.1c-0.4,0.1-0.8-0.1-1-0.4l-0.6-1.2c-0.2-0.3-0.6-0.5-1-0.5l-1.8,0.4
				c-0.4,0.1-0.7,0.5-0.7,0.8l-0.1,1.3c0,0.4-0.3,0.7-0.7,0.8l-0.3,0.1c-0.4,0.1-0.7-0.1-0.6-0.5L47,126c0-0.4,0.3-0.7,0.6-0.8
				c0.3-0.1,0.7,0.1,0.9,0.5l5.3,9.9C54,136,53.8,136.3,53.4,136.4z M50.1,132.2l-1.4-2.7c-0.2-0.3-0.3-0.3-0.4,0.1l-0.2,3
				c0,0.4,0.3,0.6,0.6,0.5l1-0.2C50.2,132.8,50.3,132.5,50.1,132.2z"/>
			<path class="st6" d="M59.6,132c0.4,1.8-0.5,3.2-2.3,3.6c-1.7,0.4-3.1-1-3.7-1.8c-0.2-0.3-0.1-0.7,0.2-0.9l0.2-0.1
				c0.3-0.2,0.7-0.1,1,0.2c0.4,0.5,1.2,1.2,2,1c0.9-0.2,1.3-0.8,1.1-1.8c-0.2-1.1-1.3-1.8-2.5-2.4c-1.2-0.7-2.6-1.5-3-3
				c-0.3-1.6,0.5-3,2-3.4c1.1-0.2,2.3,0.2,3,1.3c0.2,0.3,0.1,0.7-0.3,0.9l-0.2,0.1c-0.3,0.2-0.7,0-1-0.2c-0.3-0.3-0.7-0.6-1.3-0.5
				c-0.8,0.2-1,0.9-0.8,1.5c0.2,0.9,1.1,1.4,2.2,2C57.7,129.3,59.2,130.2,59.6,132z"/>
			<path class="st6" d="M67.6,121.6l0.5,10.8c0,0.4-0.3,0.8-0.6,0.8l-0.7,0.1c-0.4,0.1-0.8-0.1-0.9-0.5l-4-10
				c-0.2-0.4,0-0.7,0.4-0.8l0.2-0.1c0.4-0.1,0.8,0.1,0.9,0.5l2.7,6.7c0.1,0.4,0.2,0.3,0.2,0l-0.3-7.3c0-0.4,0.3-0.7,0.6-0.8l0.3-0.1
				C67.3,121,67.6,121.2,67.6,121.6z"/>
			<path class="st6" d="M76.7,131.3l-0.3,0.1c-0.4,0.1-0.8-0.1-1-0.4l-0.6-1.2c-0.2-0.3-0.6-0.5-1-0.5l-1.8,0.4
				c-0.4,0.1-0.7,0.5-0.7,0.8l-0.1,1.3c0,0.4-0.3,0.7-0.7,0.8l-0.3,0.1c-0.4,0.1-0.7-0.1-0.6-0.5l0.7-11.2c0-0.4,0.3-0.7,0.6-0.8
				c0.3-0.1,0.7,0.1,0.9,0.5l5.3,9.9C77.2,130.9,77,131.2,76.7,131.3z M73.4,127.1l-1.4-2.7c-0.2-0.3-0.3-0.3-0.4,0.1l-0.2,3
				c0,0.4,0.3,0.6,0.6,0.5l1-0.2C73.4,127.7,73.6,127.4,73.4,127.1z"/>
			<path class="st6" d="M82.8,123.8l0.8,3.5c0.1,0.4,0.2,0.7,0.1,0.7l0,0.1c-0.2,0.9-1.1,2-2.4,2.3c-3.4,0.7-4.8-2.4-5.4-5.2
				c-0.5-2.1-0.4-3.7,0.1-4.9c0.5-1.1,1.4-1.8,2.6-2c0.9-0.2,1.7,0,2.5,0.5c0.3,0.2,0.3,0.7,0,0.9l-0.1,0.2c-0.3,0.3-0.7,0.3-1,0.1
				c-0.3-0.2-0.7-0.2-1-0.1c-0.7,0.2-2.5,0.6-1.5,5c1,4.5,2.8,4.1,3.5,4c0.3-0.1,0.5-0.2,0.7-0.4c0.3-0.3,0.3-0.9,0.3-1.2l-0.3-1.6
				c-0.1-0.4-0.4-0.6-0.8-0.5l-0.3,0.1c-0.4,0.1-0.7-0.2-0.8-0.5l0-0.2c-0.1-0.4,0.2-0.7,0.5-0.8l1.8-0.4
				C82.3,123.2,82.7,123.4,82.8,123.8z"/>
			<path class="st6" d="M91.8,128l-0.3,0.1c-0.4,0.1-0.8-0.1-1-0.4l-0.6-1.2c-0.2-0.3-0.6-0.5-1-0.5l-1.8,0.4
				c-0.4,0.1-0.7,0.5-0.7,0.8l-0.1,1.3c0,0.4-0.3,0.7-0.7,0.8l-0.3,0.1c-0.4,0.1-0.7-0.1-0.6-0.5l0.7-11.2c0-0.4,0.3-0.7,0.6-0.8
				c0.3-0.1,0.7,0.1,0.9,0.5l5.3,9.9C92.3,127.6,92.2,127.9,91.8,128z M88.5,123.8l-1.4-2.7c-0.2-0.3-0.3-0.3-0.4,0.1l-0.2,3
				c0,0.4,0.3,0.6,0.6,0.5l1-0.2C88.5,124.4,88.7,124.1,88.5,123.8z"/>
			<path class="st6" d="M98,123.6c0.4,1.8-0.5,3.2-2.3,3.6c-1.7,0.4-3.1-1-3.7-1.8c-0.2-0.3-0.1-0.7,0.2-0.9l0.2-0.1
				c0.3-0.2,0.7-0.1,1,0.2c0.4,0.5,1.2,1.2,2,1c0.9-0.2,1.3-0.8,1.1-1.8c-0.2-1.1-1.3-1.8-2.5-2.4c-1.2-0.7-2.6-1.5-3-3
				c-0.3-1.6,0.5-3,2-3.4c1.1-0.2,2.3,0.2,3,1.3c0.2,0.3,0.1,0.7-0.3,0.9l-0.2,0.1c-0.3,0.2-0.7,0-1-0.2c-0.3-0.3-0.7-0.6-1.3-0.5
				c-0.8,0.2-1,0.9-0.8,1.5c0.2,0.9,1.1,1.4,2.2,2C96.1,120.9,97.6,121.7,98,123.6z"/>
		</g>
		<g>
			<path class="st6" d="M20.9,129l-2.3,1.6c-0.1,0-0.2,0.1-0.4,0.1H18c-0.2,0-0.3,0-0.2-0.1l1.3-1.6c0.1,0,0.2-0.1,0.4-0.1h1.1
				C20.8,128.9,20.9,129,20.9,129z"/>
		</g>
	</g>
</g>
<g>
	<path class="st7" d="M22.4,77.5v2h80.4v56.1H20.1v-30.7c-0.5,0.3-1.1,0.6-1.8,0.8V138H105V77.5H22.4z"/>
	<g>
		<path class="st3" d="M55.5,134.7h-10v-1.4h1.9V82h-1.9v-1.4h8.1v52.7h1.9V134.7z"/>
		<path class="st3" d="M77.4,127.1c0,2.2-0.9,4-2.7,5.6c-1.8,1.5-4,2.3-6.6,2.3c-2.5,0-4.7-0.8-6.5-2.3c-1.8-1.5-2.7-3.4-2.7-5.6
			v-13.9c0-3.3,1.8-5.7,5.4-7.2c-3.6-1.4-5.4-3.8-5.4-7.2V88.1c0-2.2,0.9-4,2.7-5.6c1.8-1.5,4-2.3,6.5-2.3c2.6,0,4.8,0.8,6.6,2.3
			c1.8,1.5,2.7,3.4,2.7,5.6v10.8c0,3.4-1.8,5.8-5.4,7.2c3.6,1.5,5.4,3.9,5.4,7.2V127.1z M71.2,102.3V84.7c0-0.9-0.3-1.6-0.9-2.2
			c-0.6-0.6-1.3-0.9-2.2-0.9c-0.9,0-1.6,0.3-2.2,0.9c-0.6,0.6-0.9,1.3-0.9,2.2v17.6c0,0.9,0.3,1.6,0.9,2.2c0.6,0.6,1.3,0.9,2.2,0.9
			c0.9,0,1.6-0.3,2.2-0.9C70.9,103.9,71.2,103.1,71.2,102.3z M71.2,130.5v-20.7c0-0.9-0.3-1.6-0.9-2.2c-0.6-0.6-1.3-0.9-2.2-0.9
			c-0.9,0-1.6,0.3-2.2,0.9c-0.6,0.6-0.9,1.3-0.9,2.2v20.7c0,0.9,0.3,1.6,0.9,2.2c0.6,0.6,1.3,0.9,2.2,0.9c0.9,0,1.6-0.3,2.2-0.9
			S71.2,131.4,71.2,130.5z"/>
		<path class="st3" d="M100.6,127.1c0,2.2-0.9,4-2.7,5.6c-1.8,1.5-4,2.3-6.6,2.3c-2.5,0-4.7-0.8-6.5-2.3c-1.8-1.5-2.7-3.4-2.7-5.6
			V88.1c0-2.2,0.9-4,2.7-5.6c1.8-1.5,4-2.3,6.5-2.3c2.6,0,4.8,0.8,6.6,2.3c1.8,1.5,2.7,3.4,2.7,5.6V127.1z M94.4,130.5V84.7
			c0-0.9-0.3-1.6-0.9-2.2c-0.6-0.6-1.3-0.9-2.2-0.9c-0.9,0-1.6,0.3-2.2,0.9c-0.6,0.6-0.9,1.3-0.9,2.2v45.9c0,0.9,0.3,1.6,0.9,2.2
			c0.6,0.6,1.3,0.9,2.2,0.9c0.9,0,1.6-0.3,2.2-0.9C94.1,132.1,94.4,131.4,94.4,130.5z"/>
	</g>
	<g>
		<path class="st3" d="M32.9,133.7h-1.2c-1.6,0-2.4-0.8-2.4-2.5v-8.5c0-0.4-0.1-0.7-0.4-1c-0.3-0.3-0.6-0.4-1-0.4h-1.2v11.7h0.9v0.6
			h-4.4v-0.6H24v-22.7h-0.9v-0.6h4.8c1.1,0,2.1,0.3,2.9,1c0.8,0.7,1.2,1.5,1.2,2.5v4.6c0,1.5-0.8,2.6-2.4,3.2
			c1.6,0.7,2.4,1.7,2.4,3.2v7.9c0,0.6,0.3,0.9,0.8,0.9h0.1V133.7z M29.3,119.3v-7.6c0-0.4-0.1-0.7-0.4-1c-0.3-0.3-0.6-0.4-1-0.4
			h-1.2v10.4h1.2c0.4,0,0.7-0.1,1-0.4C29.1,120.1,29.3,119.7,29.3,119.3z"/>
		<path class="st3" d="M42,130.2c0,0.9-0.3,1.7-1,2.3c-0.7,0.7-1.5,1-2.5,1.1v2.1h-0.8v-2.1c-1-0.1-1.9-0.5-2.5-1.1
			c-0.7-0.7-1-1.4-1-2.4v-3.7h2.7v5.2c0,0.9,0.4,1.4,1.2,1.4c0.8,0,1.2-0.5,1.2-1.4v-4c0-1.1-0.3-2.1-0.8-3l-3.4-5.3
			c-0.6-0.9-0.9-1.9-0.9-3.1v-3.1c0-0.9,0.3-1.7,1-2.3c0.7-0.7,1.5-1,2.5-1.1v-2.1h0.8v2.1c1,0.1,1.9,0.5,2.5,1.1
			c0.7,0.7,1,1.4,1,2.3v3.7h-2.7v-5.2c0-0.9-0.4-1.4-1.2-1.4c-0.8,0-1.2,0.5-1.2,1.4v3.8c0,1.1,0.3,2.1,0.8,3l3.4,5.3
			c0.6,0.9,0.9,2,0.9,3.1V130.2z"/>
	</g>
	<g>
		<path class="st3" d="M14.9,103.1c0,0.5,0.2,1,0.6,1.3c0.4,0.4,0.8,0.6,1.3,0.6c0.5,0,1-0.2,1.3-0.6c0.4-0.4,0.6-0.8,0.6-1.3V90.2
			c0-1.2-0.6-1.8-1.9-1.8c-0.7,0-1.3,0.3-1.9,0.8V103.1z"/>
		<path class="st3" d="M5,71.1v36.5h36.5V71.1H5z M22.4,82.5h-3.8v-7.4c0-0.5-0.2-1-0.6-1.3c-0.4-0.4-0.8-0.6-1.3-0.6
			c-0.5,0-1,0.2-1.3,0.6c-0.4,0.4-0.6,0.8-0.6,1.3v13.3c0.7-0.6,1.7-0.9,2.9-0.9c3.1,0,4.7,1.4,4.7,4.3v9.2c0,1.3-0.6,2.4-1.7,3.4
			c-1.1,0.9-2.4,1.4-4,1.4c-1.5,0-2.9-0.5-4-1.4c-1.1-0.9-1.7-2.1-1.7-3.4V77.2c0-1.3,0.6-2.4,1.7-3.4c1.1-0.9,2.4-1.4,4-1.4
			c1.6,0,2.9,0.5,4,1.4c1.1,0.9,1.7,2.1,1.7,3.4V82.5z M35.6,105.6h-6.2v-0.9h1.2l-1.8-8l-2.3,8h1.2v0.9h-3.6v-0.9h1.2l3.1-10.1
			l-3-12.7h-1.2v-0.9h6.2v0.9h-1.2l1.7,7.6l2.2-7.6h-1.2v-0.9h3.6v0.9h-1.2l-3,9.8l3.1,13h1.2V105.6z"/>
	</g>
</g>
</svg>
