<?xml version="1.0" encoding="UTF-8" standalone="no"?>
<!-- Generator: Adobe Illustrator 22.0.0, SVG Export Plug-In . SVG Version: 6.00 Build 0)  -->

<svg
   xmlns:dc="http://purl.org/dc/elements/1.1/"
   xmlns:cc="http://creativecommons.org/ns#"
   xmlns:rdf="http://www.w3.org/1999/02/22-rdf-syntax-ns#"
   xmlns:svg="http://www.w3.org/2000/svg"
   xmlns="http://www.w3.org/2000/svg"
   xmlns:sodipodi="http://sodipodi.sourceforge.net/DTD/sodipodi-0.dtd"
   xmlns:inkscape="http://www.inkscape.org/namespaces/inkscape"
   version="1.1"
   id="Layer_1"
   x="0px"
   y="0px"
   viewBox="0 0 149.47684 100"
   xml:space="preserve"
   sodipodi:docname="checkout.svg"
   width="149.47684"
   height="100"
   inkscape:version="0.92.4 (5da689c313, 2019-01-14)"><metadata
   id="metadata155"><rdf:RDF><cc:Work
       rdf:about=""><dc:format>image/svg+xml</dc:format><dc:type
         rdf:resource="http://purl.org/dc/dcmitype/StillImage" /><dc:title></dc:title></cc:Work></rdf:RDF></metadata><defs
   id="defs153" /><sodipodi:namedview
   pagecolor="#ffffff"
   bordercolor="#666666"
   borderopacity="1"
   objecttolerance="10"
   gridtolerance="10"
   guidetolerance="10"
   inkscape:pageopacity="0"
   inkscape:pageshadow="2"
   inkscape:window-width="640"
   inkscape:window-height="480"
   id="namedview151"
   showgrid="false"
   fit-margin-top="0"
   fit-margin-left="0"
   fit-margin-right="0"
   fit-margin-bottom="0"
   inkscape:zoom="2.249273"
   inkscape:cx="80.708983"
   inkscape:cy="70.696787"
   inkscape:current-layer="Layer_1" />
<style
   type="text/css"
   id="style2">
	.st0{display:none;}
	.st1{display:inline;}
	.st2{display:inline;fill:#EBEDED;}
	.st3{fill:#16484E;}
	.st4{display:inline;fill:#16484E;}
	.st5{fill:#FF0B0B;}
	.st6{fill:#FFFFFF;}
	.st7{opacity:0.5;fill:#16484E;}
</style>
<g
   id="_x30_14"
   class="st0"
   style="display:none"
   transform="translate(-4.9999999,-37.999999)">
	<g
   id="_x30_06_2_"
   class="st1"
   style="display:inline">
		<g
   class="st0"
   id="g8"
   style="display:none">
			<path
   class="st2"
   d="m 87.9,62.2 v -4.9 c -3.8,1.3 -7.5,2.6 -11.2,3.8 -6.8,2.3 -13.6,4.6 -20.4,7 -0.8,0.3 -1.5,0.5 -2.4,0.2 C 45,65.2 36,62.2 27.1,59.1 26.6,58.9 26,59.3 26,59.9 v 4.8 c 0,0.1 0,0.3 0,0.5 -0.1,5.8 0,11.7 -0.1,17.6 0,1.3 0.4,2.3 1.3,3.3 14.2,15.6 41,15.8 55.4,0.3 0.8,-0.9 1.1,-1.8 1.1,-3 0,-4.8 0,-9.5 0,-14.3 0,-0.7 -0.6,-1.1 -1.3,-0.9 l -3.3,1.2 c 0,4.4 0,8.7 0,13 0,0.7 -0.3,1.1 -0.8,1.6 -12.9,12.4 -34.1,12.3 -46.8,-0.2 -0.7,-0.7 -1.1,-1.3 -1.1,-2.3 0.1,-4.9 0.1,-9.9 0,-14.9 0,-1.3 0.3,-1.5 1.5,-1 6.8,2.4 13.6,4.6 20.4,7 1.7,0.6 3.3,0.6 5,0 7.1,-2.5 14.3,-4.9 21.8,-7.5 0,0 0,0 0,0 l 5.2,-1.8 c 0,0 0,0 0,0 0.3,-0.1 0.7,-0.2 1,-0.3 h 0.1 v 0 c 0.8,-0.3 1.7,-0.5 2.5,-0.8 z"
   id="path4"
   inkscape:connector-curvature="0"
   style="display:inline;fill:#ebeded" />
			<path
   class="st2"
   d="M 101.8,51.6 C 87.3,46.8 72.9,41.7 58.4,36.9 57,36.4 55.6,36 54.1,36.4 53.7,36.5 53.4,36.7 53,36.8 37.8,42 22.6,47.1 7.5,52.3 6.2,52.7 5,53.2 5,54.8 c 0,1.6 1.2,2.1 2.5,2.5 4.9,1.6 9.7,3.3 14.6,5 l 0.1,-4.8 c -2.1,-0.7 -4.1,-1.4 -6.2,-2.1 -0.4,-0.1 -0.8,-0.3 -1.5,-0.6 5.9,-2 11.6,-4 17.2,-5.9 7.1,-2.4 14.2,-4.8 21.3,-7.3 1.2,-0.4 2.3,-0.4 3.5,0 12.2,4.2 24.5,8.4 36.8,12.6 0.5,0.2 1,0.3 1.9,0.7 -0.5,0.2 -1,0.3 -1.5,0.5 -0.8,0.3 -1.4,1.1 -1.4,1.9 v 3.8 c 0.1,0.1 0.1,0.3 0.1,0.5 -0.5,3.9 1.2,8.1 -1.1,11.8 -0.3,0.4 -0.2,1 -0.3,1.6 0,2.8 0,5.7 0,8.5 0,2.4 1.4,3.8 3.6,3.9 2.3,0 3.8,-1.5 3.8,-3.9 0,-2.9 0,-5.8 0,-8.7 0,-0.6 0,-1.3 -0.4,-1.7 -1.3,-1.4 -1,-3.1 -1,-4.8 0,-2.3 0.1,-4.5 0,-6.7 -0.1,-1.8 0.4,-2.7 2.2,-3.2 1.9,-0.6 4.1,-0.7 5.5,-2.6 0.1,-0.3 0.1,-0.6 0.2,-0.9 -0.3,-2.1 -1.6,-2.8 -3.1,-3.3 z"
   id="path6"
   inkscape:connector-curvature="0"
   style="display:inline;fill:#ebeded" />
		</g>
		<g
   id="g14">
			<path
   class="st3"
   d="m 87.9,62.2 v -1 c 0,-1.9 -1.9,-3.2 -3.7,-2.6 -2.5,0.9 -5,1.7 -7.5,2.6 -6.8,2.3 -13.6,4.6 -20.4,7 -0.8,0.3 -1.5,0.5 -2.4,0.2 C 45,65.2 36,62.2 27.1,59.1 26.6,58.9 26,59.3 26,59.9 v 4.8 c 0,0.1 0,0.3 0,0.5 -0.1,5.8 0,11.7 -0.1,17.6 0,1.3 0.4,2.3 1.3,3.3 14.2,15.6 41,15.8 55.4,0.3 0.8,-0.9 1.1,-1.8 1.1,-3 0,-4.8 0,-9.5 0,-14.3 0,-0.7 -0.6,-1.1 -1.3,-0.9 l -3.3,1.2 c 0,4.4 0,8.7 0,13 0,0.7 -0.3,1.1 -0.8,1.6 -12.9,12.4 -34.1,12.3 -46.8,-0.2 -0.7,-0.7 -1.1,-1.3 -1.1,-2.3 0.1,-4.9 0.1,-9.9 0,-14.9 0,-1.3 0.3,-1.5 1.5,-1 6.8,2.4 13.6,4.6 20.4,7 1.7,0.6 3.3,0.6 5,0 7.1,-2.5 14.3,-4.9 21.8,-7.5 0,0 0,0 0,0 l 5.2,-1.8 c 0,0 0,0 0,0 0.3,-0.1 0.7,-0.2 1,-0.3 h 0.1 v 0 c 0.8,-0.3 1.7,-0.5 2.5,-0.8 z"
   id="path10"
   inkscape:connector-curvature="0"
   style="fill:#16484e" />
			<path
   class="st3"
   d="m 5,54.8 c 0,1.6 1.2,2.1 2.5,2.5 3.6,1.2 7.2,2.5 10.8,3.7 1.9,0.6 3.9,-0.7 3.9,-2.7 v -0.8 c -2.1,-0.7 -4.1,-1.4 -6.2,-2.1 -0.4,-0.1 -0.8,-0.3 -1.5,-0.6 5.9,-2 11.6,-4 17.2,-5.9 7.1,-2.4 14.2,-4.8 21.3,-7.3 1.2,-0.4 2.3,-0.4 3.5,0 12.2,4.2 24.5,8.4 36.8,12.6 0.5,0.2 1,0.3 1.9,0.7 -0.5,0.2 -1,0.3 -1.5,0.5 -0.8,0.3 -1.4,1.1 -1.4,1.9 v 3.8 c 0.1,0.1 0.1,0.3 0.1,0.5 -0.5,3.9 1.2,8.1 -1.1,11.8 -0.3,0.4 -0.2,1 -0.3,1.6 0,2.8 0,5.7 0,8.5 0,2.4 1.4,3.8 3.6,3.9 2.3,0 3.8,-1.5 3.8,-3.9 0,-2.9 0,-5.8 0,-8.7 0,-0.6 0,-1.3 -0.4,-1.7 -1.3,-1.4 -1,-3.1 -1,-4.8 0,-2.3 0.1,-4.5 0,-6.7 -0.1,-1.8 0.4,-2.7 2.2,-3.2 1.9,-0.6 4.1,-0.7 5.5,-2.6 0.1,-0.3 0.1,-0.6 0.2,-0.9 -0.3,-2 -1.6,-2.7 -3,-3.2 C 87.4,46.9 73,41.8 58.5,37 57.1,36.5 55.7,36.1 54.2,36.5 53.8,36.6 53.5,36.8 53.1,36.9 37.8,42 22.6,47.1 7.5,52.3 6.2,52.7 5,53.2 5,54.8"
   id="path12"
   inkscape:connector-curvature="0"
   style="fill:#16484e" />
		</g>
	</g>
	<path
   class="st4"
   d="m 77,127.9 c -2.5,3.1 -6,3.9 -6.9,4 10.9,4.8 24.2,17.1 27.9,32.6 0.4,1.6 -0.9,3.1 -2.5,3.1 H 11.2 c 2.2,-19.1 21,-36.7 40.4,-38.3 1.1,0.1 2.2,0.2 3.3,0.2 16.7,0 30.2,-13.5 30.2,-30.2 0,-3.1 -0.5,-6.1 -1.3,-8.9 -1.1,1.4 -2.6,3.1 -4.8,4.7 0.2,1.4 0.4,2.8 0.4,4.2 0,13.5 -10.9,24.4 -24.4,24.4 -13.5,0 -24.4,-10.9 -24.4,-24.4 0,-1.2 0.1,-2.5 0.3,-3.7 -2.2,-1.1 -3.9,-2.5 -5.2,-3.7 -0.6,2.3 -0.9,4.8 -0.9,7.3 0,11.1 6,20.8 15,26.1 -19.9,6.8 -35.1,25.8 -34.8,48 0,0.2 0,0.4 0,0.6 h 0.6 5.4 88 3.6 1.3 c 0.7,0 1.2,-0.5 1.2,-1.2 0,0 0,0 0,0 C 105,153.1 93.6,136 77,127.9 Z"
   id="path17"
   inkscape:connector-curvature="0"
   style="display:inline;fill:#16484e" />
</g>
<g
   id="_x30_15"
   class="st0"
   style="display:none"
   transform="translate(-4.9999999,-37.999999)">
	<path
   class="st4"
   d="M 105,83.5 V 75 c 0,-1.7 -1.4,-3.1 -3.1,-3.1 H 8.1 C 6.4,71.9 5,73.3 5,75 v 8.6 h 100 z"
   id="path20"
   inkscape:connector-curvature="0"
   style="display:inline;fill:#16484e" />
	<rect
   x="78.800003"
   y="121.7"
   class="st4"
   width="22.299999"
   height="11.7"
   id="rect22"
   style="display:inline;fill:#16484e" />
	<g
   class="st1"
   id="g32"
   style="display:inline">
		<path
   class="st3"
   d="m 13.4,132.2 c -1.7,-0.7 -3,-1.6 -3.9,-2.8 -0.9,-1.2 -1.4,-2.5 -1.4,-4 0,-1.1 0.3,-2.1 0.9,-2.9 0.6,-0.8 1.3,-1.2 2.2,-1.2 0.6,0 1,0.2 1.4,0.5 0.4,0.4 0.6,0.8 0.6,1.4 0,0.6 -0.3,1.3 -0.9,2.1 -0.3,0.5 -0.6,0.9 -0.7,1.2 -0.1,0.3 -0.2,0.6 -0.2,1 0,0.9 0.3,1.8 0.9,2.6 0.6,0.8 1.4,1.4 2.4,1.8 1,0.4 2.1,0.6 3.5,0.6 h 0.2 V 115.8 L 16.9,115 c -1.4,-0.8 -2.4,-1.5 -3.2,-2 -0.7,-0.5 -1.4,-1.1 -2,-1.7 -1.5,-1.7 -2.3,-3.6 -2.3,-5.8 0,-1.4 0.3,-2.6 1,-3.8 0.6,-1.2 1.5,-2.1 2.7,-2.9 1.5,-0.9 3.2,-1.4 5.2,-1.6 V 93.3 H 5 v 40.9 c 0,1.7 1.4,3.1 3.1,3.1 h 10.2 v -4.1 c -1.6,0 -3.2,-0.3 -4.9,-1 z"
   id="path24"
   inkscape:connector-curvature="0"
   style="fill:#16484e" />
		<path
   class="st3"
   d="m 22.8,131.4 c 0.7,-0.6 1.3,-1.4 1.8,-2.5 0.4,-1.1 0.7,-2.2 0.7,-3.4 0,-3.4 -1.9,-6.4 -5.8,-8.9 v 16 c 0.8,-0.1 1.4,-0.2 1.9,-0.4 0.5,-0.2 1,-0.5 1.4,-0.8 z"
   id="path26"
   inkscape:connector-curvature="0"
   style="fill:#16484e" />
		<path
   class="st3"
   d="m 13.3,100.5 c -0.5,1 -0.8,2 -0.8,3.2 0,1.4 0.4,2.7 1.2,3.8 0.4,0.6 0.9,1.2 1.5,1.6 0.6,0.4 1.5,1.1 2.9,1.9 l 0.3,0.2 V 97.8 c -1.2,0.1 -2.1,0.3 -2.9,0.6 -1,0.5 -1.7,1.2 -2.2,2.1 z"
   id="path28"
   inkscape:connector-curvature="0"
   style="fill:#16484e" />
		<path
   class="st3"
   d="m 19.5,93.4 v 3.9 c 1.8,0.1 3.3,0.5 4.7,1.2 1.1,0.6 2,1.3 2.7,2.2 0.6,0.9 1,2 1,3.1 0,0.9 -0.3,1.6 -0.8,2.2 -0.5,0.6 -1.1,0.9 -1.9,0.9 -0.6,0 -1,-0.2 -1.4,-0.6 -0.4,-0.4 -0.6,-0.9 -0.6,-1.5 0,-0.4 0.1,-0.7 0.2,-1.1 l 0.5,-1 c 0.2,-0.4 0.2,-0.8 0.2,-1.3 0,-0.7 -0.2,-1.3 -0.6,-1.9 -0.4,-0.5 -1,-0.9 -1.7,-1.2 -0.6,-0.2 -1.4,-0.4 -2.3,-0.5 v 14 l 0.3,0.2 c 3.1,1.8 5.2,3.4 6.5,4.9 0.8,1 1.5,2.1 2,3.3 0.5,1.2 0.7,2.4 0.7,3.7 0,1.7 -0.4,3.3 -1.2,4.6 -0.8,1.4 -2,2.5 -3.4,3.2 -1.4,0.7 -3,1.2 -4.8,1.4 v 4.2 h 82.5 c 1.7,0 3.1,-1.4 3.1,-3.1 V 93.4 Z M 101.8,134 H 78.3 v -12.9 h 23.5 z"
   id="path30"
   inkscape:connector-curvature="0"
   style="fill:#16484e" />
	</g>
</g>
<g
   id="_x30_16"
   class="st0"
   style="display:none"
   transform="translate(-4.9999999,-37.999999)">
	<g
   class="st1"
   id="g85"
   style="display:inline">
		<g
   id="g73">
			<g
   id="g59">
				<path
   class="st5"
   d="m 17.1,69.8 c 0,2.9 -0.5,4.7 -3.1,4.7 h -0.6 c -0.3,0 -0.6,0.3 -0.6,0.7 v 1.6 c 0,0.4 -0.3,0.7 -0.7,0.7 h -0.2 c -0.4,0 -0.7,-0.3 -0.7,-0.7 V 66 c 0,-0.4 0.3,-0.7 0.7,-0.7 h 2 c 2.2,0 3.2,1.3 3.2,4.5 z m -1.6,0 c 0,-2.9 -0.7,-2.9 -1.6,-2.9 h -0.5 c -0.3,0 -0.5,0.3 -0.5,0.7 v 4.6 c 0,0.4 0.3,0.7 0.6,0.7 H 14 c 0.9,0.1 1.5,0.1 1.5,-3.1 z"
   id="path35"
   inkscape:connector-curvature="0"
   style="fill:#ff0b0b" />
				<path
   class="st5"
   d="M 22.5,77.6 H 22 c -0.4,0 -0.9,-0.3 -1.1,-0.6 l -1.2,-1.8 c -0.2,-0.3 -0.5,-0.6 -0.7,-0.6 -0.1,0 -0.3,0.3 -0.3,0.7 v 1.6 c 0,0.4 -0.3,0.7 -0.7,0.7 v 0 c -0.4,0 -0.7,-0.3 -0.7,-0.7 V 66 c 0,-0.4 0.3,-0.7 0.7,-0.7 h 2 c 2.1,0 3.3,2.4 3.3,4.8 0,1.1 -0.2,2.1 -0.7,2.9 -0.2,0.4 -0.5,0.7 -0.8,0.9 -0.3,0.3 -0.4,0.6 -0.2,1 l 1.3,2.1 c 0.2,0.3 0,0.6 -0.4,0.6 z m -1.4,-5.4 c 0.3,-0.5 0.5,-1.3 0.5,-2.1 0,-1.6 -0.6,-3.2 -1.6,-3.2 h -0.5 c -0.3,0 -0.5,0.3 -0.5,0.7 v 4.6 c 0,0.4 0.3,0.7 0.6,0.7 h 0.6 c 0.1,0.1 0.5,0.1 0.9,-0.7 z"
   id="path37"
   inkscape:connector-curvature="0"
   style="fill:#ff0b0b" />
				<path
   class="st5"
   d="m 31.3,71.4 c 0,4.2 -1.2,6.3 -3.7,6.3 -2.5,0 -3.6,-2.1 -3.6,-6.3 0,-4.2 1.2,-6.3 3.7,-6.3 2.5,0 3.6,2.1 3.6,6.3 z m -1.6,0 c 0,-4.7 -1.5,-4.7 -2.1,-4.7 -0.6,0 -2.1,0 -2.1,4.7 0,4.7 1.6,4.7 2.1,4.7 0.5,0 2.1,0 2.1,-4.7 z"
   id="path39"
   inkscape:connector-curvature="0"
   style="fill:#ff0b0b" />
				<path
   class="st5"
   d="m 38.9,77.6 h -0.4 c -0.4,0 -0.8,-0.3 -1,-0.6 L 36,73.6 c -0.2,-0.4 -0.4,-0.4 -0.6,0 L 33.9,77 c -0.2,0.4 -0.6,0.6 -1,0.6 h -0.4 c -0.4,0 -0.6,-0.3 -0.4,-0.6 l 2.4,-5.3 c 0.2,-0.4 0.2,-0.9 0,-1.3 l -2,-4.4 c -0.2,-0.4 0,-0.6 0.4,-0.6 h 0.4 c 0.4,0 0.8,0.3 1,0.6 l 1.1,2.5 c 0.2,0.4 0.4,0.4 0.6,0 L 37.1,66 c 0.2,-0.4 0.6,-0.6 1,-0.6 h 0.4 c 0.4,0 0.6,0.3 0.4,0.6 l -2,4.4 c -0.2,0.4 -0.2,0.9 0,1.3 l 2.4,5.3 c 0.2,0.3 0,0.6 -0.4,0.6 z"
   id="path41"
   inkscape:connector-curvature="0"
   style="fill:#ff0b0b" />
				<path
   class="st5"
   d="m 41.8,66 v 10.9 c 0,0.4 -0.3,0.7 -0.7,0.7 h -0.2 c -0.4,0 -0.7,-0.3 -0.7,-0.7 V 66 c 0,-0.4 0.3,-0.7 0.7,-0.7 h 0.2 c 0.4,0 0.7,0.3 0.7,0.7 z"
   id="path43"
   inkscape:connector-curvature="0"
   style="fill:#ff0b0b" />
				<path
   class="st5"
   d="m 49.7,66 v 10.9 c 0,0.4 -0.3,0.7 -0.7,0.7 h -0.2 c -0.4,0 -0.7,-0.3 -0.7,-0.7 v -5.5 c 0,-0.4 -0.1,-0.4 -0.3,0 l -1.5,4.2 C 46.2,76 46,76 45.8,75.6 l -1.5,-4.1 c -0.1,-0.4 -0.2,-0.4 -0.2,0 v 5.4 c 0,0.4 -0.3,0.7 -0.7,0.7 h -0.2 c -0.4,0 -0.7,-0.3 -0.7,-0.7 V 66 c 0,-0.4 0.3,-0.7 0.7,-0.7 0.4,0 0.8,0.3 0.9,0.6 l 1.7,4.8 c 0.1,0.4 0.3,0.4 0.5,0 l 1.8,-4.8 c 0.1,-0.4 0.5,-0.6 0.9,-0.6 0.4,0 0.7,0.3 0.7,0.7 z"
   id="path45"
   inkscape:connector-curvature="0"
   style="fill:#ff0b0b" />
				<path
   class="st5"
   d="m 57.7,77.6 h -0.3 c -0.4,0 -0.8,-0.3 -0.9,-0.7 l -0.3,-1.3 c -0.1,-0.4 -0.5,-0.7 -0.9,-0.7 h -1.9 c -0.4,0 -0.8,0.3 -0.9,0.7 l -0.4,1.3 c -0.1,0.4 -0.5,0.7 -0.9,0.7 H 51 c -0.4,0 -0.6,-0.3 -0.5,-0.7 l 3.1,-11.1 c 0.1,-0.4 0.5,-0.7 0.8,-0.7 0.3,0 0.7,0.3 0.8,0.7 l 3,11.1 c 0.1,0.4 -0.1,0.7 -0.5,0.7 z m -2.3,-5 -0.8,-3 c -0.1,-0.4 -0.3,-0.4 -0.4,0 l -0.8,3 c -0.1,0.4 0.1,0.7 0.5,0.7 h 1 c 0.4,0 0.6,-0.3 0.5,-0.7 z"
   id="path47"
   inkscape:connector-curvature="0"
   style="fill:#ff0b0b" />
				<path
   class="st5"
   d="m 68.1,66 v 0.2 c 0,0.4 -0.3,0.7 -0.7,0.7 h -0.7 c -0.4,0 -0.7,0.3 -0.7,0.7 v 9.3 c 0,0.4 -0.3,0.7 -0.7,0.7 h -0.2 c -0.4,0 -0.7,-0.3 -0.7,-0.7 v -9.3 c 0,-0.4 -0.3,-0.7 -0.7,-0.7 H 63 c -0.4,0 -0.7,-0.3 -0.7,-0.7 V 66 c 0,-0.4 0.3,-0.7 0.7,-0.7 h 4.4 c 0.4,0 0.7,0.3 0.7,0.7 z"
   id="path49"
   inkscape:connector-curvature="0"
   style="fill:#ff0b0b" />
				<path
   class="st5"
   d="m 75,66 v 5.6 c 0,4.2 -0.3,6.1 -3,6.1 -2.6,0 -3,-2.1 -3,-6.1 V 66 c 0,-0.4 0.3,-0.7 0.7,-0.7 h 0.2 c 0.4,0 0.7,0.3 0.7,0.7 v 5.6 c 0,4.5 0.6,4.5 1.4,4.5 1,0 1.4,0 1.4,-4.5 V 66 c 0,-0.4 0.3,-0.7 0.7,-0.7 h 0.2 c 0.4,0 0.7,0.3 0.7,0.7 z"
   id="path51"
   inkscape:connector-curvature="0"
   style="fill:#ff0b0b" />
				<path
   class="st5"
   d="m 81,77.6 h -0.5 c -0.4,0 -0.9,-0.3 -1.1,-0.6 l -1.2,-1.8 c -0.2,-0.3 -0.5,-0.6 -0.7,-0.6 -0.1,0 -0.3,0.3 -0.3,0.7 v 1.6 c 0,0.4 -0.3,0.7 -0.7,0.7 h -0.2 c -0.4,0 -0.7,-0.3 -0.7,-0.7 V 66 c 0,-0.4 0.3,-0.7 0.7,-0.7 h 2 c 2.1,0 3.3,2.4 3.3,4.8 0,1.1 -0.2,2.1 -0.7,2.9 -0.2,0.4 -0.5,0.7 -0.8,0.9 -0.3,0.3 -0.4,0.6 -0.2,1 l 1.3,2.1 c 0.4,0.3 0.2,0.6 -0.2,0.6 z m -1.4,-5.4 c 0.3,-0.5 0.5,-1.3 0.5,-2.1 0,-1.6 -0.6,-3.2 -1.6,-3.2 H 78 c -0.3,0 -0.5,0.3 -0.5,0.7 v 4.6 c 0,0.4 0.3,0.7 0.6,0.7 h 0.6 c 0.1,0.1 0.5,0.1 0.9,-0.7 z"
   id="path53"
   inkscape:connector-curvature="0"
   style="fill:#ff0b0b" />
				<path
   class="st5"
   d="m 89.6,66 v 10.9 c 0,0.4 -0.3,0.7 -0.7,0.7 H 88.7 C 88.3,77.6 88,77.3 88,76.9 v -5.5 c 0,-0.4 -0.1,-0.4 -0.3,0 l -1.5,4.2 c -0.1,0.4 -0.3,0.4 -0.5,0 L 84.2,71.5 C 84.1,71.1 84,71.1 84,71.5 v 5.4 c 0,0.4 -0.3,0.7 -0.7,0.7 h -0.2 c -0.4,0 -0.7,-0.3 -0.7,-0.7 V 66 c 0,-0.4 0.3,-0.7 0.7,-0.7 0.4,0 0.8,0.3 0.9,0.6 l 1.7,4.8 c 0.1,0.4 0.3,0.4 0.5,0 L 88,65.9 c 0.1,-0.4 0.5,-0.6 0.9,-0.6 0.4,0 0.7,0.3 0.7,0.7 z"
   id="path55"
   inkscape:connector-curvature="0"
   style="fill:#ff0b0b" />
				<path
   class="st5"
   d="m 97.6,77.6 h -0.3 c -0.4,0 -0.8,-0.3 -0.9,-0.7 L 96.1,75.6 C 96,75.2 95.6,74.9 95.2,74.9 h -1.9 c -0.4,0 -0.8,0.3 -0.9,0.7 L 92,76.9 c -0.1,0.4 -0.5,0.7 -0.9,0.7 H 91 c -0.4,0 -0.6,-0.3 -0.5,-0.7 l 3.1,-11.1 c 0.1,-0.4 0.5,-0.7 0.8,-0.7 0.3,0 0.7,0.3 0.8,0.7 l 3,11.1 c 0,0.4 -0.2,0.7 -0.6,0.7 z m -2.3,-5 -0.8,-3 c -0.1,-0.4 -0.3,-0.4 -0.4,0 l -0.8,3 c -0.1,0.4 0.1,0.7 0.5,0.7 h 1 c 0.4,0 0.6,-0.3 0.5,-0.7 z"
   id="path57"
   inkscape:connector-curvature="0"
   style="fill:#ff0b0b" />
			</g>
			<g
   id="g71">
				<path
   class="st5"
   d="m 27,110.3 v 0.6 c 0,0.9 -0.7,1.7 -1.6,1.7 H 12 c -0.9,0 -1.1,-0.5 -0.5,-1.2 l 2,-2.1 c 2.7,-2.8 9.9,-11.4 9.9,-16.8 0,-3.4 -1.7,-5.2 -3.3,-5.2 -0.7,0 -1.3,0.3 -1.8,0.9 -0.3,0.4 -0.7,1.1 -0.9,2.2 -0.2,0.9 -0.9,1.6 -1.8,1.6 H 15 c -0.9,0 -1.6,-0.7 -1.5,-1.6 0.2,-1.9 0.8,-3.4 1.8,-4.6 1.2,-1.5 2.9,-2.4 4.8,-2.4 1.9,0 3.7,0.9 5,2.5 1.4,1.7 2.1,3.9 2.1,6.6 0,4.9 -3.8,10.9 -7,14.9 -0.5,0.7 -0.3,1.3 0.6,1.3 h 4.5 c 0.9,0 1.7,0.7 1.7,1.6 z"
   id="path61"
   inkscape:connector-curvature="0"
   style="fill:#ff0b0b" />
				<path
   class="st5"
   d="m 44,92.5 c 0,0.3 0,0.6 0,0.8 0,3.1 -1.8,7.7 -5.4,13.7 -0.8,1.5 -1.7,2.9 -2.5,4.1 -0.5,0.7 -1.6,1.4 -2.6,1.4 h -1.4 c -0.9,0 -1.2,-0.6 -0.7,-1.4 1.4,-2 3.1,-4.7 4.7,-7.5 0.4,-0.8 0.7,-1.4 0.5,-1.4 h -0.2 c -4.2,0 -7.5,-4.3 -7.5,-9.7 0,-5.4 3.2,-9.7 7.5,-9.7 4.3,0.1 7.6,4.3 7.6,9.7 z m -3.9,0 c 0,-3.1 -1.6,-5.8 -3.6,-5.8 -2,0 -3.7,2.6 -3.7,5.8 0,3.1 1.7,5.8 3.7,5.8 2,0 3.6,-2.6 3.6,-5.8 z"
   id="path63"
   inkscape:connector-curvature="0"
   style="fill:#ff0b0b" />
				<path
   class="st5"
   d="m 62.5,81.7 -12.4,31.8 c -0.3,0.9 -1.3,1.6 -2.2,1.6 H 47 c -0.9,0 -1.4,-0.7 -1.1,-1.6 L 58.3,81.7 c 0.3,-0.9 1.3,-1.5 2.2,-1.5 h 0.8 c 1.1,0 1.5,0.7 1.2,1.5 z"
   id="path65"
   inkscape:connector-curvature="0"
   style="fill:#ff0b0b" />
				<path
   class="st5"
   d="m 81.4,97.9 c 0,3.7 0,14.8 -8.5,14.8 -8.5,0 -8.5,-11.2 -8.5,-14.8 0,-3.7 0,-14.8 8.5,-14.8 8.5,-0.1 8.5,11.1 8.5,14.8 z m -3.9,0 c 0,-11 -3.4,-11 -4.7,-11 -1.2,0 -4.6,0 -4.6,11 0,11 3.4,11 4.6,11 1.3,-0.1 4.7,-0.1 4.7,-11 z"
   id="path67"
   inkscape:connector-curvature="0"
   style="fill:#ff0b0b" />
				<path
   class="st5"
   d="m 98.2,103.2 c 0,5.4 -3.3,9.7 -7.5,9.7 -4.2,0 -7.5,-4.3 -7.5,-9.7 v -0.7 c 0,-4.6 3.9,-12.5 6.8,-17.9 0.5,-0.8 1.6,-1.4 2.5,-1.4 h 1.1 c 0.9,0 1.2,0.6 0.8,1.4 -1.2,2.2 -2.7,4.9 -3.9,7.5 -0.4,0.8 -0.5,1.4 -0.3,1.4 h 0.5 c 4.2,0.1 7.5,4.3 7.5,9.7 z m -3.9,0 c 0,-3.1 -1.6,-5.8 -3.6,-5.8 -2,0 -3.7,2.7 -3.7,5.8 0,3.1 1.7,5.8 3.7,5.8 2,0 3.6,-2.7 3.6,-5.8 z"
   id="path69"
   inkscape:connector-curvature="0"
   style="fill:#ff0b0b" />
			</g>
		</g>
		<g
   id="g83">
			<polygon
   class="st5"
   points="27.4,61.3 27.4,58.5 5,58.5 5,80.6 7.8,80.6 7.8,61.3 "
   id="polygon75"
   style="fill:#ff0b0b" />
			<polygon
   class="st5"
   points="5,118.8 27.4,118.8 27.4,116 7.8,116 7.8,96.7 5,96.7 "
   id="polygon77"
   style="fill:#ff0b0b" />
			<polygon
   class="st5"
   points="104.6,58.5 82.2,58.5 82.2,61.3 101.8,61.3 101.8,80.6 104.6,80.6 "
   id="polygon79"
   style="fill:#ff0b0b" />
			<polygon
   class="st5"
   points="82.2,116 82.2,118.8 104.6,118.8 104.6,96.7 101.8,96.7 101.8,116 "
   id="polygon81"
   style="fill:#ff0b0b" />
		</g>
	</g>
	<g
   class="st1"
   id="g89"
   style="display:inline">
		<path
   class="st5"
   d="m 30,63.1 -2.3,1.6 c -0.1,0 -0.2,0.1 -0.4,0.1 h -0.2 c -0.2,0 -0.3,0 -0.2,-0.1 l 1.3,-1.6 c 0.1,0 0.2,-0.1 0.4,-0.1 h 1.1 c 0.3,0.1 0.3,0.1 0.3,0.1 z"
   id="path87"
   inkscape:connector-curvature="0"
   style="fill:#ff0b0b" />
	</g>
	<g
   class="st1"
   id="g123"
   style="display:inline">
		<rect
   x="9.6999998"
   y="118.3"
   transform="matrix(0.979,-0.2037,0.2037,0.979,-25.2478,14.2718)"
   width="93.900002"
   height="22.9"
   id="rect91" />
		<g
   id="g117">
			<path
   class="st6"
   d="m 21.6,131.6 1.2,5.4 c 0.9,4 1,5.9 -1.6,6.5 -2.5,0.5 -3.4,-1.3 -4.2,-5.2 l -1.2,-5.4 c -0.1,-0.4 0.2,-0.7 0.5,-0.8 h 0.2 c 0.4,-0.1 0.7,0.2 0.8,0.5 l 1.2,5.4 c 0.9,4.3 1.6,4.2 2.3,4 0.9,-0.2 1.4,-0.3 0.4,-4.6 L 20,132 c -0.1,-0.4 0.2,-0.7 0.5,-0.8 h 0.2 c 0.4,-0.2 0.8,0.1 0.9,0.4 z"
   id="path93"
   inkscape:connector-curvature="0"
   style="fill:#ffffff" />
			<path
   class="st6"
   d="m 28.8,140.8 v 0.2 c 0.1,0.4 -0.2,0.7 -0.5,0.8 l -2.9,0.6 c -0.4,0.1 -0.7,-0.2 -0.8,-0.5 l -2.3,-10.4 c -0.1,-0.4 0.2,-0.7 0.5,-0.8 H 23 c 0.4,-0.1 0.7,0.2 0.8,0.5 l 1.9,8.9 c 0.1,0.4 0.4,0.6 0.8,0.5 l 1.4,-0.3 c 0.5,-0.2 0.9,0.1 0.9,0.5 z"
   id="path95"
   inkscape:connector-curvature="0"
   style="fill:#ffffff" />
			<path
   class="st6"
   d="m 32.9,129.2 v 0.2 c 0.1,0.4 -0.2,0.7 -0.5,0.8 l -0.7,0.1 c -0.4,0.1 -0.6,0.4 -0.5,0.8 l 1.9,8.9 c 0.1,0.4 -0.2,0.7 -0.5,0.8 h -0.2 c -0.4,0.1 -0.7,-0.2 -0.8,-0.5 l -1.9,-8.9 c -0.1,-0.4 -0.4,-0.6 -0.8,-0.5 l -0.7,0.1 c -0.4,0.1 -0.7,-0.2 -0.8,-0.5 v -0.2 c -0.1,-0.4 0.2,-0.7 0.5,-0.8 l 4.2,-0.9 c 0.4,0 0.7,0.2 0.8,0.6 z"
   id="path97"
   inkscape:connector-curvature="0"
   style="fill:#ffffff" />
			<path
   class="st6"
   d="m 35.4,128.6 2.3,10.4 c 0.1,0.4 -0.2,0.7 -0.5,0.8 H 37 c -0.4,0.1 -0.7,-0.2 -0.8,-0.5 L 33.9,129 c -0.1,-0.4 0.2,-0.7 0.5,-0.8 h 0.2 c 0.4,-0.2 0.7,0.1 0.8,0.4 z"
   id="path99"
   inkscape:connector-curvature="0"
   style="fill:#ffffff" />
			<path
   class="st6"
   d="m 43.2,126.9 2.3,10.4 c 0.1,0.4 -0.2,0.7 -0.5,0.8 h -0.2 c -0.4,0.1 -0.7,-0.2 -0.8,-0.5 l -1.2,-5.3 c -0.1,-0.4 -0.2,-0.4 -0.2,0 l -0.6,4.3 c -0.1,0.4 -0.3,0.4 -0.5,0.1 l -2.3,-3.6 c -0.2,-0.3 -0.3,-0.3 -0.2,0.1 l 1.1,5.2 c 0.1,0.4 -0.2,0.7 -0.5,0.8 h -0.2 c -0.4,0.1 -0.7,-0.2 -0.8,-0.5 l -2.3,-10.4 c -0.1,-0.4 0.2,-0.7 0.5,-0.8 0.4,-0.1 0.8,0.1 1,0.4 l 2.7,4.2 c 0.2,0.3 0.4,0.3 0.4,-0.1 l 0.7,-5 c 0.1,-0.4 0.4,-0.7 0.8,-0.8 0.4,0.1 0.8,0.3 0.8,0.7 z"
   id="path101"
   inkscape:connector-curvature="0"
   style="fill:#ffffff" />
			<path
   class="st6"
   d="m 53.4,136.4 -0.3,0.1 c -0.4,0.1 -0.8,-0.1 -1,-0.4 l -0.6,-1.2 c -0.2,-0.3 -0.6,-0.5 -1,-0.5 l -1.8,0.4 c -0.4,0.1 -0.7,0.5 -0.7,0.8 l -0.1,1.3 c 0,0.4 -0.3,0.7 -0.7,0.8 l -0.3,0.1 c -0.4,0.1 -0.7,-0.1 -0.6,-0.5 L 47,126 c 0,-0.4 0.3,-0.7 0.6,-0.8 0.3,-0.1 0.7,0.1 0.9,0.5 l 5.3,9.9 c 0.2,0.4 0,0.7 -0.4,0.8 z m -3.3,-4.2 -1.4,-2.7 c -0.2,-0.3 -0.3,-0.3 -0.4,0.1 l -0.2,3 c 0,0.4 0.3,0.6 0.6,0.5 l 1,-0.2 c 0.5,-0.1 0.6,-0.4 0.4,-0.7 z"
   id="path103"
   inkscape:connector-curvature="0"
   style="fill:#ffffff" />
			<path
   class="st6"
   d="m 59.6,132 c 0.4,1.8 -0.5,3.2 -2.3,3.6 -1.7,0.4 -3.1,-1 -3.7,-1.8 -0.2,-0.3 -0.1,-0.7 0.2,-0.9 l 0.2,-0.1 c 0.3,-0.2 0.7,-0.1 1,0.2 0.4,0.5 1.2,1.2 2,1 0.9,-0.2 1.3,-0.8 1.1,-1.8 -0.2,-1.1 -1.3,-1.8 -2.5,-2.4 -1.2,-0.7 -2.6,-1.5 -3,-3 -0.3,-1.6 0.5,-3 2,-3.4 1.1,-0.2 2.3,0.2 3,1.3 0.2,0.3 0.1,0.7 -0.3,0.9 l -0.2,0.1 c -0.3,0.2 -0.7,0 -1,-0.2 -0.3,-0.3 -0.7,-0.6 -1.3,-0.5 -0.8,0.2 -1,0.9 -0.8,1.5 0.2,0.9 1.1,1.4 2.2,2 1.5,0.8 3,1.7 3.4,3.5 z"
   id="path105"
   inkscape:connector-curvature="0"
   style="fill:#ffffff" />
			<path
   class="st6"
   d="m 67.6,121.6 0.5,10.8 c 0,0.4 -0.3,0.8 -0.6,0.8 l -0.7,0.1 c -0.4,0.1 -0.8,-0.1 -0.9,-0.5 l -4,-10 c -0.2,-0.4 0,-0.7 0.4,-0.8 l 0.2,-0.1 c 0.4,-0.1 0.8,0.1 0.9,0.5 l 2.7,6.7 c 0.1,0.4 0.2,0.3 0.2,0 L 66,121.8 c 0,-0.4 0.3,-0.7 0.6,-0.8 l 0.3,-0.1 c 0.4,0.1 0.7,0.3 0.7,0.7 z"
   id="path107"
   inkscape:connector-curvature="0"
   style="fill:#ffffff" />
			<path
   class="st6"
   d="m 76.7,131.3 -0.3,0.1 c -0.4,0.1 -0.8,-0.1 -1,-0.4 l -0.6,-1.2 c -0.2,-0.3 -0.6,-0.5 -1,-0.5 l -1.8,0.4 c -0.4,0.1 -0.7,0.5 -0.7,0.8 l -0.1,1.3 c 0,0.4 -0.3,0.7 -0.7,0.8 l -0.3,0.1 c -0.4,0.1 -0.7,-0.1 -0.6,-0.5 L 70.3,121 c 0,-0.4 0.3,-0.7 0.6,-0.8 0.3,-0.1 0.7,0.1 0.9,0.5 l 5.3,9.9 c 0.1,0.3 -0.1,0.6 -0.4,0.7 z m -3.3,-4.2 -1.4,-2.7 c -0.2,-0.3 -0.3,-0.3 -0.4,0.1 l -0.2,3 c 0,0.4 0.3,0.6 0.6,0.5 l 1,-0.2 c 0.4,-0.1 0.6,-0.4 0.4,-0.7 z"
   id="path109"
   inkscape:connector-curvature="0"
   style="fill:#ffffff" />
			<path
   class="st6"
   d="m 82.8,123.8 0.8,3.5 c 0.1,0.4 0.2,0.7 0.1,0.7 v 0.1 c -0.2,0.9 -1.1,2 -2.4,2.3 -3.4,0.7 -4.8,-2.4 -5.4,-5.2 -0.5,-2.1 -0.4,-3.7 0.1,-4.9 0.5,-1.1 1.4,-1.8 2.6,-2 0.9,-0.2 1.7,0 2.5,0.5 0.3,0.2 0.3,0.7 0,0.9 l -0.1,0.2 c -0.3,0.3 -0.7,0.3 -1,0.1 -0.3,-0.2 -0.7,-0.2 -1,-0.1 -0.7,0.2 -2.5,0.6 -1.5,5 1,4.5 2.8,4.1 3.5,4 0.3,-0.1 0.5,-0.2 0.7,-0.4 0.3,-0.3 0.3,-0.9 0.3,-1.2 l -0.3,-1.6 c -0.1,-0.4 -0.4,-0.6 -0.8,-0.5 l -0.3,0.1 c -0.4,0.1 -0.7,-0.2 -0.8,-0.5 v -0.2 c -0.1,-0.4 0.2,-0.7 0.5,-0.8 l 1.8,-0.4 c 0.2,-0.2 0.6,0 0.7,0.4 z"
   id="path111"
   inkscape:connector-curvature="0"
   style="fill:#ffffff" />
			<path
   class="st6"
   d="m 91.8,128 -0.3,0.1 c -0.4,0.1 -0.8,-0.1 -1,-0.4 l -0.6,-1.2 c -0.2,-0.3 -0.6,-0.5 -1,-0.5 l -1.8,0.4 c -0.4,0.1 -0.7,0.5 -0.7,0.8 l -0.1,1.3 c 0,0.4 -0.3,0.7 -0.7,0.8 l -0.3,0.1 c -0.4,0.1 -0.7,-0.1 -0.6,-0.5 l 0.7,-11.2 c 0,-0.4 0.3,-0.7 0.6,-0.8 0.3,-0.1 0.7,0.1 0.9,0.5 l 5.3,9.9 c 0.1,0.3 0,0.6 -0.4,0.7 z m -3.3,-4.2 -1.4,-2.7 c -0.2,-0.3 -0.3,-0.3 -0.4,0.1 l -0.2,3 c 0,0.4 0.3,0.6 0.6,0.5 l 1,-0.2 c 0.4,-0.1 0.6,-0.4 0.4,-0.7 z"
   id="path113"
   inkscape:connector-curvature="0"
   style="fill:#ffffff" />
			<path
   class="st6"
   d="m 98,123.6 c 0.4,1.8 -0.5,3.2 -2.3,3.6 -1.7,0.4 -3.1,-1 -3.7,-1.8 -0.2,-0.3 -0.1,-0.7 0.2,-0.9 l 0.2,-0.1 c 0.3,-0.2 0.7,-0.1 1,0.2 0.4,0.5 1.2,1.2 2,1 0.9,-0.2 1.3,-0.8 1.1,-1.8 -0.2,-1.1 -1.3,-1.8 -2.5,-2.4 -1.2,-0.7 -2.6,-1.5 -3,-3 -0.3,-1.6 0.5,-3 2,-3.4 1.1,-0.2 2.3,0.2 3,1.3 0.2,0.3 0.1,0.7 -0.3,0.9 l -0.2,0.1 c -0.3,0.2 -0.7,0 -1,-0.2 -0.3,-0.3 -0.7,-0.6 -1.3,-0.5 -0.8,0.2 -1,0.9 -0.8,1.5 0.2,0.9 1.1,1.4 2.2,2 1.5,0.8 3,1.6 3.4,3.5 z"
   id="path115"
   inkscape:connector-curvature="0"
   style="fill:#ffffff" />
		</g>
		<g
   id="g121">
			<path
   class="st6"
   d="m 20.9,129 -2.3,1.6 c -0.1,0 -0.2,0.1 -0.4,0.1 H 18 c -0.2,0 -0.3,0 -0.2,-0.1 l 1.3,-1.6 c 0.1,0 0.2,-0.1 0.4,-0.1 h 1.1 c 0.2,0 0.3,0.1 0.3,0.1 z"
   id="path119"
   inkscape:connector-curvature="0"
   style="fill:#ffffff" />
		</g>
	</g>
</g>
<g
   id="g148"
   transform="matrix(1.4947683,0,0,1.4947683,-7.4738415,-106.27803)">
	<path
   class="st7"
   d="m 22.4,77.5 v 2 h 80.4 v 56.1 H 20.1 v -30.7 c -0.5,0.3 -1.1,0.6 -1.8,0.8 V 138 H 105 V 77.5 Z"
   id="path126"
   inkscape:connector-curvature="0"
   style="opacity:0.5;fill:#16484e" />
	<g
   id="g134">
		<path
   class="st3"
   d="m 55.5,134.7 h -10 v -1.4 h 1.9 V 82 h -1.9 v -1.4 h 8.1 v 52.7 h 1.9 z"
   id="path128"
   inkscape:connector-curvature="0"
   style="fill:#16484e" />
		<path
   class="st3"
   d="m 77.4,127.1 c 0,2.2 -0.9,4 -2.7,5.6 -1.8,1.5 -4,2.3 -6.6,2.3 -2.5,0 -4.7,-0.8 -6.5,-2.3 -1.8,-1.5 -2.7,-3.4 -2.7,-5.6 v -13.9 c 0,-3.3 1.8,-5.7 5.4,-7.2 -3.6,-1.4 -5.4,-3.8 -5.4,-7.2 V 88.1 c 0,-2.2 0.9,-4 2.7,-5.6 1.8,-1.5 4,-2.3 6.5,-2.3 2.6,0 4.8,0.8 6.6,2.3 1.8,1.5 2.7,3.4 2.7,5.6 v 10.8 c 0,3.4 -1.8,5.8 -5.4,7.2 3.6,1.5 5.4,3.9 5.4,7.2 z M 71.2,102.3 V 84.7 c 0,-0.9 -0.3,-1.6 -0.9,-2.2 -0.6,-0.6 -1.3,-0.9 -2.2,-0.9 -0.9,0 -1.6,0.3 -2.2,0.9 -0.6,0.6 -0.9,1.3 -0.9,2.2 v 17.6 c 0,0.9 0.3,1.6 0.9,2.2 0.6,0.6 1.3,0.9 2.2,0.9 0.9,0 1.6,-0.3 2.2,-0.9 0.6,-0.6 0.9,-1.4 0.9,-2.2 z m 0,28.2 v -20.7 c 0,-0.9 -0.3,-1.6 -0.9,-2.2 -0.6,-0.6 -1.3,-0.9 -2.2,-0.9 -0.9,0 -1.6,0.3 -2.2,0.9 -0.6,0.6 -0.9,1.3 -0.9,2.2 v 20.7 c 0,0.9 0.3,1.6 0.9,2.2 0.6,0.6 1.3,0.9 2.2,0.9 0.9,0 1.6,-0.3 2.2,-0.9 0.6,-0.6 0.9,-1.3 0.9,-2.2 z"
   id="path130"
   inkscape:connector-curvature="0"
   style="fill:#16484e" />
		<path
   class="st3"
   d="m 100.6,127.1 c 0,2.2 -0.9,4 -2.7,5.6 -1.8,1.5 -4,2.3 -6.6,2.3 -2.5,0 -4.7,-0.8 -6.5,-2.3 -1.8,-1.5 -2.7,-3.4 -2.7,-5.6 v -39 c 0,-2.2 0.9,-4 2.7,-5.6 1.8,-1.5 4,-2.3 6.5,-2.3 2.6,0 4.8,0.8 6.6,2.3 1.8,1.5 2.7,3.4 2.7,5.6 z m -6.2,3.4 V 84.7 c 0,-0.9 -0.3,-1.6 -0.9,-2.2 -0.6,-0.6 -1.3,-0.9 -2.2,-0.9 -0.9,0 -1.6,0.3 -2.2,0.9 -0.6,0.6 -0.9,1.3 -0.9,2.2 v 45.9 c 0,0.9 0.3,1.6 0.9,2.2 0.6,0.6 1.3,0.9 2.2,0.9 0.9,0 1.6,-0.3 2.2,-0.9 0.6,-0.7 0.9,-1.4 0.9,-2.3 z"
   id="path132"
   inkscape:connector-curvature="0"
   style="fill:#16484e" />
	</g>
	<g
   id="g140">
		<path
   class="st3"
   d="m 32.9,133.7 h -1.2 c -1.6,0 -2.4,-0.8 -2.4,-2.5 v -8.5 c 0,-0.4 -0.1,-0.7 -0.4,-1 -0.3,-0.3 -0.6,-0.4 -1,-0.4 H 26.7 V 133 h 0.9 v 0.6 H 23.2 V 133 H 24 v -22.7 h -0.9 v -0.6 h 4.8 c 1.1,0 2.1,0.3 2.9,1 0.8,0.7 1.2,1.5 1.2,2.5 v 4.6 c 0,1.5 -0.8,2.6 -2.4,3.2 1.6,0.7 2.4,1.7 2.4,3.2 v 7.9 c 0,0.6 0.3,0.9 0.8,0.9 h 0.1 z m -3.6,-14.4 v -7.6 c 0,-0.4 -0.1,-0.7 -0.4,-1 -0.3,-0.3 -0.6,-0.4 -1,-0.4 h -1.2 v 10.4 h 1.2 c 0.4,0 0.7,-0.1 1,-0.4 0.2,-0.2 0.4,-0.6 0.4,-1 z"
   id="path136"
   inkscape:connector-curvature="0"
   style="fill:#16484e" />
		<path
   class="st3"
   d="m 42,130.2 c 0,0.9 -0.3,1.7 -1,2.3 -0.7,0.7 -1.5,1 -2.5,1.1 v 2.1 h -0.8 v -2.1 c -1,-0.1 -1.9,-0.5 -2.5,-1.1 -0.7,-0.7 -1,-1.4 -1,-2.4 v -3.7 h 2.7 v 5.2 c 0,0.9 0.4,1.4 1.2,1.4 0.8,0 1.2,-0.5 1.2,-1.4 v -4 c 0,-1.1 -0.3,-2.1 -0.8,-3 l -3.4,-5.3 c -0.6,-0.9 -0.9,-1.9 -0.9,-3.1 v -3.1 c 0,-0.9 0.3,-1.7 1,-2.3 0.7,-0.7 1.5,-1 2.5,-1.1 v -2.1 h 0.8 v 2.1 c 1,0.1 1.9,0.5 2.5,1.1 0.7,0.7 1,1.4 1,2.3 v 3.7 h -2.7 v -5.2 c 0,-0.9 -0.4,-1.4 -1.2,-1.4 -0.8,0 -1.2,0.5 -1.2,1.4 v 3.8 c 0,1.1 0.3,2.1 0.8,3 l 3.4,5.3 c 0.6,0.9 0.9,2 0.9,3.1 z"
   id="path138"
   inkscape:connector-curvature="0"
   style="fill:#16484e" />
	</g>
	<g
   id="g146">
		<path
   class="st3"
   d="m 14.9,103.1 c 0,0.5 0.2,1 0.6,1.3 0.4,0.4 0.8,0.6 1.3,0.6 0.5,0 1,-0.2 1.3,-0.6 0.4,-0.4 0.6,-0.8 0.6,-1.3 V 90.2 c 0,-1.2 -0.6,-1.8 -1.9,-1.8 -0.7,0 -1.3,0.3 -1.9,0.8 z"
   id="path142"
   inkscape:connector-curvature="0"
   style="fill:#16484e" />
		<path
   class="st3"
   d="m 5,71.1 v 36.5 H 41.5 V 71.1 Z m 17.4,11.4 h -3.8 v -7.4 c 0,-0.5 -0.2,-1 -0.6,-1.3 -0.4,-0.4 -0.8,-0.6 -1.3,-0.6 -0.5,0 -1,0.2 -1.3,0.6 -0.4,0.4 -0.6,0.8 -0.6,1.3 v 13.3 c 0.7,-0.6 1.7,-0.9 2.9,-0.9 3.1,0 4.7,1.4 4.7,4.3 v 9.2 c 0,1.3 -0.6,2.4 -1.7,3.4 -1.1,0.9 -2.4,1.4 -4,1.4 -1.5,0 -2.9,-0.5 -4,-1.4 C 11.6,103.5 11,102.3 11,101 V 77.2 c 0,-1.3 0.6,-2.4 1.7,-3.4 1.1,-0.9 2.4,-1.4 4,-1.4 1.6,0 2.9,0.5 4,1.4 1.1,0.9 1.7,2.1 1.7,3.4 z m 13.2,23.1 h -6.2 v -0.9 h 1.2 l -1.8,-8 -2.3,8 h 1.2 v 0.9 h -3.6 v -0.9 h 1.2 l 3.1,-10.1 -3,-12.7 H 24.2 V 81 h 6.2 v 0.9 h -1.2 l 1.7,7.6 2.2,-7.6 H 31.9 V 81 h 3.6 v 0.9 h -1.2 l -3,9.8 3.1,13 h 1.2 z"
   id="path144"
   inkscape:connector-curvature="0"
   style="fill:#16484e" />
	</g>
</g>
</svg>