<?xml version="1.0" encoding="UTF-8" standalone="no"?>
<!-- Generator: Adobe Illustrator 22.0.0, SVG Export Plug-In . SVG Version: 6.00 Build 0)  -->

<svg
   xmlns:dc="http://purl.org/dc/elements/1.1/"
   xmlns:cc="http://creativecommons.org/ns#"
   xmlns:rdf="http://www.w3.org/1999/02/22-rdf-syntax-ns#"
   xmlns:svg="http://www.w3.org/2000/svg"
   xmlns="http://www.w3.org/2000/svg"
   xmlns:sodipodi="http://sodipodi.sourceforge.net/DTD/sodipodi-0.dtd"
   xmlns:inkscape="http://www.inkscape.org/namespaces/inkscape"
   version="1.1"
   id="Layer_1"
   x="0px"
   y="0px"
   viewBox="0 0 120.55578 100"
   xml:space="preserve"
   sodipodi:docname="lead.svg"
   width="120.55578"
   height="100"
   inkscape:version="0.92.4 (5da689c313, 2019-01-14)"><metadata
   id="metadata239"><rdf:RDF><cc:Work
       rdf:about=""><dc:format>image/svg+xml</dc:format><dc:type
         rdf:resource="http://purl.org/dc/dcmitype/StillImage" /><dc:title></dc:title></cc:Work></rdf:RDF></metadata><defs
   id="defs237" /><sodipodi:namedview
   pagecolor="#ffffff"
   bordercolor="#666666"
   borderopacity="1"
   objecttolerance="10"
   gridtolerance="10"
   guidetolerance="10"
   inkscape:pageopacity="0"
   inkscape:pageshadow="2"
   inkscape:window-width="640"
   inkscape:window-height="480"
   id="namedview235"
   showgrid="false"
   fit-margin-top="0"
   fit-margin-left="0"
   fit-margin-right="0"
   fit-margin-bottom="0"
   inkscape:zoom="1.5904762"
   inkscape:cx="62.577057"
   inkscape:cy="23.497013"
   inkscape:current-layer="Layer_1" />
<style
   type="text/css"
   id="style2">
	.st0{display:none;}
	.st1{display:inline;}
	.st2{display:inline;fill:#EBEDED;}
	.st3{fill:#16484E;}
	.st4{display:inline;fill:#16484E;}
	.st5{fill:#FF0B0B;}
	.st6{fill:#FFFFFF;}
	.st7{display:inline;opacity:0.5;fill:#16484E;}
	.st8{opacity:0.5;fill:#16484E;}
</style>
<g
   id="_x30_14"
   class="st0"
   style="display:none"
   transform="translate(-3.9625002,-41.724146)">
	<g
   id="_x30_06_2_"
   class="st1"
   style="display:inline">
		<g
   class="st0"
   id="g8"
   style="display:none">
			<path
   class="st2"
   d="m 87.9,62.2 v -4.9 c -3.8,1.3 -7.5,2.6 -11.2,3.8 -6.8,2.3 -13.6,4.6 -20.4,7 -0.8,0.3 -1.5,0.5 -2.4,0.2 C 45,65.2 36,62.2 27.1,59.1 26.6,58.9 26,59.3 26,59.9 v 4.8 c 0,0.1 0,0.3 0,0.5 -0.1,5.8 0,11.7 -0.1,17.6 0,1.3 0.4,2.3 1.3,3.3 14.2,15.6 41,15.8 55.4,0.3 0.8,-0.9 1.1,-1.8 1.1,-3 0,-4.8 0,-9.5 0,-14.3 0,-0.7 -0.6,-1.1 -1.3,-0.9 l -3.3,1.2 c 0,4.4 0,8.7 0,13 0,0.7 -0.3,1.1 -0.8,1.6 -12.9,12.4 -34.1,12.3 -46.8,-0.2 -0.7,-0.7 -1.1,-1.3 -1.1,-2.3 0.1,-4.9 0.1,-9.9 0,-14.9 0,-1.3 0.3,-1.5 1.5,-1 6.8,2.4 13.6,4.6 20.4,7 1.7,0.6 3.3,0.6 5,0 7.1,-2.5 14.3,-4.9 21.8,-7.5 0,0 0,0 0,0 l 5.2,-1.8 c 0,0 0,0 0,0 0.3,-0.1 0.7,-0.2 1,-0.3 h 0.1 v 0 c 0.8,-0.3 1.7,-0.5 2.5,-0.8 z"
   id="path4"
   inkscape:connector-curvature="0"
   style="display:inline;fill:#ebeded" />
			<path
   class="st2"
   d="M 101.8,51.6 C 87.3,46.8 72.9,41.7 58.4,36.9 57,36.4 55.6,36 54.1,36.4 53.7,36.5 53.4,36.7 53,36.8 37.8,42 22.6,47.1 7.5,52.3 6.2,52.7 5,53.2 5,54.8 c 0,1.6 1.2,2.1 2.5,2.5 4.9,1.6 9.7,3.3 14.6,5 l 0.1,-4.8 c -2.1,-0.7 -4.1,-1.4 -6.2,-2.1 -0.4,-0.1 -0.8,-0.3 -1.5,-0.6 5.9,-2 11.6,-4 17.2,-5.9 7.1,-2.4 14.2,-4.8 21.3,-7.3 1.2,-0.4 2.3,-0.4 3.5,0 12.2,4.2 24.5,8.4 36.8,12.6 0.5,0.2 1,0.3 1.9,0.7 -0.5,0.2 -1,0.3 -1.5,0.5 -0.8,0.3 -1.4,1.1 -1.4,1.9 v 3.8 c 0.1,0.1 0.1,0.3 0.1,0.5 -0.5,3.9 1.2,8.1 -1.1,11.8 -0.3,0.4 -0.2,1 -0.3,1.6 0,2.8 0,5.7 0,8.5 0,2.4 1.4,3.8 3.6,3.9 2.3,0 3.8,-1.5 3.8,-3.9 0,-2.9 0,-5.8 0,-8.7 0,-0.6 0,-1.3 -0.4,-1.7 -1.3,-1.4 -1,-3.1 -1,-4.8 0,-2.3 0.1,-4.5 0,-6.7 -0.1,-1.8 0.4,-2.7 2.2,-3.2 1.9,-0.6 4.1,-0.7 5.5,-2.6 0.1,-0.3 0.1,-0.6 0.2,-0.9 -0.3,-2.1 -1.6,-2.8 -3.1,-3.3 z"
   id="path6"
   inkscape:connector-curvature="0"
   style="display:inline;fill:#ebeded" />
		</g>
		<g
   id="g14">
			<path
   class="st3"
   d="m 87.9,62.2 v -1 c 0,-1.9 -1.9,-3.2 -3.7,-2.6 -2.5,0.9 -5,1.7 -7.5,2.6 -6.8,2.3 -13.6,4.6 -20.4,7 -0.8,0.3 -1.5,0.5 -2.4,0.2 C 45,65.2 36,62.2 27.1,59.1 26.6,58.9 26,59.3 26,59.9 v 4.8 c 0,0.1 0,0.3 0,0.5 -0.1,5.8 0,11.7 -0.1,17.6 0,1.3 0.4,2.3 1.3,3.3 14.2,15.6 41,15.8 55.4,0.3 0.8,-0.9 1.1,-1.8 1.1,-3 0,-4.8 0,-9.5 0,-14.3 0,-0.7 -0.6,-1.1 -1.3,-0.9 l -3.3,1.2 c 0,4.4 0,8.7 0,13 0,0.7 -0.3,1.1 -0.8,1.6 -12.9,12.4 -34.1,12.3 -46.8,-0.2 -0.7,-0.7 -1.1,-1.3 -1.1,-2.3 0.1,-4.9 0.1,-9.9 0,-14.9 0,-1.3 0.3,-1.5 1.5,-1 6.8,2.4 13.6,4.6 20.4,7 1.7,0.6 3.3,0.6 5,0 7.1,-2.5 14.3,-4.9 21.8,-7.5 0,0 0,0 0,0 l 5.2,-1.8 c 0,0 0,0 0,0 0.3,-0.1 0.7,-0.2 1,-0.3 h 0.1 v 0 c 0.8,-0.3 1.7,-0.5 2.5,-0.8 z"
   id="path10"
   inkscape:connector-curvature="0"
   style="fill:#16484e" />
			<path
   class="st3"
   d="m 5,54.8 c 0,1.6 1.2,2.1 2.5,2.5 3.6,1.2 7.2,2.5 10.8,3.7 1.9,0.6 3.9,-0.7 3.9,-2.7 v -0.8 c -2.1,-0.7 -4.1,-1.4 -6.2,-2.1 -0.4,-0.1 -0.8,-0.3 -1.5,-0.6 5.9,-2 11.6,-4 17.2,-5.9 7.1,-2.4 14.2,-4.8 21.3,-7.3 1.2,-0.4 2.3,-0.4 3.5,0 12.2,4.2 24.5,8.4 36.8,12.6 0.5,0.2 1,0.3 1.9,0.7 -0.5,0.2 -1,0.3 -1.5,0.5 -0.8,0.3 -1.4,1.1 -1.4,1.9 v 3.8 c 0.1,0.1 0.1,0.3 0.1,0.5 -0.5,3.9 1.2,8.1 -1.1,11.8 -0.3,0.4 -0.2,1 -0.3,1.6 0,2.8 0,5.7 0,8.5 0,2.4 1.4,3.8 3.6,3.9 2.3,0 3.8,-1.5 3.8,-3.9 0,-2.9 0,-5.8 0,-8.7 0,-0.6 0,-1.3 -0.4,-1.7 -1.3,-1.4 -1,-3.1 -1,-4.8 0,-2.3 0.1,-4.5 0,-6.7 -0.1,-1.8 0.4,-2.7 2.2,-3.2 1.9,-0.6 4.1,-0.7 5.5,-2.6 0.1,-0.3 0.1,-0.6 0.2,-0.9 -0.3,-2 -1.6,-2.7 -3,-3.2 C 87.4,46.9 73,41.8 58.5,37 57.1,36.5 55.7,36.1 54.2,36.5 53.8,36.6 53.5,36.8 53.1,36.9 37.8,42 22.6,47.1 7.5,52.3 6.2,52.7 5,53.2 5,54.8"
   id="path12"
   inkscape:connector-curvature="0"
   style="fill:#16484e" />
		</g>
	</g>
	<path
   class="st4"
   d="m 77,127.9 c -2.5,3.1 -6,3.9 -6.9,4 10.9,4.8 24.2,17.1 27.9,32.6 0.4,1.6 -0.9,3.1 -2.5,3.1 H 11.2 c 2.2,-19.1 21,-36.7 40.4,-38.3 1.1,0.1 2.2,0.2 3.3,0.2 16.7,0 30.2,-13.5 30.2,-30.2 0,-3.1 -0.5,-6.1 -1.3,-8.9 -1.1,1.4 -2.6,3.1 -4.8,4.7 0.2,1.4 0.4,2.8 0.4,4.2 0,13.5 -10.9,24.4 -24.4,24.4 -13.5,0 -24.4,-10.9 -24.4,-24.4 0,-1.2 0.1,-2.5 0.3,-3.7 -2.2,-1.1 -3.9,-2.5 -5.2,-3.7 -0.6,2.3 -0.9,4.8 -0.9,7.3 0,11.1 6,20.8 15,26.1 -19.9,6.8 -35.1,25.8 -34.8,48 0,0.2 0,0.4 0,0.6 h 0.6 5.4 88 3.6 1.3 c 0.7,0 1.2,-0.5 1.2,-1.2 0,0 0,0 0,0 C 105,153.1 93.6,136 77,127.9 Z"
   id="path17"
   inkscape:connector-curvature="0"
   style="display:inline;fill:#16484e" />
</g>
<g
   id="_x30_15"
   class="st0"
   style="display:none"
   transform="translate(-3.9625002,-41.724146)">
	<path
   class="st4"
   d="M 105,83.5 V 75 c 0,-1.7 -1.4,-3.1 -3.1,-3.1 H 8.1 C 6.4,71.9 5,73.3 5,75 v 8.6 h 100 z"
   id="path20"
   inkscape:connector-curvature="0"
   style="display:inline;fill:#16484e" />
	<rect
   x="78.800003"
   y="121.7"
   class="st4"
   width="22.299999"
   height="11.7"
   id="rect22"
   style="display:inline;fill:#16484e" />
	<g
   class="st1"
   id="g32"
   style="display:inline">
		<path
   class="st3"
   d="m 13.4,132.2 c -1.7,-0.7 -3,-1.6 -3.9,-2.8 -0.9,-1.2 -1.4,-2.5 -1.4,-4 0,-1.1 0.3,-2.1 0.9,-2.9 0.6,-0.8 1.3,-1.2 2.2,-1.2 0.6,0 1,0.2 1.4,0.5 0.4,0.4 0.6,0.8 0.6,1.4 0,0.6 -0.3,1.3 -0.9,2.1 -0.3,0.5 -0.6,0.9 -0.7,1.2 -0.1,0.3 -0.2,0.6 -0.2,1 0,0.9 0.3,1.8 0.9,2.6 0.6,0.8 1.4,1.4 2.4,1.8 1,0.4 2.1,0.6 3.5,0.6 h 0.2 V 115.8 L 16.9,115 c -1.4,-0.8 -2.4,-1.5 -3.2,-2 -0.7,-0.5 -1.4,-1.1 -2,-1.7 -1.5,-1.7 -2.3,-3.6 -2.3,-5.8 0,-1.4 0.3,-2.6 1,-3.8 0.6,-1.2 1.5,-2.1 2.7,-2.9 1.5,-0.9 3.2,-1.4 5.2,-1.6 V 93.3 H 5 v 40.9 c 0,1.7 1.4,3.1 3.1,3.1 h 10.2 v -4.1 c -1.6,0 -3.2,-0.3 -4.9,-1 z"
   id="path24"
   inkscape:connector-curvature="0"
   style="fill:#16484e" />
		<path
   class="st3"
   d="m 22.8,131.4 c 0.7,-0.6 1.3,-1.4 1.8,-2.5 0.4,-1.1 0.7,-2.2 0.7,-3.4 0,-3.4 -1.9,-6.4 -5.8,-8.9 v 16 c 0.8,-0.1 1.4,-0.2 1.9,-0.4 0.5,-0.2 1,-0.5 1.4,-0.8 z"
   id="path26"
   inkscape:connector-curvature="0"
   style="fill:#16484e" />
		<path
   class="st3"
   d="m 13.3,100.5 c -0.5,1 -0.8,2 -0.8,3.2 0,1.4 0.4,2.7 1.2,3.8 0.4,0.6 0.9,1.2 1.5,1.6 0.6,0.4 1.5,1.1 2.9,1.9 l 0.3,0.2 V 97.8 c -1.2,0.1 -2.1,0.3 -2.9,0.6 -1,0.5 -1.7,1.2 -2.2,2.1 z"
   id="path28"
   inkscape:connector-curvature="0"
   style="fill:#16484e" />
		<path
   class="st3"
   d="m 19.5,93.4 v 3.9 c 1.8,0.1 3.3,0.5 4.7,1.2 1.1,0.6 2,1.3 2.7,2.2 0.6,0.9 1,2 1,3.1 0,0.9 -0.3,1.6 -0.8,2.2 -0.5,0.6 -1.1,0.9 -1.9,0.9 -0.6,0 -1,-0.2 -1.4,-0.6 -0.4,-0.4 -0.6,-0.9 -0.6,-1.5 0,-0.4 0.1,-0.7 0.2,-1.1 l 0.5,-1 c 0.2,-0.4 0.2,-0.8 0.2,-1.3 0,-0.7 -0.2,-1.3 -0.6,-1.9 -0.4,-0.5 -1,-0.9 -1.7,-1.2 -0.6,-0.2 -1.4,-0.4 -2.3,-0.5 v 14 l 0.3,0.2 c 3.1,1.8 5.2,3.4 6.5,4.9 0.8,1 1.5,2.1 2,3.3 0.5,1.2 0.7,2.4 0.7,3.7 0,1.7 -0.4,3.3 -1.2,4.6 -0.8,1.4 -2,2.5 -3.4,3.2 -1.4,0.7 -3,1.2 -4.8,1.4 v 4.2 h 82.5 c 1.7,0 3.1,-1.4 3.1,-3.1 V 93.4 Z M 101.8,134 H 78.3 v -12.9 h 23.5 z"
   id="path30"
   inkscape:connector-curvature="0"
   style="fill:#16484e" />
	</g>
</g>
<g
   id="_x30_16"
   class="st0"
   style="display:none"
   transform="translate(-3.9625002,-41.724146)">
	<g
   class="st1"
   id="g85"
   style="display:inline">
		<g
   id="g73">
			<g
   id="g59">
				<path
   class="st5"
   d="m 17.1,69.8 c 0,2.9 -0.5,4.7 -3.1,4.7 h -0.6 c -0.3,0 -0.6,0.3 -0.6,0.7 v 1.6 c 0,0.4 -0.3,0.7 -0.7,0.7 h -0.2 c -0.4,0 -0.7,-0.3 -0.7,-0.7 V 66 c 0,-0.4 0.3,-0.7 0.7,-0.7 h 2 c 2.2,0 3.2,1.3 3.2,4.5 z m -1.6,0 c 0,-2.9 -0.7,-2.9 -1.6,-2.9 h -0.5 c -0.3,0 -0.5,0.3 -0.5,0.7 v 4.6 c 0,0.4 0.3,0.7 0.6,0.7 H 14 c 0.9,0.1 1.5,0.1 1.5,-3.1 z"
   id="path35"
   inkscape:connector-curvature="0"
   style="fill:#ff0b0b" />
				<path
   class="st5"
   d="M 22.5,77.6 H 22 c -0.4,0 -0.9,-0.3 -1.1,-0.6 l -1.2,-1.8 c -0.2,-0.3 -0.5,-0.6 -0.7,-0.6 -0.1,0 -0.3,0.3 -0.3,0.7 v 1.6 c 0,0.4 -0.3,0.7 -0.7,0.7 v 0 c -0.4,0 -0.7,-0.3 -0.7,-0.7 V 66 c 0,-0.4 0.3,-0.7 0.7,-0.7 h 2 c 2.1,0 3.3,2.4 3.3,4.8 0,1.1 -0.2,2.1 -0.7,2.9 -0.2,0.4 -0.5,0.7 -0.8,0.9 -0.3,0.3 -0.4,0.6 -0.2,1 l 1.3,2.1 c 0.2,0.3 0,0.6 -0.4,0.6 z m -1.4,-5.4 c 0.3,-0.5 0.5,-1.3 0.5,-2.1 0,-1.6 -0.6,-3.2 -1.6,-3.2 h -0.5 c -0.3,0 -0.5,0.3 -0.5,0.7 v 4.6 c 0,0.4 0.3,0.7 0.6,0.7 h 0.6 c 0.1,0.1 0.5,0.1 0.9,-0.7 z"
   id="path37"
   inkscape:connector-curvature="0"
   style="fill:#ff0b0b" />
				<path
   class="st5"
   d="m 31.3,71.4 c 0,4.2 -1.2,6.3 -3.7,6.3 -2.5,0 -3.6,-2.1 -3.6,-6.3 0,-4.2 1.2,-6.3 3.7,-6.3 2.5,0 3.6,2.1 3.6,6.3 z m -1.6,0 c 0,-4.7 -1.5,-4.7 -2.1,-4.7 -0.6,0 -2.1,0 -2.1,4.7 0,4.7 1.6,4.7 2.1,4.7 0.5,0 2.1,0 2.1,-4.7 z"
   id="path39"
   inkscape:connector-curvature="0"
   style="fill:#ff0b0b" />
				<path
   class="st5"
   d="m 38.9,77.6 h -0.4 c -0.4,0 -0.8,-0.3 -1,-0.6 L 36,73.6 c -0.2,-0.4 -0.4,-0.4 -0.6,0 L 33.9,77 c -0.2,0.4 -0.6,0.6 -1,0.6 h -0.4 c -0.4,0 -0.6,-0.3 -0.4,-0.6 l 2.4,-5.3 c 0.2,-0.4 0.2,-0.9 0,-1.3 l -2,-4.4 c -0.2,-0.4 0,-0.6 0.4,-0.6 h 0.4 c 0.4,0 0.8,0.3 1,0.6 l 1.1,2.5 c 0.2,0.4 0.4,0.4 0.6,0 L 37.1,66 c 0.2,-0.4 0.6,-0.6 1,-0.6 h 0.4 c 0.4,0 0.6,0.3 0.4,0.6 l -2,4.4 c -0.2,0.4 -0.2,0.9 0,1.3 l 2.4,5.3 c 0.2,0.3 0,0.6 -0.4,0.6 z"
   id="path41"
   inkscape:connector-curvature="0"
   style="fill:#ff0b0b" />
				<path
   class="st5"
   d="m 41.8,66 v 10.9 c 0,0.4 -0.3,0.7 -0.7,0.7 h -0.2 c -0.4,0 -0.7,-0.3 -0.7,-0.7 V 66 c 0,-0.4 0.3,-0.7 0.7,-0.7 h 0.2 c 0.4,0 0.7,0.3 0.7,0.7 z"
   id="path43"
   inkscape:connector-curvature="0"
   style="fill:#ff0b0b" />
				<path
   class="st5"
   d="m 49.7,66 v 10.9 c 0,0.4 -0.3,0.7 -0.7,0.7 h -0.2 c -0.4,0 -0.7,-0.3 -0.7,-0.7 v -5.5 c 0,-0.4 -0.1,-0.4 -0.3,0 l -1.5,4.2 C 46.2,76 46,76 45.8,75.6 l -1.5,-4.1 c -0.1,-0.4 -0.2,-0.4 -0.2,0 v 5.4 c 0,0.4 -0.3,0.7 -0.7,0.7 h -0.2 c -0.4,0 -0.7,-0.3 -0.7,-0.7 V 66 c 0,-0.4 0.3,-0.7 0.7,-0.7 0.4,0 0.8,0.3 0.9,0.6 l 1.7,4.8 c 0.1,0.4 0.3,0.4 0.5,0 l 1.8,-4.8 c 0.1,-0.4 0.5,-0.6 0.9,-0.6 0.4,0 0.7,0.3 0.7,0.7 z"
   id="path45"
   inkscape:connector-curvature="0"
   style="fill:#ff0b0b" />
				<path
   class="st5"
   d="m 57.7,77.6 h -0.3 c -0.4,0 -0.8,-0.3 -0.9,-0.7 l -0.3,-1.3 c -0.1,-0.4 -0.5,-0.7 -0.9,-0.7 h -1.9 c -0.4,0 -0.8,0.3 -0.9,0.7 l -0.4,1.3 c -0.1,0.4 -0.5,0.7 -0.9,0.7 H 51 c -0.4,0 -0.6,-0.3 -0.5,-0.7 l 3.1,-11.1 c 0.1,-0.4 0.5,-0.7 0.8,-0.7 0.3,0 0.7,0.3 0.8,0.7 l 3,11.1 c 0.1,0.4 -0.1,0.7 -0.5,0.7 z m -2.3,-5 -0.8,-3 c -0.1,-0.4 -0.3,-0.4 -0.4,0 l -0.8,3 c -0.1,0.4 0.1,0.7 0.5,0.7 h 1 c 0.4,0 0.6,-0.3 0.5,-0.7 z"
   id="path47"
   inkscape:connector-curvature="0"
   style="fill:#ff0b0b" />
				<path
   class="st5"
   d="m 68.1,66 v 0.2 c 0,0.4 -0.3,0.7 -0.7,0.7 h -0.7 c -0.4,0 -0.7,0.3 -0.7,0.7 v 9.3 c 0,0.4 -0.3,0.7 -0.7,0.7 h -0.2 c -0.4,0 -0.7,-0.3 -0.7,-0.7 v -9.3 c 0,-0.4 -0.3,-0.7 -0.7,-0.7 H 63 c -0.4,0 -0.7,-0.3 -0.7,-0.7 V 66 c 0,-0.4 0.3,-0.7 0.7,-0.7 h 4.4 c 0.4,0 0.7,0.3 0.7,0.7 z"
   id="path49"
   inkscape:connector-curvature="0"
   style="fill:#ff0b0b" />
				<path
   class="st5"
   d="m 75,66 v 5.6 c 0,4.2 -0.3,6.1 -3,6.1 -2.6,0 -3,-2.1 -3,-6.1 V 66 c 0,-0.4 0.3,-0.7 0.7,-0.7 h 0.2 c 0.4,0 0.7,0.3 0.7,0.7 v 5.6 c 0,4.5 0.6,4.5 1.4,4.5 1,0 1.4,0 1.4,-4.5 V 66 c 0,-0.4 0.3,-0.7 0.7,-0.7 h 0.2 c 0.4,0 0.7,0.3 0.7,0.7 z"
   id="path51"
   inkscape:connector-curvature="0"
   style="fill:#ff0b0b" />
				<path
   class="st5"
   d="m 81,77.6 h -0.5 c -0.4,0 -0.9,-0.3 -1.1,-0.6 l -1.2,-1.8 c -0.2,-0.3 -0.5,-0.6 -0.7,-0.6 -0.1,0 -0.3,0.3 -0.3,0.7 v 1.6 c 0,0.4 -0.3,0.7 -0.7,0.7 h -0.2 c -0.4,0 -0.7,-0.3 -0.7,-0.7 V 66 c 0,-0.4 0.3,-0.7 0.7,-0.7 h 2 c 2.1,0 3.3,2.4 3.3,4.8 0,1.1 -0.2,2.1 -0.7,2.9 -0.2,0.4 -0.5,0.7 -0.8,0.9 -0.3,0.3 -0.4,0.6 -0.2,1 l 1.3,2.1 c 0.4,0.3 0.2,0.6 -0.2,0.6 z m -1.4,-5.4 c 0.3,-0.5 0.5,-1.3 0.5,-2.1 0,-1.6 -0.6,-3.2 -1.6,-3.2 H 78 c -0.3,0 -0.5,0.3 -0.5,0.7 v 4.6 c 0,0.4 0.3,0.7 0.6,0.7 h 0.6 c 0.1,0.1 0.5,0.1 0.9,-0.7 z"
   id="path53"
   inkscape:connector-curvature="0"
   style="fill:#ff0b0b" />
				<path
   class="st5"
   d="m 89.6,66 v 10.9 c 0,0.4 -0.3,0.7 -0.7,0.7 H 88.7 C 88.3,77.6 88,77.3 88,76.9 v -5.5 c 0,-0.4 -0.1,-0.4 -0.3,0 l -1.5,4.2 c -0.1,0.4 -0.3,0.4 -0.5,0 L 84.2,71.5 C 84.1,71.1 84,71.1 84,71.5 v 5.4 c 0,0.4 -0.3,0.7 -0.7,0.7 h -0.2 c -0.4,0 -0.7,-0.3 -0.7,-0.7 V 66 c 0,-0.4 0.3,-0.7 0.7,-0.7 0.4,0 0.8,0.3 0.9,0.6 l 1.7,4.8 c 0.1,0.4 0.3,0.4 0.5,0 L 88,65.9 c 0.1,-0.4 0.5,-0.6 0.9,-0.6 0.4,0 0.7,0.3 0.7,0.7 z"
   id="path55"
   inkscape:connector-curvature="0"
   style="fill:#ff0b0b" />
				<path
   class="st5"
   d="m 97.6,77.6 h -0.3 c -0.4,0 -0.8,-0.3 -0.9,-0.7 L 96.1,75.6 C 96,75.2 95.6,74.9 95.2,74.9 h -1.9 c -0.4,0 -0.8,0.3 -0.9,0.7 L 92,76.9 c -0.1,0.4 -0.5,0.7 -0.9,0.7 H 91 c -0.4,0 -0.6,-0.3 -0.5,-0.7 l 3.1,-11.1 c 0.1,-0.4 0.5,-0.7 0.8,-0.7 0.3,0 0.7,0.3 0.8,0.7 l 3,11.1 c 0,0.4 -0.2,0.7 -0.6,0.7 z m -2.3,-5 -0.8,-3 c -0.1,-0.4 -0.3,-0.4 -0.4,0 l -0.8,3 c -0.1,0.4 0.1,0.7 0.5,0.7 h 1 c 0.4,0 0.6,-0.3 0.5,-0.7 z"
   id="path57"
   inkscape:connector-curvature="0"
   style="fill:#ff0b0b" />
			</g>
			<g
   id="g71">
				<path
   class="st5"
   d="m 27,110.3 v 0.6 c 0,0.9 -0.7,1.7 -1.6,1.7 H 12 c -0.9,0 -1.1,-0.5 -0.5,-1.2 l 2,-2.1 c 2.7,-2.8 9.9,-11.4 9.9,-16.8 0,-3.4 -1.7,-5.2 -3.3,-5.2 -0.7,0 -1.3,0.3 -1.8,0.9 -0.3,0.4 -0.7,1.1 -0.9,2.2 -0.2,0.9 -0.9,1.6 -1.8,1.6 H 15 c -0.9,0 -1.6,-0.7 -1.5,-1.6 0.2,-1.9 0.8,-3.4 1.8,-4.6 1.2,-1.5 2.9,-2.4 4.8,-2.4 1.9,0 3.7,0.9 5,2.5 1.4,1.7 2.1,3.9 2.1,6.6 0,4.9 -3.8,10.9 -7,14.9 -0.5,0.7 -0.3,1.3 0.6,1.3 h 4.5 c 0.9,0 1.7,0.7 1.7,1.6 z"
   id="path61"
   inkscape:connector-curvature="0"
   style="fill:#ff0b0b" />
				<path
   class="st5"
   d="m 44,92.5 c 0,0.3 0,0.6 0,0.8 0,3.1 -1.8,7.7 -5.4,13.7 -0.8,1.5 -1.7,2.9 -2.5,4.1 -0.5,0.7 -1.6,1.4 -2.6,1.4 h -1.4 c -0.9,0 -1.2,-0.6 -0.7,-1.4 1.4,-2 3.1,-4.7 4.7,-7.5 0.4,-0.8 0.7,-1.4 0.5,-1.4 h -0.2 c -4.2,0 -7.5,-4.3 -7.5,-9.7 0,-5.4 3.2,-9.7 7.5,-9.7 4.3,0.1 7.6,4.3 7.6,9.7 z m -3.9,0 c 0,-3.1 -1.6,-5.8 -3.6,-5.8 -2,0 -3.7,2.6 -3.7,5.8 0,3.1 1.7,5.8 3.7,5.8 2,0 3.6,-2.6 3.6,-5.8 z"
   id="path63"
   inkscape:connector-curvature="0"
   style="fill:#ff0b0b" />
				<path
   class="st5"
   d="m 62.5,81.7 -12.4,31.8 c -0.3,0.9 -1.3,1.6 -2.2,1.6 H 47 c -0.9,0 -1.4,-0.7 -1.1,-1.6 L 58.3,81.7 c 0.3,-0.9 1.3,-1.5 2.2,-1.5 h 0.8 c 1.1,0 1.5,0.7 1.2,1.5 z"
   id="path65"
   inkscape:connector-curvature="0"
   style="fill:#ff0b0b" />
				<path
   class="st5"
   d="m 81.4,97.9 c 0,3.7 0,14.8 -8.5,14.8 -8.5,0 -8.5,-11.2 -8.5,-14.8 0,-3.7 0,-14.8 8.5,-14.8 8.5,-0.1 8.5,11.1 8.5,14.8 z m -3.9,0 c 0,-11 -3.4,-11 -4.7,-11 -1.2,0 -4.6,0 -4.6,11 0,11 3.4,11 4.6,11 1.3,-0.1 4.7,-0.1 4.7,-11 z"
   id="path67"
   inkscape:connector-curvature="0"
   style="fill:#ff0b0b" />
				<path
   class="st5"
   d="m 98.2,103.2 c 0,5.4 -3.3,9.7 -7.5,9.7 -4.2,0 -7.5,-4.3 -7.5,-9.7 v -0.7 c 0,-4.6 3.9,-12.5 6.8,-17.9 0.5,-0.8 1.6,-1.4 2.5,-1.4 h 1.1 c 0.9,0 1.2,0.6 0.8,1.4 -1.2,2.2 -2.7,4.9 -3.9,7.5 -0.4,0.8 -0.5,1.4 -0.3,1.4 h 0.5 c 4.2,0.1 7.5,4.3 7.5,9.7 z m -3.9,0 c 0,-3.1 -1.6,-5.8 -3.6,-5.8 -2,0 -3.7,2.7 -3.7,5.8 0,3.1 1.7,5.8 3.7,5.8 2,0 3.6,-2.7 3.6,-5.8 z"
   id="path69"
   inkscape:connector-curvature="0"
   style="fill:#ff0b0b" />
			</g>
		</g>
		<g
   id="g83">
			<polygon
   class="st5"
   points="27.4,61.3 27.4,58.5 5,58.5 5,80.6 7.8,80.6 7.8,61.3 "
   id="polygon75"
   style="fill:#ff0b0b" />
			<polygon
   class="st5"
   points="5,118.8 27.4,118.8 27.4,116 7.8,116 7.8,96.7 5,96.7 "
   id="polygon77"
   style="fill:#ff0b0b" />
			<polygon
   class="st5"
   points="104.6,58.5 82.2,58.5 82.2,61.3 101.8,61.3 101.8,80.6 104.6,80.6 "
   id="polygon79"
   style="fill:#ff0b0b" />
			<polygon
   class="st5"
   points="82.2,116 82.2,118.8 104.6,118.8 104.6,96.7 101.8,96.7 101.8,116 "
   id="polygon81"
   style="fill:#ff0b0b" />
		</g>
	</g>
	<g
   class="st1"
   id="g89"
   style="display:inline">
		<path
   class="st5"
   d="m 30,63.1 -2.3,1.6 c -0.1,0 -0.2,0.1 -0.4,0.1 h -0.2 c -0.2,0 -0.3,0 -0.2,-0.1 l 1.3,-1.6 c 0.1,0 0.2,-0.1 0.4,-0.1 h 1.1 c 0.3,0.1 0.3,0.1 0.3,0.1 z"
   id="path87"
   inkscape:connector-curvature="0"
   style="fill:#ff0b0b" />
	</g>
	<g
   class="st1"
   id="g123"
   style="display:inline">
		<rect
   x="9.6999998"
   y="118.3"
   transform="matrix(0.979,-0.2037,0.2037,0.979,-25.2478,14.2718)"
   width="93.900002"
   height="22.9"
   id="rect91" />
		<g
   id="g117">
			<path
   class="st6"
   d="m 21.6,131.6 1.2,5.4 c 0.9,4 1,5.9 -1.6,6.5 -2.5,0.5 -3.4,-1.3 -4.2,-5.2 l -1.2,-5.4 c -0.1,-0.4 0.2,-0.7 0.5,-0.8 h 0.2 c 0.4,-0.1 0.7,0.2 0.8,0.5 l 1.2,5.4 c 0.9,4.3 1.6,4.2 2.3,4 0.9,-0.2 1.4,-0.3 0.4,-4.6 L 20,132 c -0.1,-0.4 0.2,-0.7 0.5,-0.8 h 0.2 c 0.4,-0.2 0.8,0.1 0.9,0.4 z"
   id="path93"
   inkscape:connector-curvature="0"
   style="fill:#ffffff" />
			<path
   class="st6"
   d="m 28.8,140.8 v 0.2 c 0.1,0.4 -0.2,0.7 -0.5,0.8 l -2.9,0.6 c -0.4,0.1 -0.7,-0.2 -0.8,-0.5 l -2.3,-10.4 c -0.1,-0.4 0.2,-0.7 0.5,-0.8 H 23 c 0.4,-0.1 0.7,0.2 0.8,0.5 l 1.9,8.9 c 0.1,0.4 0.4,0.6 0.8,0.5 l 1.4,-0.3 c 0.5,-0.2 0.9,0.1 0.9,0.5 z"
   id="path95"
   inkscape:connector-curvature="0"
   style="fill:#ffffff" />
			<path
   class="st6"
   d="m 32.9,129.2 v 0.2 c 0.1,0.4 -0.2,0.7 -0.5,0.8 l -0.7,0.1 c -0.4,0.1 -0.6,0.4 -0.5,0.8 l 1.9,8.9 c 0.1,0.4 -0.2,0.7 -0.5,0.8 h -0.2 c -0.4,0.1 -0.7,-0.2 -0.8,-0.5 l -1.9,-8.9 c -0.1,-0.4 -0.4,-0.6 -0.8,-0.5 l -0.7,0.1 c -0.4,0.1 -0.7,-0.2 -0.8,-0.5 v -0.2 c -0.1,-0.4 0.2,-0.7 0.5,-0.8 l 4.2,-0.9 c 0.4,0 0.7,0.2 0.8,0.6 z"
   id="path97"
   inkscape:connector-curvature="0"
   style="fill:#ffffff" />
			<path
   class="st6"
   d="m 35.4,128.6 2.3,10.4 c 0.1,0.4 -0.2,0.7 -0.5,0.8 H 37 c -0.4,0.1 -0.7,-0.2 -0.8,-0.5 L 33.9,129 c -0.1,-0.4 0.2,-0.7 0.5,-0.8 h 0.2 c 0.4,-0.2 0.7,0.1 0.8,0.4 z"
   id="path99"
   inkscape:connector-curvature="0"
   style="fill:#ffffff" />
			<path
   class="st6"
   d="m 43.2,126.9 2.3,10.4 c 0.1,0.4 -0.2,0.7 -0.5,0.8 h -0.2 c -0.4,0.1 -0.7,-0.2 -0.8,-0.5 l -1.2,-5.3 c -0.1,-0.4 -0.2,-0.4 -0.2,0 l -0.6,4.3 c -0.1,0.4 -0.3,0.4 -0.5,0.1 l -2.3,-3.6 c -0.2,-0.3 -0.3,-0.3 -0.2,0.1 l 1.1,5.2 c 0.1,0.4 -0.2,0.7 -0.5,0.8 h -0.2 c -0.4,0.1 -0.7,-0.2 -0.8,-0.5 l -2.3,-10.4 c -0.1,-0.4 0.2,-0.7 0.5,-0.8 0.4,-0.1 0.8,0.1 1,0.4 l 2.7,4.2 c 0.2,0.3 0.4,0.3 0.4,-0.1 l 0.7,-5 c 0.1,-0.4 0.4,-0.7 0.8,-0.8 0.4,0.1 0.8,0.3 0.8,0.7 z"
   id="path101"
   inkscape:connector-curvature="0"
   style="fill:#ffffff" />
			<path
   class="st6"
   d="m 53.4,136.4 -0.3,0.1 c -0.4,0.1 -0.8,-0.1 -1,-0.4 l -0.6,-1.2 c -0.2,-0.3 -0.6,-0.5 -1,-0.5 l -1.8,0.4 c -0.4,0.1 -0.7,0.5 -0.7,0.8 l -0.1,1.3 c 0,0.4 -0.3,0.7 -0.7,0.8 l -0.3,0.1 c -0.4,0.1 -0.7,-0.1 -0.6,-0.5 L 47,126 c 0,-0.4 0.3,-0.7 0.6,-0.8 0.3,-0.1 0.7,0.1 0.9,0.5 l 5.3,9.9 c 0.2,0.4 0,0.7 -0.4,0.8 z m -3.3,-4.2 -1.4,-2.7 c -0.2,-0.3 -0.3,-0.3 -0.4,0.1 l -0.2,3 c 0,0.4 0.3,0.6 0.6,0.5 l 1,-0.2 c 0.5,-0.1 0.6,-0.4 0.4,-0.7 z"
   id="path103"
   inkscape:connector-curvature="0"
   style="fill:#ffffff" />
			<path
   class="st6"
   d="m 59.6,132 c 0.4,1.8 -0.5,3.2 -2.3,3.6 -1.7,0.4 -3.1,-1 -3.7,-1.8 -0.2,-0.3 -0.1,-0.7 0.2,-0.9 l 0.2,-0.1 c 0.3,-0.2 0.7,-0.1 1,0.2 0.4,0.5 1.2,1.2 2,1 0.9,-0.2 1.3,-0.8 1.1,-1.8 -0.2,-1.1 -1.3,-1.8 -2.5,-2.4 -1.2,-0.7 -2.6,-1.5 -3,-3 -0.3,-1.6 0.5,-3 2,-3.4 1.1,-0.2 2.3,0.2 3,1.3 0.2,0.3 0.1,0.7 -0.3,0.9 l -0.2,0.1 c -0.3,0.2 -0.7,0 -1,-0.2 -0.3,-0.3 -0.7,-0.6 -1.3,-0.5 -0.8,0.2 -1,0.9 -0.8,1.5 0.2,0.9 1.1,1.4 2.2,2 1.5,0.8 3,1.7 3.4,3.5 z"
   id="path105"
   inkscape:connector-curvature="0"
   style="fill:#ffffff" />
			<path
   class="st6"
   d="m 67.6,121.6 0.5,10.8 c 0,0.4 -0.3,0.8 -0.6,0.8 l -0.7,0.1 c -0.4,0.1 -0.8,-0.1 -0.9,-0.5 l -4,-10 c -0.2,-0.4 0,-0.7 0.4,-0.8 l 0.2,-0.1 c 0.4,-0.1 0.8,0.1 0.9,0.5 l 2.7,6.7 c 0.1,0.4 0.2,0.3 0.2,0 L 66,121.8 c 0,-0.4 0.3,-0.7 0.6,-0.8 l 0.3,-0.1 c 0.4,0.1 0.7,0.3 0.7,0.7 z"
   id="path107"
   inkscape:connector-curvature="0"
   style="fill:#ffffff" />
			<path
   class="st6"
   d="m 76.7,131.3 -0.3,0.1 c -0.4,0.1 -0.8,-0.1 -1,-0.4 l -0.6,-1.2 c -0.2,-0.3 -0.6,-0.5 -1,-0.5 l -1.8,0.4 c -0.4,0.1 -0.7,0.5 -0.7,0.8 l -0.1,1.3 c 0,0.4 -0.3,0.7 -0.7,0.8 l -0.3,0.1 c -0.4,0.1 -0.7,-0.1 -0.6,-0.5 L 70.3,121 c 0,-0.4 0.3,-0.7 0.6,-0.8 0.3,-0.1 0.7,0.1 0.9,0.5 l 5.3,9.9 c 0.1,0.3 -0.1,0.6 -0.4,0.7 z m -3.3,-4.2 -1.4,-2.7 c -0.2,-0.3 -0.3,-0.3 -0.4,0.1 l -0.2,3 c 0,0.4 0.3,0.6 0.6,0.5 l 1,-0.2 c 0.4,-0.1 0.6,-0.4 0.4,-0.7 z"
   id="path109"
   inkscape:connector-curvature="0"
   style="fill:#ffffff" />
			<path
   class="st6"
   d="m 82.8,123.8 0.8,3.5 c 0.1,0.4 0.2,0.7 0.1,0.7 v 0.1 c -0.2,0.9 -1.1,2 -2.4,2.3 -3.4,0.7 -4.8,-2.4 -5.4,-5.2 -0.5,-2.1 -0.4,-3.7 0.1,-4.9 0.5,-1.1 1.4,-1.8 2.6,-2 0.9,-0.2 1.7,0 2.5,0.5 0.3,0.2 0.3,0.7 0,0.9 l -0.1,0.2 c -0.3,0.3 -0.7,0.3 -1,0.1 -0.3,-0.2 -0.7,-0.2 -1,-0.1 -0.7,0.2 -2.5,0.6 -1.5,5 1,4.5 2.8,4.1 3.5,4 0.3,-0.1 0.5,-0.2 0.7,-0.4 0.3,-0.3 0.3,-0.9 0.3,-1.2 l -0.3,-1.6 c -0.1,-0.4 -0.4,-0.6 -0.8,-0.5 l -0.3,0.1 c -0.4,0.1 -0.7,-0.2 -0.8,-0.5 v -0.2 c -0.1,-0.4 0.2,-0.7 0.5,-0.8 l 1.8,-0.4 c 0.2,-0.2 0.6,0 0.7,0.4 z"
   id="path111"
   inkscape:connector-curvature="0"
   style="fill:#ffffff" />
			<path
   class="st6"
   d="m 91.8,128 -0.3,0.1 c -0.4,0.1 -0.8,-0.1 -1,-0.4 l -0.6,-1.2 c -0.2,-0.3 -0.6,-0.5 -1,-0.5 l -1.8,0.4 c -0.4,0.1 -0.7,0.5 -0.7,0.8 l -0.1,1.3 c 0,0.4 -0.3,0.7 -0.7,0.8 l -0.3,0.1 c -0.4,0.1 -0.7,-0.1 -0.6,-0.5 l 0.7,-11.2 c 0,-0.4 0.3,-0.7 0.6,-0.8 0.3,-0.1 0.7,0.1 0.9,0.5 l 5.3,9.9 c 0.1,0.3 0,0.6 -0.4,0.7 z m -3.3,-4.2 -1.4,-2.7 c -0.2,-0.3 -0.3,-0.3 -0.4,0.1 l -0.2,3 c 0,0.4 0.3,0.6 0.6,0.5 l 1,-0.2 c 0.4,-0.1 0.6,-0.4 0.4,-0.7 z"
   id="path113"
   inkscape:connector-curvature="0"
   style="fill:#ffffff" />
			<path
   class="st6"
   d="m 98,123.6 c 0.4,1.8 -0.5,3.2 -2.3,3.6 -1.7,0.4 -3.1,-1 -3.7,-1.8 -0.2,-0.3 -0.1,-0.7 0.2,-0.9 l 0.2,-0.1 c 0.3,-0.2 0.7,-0.1 1,0.2 0.4,0.5 1.2,1.2 2,1 0.9,-0.2 1.3,-0.8 1.1,-1.8 -0.2,-1.1 -1.3,-1.8 -2.5,-2.4 -1.2,-0.7 -2.6,-1.5 -3,-3 -0.3,-1.6 0.5,-3 2,-3.4 1.1,-0.2 2.3,0.2 3,1.3 0.2,0.3 0.1,0.7 -0.3,0.9 l -0.2,0.1 c -0.3,0.2 -0.7,0 -1,-0.2 -0.3,-0.3 -0.7,-0.6 -1.3,-0.5 -0.8,0.2 -1,0.9 -0.8,1.5 0.2,0.9 1.1,1.4 2.2,2 1.5,0.8 3,1.6 3.4,3.5 z"
   id="path115"
   inkscape:connector-curvature="0"
   style="fill:#ffffff" />
		</g>
		<g
   id="g121">
			<path
   class="st6"
   d="m 20.9,129 -2.3,1.6 c -0.1,0 -0.2,0.1 -0.4,0.1 H 18 c -0.2,0 -0.3,0 -0.2,-0.1 l 1.3,-1.6 c 0.1,0 0.2,-0.1 0.4,-0.1 h 1.1 c 0.2,0 0.3,0.1 0.3,0.1 z"
   id="path119"
   inkscape:connector-curvature="0"
   style="fill:#ffffff" />
		</g>
	</g>
</g>
<g
   class="st0"
   id="g148"
   style="display:none"
   transform="translate(-3.9625002,-41.724146)">
	<path
   class="st7"
   d="m 22.4,77.5 v 2 h 80.4 v 56.1 H 20.1 v -30.7 c -0.5,0.3 -1.1,0.6 -1.8,0.8 V 138 H 105 V 77.5 Z"
   id="path126"
   inkscape:connector-curvature="0"
   style="display:inline;opacity:0.5;fill:#16484e" />
	<g
   class="st1"
   id="g134"
   style="display:inline">
		<path
   class="st3"
   d="m 55.5,134.7 h -10 v -1.4 h 1.9 V 82 h -1.9 v -1.4 h 8.1 v 52.7 h 1.9 z"
   id="path128"
   inkscape:connector-curvature="0"
   style="fill:#16484e" />
		<path
   class="st3"
   d="m 77.4,127.1 c 0,2.2 -0.9,4 -2.7,5.6 -1.8,1.5 -4,2.3 -6.6,2.3 -2.5,0 -4.7,-0.8 -6.5,-2.3 -1.8,-1.5 -2.7,-3.4 -2.7,-5.6 v -13.9 c 0,-3.3 1.8,-5.7 5.4,-7.2 -3.6,-1.4 -5.4,-3.8 -5.4,-7.2 V 88.1 c 0,-2.2 0.9,-4 2.7,-5.6 1.8,-1.5 4,-2.3 6.5,-2.3 2.6,0 4.8,0.8 6.6,2.3 1.8,1.5 2.7,3.4 2.7,5.6 v 10.8 c 0,3.4 -1.8,5.8 -5.4,7.2 3.6,1.5 5.4,3.9 5.4,7.2 z M 71.2,102.3 V 84.7 c 0,-0.9 -0.3,-1.6 -0.9,-2.2 -0.6,-0.6 -1.3,-0.9 -2.2,-0.9 -0.9,0 -1.6,0.3 -2.2,0.9 -0.6,0.6 -0.9,1.3 -0.9,2.2 v 17.6 c 0,0.9 0.3,1.6 0.9,2.2 0.6,0.6 1.3,0.9 2.2,0.9 0.9,0 1.6,-0.3 2.2,-0.9 0.6,-0.6 0.9,-1.4 0.9,-2.2 z m 0,28.2 v -20.7 c 0,-0.9 -0.3,-1.6 -0.9,-2.2 -0.6,-0.6 -1.3,-0.9 -2.2,-0.9 -0.9,0 -1.6,0.3 -2.2,0.9 -0.6,0.6 -0.9,1.3 -0.9,2.2 v 20.7 c 0,0.9 0.3,1.6 0.9,2.2 0.6,0.6 1.3,0.9 2.2,0.9 0.9,0 1.6,-0.3 2.2,-0.9 0.6,-0.6 0.9,-1.3 0.9,-2.2 z"
   id="path130"
   inkscape:connector-curvature="0"
   style="fill:#16484e" />
		<path
   class="st3"
   d="m 100.6,127.1 c 0,2.2 -0.9,4 -2.7,5.6 -1.8,1.5 -4,2.3 -6.6,2.3 -2.5,0 -4.7,-0.8 -6.5,-2.3 -1.8,-1.5 -2.7,-3.4 -2.7,-5.6 v -39 c 0,-2.2 0.9,-4 2.7,-5.6 1.8,-1.5 4,-2.3 6.5,-2.3 2.6,0 4.8,0.8 6.6,2.3 1.8,1.5 2.7,3.4 2.7,5.6 z m -6.2,3.4 V 84.7 c 0,-0.9 -0.3,-1.6 -0.9,-2.2 -0.6,-0.6 -1.3,-0.9 -2.2,-0.9 -0.9,0 -1.6,0.3 -2.2,0.9 -0.6,0.6 -0.9,1.3 -0.9,2.2 v 45.9 c 0,0.9 0.3,1.6 0.9,2.2 0.6,0.6 1.3,0.9 2.2,0.9 0.9,0 1.6,-0.3 2.2,-0.9 0.6,-0.7 0.9,-1.4 0.9,-2.3 z"
   id="path132"
   inkscape:connector-curvature="0"
   style="fill:#16484e" />
	</g>
	<g
   class="st1"
   id="g140"
   style="display:inline">
		<path
   class="st3"
   d="m 32.9,133.7 h -1.2 c -1.6,0 -2.4,-0.8 -2.4,-2.5 v -8.5 c 0,-0.4 -0.1,-0.7 -0.4,-1 -0.3,-0.3 -0.6,-0.4 -1,-0.4 H 26.7 V 133 h 0.9 v 0.6 H 23.2 V 133 H 24 v -22.7 h -0.9 v -0.6 h 4.8 c 1.1,0 2.1,0.3 2.9,1 0.8,0.7 1.2,1.5 1.2,2.5 v 4.6 c 0,1.5 -0.8,2.6 -2.4,3.2 1.6,0.7 2.4,1.7 2.4,3.2 v 7.9 c 0,0.6 0.3,0.9 0.8,0.9 h 0.1 z m -3.6,-14.4 v -7.6 c 0,-0.4 -0.1,-0.7 -0.4,-1 -0.3,-0.3 -0.6,-0.4 -1,-0.4 h -1.2 v 10.4 h 1.2 c 0.4,0 0.7,-0.1 1,-0.4 0.2,-0.2 0.4,-0.6 0.4,-1 z"
   id="path136"
   inkscape:connector-curvature="0"
   style="fill:#16484e" />
		<path
   class="st3"
   d="m 42,130.2 c 0,0.9 -0.3,1.7 -1,2.3 -0.7,0.7 -1.5,1 -2.5,1.1 v 2.1 h -0.8 v -2.1 c -1,-0.1 -1.9,-0.5 -2.5,-1.1 -0.7,-0.7 -1,-1.4 -1,-2.4 v -3.7 h 2.7 v 5.2 c 0,0.9 0.4,1.4 1.2,1.4 0.8,0 1.2,-0.5 1.2,-1.4 v -4 c 0,-1.1 -0.3,-2.1 -0.8,-3 l -3.4,-5.3 c -0.6,-0.9 -0.9,-1.9 -0.9,-3.1 v -3.1 c 0,-0.9 0.3,-1.7 1,-2.3 0.7,-0.7 1.5,-1 2.5,-1.1 v -2.1 h 0.8 v 2.1 c 1,0.1 1.9,0.5 2.5,1.1 0.7,0.7 1,1.4 1,2.3 v 3.7 h -2.7 v -5.2 c 0,-0.9 -0.4,-1.4 -1.2,-1.4 -0.8,0 -1.2,0.5 -1.2,1.4 v 3.8 c 0,1.1 0.3,2.1 0.8,3 l 3.4,5.3 c 0.6,0.9 0.9,2 0.9,3.1 z"
   id="path138"
   inkscape:connector-curvature="0"
   style="fill:#16484e" />
	</g>
	<g
   class="st1"
   id="g146"
   style="display:inline">
		<path
   class="st3"
   d="m 14.9,103.1 c 0,0.5 0.2,1 0.6,1.3 0.4,0.4 0.8,0.6 1.3,0.6 0.5,0 1,-0.2 1.3,-0.6 0.4,-0.4 0.6,-0.8 0.6,-1.3 V 90.2 c 0,-1.2 -0.6,-1.8 -1.9,-1.8 -0.7,0 -1.3,0.3 -1.9,0.8 z"
   id="path142"
   inkscape:connector-curvature="0"
   style="fill:#16484e" />
		<path
   class="st3"
   d="m 5,71.1 v 36.5 H 41.5 V 71.1 Z m 17.4,11.4 h -3.8 v -7.4 c 0,-0.5 -0.2,-1 -0.6,-1.3 -0.4,-0.4 -0.8,-0.6 -1.3,-0.6 -0.5,0 -1,0.2 -1.3,0.6 -0.4,0.4 -0.6,0.8 -0.6,1.3 v 13.3 c 0.7,-0.6 1.7,-0.9 2.9,-0.9 3.1,0 4.7,1.4 4.7,4.3 v 9.2 c 0,1.3 -0.6,2.4 -1.7,3.4 -1.1,0.9 -2.4,1.4 -4,1.4 -1.5,0 -2.9,-0.5 -4,-1.4 C 11.6,103.5 11,102.3 11,101 V 77.2 c 0,-1.3 0.6,-2.4 1.7,-3.4 1.1,-0.9 2.4,-1.4 4,-1.4 1.6,0 2.9,0.5 4,1.4 1.1,0.9 1.7,2.1 1.7,3.4 z m 13.2,23.1 h -6.2 v -0.9 h 1.2 l -1.8,-8 -2.3,8 h 1.2 v 0.9 h -3.6 v -0.9 h 1.2 l 3.1,-10.1 -3,-12.7 H 24.2 V 81 h 6.2 v 0.9 h -1.2 l 1.7,7.6 2.2,-7.6 H 31.9 V 81 h 3.6 v 0.9 h -1.2 l -3,9.8 3.1,13 h 1.2 z"
   id="path144"
   inkscape:connector-curvature="0"
   style="fill:#16484e" />
	</g>
</g>
<g
   id="g232"
   transform="matrix(1.207742,0,0,1.207742,-4.7856777,-71.166197)">
	<path
   class="st3"
   d="m 67.7,138.9 c 0.3,-0.1 0.6,-0.2 1,-0.3 0,0 0,0 0,0 -0.3,0.1 -0.7,0.1 -1,0.3 z"
   id="path150"
   inkscape:connector-curvature="0"
   style="fill:#16484e" />
	<path
   class="st3"
   d="m 78.3,132.9 c 0.2,0.1 0.4,-0.1 0.6,0.1 0,0 0,0 0,0 0,0 0,0 0,-0.1 -0.2,-0.3 -0.2,-0.3 -0.6,0 z"
   id="path152"
   inkscape:connector-curvature="0"
   style="fill:#16484e" />
	<polygon
   class="st3"
   points=""
   id="polygon154"
   style="fill:#16484e" />
	<path
   class="st3"
   d="m 75.1,134.8 c 0,-0.1 -0.1,-0.2 -0.2,-0.1 -0.1,0 -0.1,0.2 0,0.2 0.1,0.1 0.2,0.3 0.2,0.4 0,-0.1 0,-0.1 0.1,-0.2 0,-0.1 0,-0.2 -0.1,-0.3 z"
   id="path156"
   inkscape:connector-curvature="0"
   style="fill:#16484e" />
	<path
   class="st3"
   d="m 81.3,130.8 c 0,-0.1 -0.1,-0.1 -0.2,-0.1 -0.1,0 -0.1,0 -0.1,0.1 0,0.1 0,0.1 0.1,0.2 0.1,0.1 0.2,0.1 0.2,0.2 0,0 0.1,0 0.1,-0.1 -0.1,-0.1 -0.1,-0.2 -0.1,-0.3 z"
   id="path158"
   inkscape:connector-curvature="0"
   style="fill:#16484e" />
	<polygon
   class="st3"
   points=""
   id="polygon160"
   style="fill:#16484e" />
	<polygon
   class="st3"
   points=""
   id="polygon162"
   style="fill:#16484e" />
	<g
   id="g174">
		<path
   class="st3"
   d="m 103.7,106.2 c -0.2,-0.7 -1,-1.1 -1.7,-0.9 -2.6,0.8 -5.3,1.7 -8,2.5 -0.3,0.1 -0.5,0.1 -0.5,0.5 0,0.2 -0.1,0.3 -0.3,0.3 -0.2,0 -0.3,-0.1 -0.4,-0.2 -0.1,-0.1 -0.1,-0.3 -0.2,-0.2 -0.4,0.1 -0.8,0.1 -1.1,0.4 0.3,0.1 0.1,0.3 0,0.4 -0.1,0.1 -0.3,0.2 -0.5,0.1 -0.1,-0.1 -0.2,-0.2 -0.3,-0.4 -0.3,0 -0.2,0.5 -0.5,0.3 -0.3,-0.1 -0.5,0 -0.7,0 -3.8,1.2 -7.5,2.3 -11.3,3.5 -0.3,0.1 -0.7,0 -0.8,0.5 0,0 -0.1,0.1 -0.1,0.1 -0.6,-0.4 -1,0.1 -1.6,0.2 -0.2,0 -0.3,0.1 -0.4,0.3 -0.1,0.3 -0.4,0.4 -0.6,0.2 -0.2,-0.2 -0.3,-0.2 -0.5,-0.1 -1.7,0.5 -3.4,1.1 -5.2,1.6 0.1,0.2 0.1,0.4 -0.1,0.5 -0.3,0.1 -0.2,-0.2 -0.3,-0.3 -0.1,0.1 -0.3,0 -0.4,0.3 0,0 -0.1,0.2 -0.1,0.1 -0.2,-0.3 -0.4,-0.1 -0.6,0 -0.1,0.1 -0.1,0.2 -0.2,0.2 -0.1,0.5 -0.1,0.5 -0.6,0.3 -0.1,0 -0.1,-0.1 -0.1,-0.2 -0.1,0 -0.1,0 -0.2,0 -1,0.3 -2,0.6 -3,0.9 -0.1,0 -0.2,0.1 -0.2,0.1 0,0.4 -0.4,0.3 -0.6,0.3 -0.3,-0.1 -0.5,0 -0.7,0.1 -7.9,2.5 -15.8,4.9 -23.7,7.4 0.1,0.3 0.1,0.6 -0.2,0.6 -0.3,0.1 -0.3,-0.2 -0.3,-0.4 0,0 0,0 0,0 -3.5,1.1 -7,2.2 -10.5,3.3 -0.2,0.1 -0.5,0 -0.6,0.4 0,0.1 -0.2,0.1 -0.2,0 -0.1,-0.2 -0.3,-0.1 -0.4,0 -1.6,0.5 -3.3,1 -4.9,1.5 -0.1,0 -0.4,0 -0.2,0.3 0.1,0.1 -0.1,0.2 -0.2,0.2 -0.1,0 -0.3,0.1 -0.3,-0.1 0,-0.3 -0.2,-0.2 -0.4,-0.1 -1.3,0.4 -2.7,0.8 -4,1.2 0,0.3 0.1,0.6 -0.2,0.9 0.1,0.4 0.3,0.9 0.4,1.3 0.1,0.2 0.1,0.2 0.3,0.2 1.1,-0.4 2.2,-0.7 3.3,-1 0.1,-0.1 0.1,-0.3 0.2,-0.4 0.2,-0.1 0.3,0.1 0.4,0.1 l 1.5,-0.5 c 0.1,-0.1 0.2,-0.2 0.3,-0.1 l 2.7,-0.8 c 0.1,-0.1 0,-0.4 0.2,-0.4 0.2,0 0,0.2 0.1,0.3 l 10.2,-3.2 c 0.1,-0.3 0.2,-0.4 0.5,-0.1 0,0 0,0 0.1,-0.1 -0.1,-0.1 -0.2,-0.3 0,-0.4 0.2,-0.1 0.4,0 0.4,0.3 l 3.3,-1 c 0.1,-0.3 0.2,-0.3 0.5,-0.1 l 24.7,-7.7 c 0,-0.1 0.1,-0.2 0.1,-0.3 0,-0.3 0.1,-0.4 0.4,-0.3 0.3,0.1 -0.1,0.3 0,0.4 l 1.6,-0.5 c -0.1,-0.1 -0.3,-0.1 -0.2,-0.4 0,-0.1 0.1,-0.2 0.2,-0.2 0.3,0 0.3,0.2 0.4,0.4 l 4.4,-1.4 c 0,-0.1 0.1,-0.2 0.1,-0.2 0.1,0 0.1,0.1 0.1,0.1 l 12.7,-3.9 c 0.1,-0.3 0.3,-0.5 0.7,-0.2 5.9,-1.8 11.9,-3.7 17.8,-5.5 0.3,-0.1 0.3,-0.2 0.2,-0.5 0.5,0 0.4,-0.3 0.3,-0.5 z m -76.5,24.3 c -0.1,0 -0.1,0 0,0 -0.1,-0.1 -0.1,-0.2 0,-0.2 0,0 0.1,0 0.1,0 0,0.1 -0.1,0.2 -0.1,0.2 z m 0.8,0.1 c -0.1,-0.1 -0.4,-0.2 -0.2,-0.4 0.1,-0.1 0.3,-0.2 0.4,-0.1 0.3,0.2 -0.1,0.3 -0.2,0.5 z m 0.4,-1.1 c -0.1,0 -0.2,0 -0.2,-0.1 0,-0.1 0,-0.2 0.1,-0.2 0.1,0 0.1,0 0.2,0.1 0,0.1 0,0.2 -0.1,0.2 z m 5.2,-0.7 c -0.2,0.1 -0.4,0 -0.5,-0.2 -0.1,-0.2 0,-0.4 0.2,-0.4 0.2,-0.1 0.3,0 0.4,0.2 0.1,0.1 0.1,0.3 -0.1,0.4 z m 10.2,-3.3 c -0.1,-0.1 0.1,-0.2 0.2,-0.2 0.3,-0.1 0.2,0.3 0.4,0.3 -0.3,0.2 -0.5,0.1 -0.6,-0.1 z m 5.1,-2.7 c -0.1,0 -0.2,0 -0.2,-0.1 0,-0.1 0,-0.1 0.1,-0.2 0.1,0 0.2,0 0.2,0.1 -0.1,0.1 0,0.1 -0.1,0.2 z m 4.4,-1.2 c -0.1,0 -0.3,0.1 -0.3,-0.1 0,-0.2 0,-0.3 0.2,-0.4 0.2,0 0.3,0.1 0.3,0.2 0,0.2 -0.1,0.3 -0.2,0.3 z m 2.7,-0.8 c -0.1,0.2 -0.2,0.3 -0.4,0.4 -0.1,0 -0.1,0.2 -0.3,0.1 -0.1,-0.1 0,-0.2 0.1,-0.3 0,-0.3 0,-0.5 0.4,-0.5 0.2,-0.1 0.3,0.1 0.2,0.3 z m 2.7,0.1 c -0.2,0 -0.2,-0.1 -0.3,-0.3 0,-0.1 0,-0.2 0.1,-0.2 0.1,0 0.3,0 0.3,0.2 0,0.1 0,0.2 -0.1,0.3 z m 2.9,-2.3 c 0,0 0,0.1 -0.1,0.1 -0.1,0 -0.1,-0.1 -0.1,-0.2 0,-0.1 0.1,-0.1 0.1,-0.1 0,0 0.1,0 0.1,0.2 z m 0.9,0.3 c -0.2,0.1 -0.4,0 -0.4,-0.1 0,-0.3 0.3,-0.5 0.5,-0.7 0.1,-0.1 0.2,0.1 0.2,0.2 0.2,0.3 -0.2,0.4 -0.3,0.6 z m 0.8,0.3 c -0.1,0 -0.1,0 -0.2,-0.1 0,-0.1 0,-0.2 0.1,-0.2 0.1,0 0.1,0 0.2,0.1 0.1,0.1 0,0.2 -0.1,0.2 z m 0.9,-1.3 c -0.1,0 -0.3,-0.1 -0.3,-0.2 0,-0.2 0.1,-0.2 0.2,-0.3 0.1,0 0.2,0 0.3,0.1 0,0.2 -0.1,0.4 -0.2,0.4 z m 5.6,-0.8 c -0.2,0.1 -0.3,-0.1 -0.4,-0.3 -0.1,-0.2 -0.1,-0.3 0.1,-0.4 0.2,-0.1 0.4,0 0.4,0.2 0.1,0.3 0.1,0.5 -0.1,0.5 z m 0.8,-0.1 c 0,0.1 0,0.2 -0.1,0.2 -0.1,0 -0.2,0 -0.2,-0.2 0,-0.1 0,-0.2 0.1,-0.2 0.1,0.1 0.2,0.1 0.2,0.2 z m 2.4,-2 c -0.1,0 -0.3,-0.1 -0.4,-0.2 0,-0.1 0,-0.2 0.1,-0.2 0.1,0 0.3,0 0.3,0.2 0.1,0 0.1,0.2 0,0.2 z m 1,0.6 c 0,0 -0.1,-0.1 -0.1,-0.1 0,-0.1 0,-0.1 0.1,-0.1 0.1,0 0.1,0 0.2,0.1 -0.1,0 -0.1,0.1 -0.2,0.1 z m 3.6,-0.9 c -0.1,0 -0.2,0 -0.2,-0.1 0,-0.1 0,-0.2 0.1,-0.2 0.1,0 0.2,0 0.2,0.1 0,0.1 0,0.2 -0.1,0.2 z m 0.7,-1 c -0.1,0 -0.1,-0.1 -0.2,-0.1 -0.1,-0.1 0,-0.1 0.1,-0.2 0.1,0 0.2,0 0.2,0.1 0,0.1 0,0.2 -0.1,0.2 z m 1.5,0.3 c 0,0 -0.1,0 -0.2,-0.1 -0.1,-0.1 0,-0.2 0.1,-0.2 0.1,0 0.2,0 0.2,0.1 0,0.1 -0.1,0.2 -0.1,0.2 z m 2.7,-0.2 c -0.1,0.1 -0.2,0 -0.2,-0.1 0,-0.1 -0.1,-0.2 0,-0.2 0.1,0 0.2,0 0.2,0.1 0.1,0 0,0.1 0,0.2 z m 3.9,-2.4 c -0.2,0 -0.3,0 -0.3,-0.2 0,-0.2 0,-0.3 0.1,-0.3 0.2,0 0.3,0.1 0.3,0.2 0.1,0.3 0,0.3 -0.1,0.3 z m 2.9,-0.9 c -0.2,0.1 -0.4,0 -0.4,-0.2 0,-0.2 0,-0.4 0.2,-0.4 0.2,-0.1 0.4,0.1 0.5,0.3 0,0 -0.1,0.2 -0.3,0.3 z m 6,-2 c 0,0.4 -0.2,0.3 -0.5,0.3 -0.2,0 -0.2,-0.2 -0.2,-0.4 0.1,-0.2 0.2,-0.3 0.3,-0.3 0.3,0 0.4,0.2 0.4,0.4 z"
   id="path164"
   inkscape:connector-curvature="0"
   style="fill:#16484e" />
		<path
   class="st3"
   d="M 36.5,128.2"
   id="path166"
   inkscape:connector-curvature="0"
   style="fill:#16484e" />
		<path
   class="st3"
   d="m 40.1,127.1 c 0.2,0 0.3,-0.1 0.5,-0.1 -0.2,-0.1 -0.3,-0.1 -0.5,0.1 z"
   id="path168"
   inkscape:connector-curvature="0"
   style="fill:#16484e" />
		<path
   class="st3"
   d="m 93.3,110.4 c 0,0.2 0,0.3 0.3,0.2 0.1,0 0.3,0.1 0.3,0.3 0,0.2 -0.1,0.4 -0.3,0.5 -0.2,0.1 -0.3,-0.1 -0.5,-0.3 -0.3,0.7 -0.5,1.4 -0.8,2.1 -0.4,1 -0.9,2 -1.3,3 -0.8,1.6 -1.8,3.2 -2.7,4.7 -0.3,0.4 -0.6,0.7 -0.8,1.2 -0.2,0.3 -0.5,0.6 -0.5,1 0,0.1 -0.1,0.3 -0.2,0.3 -0.4,-0.1 -0.5,0.2 -0.6,0.4 -0.6,0.8 -1.3,1.5 -2,2.3 -0.1,0.1 -0.3,0.3 -0.3,0.5 0,0.1 0,0.1 -0.1,0.2 -0.9,0.4 -1.4,1.3 -2.1,1.9 0,0.5 -0.5,0.5 -0.8,0.8 -0.9,0.7 -1.8,1.4 -2.7,2.1 -1.4,1 -2.9,2 -4.5,2.9 -0.2,0.1 -0.6,0.2 -0.4,0.6 0,0.1 -0.1,0.2 -0.2,0.1 -0.5,-0.3 -0.8,0.1 -1.2,0.2 -0.8,0.4 -1.7,0.7 -2.4,1.2 -0.4,0.3 -0.9,0.3 -1.3,0.5 -1,0.3 -1.8,0.7 -2.8,1 -2.4,0.6 -4.8,1.2 -7.3,1.5 -0.2,0 -0.5,0 -0.6,0.4 0,0.2 -0.4,0.3 -0.5,0 -0.1,-0.3 -0.2,-0.2 -0.4,-0.2 -2.4,0.2 -4.9,0.2 -7.3,0 -0.4,0 -0.8,-0.1 -1.2,-0.1 0,0 0,0 0,0 0,0 0,0 0,0 0,0.2 0.1,0.3 0.2,0.4 0.1,0.1 0.3,0 0.3,0.2 -0.1,0.2 -0.2,0 -0.3,0 -0.6,-0.1 -0.6,-0.1 -0.6,-0.7 -0.3,0 -0.7,-0.1 -1,-0.1 v 0 c 0,0 0,0 0,0 v 0 c 0,0 0,0 0,0 0,0.1 0,0.1 0.1,0.2 0,0.1 0.1,0.2 0,0.3 -0.1,0 -0.2,0 -0.2,-0.1 -0.1,-0.1 0,-0.2 0.1,-0.3 0,0 0.1,-0.1 0.2,-0.1 0,0 0,0 0,0 -1.1,-0.2 -2.3,-0.5 -3.4,-0.7 -1.9,-0.4 -3.8,-1 -5.6,-1.8 -0.9,-0.3 -1.7,-0.8 -2.6,-1.1 -0.5,-0.1 -0.8,-0.4 -1.2,-0.6 -0.5,-0.2 -0.9,-0.5 -1.4,-0.7 -0.2,-0.1 -0.6,-0.2 -0.7,-0.3 -0.3,-0.3 -0.5,-0.5 -1,-0.3 0,0 -0.1,-0.1 -0.1,-0.1 -0.1,-0.7 -0.8,-0.8 -1.2,-1.1 -0.8,-0.5 -1.5,-1.1 -2.2,-1.6 l -2.1,0.6 c 2.6,2.1 5.5,4 8.5,5.5 2.4,1.2 4.9,2.1 7.4,2.8 3.5,1 7,1.5 10.6,1.6 3.2,0.1 6.3,-0.1 9.5,-0.8 0.9,-0.2 1.7,-0.4 2.6,-0.6 0,0 0,0 0,0 0.3,-0.1 0.6,-0.3 1,-0.2 0.4,-0.1 0.8,-0.3 1.2,-0.4 0.1,-0.2 0.2,-0.3 0.4,-0.1 0.1,0 0.3,-0.1 0.4,-0.1 -0.1,-0.1 -0.1,-0.2 -0.2,-0.3 0,-0.1 0,-0.2 0.1,-0.2 0.1,0 0.1,0 0.2,0 0,0.3 0.3,0.2 0.5,0.3 0.1,0 0.3,-0.1 0.4,-0.1 0.3,-0.3 0.6,-0.2 0.9,-0.4 0,0 0,0 0,0 0,0 0,0 0,0 2.1,-0.6 4.1,-1.6 6,-2.6 0.2,-0.1 0.3,-0.2 0.4,-0.3 0.1,-0.1 0.1,-0.2 0.1,-0.3 0,0.1 0,0.1 0,0.1 0,-0.1 -0.1,-0.3 -0.2,-0.4 -0.2,-0.1 -0.2,-0.3 -0.1,-0.5 0.1,-0.1 0.2,-0.2 0.3,-0.1 0.2,0.1 0.2,0.3 0.2,0.5 0,0.1 0,0.1 0,0.2 0,0 -0.1,0 -0.1,0 0,0 0,0.1 0,0.1 0.2,0.2 0.4,0.1 0.6,0 1,-0.6 1.9,-1.2 2.8,-1.8 0.1,-0.1 0.3,-0.2 0.3,-0.4 0,0 0,0 -0.1,0 -0.2,0 -0.4,0.1 -0.6,0.1 -0.1,0 -0.2,-0.1 -0.3,-0.2 0,-0.2 0.1,-0.2 0.2,-0.2 0.2,-0.1 0.6,-0.1 0.9,-0.1 0,0.2 -0.2,0.2 -0.2,0.3 0,0 0,0.1 0.1,0.1 0.2,0 0.3,-0.1 0.4,-0.1 0.7,-0.5 1.3,-1.1 2,-1.6 0,0 0,0 0,-0.1 0,0 0,0 0,0 -0.1,0 -0.1,0 -0.2,0 -0.2,0 -0.4,-0.1 -0.3,-0.3 0,-0.2 0.2,-0.3 0.4,-0.3 0.2,0 0.3,0.1 0.3,0.4 0,0.1 0,0.1 0.1,0.2 0,0 0,0 0,0 0,0 0,0 0.1,0 0.2,-0.1 0.4,-0.2 0.5,-0.4 1.4,-1.2 2.7,-2.6 4,-3.9 0.9,-0.9 1.7,-2 2.4,-3 2,-2.7 3.7,-5.7 5.1,-8.8 0.5,-1.2 1,-2.4 1.4,-3.7 0.2,-0.5 0.3,-1 0.5,-1.5 z m -65.8,21.3 c -0.1,0 -0.2,0 -0.2,-0.1 0,-0.1 0,-0.2 0.1,-0.3 0.1,-0.1 0.2,0.1 0.3,0.1 0,0.2 0,0.3 -0.2,0.3 z m 1.5,1.7 c -0.1,0 -0.2,0 -0.2,-0.1 0,-0.1 0,-0.2 0.1,-0.3 0.1,0 0.1,0.1 0.2,0.1 0,0.2 0,0.3 -0.1,0.3 z m 1.3,0.5 c 0,0.1 0,0.2 -0.1,0.2 -0.2,0.1 -0.3,0 -0.3,-0.1 0,-0.1 0.1,-0.2 0.2,-0.3 0.1,0 0.1,0.1 0.2,0.2 z m 2.9,1.8 c 0,0.2 0.1,0.4 -0.2,0.4 -0.2,0 -0.4,-0.1 -0.4,-0.3 -0.1,-0.2 0.1,-0.3 0.2,-0.4 0.2,0.1 0.4,0.1 0.4,0.3 z m 2.9,1 c 0,0.1 0,0.2 -0.1,0.2 -0.1,0 -0.1,0 -0.1,-0.1 0,-0.1 0,-0.1 0.1,-0.2 0.1,0 0.1,0 0.1,0.1 z m 3.8,2.5 c -0.1,0 -0.1,0 -0.1,-0.1 0,-0.1 0,-0.1 0.1,-0.1 0.1,0 0.1,0 0.1,0.1 0,0 0,0 -0.1,0.1 z m 6.1,0.7 c 0,0 -0.1,0 -0.1,-0.1 0,0 0,-0.1 0.1,-0.1 0,0 0.1,0 0.1,0.1 0,0 0,0.1 -0.1,0.1 z m 2.9,1.1 c -0.2,0 -0.3,0 -0.4,-0.1 -0.1,-0.2 0.1,-0.4 0.3,-0.5 0.2,-0.1 0.3,0.1 0.3,0.2 0,0.2 0,0.3 -0.2,0.4 z m 5.1,0.1 c -0.1,0 -0.1,0 -0.1,-0.1 0,-0.1 0,-0.1 0.1,-0.1 0.1,0 0.1,0 0.1,0.1 0,0 -0.1,0.1 -0.1,0.1 z m 0,-1.1 c 0,0.1 0,0.3 -0.2,0.3 -0.1,0 -0.2,-0.1 -0.2,-0.2 0,-0.1 0,-0.3 0.1,-0.3 0.2,0.1 0.3,0.1 0.3,0.2 z m 2.5,1 c -0.2,0.1 -0.3,-0.1 -0.3,-0.2 -0.1,-0.2 0,-0.3 0.1,-0.3 0.2,-0.1 0.3,0 0.4,0.1 0,0.2 0,0.3 -0.2,0.4 z m 7.4,-1.8 c 0,0 -0.1,0 -0.1,0 0,-0.1 0,-0.1 0,-0.1 0.1,0 0.1,0 0.1,0.1 0.1,-0.1 0.1,0 0,0 z m 3.5,-0.9 c -0.1,0 -0.3,0 -0.3,-0.2 0,-0.1 0.1,-0.2 0.2,-0.2 0.1,-0.1 0.2,0 0.3,0.1 0,0.2 -0.1,0.3 -0.2,0.3 z m 3.6,-1.2 c -0.2,0 -0.4,0 -0.4,-0.2 -0.1,-0.2 0.1,-0.3 0.2,-0.4 0.2,-0.1 0.3,0.1 0.4,0.2 0,0.2 0,0.4 -0.2,0.4 z m 6.8,-3.9 c -0.1,0 -0.1,0 -0.1,-0.1 0,-0.1 0,-0.1 0.1,-0.2 0,0 0.1,0.1 0.1,0.1 0,0.1 0,0.1 -0.1,0.2 z m 1.1,-1.9 c 0,0 0,0.1 -0.1,0.1 -0.1,0 -0.1,0 -0.1,-0.1 0,-0.1 0,-0.1 0.1,-0.1 0.1,0 0.2,0 0.1,0.1 z m 0.4,-0.1 c -0.1,0 -0.1,0 -0.1,-0.1 0,0 0,-0.1 0.1,-0.1 0.1,0 0.1,0 0.1,0.1 -0.1,0 -0.1,0 -0.1,0.1 z m 3.4,-2.7 c -0.1,0 -0.2,-0.1 -0.3,-0.1 -0.1,-0.1 0,-0.2 0.1,-0.2 0.2,-0.1 0.2,0 0.3,0.1 0,0.1 0,0.2 -0.1,0.2 z m 0.7,-0.2 c 0,0.1 0,0.2 -0.1,0.3 -0.1,0 -0.2,-0.1 -0.2,-0.2 0,-0.1 0,-0.2 0.2,-0.2 0.1,-0.1 0.1,0 0.1,0.1 z m 5.3,-5.6 c -0.2,0.1 -0.3,0 -0.4,-0.2 -0.1,-0.2 0,-0.3 0.2,-0.4 0.2,-0.1 0.3,0 0.4,0.2 0,0.1 -0.1,0.3 -0.2,0.4 z m 0.1,-1 c -0.1,0 -0.1,0 -0.2,-0.1 0,-0.1 0,-0.1 0.1,-0.1 0,0 0.1,0 0.1,0.1 0,0 0,0.1 0,0.1 z m 0,-0.5 c -0.1,0 -0.3,-0.1 -0.3,-0.2 -0.1,-0.2 0.1,-0.2 0.2,-0.2 0.1,0 0.2,0 0.3,0.1 0,0.1 0,0.3 -0.2,0.3 z m 1.4,-1.7 c -0.1,0 -0.2,0 -0.3,-0.2 0,-0.1 0,-0.2 0.2,-0.3 0.1,0 0.3,0 0.3,0.2 0.1,0.1 0,0.2 -0.2,0.3 z m 0.5,-1 c -0.1,0 -0.1,0 -0.2,-0.1 0,-0.1 0,-0.1 0.1,-0.1 0.1,0 0.1,0 0.2,0.1 -0.1,0 -0.1,0.1 -0.1,0.1 z m 0.8,-0.3 c -0.2,0.1 -0.3,0 -0.4,-0.2 -0.1,-0.1 -0.1,-0.3 0.1,-0.4 0.2,0 0.4,0.1 0.5,0.2 0,0.2 -0.1,0.3 -0.2,0.4 z m 1.2,-3.6 c -0.1,0 -0.1,-0.1 0,0 -0.1,-0.1 0,-0.2 0,-0.2 0,0.1 0,0.1 0,0.2 0,0 0,0 0,0 z"
   id="path170"
   inkscape:connector-curvature="0"
   style="fill:#16484e" />
		<path
   class="st8"
   d="m 90.8,111.2 c 0,0 0.1,0 0.1,0 0.2,0.1 0.3,0.2 0.2,0.4 -0.1,0.2 -0.3,0.2 -0.4,0.1 -0.2,-0.1 -0.2,-0.3 -0.1,-0.4 0,0 0,-0.1 0.1,-0.1 l -0.7,0.2 c -0.1,0.2 -0.1,0.5 -0.2,0.7 -0.1,0.5 -0.3,0.8 -0.6,1.2 -0.4,0.8 -0.7,1.7 -1.2,2.5 -1.1,2 -2.3,4 -3.8,5.8 -0.1,0.2 -0.3,0.3 -0.1,0.6 0.1,0.1 -0.1,0.4 -0.3,0.3 -0.2,-0.1 -0.3,0 -0.4,0.1 -1.5,1.7 -3.1,3.3 -4.8,4.8 -0.3,0.2 -0.6,0.5 -0.9,0.7 0,0 0,0 0,0 0,0 0,0 0,0 0.1,0.1 0.2,0.1 0.3,0.1 0.1,0 0.2,-0.2 0.3,0 0.1,0.1 -0.1,0.1 -0.2,0.2 -0.4,0.4 -0.4,0.4 -0.8,0 -0.2,0.2 -0.5,0.4 -0.7,0.6 v 0 c 0,0 0,0 0,0 v 0 c 0,0 0,0 0,0 0,0 0.1,0 0.1,0.1 0.1,0.1 0.2,0.1 0.2,0.2 0,0.1 -0.1,0.1 -0.2,0.1 -0.2,0 -0.2,-0.1 -0.2,-0.2 0,-0.1 0,-0.1 0,-0.2 0,0 0,0 0,0 -0.9,0.6 -1.8,1.2 -2.7,1.8 -1.5,1 -3.2,1.8 -4.8,2.5 -0.8,0.3 -1.7,0.6 -2.4,1 -0.4,0.2 -0.8,0.2 -1.2,0.4 -0.5,0.2 -0.9,0.3 -1.4,0.4 -0.2,0.1 -0.5,0.3 -0.6,0.3 -0.4,0 -0.7,0 -0.9,0.4 0,0 -0.1,0 -0.1,0 -0.5,-0.4 -1,0 -1.5,0 -1.5,0.3 -3,0.5 -4.6,0.6 0,0 0,0 0,0 -0.4,0.5 -0.9,0 -1.3,0.1 -0.5,0.1 -1,0.1 -1.5,0.1 -1,0 -2.1,0.1 -3.1,0 -0.8,-0.1 -1.6,-0.1 -2.4,-0.3 0,0 -0.1,0 -0.1,0 -0.8,0.3 -1.5,-0.4 -2.2,-0.4 -0.8,0 -1.6,-0.3 -2.4,-0.5 -1.4,-0.4 -2.7,-0.8 -4,-1.3 -0.6,-0.2 -1.2,-0.4 -1.8,-0.7 -1.1,-0.5 -2.3,-1 -3.3,-1.6 -1.1,-0.6 -2.2,-1.3 -3.3,-2.1 l -2,0.6 c 0.6,0.5 1.3,0.9 1.9,1.3 0.5,0.3 1,0.6 1.5,0.9 0,0 0,0 0,0 0.3,0.2 0.6,0.2 0.8,0.5 0.6,0.3 1.1,0.6 1.7,0.9 0.1,-0.1 0.2,-0.1 0.4,-0.1 0.1,0.1 0.1,0.2 0,0.3 0.1,0.1 0.3,0.1 0.4,0.2 0.3,0 0.6,0.3 0.9,0.4 0,0 0,0 0,0 0.5,0.3 1.1,0.5 1.6,0.8 0.8,0.4 1.7,0.7 2.6,1 1.1,0.3 2.2,0.8 3.4,0.8 0.1,0 0.1,0 0.2,0.1 0.3,0.2 0.6,0.3 0.9,0.3 1.6,0.4 3.2,0.5 4.9,0.7 0.2,0 0.4,0 0.5,-0.1 0.1,-0.1 0.1,-0.1 0.2,0 0.3,0.2 0.6,0.2 1,0.2 0.8,0 1.6,0 2.3,0 4.3,-0.1 8.6,-0.9 12.7,-2.3 2.3,-0.8 4.6,-1.8 6.7,-3 2.9,-1.6 5.6,-3.6 8,-5.9 2.1,-2 4.1,-4.2 5.7,-6.8 0.4,-0.7 0.9,-1.4 1.3,-2.1 0,0 0,0 0,0 0.2,-0.3 0.2,-0.6 0.5,-0.8 0.2,-0.4 0.4,-0.7 0.6,-1.1 -0.1,-0.2 -0.1,-0.3 0.2,-0.3 0.1,-0.1 0.1,-0.3 0.2,-0.4 -0.1,0 -0.2,-0.1 -0.3,-0.1 -0.1,0 -0.1,-0.1 -0.1,-0.2 0,-0.1 0.1,-0.1 0.1,-0.1 0.2,0.2 0.3,-0.1 0.5,-0.1 0.1,-0.1 0.1,-0.3 0.2,-0.4 0,-0.3 0.3,-0.6 0.4,-0.9 0,0 0,0 0,0 0,0 0,0 0,0 0.6,-1.1 1,-2.1 1.4,-3.3 z m -60.4,19.7 c 0,0.1 -0.1,0.1 -0.2,0.1 -0.1,0 -0.2,-0.1 -0.1,-0.2 0.1,-0.1 0.2,-0.1 0.3,-0.1 0.1,0 0.1,0.1 0,0.2 z m 5.3,2.6 c -0.1,0.1 -0.2,0.1 -0.4,0.1 -0.1,0 -0.1,-0.1 -0.1,-0.2 0.1,-0.1 0.3,0 0.4,0 0.1,-0.1 0.1,0 0.1,0.1 z m 8.8,2.8 c 0.1,-0.1 0.3,-0.3 0.5,-0.1 0.1,0.1 0.2,0.2 0.1,0.4 -0.1,0.1 -0.3,0.2 -0.5,0.1 -0.1,-0.1 -0.3,-0.3 -0.1,-0.4 z m 0.8,1 c 0,0 0,0.1 -0.1,0.2 -0.1,0.1 -0.2,0.1 -0.3,0 -0.1,-0.1 0,-0.2 0.1,-0.3 0.1,0 0.1,0 0.2,-0.1 0.1,0 0.1,-0.4 0.3,-0.2 0.1,0.1 -0.1,0.2 -0.2,0.4 z m 7.3,0.6 c 0,0.1 -0.1,0.1 -0.2,0 -0.1,-0.1 -0.1,-0.1 0,-0.2 0,0 0.1,-0.1 0.1,0 0.1,0 0.2,0.1 0.1,0.2 z m 3,0.1 c 0,0.1 -0.1,0.1 -0.2,0.1 -0.1,0 -0.1,-0.1 -0.1,-0.1 0,-0.1 0.1,-0.1 0.2,-0.1 0.1,0 0.1,0.1 0.1,0.1 z m 3.4,-1.2 c 0,0.1 -0.1,0.2 -0.2,0.1 -0.1,-0.1 -0.2,-0.1 -0.1,-0.2 0.1,-0.1 0.2,-0.1 0.3,-0.1 0.1,0 0,0.1 0,0.2 z m 2.1,0.2 c 0,0.1 -0.1,0.1 -0.2,0 -0.1,-0.1 -0.1,-0.1 -0.1,-0.2 0,-0.1 0.1,-0.1 0.2,0 0.1,0 0.1,0.1 0.1,0.2 z m 1.2,-0.3 c -0.1,0.2 -0.2,0.2 -0.3,0.1 -0.1,-0.1 -0.1,-0.2 0,-0.3 0.1,-0.1 0.2,-0.1 0.2,0 0.1,0 0.1,0.1 0.1,0.2 z m 3.2,-0.5 c -0.1,0.1 -0.3,0.2 -0.5,0.1 -0.2,-0.1 -0.2,-0.3 -0.1,-0.4 0.1,-0.2 0.2,-0.3 0.4,-0.2 0.2,0.2 0.4,0.3 0.2,0.5 z m 2.5,-1.6 c 0,0 -0.1,0 -0.1,0 -0.1,0 -0.1,-0.1 0,-0.2 0,-0.1 0.1,0 0.1,0 0,0.1 0,0.1 0,0.2 z m 4,-1.1 c 0,0.1 -0.1,0.1 -0.1,0 -0.1,0 -0.1,-0.1 0,-0.1 0,0 0.1,-0.1 0.1,-0.1 0.1,0.1 0.1,0.2 0,0.2 z m 4.6,-3.5 c 0,0 -0.1,0 -0.1,0 0,0 0,-0.1 0,-0.1 0,0 0.1,0 0.1,0 0,0 0,0 0,0.1 z m 2.6,-1.2 c -0.1,0.1 -0.2,0.2 -0.4,0.2 -0.2,-0.1 -0.2,-0.3 -0.1,-0.5 0.1,-0.2 0.2,-0.1 0.4,-0.1 0.1,0.1 0.1,0.2 0.1,0.4 z m 2.8,-3.7 c -0.1,0.1 -0.2,0.1 -0.3,0 -0.1,-0.1 -0.2,-0.2 -0.1,-0.3 0.1,-0.1 0.2,-0.1 0.3,-0.1 0.1,0.2 0.2,0.3 0.1,0.4 z m 0.6,0.4 c 0,0.1 -0.1,0.1 -0.1,0 -0.1,0 -0.1,-0.1 0,-0.1 0,0 0.1,-0.1 0.1,-0.1 0,0.1 0,0.2 0,0.2 z m 1.5,-1.7 c -0.1,0.1 -0.2,0.1 -0.4,0.1 -0.1,-0.1 -0.2,-0.2 -0.1,-0.3 0.1,-0.1 0.2,-0.2 0.3,-0.1 0.2,0 0.3,0.1 0.2,0.3 z m 3.7,-6.1 c 0,0 0,0 0,0 -0.2,0 -0.2,0 -0.2,-0.1 0,-0.1 0.1,-0.1 0.1,0 0.2,0 0.2,0 0.1,0.1 z m 1.7,-2.9 c -0.1,0.1 -0.2,0.2 -0.3,0.1 -0.1,-0.1 -0.1,-0.2 0,-0.3 0.1,-0.1 0.2,-0.1 0.2,-0.1 0.2,0.1 0.2,0.2 0.1,0.3 z"
   id="path172"
   inkscape:connector-curvature="0"
   style="opacity:0.5;fill:#16484e" />
	</g>
	<g
   id="g196">
		<path
   class="st3"
   d="m 42.6,61.2 c -0.2,0.1 -0.5,0.1 -0.7,0.2 0.4,0.3 0.6,0.2 0.7,-0.2 z"
   id="path176"
   inkscape:connector-curvature="0"
   style="fill:#16484e" />
		<path
   class="st3"
   d="m 44.2,60.8 c 0,0 0,0 0,0 0,0 0,0 0,0 -0.3,0 -0.6,0.1 -0.9,0.2 0.3,0 0.6,-0.1 0.9,-0.2 z"
   id="path178"
   inkscape:connector-curvature="0"
   style="fill:#16484e" />
		<path
   class="st3"
   d="m 66.3,61.2 c 0.1,0 0.1,-0.1 0.1,-0.2 0,0 0,0 0,0 0,0.1 -0.1,0.2 -0.1,0.2 z"
   id="path180"
   inkscape:connector-curvature="0"
   style="fill:#16484e" />
		<path
   class="st3"
   d="m 91.1,66.6 c 0.1,0.1 0.3,0.2 0.2,0.4 -0.1,0.1 -0.2,0 -0.3,0 -0.2,0 -0.1,-0.2 -0.2,-0.3 l -11.2,3.5 c 0.1,0.2 0.1,0.3 -0.1,0.4 0.2,0.6 0.2,0.6 -0.2,0.6 v 0 c -0.2,-0.1 -0.2,-0.3 -0.2,-0.3 0.2,-0.2 0,-0.3 -0.1,-0.5 l -20.9,6.5 c -0.1,0.3 -0.2,0.5 -0.5,0.2 -0.3,0.1 -0.3,0.1 -0.6,0.2 0,0.3 -0.2,0.3 -0.3,0.2 -0.6,0 -0.9,0 -1.5,0.1 -0.5,0.6 0.1,0.4 0,0.7 0,0.1 -0.1,0.1 -0.2,0.1 -0.2,0 -0.1,-0.2 -0.1,-0.4 l -9.2,2.9 c 0,0.1 -0.1,0.1 -0.1,0.2 -0.1,0.1 0.1,0.4 -0.2,0.4 -0.2,0 -0.1,-0.3 -0.2,-0.4 L 28.5,86 c 0,0.2 0.1,0.4 -0.2,0.5 -0.1,0 -0.4,0 -0.3,-0.3 l -6.2,1.9 c 0,0.1 0.2,0.1 0.1,0.2 0,0.1 -0.1,0.1 -0.2,0.1 -0.1,-0.1 0,-0.2 0,-0.3 C 15.9,89.9 10.1,91.7 4.3,93.5 4,93.6 3.9,93.7 4,94 c 0.1,0.2 0.2,0.5 0.2,0.7 0.2,0.7 1,1.1 1.6,0.9 0.3,-0.1 0.5,-0.2 0.8,-0.2 0.3,-0.1 0.4,-0.5 0.6,-0.4 0.3,0.1 0.5,0 0.7,-0.1 2.2,-0.7 4.4,-1.4 6.7,-2.1 13.4,-4.2 26.7,-8.3 40.1,-12.5 0,-0.1 -0.2,-0.3 0,-0.3 0.2,-0.1 0.4,-0.1 0.5,0.2 2.6,-0.8 5.3,-1.6 7.9,-2.5 -0.1,-0.1 -0.1,-0.2 0,-0.3 0.2,-0.1 0.2,0.1 0.3,0.2 0,0 0,0 0,0 6.5,-2 13.1,-4.1 19.6,-6.1 0.3,-0.1 0.6,-0.2 0.8,-0.4 0.2,-0.2 0.3,-0.1 0.4,0.1 2.4,-0.7 4.7,-1.5 7.1,-2.2 0.5,-0.1 0.8,-0.7 0.6,-1.1 -0.1,-0.4 -0.2,-0.8 -0.3,-1.2 -0.2,-0.3 -0.3,-0.2 -0.5,-0.1 z M 8.5,93.9 c 0,0.2 -0.1,0.3 -0.2,0.4 -0.1,0 -0.3,0 -0.3,-0.2 0,-0.2 0.1,-0.3 0.2,-0.3 0.2,-0.1 0.3,-0.1 0.3,0.1 z m 0.8,0.2 c -0.2,0 -0.4,0 -0.4,-0.2 -0.1,-0.2 0,-0.3 0.2,-0.3 0.2,0 0.3,0 0.4,0.2 -0.1,0.1 0,0.2 -0.2,0.3 z m 0.4,-1 c -0.1,0 -0.2,0 -0.2,-0.1 0,-0.2 0,-0.3 0.2,-0.4 0.1,-0.1 0.2,0 0.2,0.1 -0.1,0.1 0,0.3 -0.2,0.4 z m 2.3,0 c -0.2,-0.1 -0.3,0.1 -0.4,0.1 -0.1,0.1 -0.1,0.3 -0.3,0.1 -0.2,-0.1 -0.2,-0.3 -0.1,-0.5 0.2,-0.3 0.5,0 0.7,-0.1 0.2,-0.1 0.4,0 0.4,0.2 0,0.1 -0.1,0.3 -0.3,0.2 z m 2.3,-2.2 c 0,0.3 -0.2,0.2 -0.4,0.3 0,-0.2 0,-0.4 0.2,-0.5 0.2,-0.1 0.3,0.1 0.2,0.2 z m 3.2,0.5 c -0.1,0 -0.3,0 -0.3,-0.2 -0.1,-0.2 0,-0.2 0.1,-0.3 0.1,0 0.3,0 0.3,0.1 0.1,0.2 0.1,0.4 -0.1,0.4 z m 1.4,-1.6 c -0.2,0 -0.3,0 -0.3,-0.2 0,-0.2 0,-0.3 0.2,-0.4 0.1,0 0.3,0.1 0.3,0.2 0.1,0.3 -0.1,0.4 -0.2,0.4 z m 2.3,-0.6 c -0.1,0 -0.3,0 -0.3,-0.2 0,-0.2 0.1,-0.3 0.2,-0.4 0.1,-0.1 0.2,0 0.2,0.2 0,0.2 0,0.4 -0.1,0.4 z m 3.3,0.2 v 0 c 0,0.2 0,0.5 -0.4,0.3 -0.2,-0.1 -0.4,-0.3 -0.6,-0.3 -0.1,-0.1 -0.1,-0.1 0,-0.2 0.1,-0.1 0.1,-0.1 0.2,0 0.2,0 0.2,-0.1 0.4,-0.2 0.3,0 0.5,0 0.4,0.4 z m 1.8,-0.7 c 0,0.3 -0.3,0.2 -0.5,0.3 0.1,-0.3 0,-0.5 0.3,-0.5 0,0 0.2,0.1 0.2,0.2 z m 1.8,-0.6 c 0,0.1 0,0.2 -0.2,0.3 -0.1,0 -0.3,0 -0.3,-0.2 0,-0.2 0.1,-0.2 0.2,-0.2 0.1,0 0.3,-0.1 0.3,0.1 z m 2.1,-0.3 c 0,0.1 0,0.1 -0.1,0.1 -0.1,0 -0.1,0 -0.1,-0.1 0,0 0,-0.1 0.1,-0.1 0,0 0.1,0 0.1,0.1 z M 31.8,86 c -0.1,0 -0.2,0 -0.2,-0.1 0,-0.1 0,-0.1 0.1,-0.1 0.1,0 0.2,0 0.2,0 0.1,0.1 0,0.2 -0.1,0.2 z m 1,0.1 c -0.1,0 -0.3,0.1 -0.3,-0.1 0,-0.3 0.2,-0.4 0.4,-0.6 0.1,-0.1 0.2,0 0.2,0.1 -0.1,0.2 0.1,0.6 -0.3,0.6 z m 4.3,-1.9 c -0.1,0 -0.2,-0.1 -0.2,-0.2 0,-0.3 0.3,-0.2 0.5,-0.2 -0.1,0.2 0,0.4 -0.3,0.4 z m 0.6,0.8 c 0,0 -0.1,-0.1 -0.1,-0.1 0,-0.1 0,-0.2 0.1,-0.2 0.1,0 0.1,0 0.1,0.1 0,0.1 0,0.2 -0.1,0.2 z m 1.5,-1.5 c 0,-0.1 0,-0.1 0.1,-0.1 0.1,0 0.2,0 0.2,0.1 0,0 -0.1,0.1 -0.1,0.1 -0.1,0 -0.2,0 -0.2,-0.1 z m 0.4,0.5 c -0.1,-0.1 0,-0.2 0.1,-0.2 0.1,0 0.2,-0.1 0.3,0 0,0.1 0,0.3 -0.2,0.3 -0.1,0.1 -0.2,0 -0.2,-0.1 z m 0.9,0.3 c 0,0.2 -0.2,0.2 -0.3,0.2 -0.1,0.1 -0.2,0 -0.2,-0.1 0,-0.1 0,-0.3 0.1,-0.3 0.2,0 0.4,0 0.4,0.2 z m 1.7,-1.4 c 0,0.1 0,0.2 -0.1,0.3 C 42,83.1 42,83 42,83 c 0,-0.1 0,-0.2 0.1,-0.2 0.1,-0.1 0.1,0 0.1,0.1 z M 45,82 c -0.2,0 -0.3,0 -0.3,-0.2 -0.1,-0.2 0,-0.2 0.2,-0.2 0.2,-0.1 0.3,0 0.4,0.1 0,0.1 -0.1,0.2 -0.3,0.3 z m 1.1,0 c 0,0.1 0,0.1 -0.1,0.1 -0.1,0 -0.1,-0.1 -0.1,-0.2 0,-0.1 0,-0.1 0.1,-0.1 0,0.1 0,0.1 0.1,0.2 z m 1.4,0.2 c -0.1,0.1 -0.3,0 -0.3,-0.2 0,-0.2 0.1,-0.4 0.4,-0.5 0.2,0 0.2,0.1 0.3,0.2 -0.2,0.2 -0.3,0.4 -0.4,0.5 z m 4,-2.3 c -0.2,0.1 -0.4,0 -0.4,-0.2 -0.1,-0.2 0,-0.3 0.2,-0.4 0.2,0 0.3,0.1 0.4,0.3 0,0.1 0,0.3 -0.2,0.3 z m 3,-0.5 c 0,0.1 0,0.1 -0.1,0.2 -0.1,0 -0.2,0 -0.2,-0.1 0,-0.1 0,-0.1 0.1,-0.1 0.1,-0.2 0.1,-0.1 0.2,0 z M 56.8,78 c -0.1,0 -0.2,0 -0.2,-0.1 0,-0.1 0,-0.1 0.1,-0.1 0.1,0 0.2,0 0.2,0.1 0.1,0.1 0,0.1 -0.1,0.1 z m 2.9,-0.2 c -0.1,0 -0.2,0 -0.2,-0.1 0,-0.1 0,-0.2 0.1,-0.2 0.1,0 0.2,0 0.2,0.1 0.1,0.1 0,0.2 -0.1,0.2 z m 1.1,-0.1 c -0.2,0.1 -0.3,-0.1 -0.3,-0.2 -0.1,-0.1 0,-0.2 0.1,-0.2 0.1,0 0.3,0 0.5,0 -0.1,0.2 -0.2,0.3 -0.3,0.4 z m 8.4,-4.2 c 0.1,-0.1 0.1,0 0.2,0.1 0,0.1 0,0.2 -0.1,0.2 -0.1,0 -0.1,0 -0.2,0 0,-0.2 0.1,-0.2 0.1,-0.3 z m -5.7,2.6 c -0.2,0.1 -0.3,0 -0.4,-0.2 -0.1,-0.2 0,-0.4 0.2,-0.5 0.2,-0.1 0.3,0 0.3,0.1 0.2,0.3 0.1,0.5 -0.1,0.6 z m 5.2,-1.7 c 0,0 0,0 0,0 0,0 0,0.1 -0.1,0.1 0,0 0,0 0,0 -0.2,0.1 -0.3,0 -0.4,-0.2 0,-0.2 0.1,-0.3 0.3,-0.3 0.3,0 0.3,0.2 0.2,0.4 z m 1.2,0.8 c -0.2,0 -0.4,0 -0.4,-0.2 -0.1,-0.2 0.1,-0.3 0.2,-0.4 0.2,-0.1 0.4,0.1 0.4,0.3 0,0.1 0,0.2 -0.2,0.3 z M 71.1,74 c -0.1,0 -0.1,0 -0.2,-0.1 0,-0.1 0,-0.2 0.1,-0.2 0.1,0 0.2,0 0.2,0.1 0.1,0.2 0,0.2 -0.1,0.2 z m 0.3,-0.6 c -0.1,0 -0.1,0 -0.2,-0.1 0,-0.1 0,-0.2 0.1,-0.2 0.1,0 0.2,0 0.2,0.1 0,0.2 -0.1,0.2 -0.1,0.2 z m 1,0 c -0.2,0.1 -0.4,0.7 -0.7,0.1 0.1,-0.2 0.3,-0.2 0.3,-0.5 0,-0.2 0.3,-0.2 0.5,-0.1 0.2,0.2 0.1,0.4 -0.1,0.5 z m 5.1,-1.7 c 0,-0.3 -0.3,-0.4 -0.2,-0.6 0.1,-0.2 0.3,0 0.4,0 0.2,0.2 0,0.3 -0.2,0.6 z m 0.9,-0.6 c -0.1,0 -0.1,0 -0.2,-0.1 0,-0.1 0,-0.2 0.1,-0.2 0.1,0 0.2,0 0.2,0.1 0,0.1 -0.1,0.1 -0.1,0.2 z m 0.9,0.9 c -0.2,0.1 -0.4,0 -0.4,-0.2 0,-0.2 0.1,-0.3 0.3,-0.4 0.2,-0.1 0.3,0.1 0.3,0.2 0.1,0.2 0,0.3 -0.2,0.4 z m 1,-1 c -0.1,0 -0.2,0 -0.2,-0.1 0,-0.1 0,-0.1 0.1,-0.2 0.1,0 0.2,0 0.2,0.1 0,0.1 0,0.2 -0.1,0.2 z m 1,-0.1 c -0.1,0 -0.2,0.1 -0.3,-0.1 0,-0.2 0,-0.3 0.2,-0.4 0.1,0 0.3,0 0.3,0.2 0,0.2 -0.1,0.3 -0.2,0.3 z m 1.1,-0.7 c 0,0.1 0,0.2 -0.1,0.3 -0.2,0 -0.2,-0.2 -0.3,-0.3 -0.1,-0.1 0,-0.2 0,-0.2 0.2,0 0.4,-0.1 0.4,0.2 z m 5,-0.2 c -0.1,0.2 -0.2,0.2 -0.4,0.1 -0.1,-0.1 -0.2,-0.2 -0.2,-0.4 0,-0.2 0.1,-0.3 0.3,-0.2 0.3,0.2 0.7,0.2 0.3,0.5 z m 0.4,-1.5 c -0.2,0.1 -0.3,0 -0.4,-0.2 -0.1,-0.2 0,-0.4 0.2,-0.5 0.2,-0.1 0.3,0.1 0.4,0.2 0,0.2 0,0.4 -0.2,0.5 z m 0.9,0 c -0.2,0.1 -0.4,0 -0.4,-0.2 -0.1,-0.2 0.1,-0.3 0.3,-0.4 0.2,0 0.4,0 0.4,0.2 0,0.1 -0.2,0.3 -0.3,0.4 z m 2,-1 c 0,0.1 0,0.3 -0.1,0.3 -0.1,0 -0.2,0 -0.2,-0.1 0,-0.1 -0.1,-0.3 0.2,-0.4 0,0.1 0.1,0.1 0.1,0.2 z"
   id="path182"
   inkscape:connector-curvature="0"
   style="fill:#16484e" />
		<path
   class="st3"
   d="m 55,77.9 c 0,0 0,-0.1 0,0 0,-0.1 -0.1,-0.1 -0.1,-0.1 0.1,0 0.1,0.1 0.1,0.1 z"
   id="path184"
   inkscape:connector-curvature="0"
   style="fill:#16484e" />
		<path
   class="st3"
   d="m 21.8,88.1 c 0,0 -0.1,0 0,0 0,0.1 0,0.1 0,0 z"
   id="path186"
   inkscape:connector-curvature="0"
   style="fill:#16484e" />
		<path
   class="st3"
   d="m 63.1,77.8 c 0.1,0 0.2,-0.1 0.3,-0.1 0,0 0,0 0,0 -0.1,0 -0.2,-0.1 -0.3,0.1 z"
   id="path188"
   inkscape:connector-curvature="0"
   style="fill:#16484e" />
		<path
   class="st3"
   d="m 14.8,90.3 c 0,0 0,-0.1 0,-0.1 0.1,-0.2 0.2,-0.4 0,-0.6 -0.1,-0.1 0,-0.2 0,-0.2 0.6,-0.3 0.6,-1 0.8,-1.5 0.9,-2.2 1.9,-4.3 3.1,-6.3 0.2,-0.4 0.6,-0.7 0.7,-1.1 0.2,-0.6 0.7,-0.9 1,-1.4 0.3,-0.5 0.7,-1 1.1,-1.5 0.4,-0.5 0.8,-1 1.2,-1.5 0.5,-0.6 1,-1.2 1.6,-1.8 0.3,-0.2 -0.1,-0.6 0.1,-0.6 0.2,0 0.4,0 0.6,-0.2 0.8,-0.8 1.6,-1.6 2.5,-2.3 0.2,-0.2 0.4,-0.4 0.3,-0.7 0,-0.1 -0.1,-0.2 0,-0.2 0.1,-0.1 0.2,0 0.2,0.1 0.1,0.2 0.2,0.2 0.4,0 1.3,-1.1 2.7,-2 4.2,-3 -0.1,0 -0.2,0 -0.3,0 -0.2,0 -0.4,-0.1 -0.3,-0.4 0.1,-0.2 0.2,-0.3 0.4,-0.2 0.6,0.1 1.1,0.1 1.6,-0.3 0.2,-0.2 0.3,-0.6 0.8,-0.5 0.1,0 0.1,-0.2 0,-0.3 0,-0.1 0,-0.2 0.1,-0.2 0.1,-0.1 0.2,-0.1 0.3,0 0.2,0.2 0.3,0.1 0.5,0 0.5,-0.2 1,-0.5 1.5,-0.7 0.2,-0.1 0.3,-0.1 0.1,-0.4 -0.1,-0.2 -0.1,-0.3 0.1,-0.4 0.2,0 0.4,-0.1 0.4,0.2 0,0.3 0.2,0.2 0.3,0.1 0.6,-0.2 1.1,-0.5 1.7,-0.7 1,-0.4 2,-0.8 3.1,-1 0.4,-0.1 0.8,-0.2 1.2,-0.3 1.6,-0.5 3.2,-0.7 4.8,-1 0.5,-0.1 1.1,-0.1 1.6,-0.2 1,-0.2 2.1,-0.1 3.1,-0.2 0.2,0 0.3,0.1 0.4,-0.2 0,-0.3 0.3,-0.2 0.3,-0.1 0.1,0.3 0.3,0.3 0.5,0.3 2.6,0 5.1,0.3 7.6,0.7 1.6,0.3 3.2,0.7 4.8,1.2 0.9,0.3 1.7,0.6 2.6,0.9 0.9,0.3 1.8,0.7 2.6,1.1 1.5,0.7 2.9,1.5 4.3,2.4 1.2,0.8 2.4,1.5 3.5,2.4 L 82,69 c 0,0 0,0 0,0 -0.1,-0.3 -0.2,-0.5 -0.4,-0.7 -0.9,-0.8 -2,-1.4 -3,-2.1 C 78.3,66 78,66 77.7,65.8 77,65.1 76,64.7 75.2,64.2 73.7,63.3 72,62.7 70.4,62 69.2,61.5 68,61.1 66.7,60.7 c -0.2,-0.1 -0.5,-0.2 -0.7,0 0,0 0,0 0,0 0,0 0,0 0,0 0,0 0,0 0,0 0,0 0,0 0,0 0,0 0,0 0,0 0,0.1 0.2,0.3 0,0.4 0,0 -0.1,0 -0.2,0 -0.1,0 -0.2,-0.1 -0.2,-0.2 0,-0.2 0.2,-0.2 0.3,-0.2 0,0 0,-0.1 0,-0.1 -0.1,-0.2 -0.3,-0.2 -0.5,-0.3 -2.9,-0.8 -5.9,-1.2 -8.9,-1.3 -1.2,-0.1 -2.5,-0.1 -3.7,0 -0.9,0.1 -1.9,-0.1 -2.8,0.4 -0.1,0 -0.2,0 -0.2,0 -0.2,-0.1 -0.5,-0.1 -0.7,0 -1.8,0.2 -3.5,0.6 -5.3,1.1 0,0 0,0 0,0 -0.3,0.1 -0.6,0.3 -1,0.2 -0.2,0.1 -0.4,0.1 -0.6,0.2 0,0.2 0,0.5 -0.2,0.5 -0.2,0.1 -0.4,-0.1 -0.5,-0.3 -0.4,0.1 -0.9,0.3 -1.3,0.4 -0.2,0.4 -0.6,0.2 -1,0.3 -0.9,0.3 -1.8,0.6 -2.6,0.9 -0.4,0.1 -0.7,0.3 -0.6,0.8 -0.1,-0.4 -0.2,-0.5 -0.6,-0.3 -0.7,0.4 -1.4,0.7 -2.1,1.1 -1,0.5 -2,1.1 -3,1.8 -1.8,1.2 -3.6,2.5 -5.2,4 -0.2,0.2 -0.4,0.4 -0.1,0.7 0.1,0.1 0.1,0.1 0,0.2 -0.1,0.1 -0.2,0 -0.2,0 -0.3,-0.3 -0.5,-0.1 -0.7,0.1 -0.5,0.4 -0.9,0.9 -1.4,1.4 -2.9,2.9 -5.2,6.3 -7.2,9.9 -1.2,2.2 -2.1,4.5 -2.9,6.9 -0.2,0.4 -0.3,0.9 -0.4,1.4 z M 80.3,67.9 c 0.1,0 0.1,0 0.1,0 0,0.1 0,0.1 -0.1,0.1 -0.1,0 -0.1,0 -0.1,-0.1 0.1,0.1 0.1,0 0.1,0 z m -0.8,0.6 c 0,-0.2 0.2,-0.4 0.3,-0.6 0.1,-0.1 0.1,0 0.2,0.1 0.1,0.3 -0.2,0.4 -0.3,0.5 -0.1,0.2 -0.2,0.1 -0.2,0 z m -1.2,-1.2 c 0,-0.2 0,-0.5 0.2,-0.6 0.2,-0.1 0.4,0.1 0.4,0.2 0,0.3 -0.4,0.3 -0.5,0.5 -0.1,0.1 -0.1,0 -0.1,-0.1 z m -0.4,0 c 0.1,0 0.2,0 0.2,0.1 0,0.1 0.1,0.2 -0.1,0.2 -0.1,0 -0.2,-0.1 -0.3,-0.2 0,0 0.1,-0.1 0.2,-0.1 z m -0.7,-0.4 c 0.1,0 0.1,0 0.1,0.1 0,0.1 0,0.1 -0.1,0.1 -0.1,0 -0.1,0 -0.1,-0.1 0,0 0,0 0.1,-0.1 z m -0.6,-0.6 c 0.1,0 0.3,0 0.3,0.1 0.1,0.1 -0.1,0.2 -0.1,0.2 -0.1,0 -0.2,0 -0.2,-0.1 -0.1,-0.1 -0.1,-0.2 0,-0.2 z m -1,-1.1 c 0,0.1 0,0.1 -0.1,0.2 -0.1,0 -0.1,0 -0.1,-0.1 0,-0.1 0,-0.1 0.1,-0.1 0,0 0.1,0 0.1,0 z M 75,64.9 c 0,-0.1 0,-0.2 0.1,-0.2 0.1,0 0.1,0 0.2,0.1 0,0.1 0,0.2 -0.2,0.2 0,0.1 -0.1,0 -0.1,-0.1 z m -1.1,-0.7 c 0.3,-0.1 0.4,0.2 0.4,0.4 0.1,0.2 0.2,0.4 -0.1,0.4 -0.3,0 -0.4,-0.3 -0.5,-0.5 0,-0.1 0.1,-0.3 0.2,-0.3 z m -1.7,0.2 c 0,0 0,-0.1 0.1,-0.1 0.1,0 0.1,0 0.1,0.1 0,0 0,0.1 -0.1,0.1 -0.1,0 -0.1,0 -0.1,-0.1 z m -1.5,-0.5 c 0.1,0 0.1,0 0,0 0.1,0.1 0,0.1 0,0.2 0,-0.1 0,-0.1 0,-0.2 0,0 0,0 0,0 z M 67,61.8 c 0.1,0 0.1,0 0.2,0 0,0.1 0,0.1 -0.1,0.2 -0.1,0 -0.2,0 -0.2,-0.1 0,0 0,-0.1 0.1,-0.1 z m -2,-0.7 c 0.2,0 0.3,0 0.4,0.2 0,0.2 0,0.3 -0.2,0.4 -0.2,0 -0.3,0 -0.4,-0.2 -0.1,-0.1 0,-0.3 0.2,-0.4 z m -27.7,2.4 c 0.1,0 0.1,0 0.1,0.1 0,0.1 0,0.1 -0.1,0.2 -0.1,0 -0.1,-0.1 -0.2,-0.1 0,-0.1 0.1,-0.1 0.2,-0.2 z m -3.2,1.7 c 0.1,0 0.1,0 0.2,0.1 0,0.1 0,0.2 -0.1,0.2 -0.1,0 -0.1,0 -0.2,-0.1 0,-0.1 0,-0.2 0.1,-0.2 z M 33.2,66 c 0,-0.1 0.1,-0.1 0.1,-0.2 0.1,0 0.1,0 0.2,0.1 0,0.1 -0.1,0.1 -0.1,0.2 -0.2,0.1 -0.2,0.1 -0.2,-0.1 z M 32,67.6 c 0,0 0,0.1 -0.1,0.1 0,0 -0.1,0 -0.1,-0.1 0,0 0,-0.1 0.1,-0.1 0,0 0.1,0 0.1,0.1 z M 31.4,67 c 0.2,-0.1 0.3,0.1 0.4,0.2 0,0.2 0,0.3 -0.1,0.3 -0.2,0 -0.4,0 -0.5,-0.2 -0.1,-0.1 0,-0.3 0.2,-0.3 z m -2.5,1.5 c 0.1,0 0.1,0 0.1,0 0,0.1 0,0.1 -0.1,0.2 -0.1,0 -0.1,0 -0.1,-0.1 0,0 0,-0.1 0.1,-0.1 z m -5.2,4.7 c 0.1,0 0.2,0 0.3,0.1 0.1,0.2 -0.1,0.2 -0.2,0.2 -0.1,0 -0.2,0.1 -0.3,-0.1 0,-0.1 0.1,-0.2 0.2,-0.2 z m -1.2,2.2 c 0,0 0,-0.1 0.1,-0.1 0.1,0 0.1,0 0.1,0.1 0,0 0,0.1 -0.1,0.1 0,0 -0.1,0 -0.1,-0.1 z m -1.7,1.8 c 0.2,-0.1 0.3,-0.1 0.4,0.1 0.1,0.2 0,0.3 -0.2,0.4 -0.2,0.1 -0.3,-0.1 -0.4,-0.2 -0.1,-0.1 0,-0.2 0.2,-0.3 z M 18.9,80 c 0.1,-0.1 0.2,0 0.3,0.1 0,0.1 0,0.2 -0.1,0.2 -0.1,0 -0.2,0 -0.3,-0.1 0,0 0,-0.1 0.1,-0.2 z m -2,3.2 c 0.1,0 0.2,0 0.3,0.2 0,0.1 0,0.2 -0.1,0.2 -0.1,0 -0.3,0 -0.3,-0.2 -0.1,-0.1 0,-0.1 0.1,-0.2 z m -2.8,5.3 c 0.2,-0.1 0.3,0 0.4,0.1 0.1,0.2 -0.1,0.3 -0.2,0.5 -0.2,0 -0.3,0 -0.3,-0.2 -0.2,-0.2 -0.2,-0.4 0.1,-0.4 z"
   id="path190"
   inkscape:connector-curvature="0"
   style="fill:#16484e" />
		<path
   class="st8"
   d="m 16.7,89.7 c -0.3,-0.2 -0.4,-0.1 -0.5,0.2 z"
   id="path192"
   inkscape:connector-curvature="0"
   style="opacity:0.5;fill:#16484e" />
		<path
   class="st8"
   d="m 17.6,89.4 c 0,-0.1 0,-0.1 0,-0.2 0.1,-0.1 0.2,-0.3 0.4,-0.1 0.2,0.2 0.2,0 0.3,-0.1 0.2,-0.5 0.4,-1.1 0.7,-1.6 0.4,-0.9 0.8,-1.8 1.3,-2.7 0.2,-0.3 0.4,-0.7 0.6,-1 0.7,-1.4 1.6,-2.6 2.5,-3.8 0.3,-0.4 0.7,-0.8 0.9,-1.2 0.6,-0.8 1.3,-1.5 1.9,-2.2 0.1,-0.1 0.3,-0.2 0.1,-0.4 -0.2,-0.2 0,-0.3 0.2,-0.2 0.3,0.1 0.4,0 0.5,-0.2 1.7,-1.7 3.5,-3.2 5.5,-4.5 1.3,-0.9 2.6,-1.7 4,-2.4 0.7,-0.4 1.5,-0.7 2.3,-1.1 0.8,-0.4 1.6,-0.7 2.4,-1 1.4,-0.5 2.9,-0.9 4.4,-1.3 1.3,-0.3 2.6,-0.6 3.9,-0.7 0.4,-0.4 0.8,-0.1 1.3,-0.1 0.4,-0.1 0.9,-0.2 1.3,-0.1 0.2,0 0.4,-0.2 0.6,0 0.1,0 0.3,0.1 0.3,-0.2 0,-0.2 0.2,-0.3 0.4,-0.3 0.2,0 0.3,0.1 0.3,0.3 0,0.2 0.2,0.2 0.3,0.2 0.6,0 1.3,0 1.9,0 0.2,0 0.5,0.1 0.6,-0.2 0,0 0.1,0 0.1,0 0.7,0.5 1.4,0.3 2.2,0.4 1.6,0.2 3.2,0.4 4.7,0.8 1.9,0.4 3.8,1 5.6,1.7 1.6,0.6 3.1,1.3 4.6,2.1 0.6,0.3 1.2,0.8 1.9,1.1 0.5,0.3 0.9,0.6 1.4,0.9 l 0.7,-0.2 c 0,0 -0.1,-0.1 -0.1,-0.1 -0.1,-0.1 -0.1,-0.2 -0.2,-0.3 -0.2,0 -0.3,0 -0.5,0.2 0,0.1 -0.1,0.1 -0.2,0.1 0,0 -0.1,-0.2 -0.1,-0.2 0.2,-0.1 0.2,-0.4 0.5,-0.5 0.2,-0.1 0.3,0.1 0.3,0.2 0.1,0.1 0.3,0.1 0.4,0.3 0,0.1 0.1,0.2 0.1,0.2 l 1,-0.3 c -0.5,-0.4 -1,-0.7 -1.5,-1 -0.5,-0.3 -1.1,-0.7 -1.6,-1 -0.2,-0.1 -0.4,-0.2 -0.5,0.1 0,-0.1 0,-0.3 0,-0.4 -0.7,-0.4 -1.5,-0.8 -2.2,-1.1 -0.1,0 -0.2,0.1 -0.4,0 -0.4,-0.3 -0.8,-0.4 -1.2,-0.7 0,0 0,0 0,0 -0.8,-0.4 -1.5,-0.8 -2.3,-1.1 -2.1,-0.8 -4.3,-1.4 -6.6,-1.9 -0.5,-0.1 -1.1,-0.1 -1.6,-0.2 -0.9,-0.2 -1.8,-0.3 -2.7,-0.3 -0.3,0 -0.6,0 -1,-0.1 -0.4,-0.1 -0.9,-0.2 -1.3,0 0,0 0,0 0,0.1 0,0 0,0 0,0 0.1,0.1 0.4,0 0.4,0.3 0,0.1 -0.1,0.2 -0.2,0.1 -0.3,-0.1 -0.2,-0.3 -0.2,-0.4 0,0 0,0 0,0 0,0 0,0 0,0 0,0 0,0 0,0 0,0 0,0 0,0 0,0 0,0 0,0 -0.2,-0.2 -0.5,-0.1 -0.7,-0.1 0,0 0,0.1 -0.1,0 -0.1,-0.1 -0.2,-0.1 -0.4,-0.1 -1.4,0 -2.9,0.1 -4.3,0.2 -0.3,0 -0.4,0.4 -0.6,0.3 -0.2,-0.2 -0.5,-0.2 -0.7,-0.2 -1.1,0.1 -2.2,0.4 -3.4,0.6 -0.3,0 -0.5,0.3 -0.8,0.3 -0.9,0 -1.8,0.4 -2.7,0.6 -1.6,0.4 -3.1,1.1 -4.6,1.7 -1.1,0.5 -2.2,1 -3.2,1.6 -0.2,0.1 -0.5,0.2 -0.5,0.5 0,0 0,0 0,0 0,0 0,0 0,0 0,0 0,0 0,0 0,0 0,0 0,0 0,0 0,0 0,0 0.1,0.1 0.3,0.1 0.3,0.3 0,0 -0.1,0.1 -0.1,0.1 -0.1,0 -0.2,0.1 -0.2,0 -0.1,-0.1 0,-0.2 0.1,-0.4 0,0 0,0 -0.1,-0.1 -0.2,0 -0.4,0.1 -0.5,0.2 -2.4,1.4 -4.7,3.1 -6.7,5 -0.9,0.8 -1.7,1.6 -2.5,2.5 -0.6,0.7 -1.3,1.2 -1.6,2.1 0,0.1 -0.1,0.1 -0.2,0.1 -0.2,0.1 -0.3,0.3 -0.5,0.4 -1,1.3 -1.9,2.7 -2.7,4.2 0,0 0,0 0,0 -0.2,0.3 -0.2,0.6 -0.5,0.8 -0.1,0.2 -0.2,0.4 -0.3,0.5 0.2,0.1 0.3,0.3 0.2,0.5 -0.1,0.2 -0.3,0.2 -0.5,0.1 -0.2,0.4 -0.4,0.8 -0.6,1.1 0.1,0.4 -0.3,0.6 -0.4,0.9 -0.4,0.8 -0.8,1.6 -1.1,2.3 -0.1,0.3 -0.3,0.6 0.1,0.9 z M 76.2,69.5 c 0.1,-0.1 0.2,-0.4 0.4,-0.2 0.2,0.1 0.3,0.2 0.2,0.3 0,0.1 -0.6,0.2 -0.7,0.1 0,-0.1 0,-0.2 0.1,-0.2 z m -3.8,-2.3 c 0.1,-0.2 0.2,-0.1 0.4,0 0.1,0.1 0.3,0.1 0.2,0.2 -0.1,0.2 -0.3,0.1 -0.4,0 -0.2,0 -0.3,-0.1 -0.2,-0.2 z m -3.5,-1.7 c 0,-0.1 0.1,-0.1 0.1,0 0,0 0.1,0.1 0.1,0.1 0,0.1 -0.1,0.1 -0.2,0 0,0.1 0,0 0,-0.1 z m -2,0.2 c 0,-0.1 0.1,-0.1 0.2,0 0,0 0,0.1 0,0.1 0,0.1 -0.1,0.1 -0.1,0 -0.1,0 -0.1,-0.1 -0.1,-0.1 z m -8.2,-2 c 0.1,-0.2 0.3,-0.2 0.5,-0.1 0.1,0.1 0.1,0.2 0.1,0.4 -0.1,0.2 -0.3,0.2 -0.4,0.1 C 58.6,64 58.6,63.9 58.7,63.7 Z M 56,63.8 c 0,0.1 -0.1,0.1 -0.2,0.1 -0.1,0 -0.1,-0.1 -0.1,-0.1 0.1,-0.1 0.1,-0.2 0.2,-0.1 0.1,-0.1 0.1,0 0.1,0.1 z m -0.4,-1.3 c 0,0 0,0 0,0 0,0 0,0 0,0 0,0 0,0 0,0 0.1,0 0.2,0.1 0.2,0.2 0,0.1 -0.1,0.1 -0.1,0.1 -0.1,-0.1 -0.1,-0.2 -0.1,-0.3 z m -0.1,0.7 c 0.1,-0.1 0.2,-0.1 0.3,0 0.1,0 0.1,0.1 0,0.2 -0.1,0.1 -0.2,0.2 -0.3,0.1 -0.1,-0.1 -0.1,-0.2 0,-0.3 z m -1.2,0.1 c 0.1,-0.1 0.2,-0.1 0.3,-0.1 0.1,0.1 0.1,0.2 0,0.3 -0.1,0.1 -0.2,0.1 -0.3,0 -0.1,0 0,-0.1 0,-0.2 z m -0.7,0 c 0,-0.1 0,-0.1 0.1,-0.1 0.1,0 0.1,0.1 0.1,0.1 0,0.1 -0.1,0.1 -0.2,0 0,0.1 0,0 0,0 z M 51,63.4 c 0,-0.1 0.1,0 0.1,0 0.1,0 0.1,0.1 0,0.1 0,0.1 -0.1,0.1 -0.1,0 0,0 0,-0.1 0,-0.1 z m -2.9,-0.1 c 0,-0.1 0.1,-0.1 0.1,-0.1 0.1,0 0.1,0.1 0,0.1 0.1,0.1 0,0.1 -0.1,0 0,0.1 0,0 0,0 z m -0.3,0.4 c 0,-0.1 0.1,-0.1 0.2,0 0.3,0.1 0.1,0.4 0.1,0.6 0,0.1 -0.1,0.1 -0.2,0.1 -0.1,-0.3 0,-0.5 -0.1,-0.7 z m -1.7,0 c 0.1,-0.2 0.3,-0.2 0.4,-0.1 0.2,0.2 -0.1,0.4 0,0.6 -0.1,0.1 -0.1,0.1 -0.2,0 -0.1,-0.1 -0.2,-0.3 -0.2,-0.5 z m 0,0.8 c 0.1,-0.1 0.1,-0.1 0.2,-0.1 0.1,0.1 0.2,0.1 0.1,0.2 -0.1,0.1 -0.2,0.1 -0.3,0 -0.1,0.1 0,0 0,-0.1 z m -0.7,0.2 c 0,-0.1 0.1,0 0.1,0 0.1,0 0.1,0.1 0,0.1 0,0.1 -0.1,0.1 -0.2,0 0.1,0 0.1,0 0.1,-0.1 z m -0.8,0 c 0.1,-0.1 0.2,-0.2 0.3,-0.1 0.1,0 0.1,0.2 0.1,0.3 0,0.1 -0.2,0.1 -0.2,0.1 -0.2,-0.1 -0.3,-0.2 -0.2,-0.3 z m -1.5,0 c 0,-0.1 0.1,-0.1 0.1,-0.1 0.1,0 0.1,0.1 0.1,0.2 0,0.1 -0.1,0.1 -0.1,0 -0.1,0 -0.1,0 -0.1,-0.1 z m -0.5,-0.1 c 0,-0.1 0.1,-0.1 0.2,0 0.1,0.1 0.1,0.2 0,0.2 0,0.1 -0.1,0.1 -0.2,0 0,0 -0.1,-0.1 0,-0.2 z m -1.2,0.5 c 0.2,-0.3 0.4,-0.2 0.6,0 0.2,0.1 0.4,0.1 0.2,0.3 -0.2,0.2 -0.5,0.1 -0.7,0 -0.1,0 -0.2,-0.2 -0.1,-0.3 z m -1,1.2 c 0,-0.1 0.1,-0.1 0.2,0 0,0 0,0.1 0,0.1 0,0.1 -0.1,0.1 -0.1,0 -0.1,0 -0.1,-0.1 -0.1,-0.1 z M 39.2,67 c 0,0 0.1,0 0.1,0 0,0 0,0.1 0,0.1 0,0 -0.1,0 -0.1,0 0,0 0,-0.1 0,-0.1 z m -3.9,1.1 c 0,-0.1 0.1,-0.1 0.2,-0.1 0.1,0 0.1,0.1 0.1,0.2 0,0.1 -0.1,0.1 -0.2,0.1 -0.1,-0.1 -0.1,-0.2 -0.1,-0.2 z M 33.6,69 c 0.1,-0.1 0.2,-0.2 0.4,-0.1 0.1,0.1 0.2,0.2 0.1,0.4 -0.1,0.1 -0.2,0.2 -0.4,0.1 -0.2,0 -0.2,-0.2 -0.1,-0.4 z M 17,88.9 c 0,-0.1 0.1,-0.1 0.2,0 0.1,0 0.1,0.1 0,0.2 -0.1,0.1 -0.1,0.1 -0.2,0 -0.1,0 -0.1,-0.1 0,-0.2 z"
   id="path194"
   inkscape:connector-curvature="0"
   style="opacity:0.5;fill:#16484e" />
	</g>
	<g
   id="g208">
		<path
   d="m 29.3,108 2.2,17.1 c 0.1,0.6 -0.3,1.2 -0.9,1.4 l -1,0.3 c -0.5,0.2 -1.2,-0.1 -1.5,-0.7 l -7.8,-15.4 c -0.3,-0.5 0,-1.1 0.6,-1.3 l 0.4,-0.1 c 0.6,-0.2 1.2,0.1 1.5,0.6 l 5.2,10.3 c 0.3,0.6 0.4,0.5 0.3,-0.1 l -1.5,-11.5 c -0.1,-0.6 0.4,-1.2 0.9,-1.4 l 0.4,-0.1 c 0.6,-0.1 1.1,0.3 1.2,0.9 z"
   id="path198"
   inkscape:connector-curvature="0" />
		<path
   d="m 47.9,121.3 -0.5,0.1 c -0.5,0.2 -1.3,-0.1 -1.6,-0.6 L 44.7,119 c -0.3,-0.5 -1.1,-0.8 -1.6,-0.6 l -2.8,0.9 c -0.6,0.2 -1,0.8 -1,1.4 l 0.1,2.1 c 0,0.6 -0.4,1.2 -1,1.4 l -0.4,0.1 c -0.6,0.2 -1.1,-0.1 -1.1,-0.7 l -0.5,-17.9 c 0,-0.6 0.4,-1.2 0.9,-1.4 0.5,-0.2 1.2,0.1 1.5,0.6 l 9.7,15.1 c 0.1,0.6 -0.1,1.1 -0.6,1.3 z M 42,115 39.4,111 c -0.3,-0.5 -0.6,-0.4 -0.5,0.2 L 39,116 c 0,0.6 0.5,1 1.1,0.8 l 1.5,-0.5 c 0.6,-0.2 0.8,-0.8 0.4,-1.3 z"
   id="path200"
   inkscape:connector-curvature="0" />
		<path
   d="M 59.3,107.6 61,113 c 0.2,0.6 0.3,1.1 0.3,1.1 v 0.1 c -0.1,1.5 -1.4,3.4 -3.4,4 -5.3,1.6 -8,-3.1 -9.3,-7.5 -1,-3.3 -1.2,-5.8 -0.5,-7.8 0.6,-1.8 2,-3 3.9,-3.6 1.4,-0.4 2.7,-0.2 4,0.5 0.5,0.3 0.6,1 0.2,1.5 l -0.2,0.3 c -0.4,0.5 -1.1,0.5 -1.6,0.3 -0.5,-0.2 -1.1,-0.3 -1.6,-0.1 -1.1,0.3 -3.9,1.2 -1.8,8.2 2.2,7 5,6.1 6.1,5.8 0.5,-0.1 0.8,-0.4 1.1,-0.7 0.4,-0.4 0.4,-1.4 0.2,-2 l -0.8,-2.5 c -0.2,-0.5 -0.8,-0.9 -1.4,-0.7 l -0.4,0.1 c -0.6,0.2 -1.2,-0.1 -1.4,-0.7 L 54.3,109 c -0.2,-0.6 0.1,-1.2 0.7,-1.4 l 2.8,-0.9 c 0.8,0 1.4,0.4 1.5,0.9 z"
   id="path202"
   inkscape:connector-curvature="0" />
		<path
   d="m 77.1,112.2 -0.5,0.1 c -0.5,0.2 -1.3,-0.1 -1.6,-0.6 l -1.1,-1.8 c -0.3,-0.5 -1.1,-0.8 -1.6,-0.6 l -2.8,0.9 c -0.6,0.2 -1,0.8 -1,1.4 l 0.1,2.1 c 0,0.6 -0.4,1.2 -1,1.4 l -0.4,0.1 c -0.6,0.2 -1.1,-0.1 -1.1,-0.7 L 65.6,96.6 c 0,-0.6 0.4,-1.2 0.9,-1.4 0.5,-0.2 1.2,0.1 1.5,0.6 l 9.7,15.1 c 0.2,0.6 0,1.1 -0.6,1.3 z m -5.8,-6.2 -2.6,-4 c -0.3,-0.5 -0.6,-0.4 -0.5,0.2 l 0.1,4.8 c 0,0.6 0.5,1 1.1,0.8 l 1.5,-0.5 c 0.5,-0.3 0.8,-0.9 0.4,-1.3 z"
   id="path204"
   inkscape:connector-curvature="0" />
		<path
   d="m 89.2,103.5 c 0.9,2.8 -0.4,5.2 -3.2,6.1 -2.7,0.8 -5,-1.1 -6.1,-2.3 -0.4,-0.4 -0.3,-1.1 0.2,-1.5 l 0.3,-0.2 c 0.5,-0.3 1.2,-0.2 1.6,0.2 0.8,0.8 2,1.8 3.3,1.4 1.4,-0.4 1.9,-1.5 1.5,-2.9 -0.5,-1.8 -2.4,-2.6 -4.3,-3.5 -2,-1 -4.4,-2 -5.1,-4.4 -0.8,-2.5 0.5,-4.9 2.8,-5.6 1.8,-0.5 3.6,0.1 5,1.6 0.4,0.4 0.2,1.1 -0.3,1.5 L 84.6,94 c -0.5,0.3 -1.2,0.2 -1.6,-0.2 -0.5,-0.5 -1.2,-0.9 -2.1,-0.6 -1.2,0.4 -1.4,1.5 -1.1,2.4 0.4,1.3 2,2 3.7,2.8 2.3,1.1 4.8,2.2 5.7,5.1 z"
   id="path206"
   inkscape:connector-curvature="0" />
	</g>
	<g
   id="g230">
		<path
   d="m 33.5,102.8 0.1,0.3 c 0.1,0.5 -0.1,0.9 -0.5,1.1 l -3.6,1.1 c -0.5,0.1 -0.9,-0.1 -1.1,-0.6 l -4,-12.8 C 24.3,91.5 24.5,91 25,90.8 l 0.3,-0.1 c 0.5,-0.1 0.9,0.1 1.1,0.5 l 3.4,10.9 c 0.1,0.5 0.6,0.7 1.1,0.6 l 1.7,-0.5 c 0.3,-0.1 0.8,0.1 0.9,0.6 z"
   id="path210"
   inkscape:connector-curvature="0" />
		<path
   d="m 40.2,86.9 0.1,0.3 c 0.1,0.5 -0.1,0.9 -0.6,1.1 L 39,88.5 c -0.5,0.1 -0.7,0.6 -0.6,1.1 l 3.4,10.9 c 0.1,0.5 -0.1,0.9 -0.6,1.1 l -0.3,0.1 c -0.5,0.1 -0.9,-0.1 -1.1,-0.6 L 36.4,90.2 c -0.1,-0.5 -0.6,-0.7 -1.1,-0.6 l -0.8,0.3 C 34,90 33.6,89.8 33.4,89.3 L 33.3,89 c -0.1,-0.4 0.1,-0.9 0.6,-1.1 l 5.2,-1.6 c 0.5,0 1,0.2 1.1,0.6 z"
   id="path212"
   inkscape:connector-curvature="0" />
		<path
   d="m 46.2,85.1 4,12.8 c 0.1,0.5 -0.1,0.9 -0.5,1.1 l -0.3,0.1 C 48.9,99.2 48.5,99 48.3,98.5 l -4,-12.8 c -0.1,-0.4 0.1,-0.9 0.6,-1.1 l 0.3,-0.1 c 0.4,-0.1 0.8,0.2 1,0.6 z"
   id="path214"
   inkscape:connector-curvature="0" />
		<path
   d="m 58.6,81.3 4,12.8 c 0.1,0.5 -0.1,0.9 -0.5,1.1 l -0.3,0.1 c -0.5,0.1 -0.9,-0.1 -1.1,-0.6 l -2,-6.5 c -0.1,-0.5 -0.3,-0.4 -0.3,0 L 58,93.7 c 0,0.5 -0.3,0.6 -0.6,0.2 l -3.2,-4.3 c -0.3,-0.4 -0.4,-0.3 -0.3,0.1 l 2,6.4 C 56,96.6 55.8,97 55.3,97.2 L 55,97.3 c -0.5,0.1 -0.9,-0.1 -1.1,-0.6 l -4,-12.8 c -0.1,-0.4 0.1,-0.9 0.6,-1 0.5,-0.1 1,0.1 1.3,0.4 l 3.8,5 c 0.3,0.4 0.5,0.3 0.5,-0.2 l 0.3,-6.3 c 0,-0.5 0.4,-1 0.9,-1.1 0.7,-0.1 1.1,0.1 1.3,0.6 z"
   id="path216"
   inkscape:connector-curvature="0" />
		<path
   d="m 75.1,91.2 -0.4,0.1 c -0.4,0.1 -1,-0.1 -1.3,-0.5 L 72.5,89.4 C 72.2,89 71.7,88.8 71.2,88.9 L 69,89.6 c -0.5,0.1 -0.8,0.7 -0.8,1.1 v 1.7 c 0,0.5 -0.3,1 -0.8,1.1 l -0.3,0.1 C 66.6,93.7 66.3,93.5 66.2,93 L 65.8,78.8 c 0,-0.5 0.3,-0.9 0.7,-1.1 0.4,-0.1 0.9,0.1 1.2,0.5 l 7.7,11.9 c 0.3,0.5 0.2,1 -0.3,1.1 z m -4.6,-4.9 -2,-3.2 C 68.3,82.7 68,82.8 68.1,83.2 l 0.1,3.8 c 0,0.5 0.4,0.8 0.8,0.6 l 1.2,-0.4 c 0.4,-0.1 0.6,-0.5 0.3,-0.9 z"
   id="path218"
   inkscape:connector-curvature="0" />
		<path
   d="M 85.3,84.1 C 86,86.3 85,88.2 82.8,88.9 80.7,89.6 78.9,88 78,87.1 77.7,86.8 77.8,86.2 78.1,85.9 l 0.3,-0.2 c 0.4,-0.3 0.9,-0.2 1.2,0.1 0.6,0.6 1.6,1.4 2.6,1.1 1.1,-0.4 1.5,-1.1 1.2,-2.3 -0.4,-1.4 -1.9,-2.1 -3.4,-2.7 -1.6,-0.8 -3.4,-1.6 -4,-3.5 -0.6,-1.9 0.4,-3.8 2.2,-4.4 1.4,-0.4 2.8,0 3.9,1.3 0.3,0.4 0.2,0.9 -0.2,1.1 l -0.2,0.1 c -0.4,0.3 -0.9,0.1 -1.3,-0.2 -0.4,-0.4 -1,-0.7 -1.6,-0.5 -0.9,0.3 -1.1,1.2 -0.9,1.9 0.3,1.1 1.5,1.6 3,2.2 1.7,1.1 3.7,2 4.4,4.2 z"
   id="path220"
   inkscape:connector-curvature="0" />
		<g
   id="g228">
			<path
   d="m 20.6,93 2.1,6.6 c 1.5,4.9 1.9,7.3 -1.4,8.3 -3.1,1 -4.4,-1.3 -5.9,-6.1 l -2.1,-6.6 c -0.1,-0.5 0.1,-0.9 0.5,-1.1 L 14.1,94 c 0.5,-0.1 0.9,0.1 1.1,0.6 l 2.1,6.6 c 1.6,5.3 2.4,5.1 3.4,4.8 1.2,-0.4 1.7,-0.5 0.1,-5.8 l -2.1,-6.6 c -0.1,-0.5 0.1,-0.9 0.6,-1.1 l 0.3,-0.1 c 0.4,-0.1 0.9,0.2 1,0.6 z"
   id="path222"
   inkscape:connector-curvature="0" />
			<g
   id="g226">
				<path
   d="m 19,88.1 -1.7,4.2 c 0,0.1 -0.1,0.3 -0.2,0.4 H 17 c -0.1,0.1 -0.2,0.1 -0.2,0 l 0.7,-3.9 c 0,0 0,-0.1 0,-0.1 0.1,-0.1 0.2,-0.2 0.4,-0.3 l 1,-0.3 c 0,-0.1 0.1,-0.1 0.1,0 z"
   id="path224"
   inkscape:connector-curvature="0" />
			</g>
		</g>
	</g>
</g>
</svg>