<svg id="Layer_1" data-name="Layer 1" xmlns="http://www.w3.org/2000/svg" viewBox="0 0 100 100"><defs><style>.cls-1{fill:#fff;}</style></defs><title>facebook_branco-100x100</title><path id="facebook" class="cls-1" d="M56.66,99.29a2.32,2.32,0,0,1-1.48-2.47q0-18.25,0-36.51c0-.78-.14-1.06-1-1.05-3.5.06-7,0-10.5,0-1.73,0-2.37-.64-2.37-2.39q0-7,0-14.08c0-1.72.68-2.38,2.4-2.38,3.56,0,7.12,0,10.67,0,.62,0,.8-.14.8-.78,0-3.83-.11-7.66.06-11.48a21.89,21.89,0,0,1,5.37-14A19.86,19.86,0,0,1,71.78,8a28.07,28.07,0,0,1,5.79-.56H88.51c1.84,0,2.48.65,2.48,2.48q0,6.41,0,12.83c0,1.86-.61,2.45-2.47,2.47-3,0-6.1-.15-9.14.13-1.65.15-3.18.6-4.07,2.19a5.71,5.71,0,0,0-.69,2.76c0,3.19,0,6.4-.06,9.59,0,.61.29.58.71.58H87.92c1.87,0,2.51.62,2.51,2.44q0,7,0,14c0,1.8-.61,2.41-2.43,2.41-4.19,0-8.38,0-12.56,0-.74,0-.87.22-.87.89q0,18.27,0,36.52a2.51,2.51,0,0,1-1.42,2.61Z"/><path class="cls-1" d="M86.5,3A10.51,10.51,0,0,1,97,13.5v73A10.51,10.51,0,0,1,86.5,97h-73A10.51,10.51,0,0,1,3,86.5v-73A10.51,10.51,0,0,1,13.5,3h73m0-3h-73A13.49,13.49,0,0,0,0,13.5v73A13.49,13.49,0,0,0,13.5,100h73A13.49,13.49,0,0,0,100,86.5v-73A13.49,13.49,0,0,0,86.5,0Z"/></svg>