<svg id="Layer_1" data-name="Layer 1" xmlns="http://www.w3.org/2000/svg" viewBox="0 0 100 100"><defs><style>.cls-1{fill:#fff;}</style></defs><title>instagram_branco-100x100</title><g id="instagram"><path class="cls-1" d="M93.5,34.5a3.72,3.72,0,0,1-.08-1.41,41.86,41.86,0,0,0-.72-7.49,23,23,0,0,0-9.17-14.38A25.84,25.84,0,0,0,69.45,6.68c-1.38-.07-2.75,0-4.12-.18h-.85c-.16.15-.36.06-.54.09h-.8c-.18,0-.37.06-.53-.09h-.68a5.9,5.9,0,0,1-1.57.09H57.8a38.59,38.59,0,0,1-4-.09H46.32a36.38,36.38,0,0,1-4,.09H39.73a5.83,5.83,0,0,1-1.56-.09h-.68c-.16.15-.36.06-.54.09h-.79c-.18,0-.38.06-.54-.09h-1a3.72,3.72,0,0,1-1.41.08,41.86,41.86,0,0,0-7.49.72,23,23,0,0,0-14.38,9.17A25.92,25.92,0,0,0,6.78,30.55c-.07,1.26,0,2.53-.18,3.79V35c.15.16.06.36.09.54v1.14c0,.18.06.37-.09.53v.68c.18.33,0,.7.09,1v.81c-.05.34.09.7-.09,1v.51a4.14,4.14,0,0,1,.09,1.31c-.06,1.55.11,3.09-.09,4.63v5.44c.2,1.54,0,3.09.09,4.63a4.12,4.12,0,0,1-.09,1.31v.51c.18.33,0,.69.09,1V61c-.05.35.09.71-.09,1v.68c.15.16.06.36.09.54V64c0,.22.08.47-.09.68v.84a2.94,2.94,0,0,1,.08,1.25A41.86,41.86,0,0,0,7.4,74.3a23,23,0,0,0,8.63,14,25.68,25.68,0,0,0,15,5c1.15,0,2.3,0,3.45.17h.84c.16-.15.36-.06.54-.09h1.25c.15,0,.3,0,.42.09h.85a5.18,5.18,0,0,1,1.42-.09h2.71c1.39,0,2.79-.1,4.19.09h6.78c1.4-.19,2.81,0,4.21-.09h2.54a5,5,0,0,1,1.4.09h1c.12-.13.28-.08.42-.09h1.25c.18,0,.38-.06.54.09h.51a4.93,4.93,0,0,1,1.58-.08,41.86,41.86,0,0,0,7.49-.72,23,23,0,0,0,14.33-9.1,25.85,25.85,0,0,0,4.59-14.15c.07-1.26.05-2.53.18-3.79v-.67c-.13-.13-.07-.29-.09-.44V62.94c0-.15,0-.31.09-.43v-.68c-.18-.34,0-.7-.09-1.06v-.94c0-.35-.09-.72.09-1v-.51c-.18-.37,0-.77-.09-1.15v-2.6a27.2,27.2,0,0,1,.09-3.38V48.76a27.42,27.42,0,0,1-.09-3.39v-2.6c0-.38-.09-.77.09-1.14v-.34c-.19-.39,0-.8-.09-1.21v-1c0-.35-.09-.71.09-1v-.68c-.15-.16-.06-.36-.09-.55V35.56c0-.18-.06-.38.09-.55Zm-8,30.72a35.7,35.7,0,0,1-.91,8.24c-1.66,6.28-5.76,10-12.07,11.28-4.13.84-8.33.7-12.51.8-3.34.07-6.68,0-10,0-6.2,0-12.39.08-18.58-.3a19.83,19.83,0,0,1-9.22-2.51c-4.25-2.55-6.39-6.49-7.12-11.27a84.57,84.57,0,0,1-.63-12.53c-.06-8.08-.14-16.17.13-24.26a35.41,35.41,0,0,1,1-8.57c1.73-6.12,5.82-9.69,12-10.94,4.41-.89,8.9-.77,13.36-.81,8.14-.07,16.29-.15,24.43.13a36,36,0,0,1,8.4,1c6.21,1.72,9.8,5.84,11.08,12.06a59.78,59.78,0,0,1,.78,11.41C85.72,47.69,85.78,56.45,85.51,65.22Z"/><path class="cls-1" d="M73.25,21.56A5.2,5.2,0,1,1,68,26.76,5.16,5.16,0,0,1,73.25,21.56Z"/><path class="cls-1" d="M50,27.64A22.31,22.31,0,1,0,72.35,50,22.3,22.3,0,0,0,50,27.64ZM50,64.42A14.47,14.47,0,1,1,64.52,50,14.45,14.45,0,0,1,50,64.42Z"/></g><path class="cls-1" d="M86.5,3A10.51,10.51,0,0,1,97,13.5v73A10.51,10.51,0,0,1,86.5,97h-73A10.51,10.51,0,0,1,3,86.5v-73A10.51,10.51,0,0,1,13.5,3h73m0-3h-73A13.49,13.49,0,0,0,0,13.5v73A13.49,13.49,0,0,0,13.5,100h73A13.49,13.49,0,0,0,100,86.5v-73A13.49,13.49,0,0,0,86.5,0Z"/></svg>