<svg id="Layer_1" data-name="Layer 1" xmlns="http://www.w3.org/2000/svg" viewBox="0 0 100 100"><defs><style>.cls-1{fill:#fff;}</style></defs><title>pinterest_branco-100x100</title><path id="pinterest" class="cls-1" d="M44.91,63.82C44,67.38,43,70.74,42.3,74.16c-1.45,7-4.79,13-8.89,18.6-.39.54-.68,1.54-1.57,1.22-.7-.25-.54-1.15-.62-1.79a58.16,58.16,0,0,1,1.36-22.4c1.83-7,3.31-14.18,5-21.27a5,5,0,0,0-.14-2.79c-1.63-5.29-1.69-10.48,1.35-15.33a8.21,8.21,0,0,1,6.68-4.17,6.21,6.21,0,0,1,6.74,5.22,14.92,14.92,0,0,1-.52,7.21c-1,3.87-2.09,7.73-3.23,11.57-1,3.36-.78,6.43,1.94,8.86s6,2.59,9.36,1.32a13.31,13.31,0,0,0,6.66-5.92,35.86,35.86,0,0,0,4.63-24.15A16.07,16.07,0,0,0,58.9,16.48c-10.19-2.85-19.49-1.17-26.66,7.32a22.43,22.43,0,0,0-4.76,20.48,10.57,10.57,0,0,0,2.28,4.47,3.82,3.82,0,0,1,.76,4.07c-.3.85-.45,1.75-.68,2.63-.52,1.94-1.41,2.34-3.19,1.48-4.28-2.09-6.83-5.66-8.19-10.17A29.86,29.86,0,0,1,28.71,14.59c11.9-9,24.93-10.48,38.49-4.53,11.32,5,17.72,17.39,16.17,29.83-.75,6-2,11.8-5.14,17C73.59,64.77,67,69.42,57.81,69.83,52.48,70.07,48.4,68.13,44.91,63.82Z"/><path class="cls-1" d="M86.5,3A10.51,10.51,0,0,1,97,13.5v73A10.51,10.51,0,0,1,86.5,97h-73A10.51,10.51,0,0,1,3,86.5v-73A10.51,10.51,0,0,1,13.5,3h73m0-3h-73A13.49,13.49,0,0,0,0,13.5v73A13.49,13.49,0,0,0,13.5,100h73A13.49,13.49,0,0,0,100,86.5v-73A13.49,13.49,0,0,0,86.5,0Z"/></svg>