<svg id="Layer_1" data-name="Layer 1" xmlns="http://www.w3.org/2000/svg" viewBox="0 0 100 100"><defs><style>.cls-1{fill:#fff;}</style></defs><title>youtube_branco-100x100</title><path id="youtube" class="cls-1" d="M93.68,40.49a15.36,15.36,0,0,1-.15-2.62,34.83,34.83,0,0,0-1.15-8.51c-1.29-4.93-4.44-7.95-9.54-8.75-1.82-.28-3.67-.4-5.51-.53-5.12-.36-10.25-.64-15.39-.65-6.85,0-13.7,0-20.54,0-2.87,0-5.73,0-8.61.11-4.82.22-9.63.44-14.44.9-4.48.43-7.84,2.48-9.85,6.57a18.7,18.7,0,0,0-1.34,4.92,67.55,67.55,0,0,0-.84,12.3c-.05,5.31,0,10.62.07,15.93A49.69,49.69,0,0,0,7.64,70.56a11.14,11.14,0,0,0,9.61,8.9c1.82.28,3.67.39,5.51.53,4.75.36,9.51.6,14.28.64,5.77.05,11.54,0,17.3,0s11.3,0,17-.3c3.54-.2,7.08-.44,10.62-.74a11.29,11.29,0,0,0,10.36-8.48,35.78,35.78,0,0,0,1.16-7.05c.12-1.5,0-3,.25-4.49V58.9c-.11-.11-.08-.26-.08-.39V56.56c0-.13,0-.28.08-.39v-.68a5.88,5.88,0,0,1-.08-1.57V52.76a8.32,8.32,0,0,1,.08-1.87V48.5a9.93,9.93,0,0,1-.08-2,8.44,8.44,0,0,1,.08-1.88V43.9c-.11-.11-.08-.26-.08-.4V41.56c0-.14,0-.28.08-.39ZM38.81,63.56V34.74L66.52,49.19Z"/><path class="cls-1" d="M86.5,3A10.51,10.51,0,0,1,97,13.5v73A10.51,10.51,0,0,1,86.5,97h-73A10.51,10.51,0,0,1,3,86.5v-73A10.51,10.51,0,0,1,13.5,3h73m0-3h-73A13.49,13.49,0,0,0,0,13.5v73A13.49,13.49,0,0,0,13.5,100h73A13.49,13.49,0,0,0,100,86.5v-73A13.49,13.49,0,0,0,86.5,0Z"/></svg>