<?xml version="1.0" encoding="utf-8"?>
<!-- Generator: Adobe Illustrator 23.0.3, SVG Export Plug-In . SVG Version: 6.00 Build 0)  -->
<svg version="1.1" id="Layer_1" xmlns="http://www.w3.org/2000/svg" xmlns:xlink="http://www.w3.org/1999/xlink" x="0px" y="0px"
	 viewBox="0 0 1558 200" style="enable-background:new 0 0 1558 200;" xml:space="preserve">
<style type="text/css">
	.st0{fill:#1877F2;}
	.st1{fill:#FFFFFF;}
	.st2{font-family:'FacebookSans-Regular';}
	.st3{font-size:168px;}
	.st4{letter-spacing:-2;}
</style>
<g>
	<g>
		<g>
			<path class="st0" d="M1556.3,100c0-53.8-43.7-97.5-97.5-97.5s-97.5,43.7-97.5,97.5c0,48.7,35.7,89,82.3,96.3v-68.2h-24.9V99.9
				h24.9V78.4c0-24.4,14.5-38,36.7-38c10.7,0,21.7,2.1,21.7,2.1v23.8h-12.2c-12.1,0-16,7.6-16,15.3v18.3h27.1l-4.3,28.2h-22.7v68.2
				C1520.6,189,1556.3,148.6,1556.3,100"/>
			<path class="st1" d="M1496.7,128.1l4.3-28.2h-27.1V81.7c0-7.7,3.9-15.3,16-15.3h12.2V42.6c0,0-11.1-2.1-21.7-2.1
				c-22.3,0-36.7,13.6-36.7,38V100h-24.9v28.2h24.9v68.2c4.9,0.8,10,1.2,15.2,1.2s10.2-0.4,15.2-1.2v-68.2L1496.7,128.1
				L1496.7,128.1z"/>
		</g>
	</g>
	<g>
		<text transform="matrix(1 0 0 1 -7.8867 168.3003)" class="st0 st2 st3 st4">Encontra-nos no</text>
	</g>
</g>
</svg>
