<?xml version="1.0" encoding="UTF-8" standalone="no"?>
<!-- Created with Inkscape (http://www.inkscape.org/) -->

<svg
   xmlns:dc="http://purl.org/dc/elements/1.1/"
   xmlns:cc="http://creativecommons.org/ns#"
   xmlns:rdf="http://www.w3.org/1999/02/22-rdf-syntax-ns#"
   xmlns:svg="http://www.w3.org/2000/svg"
   xmlns="http://www.w3.org/2000/svg"
   xmlns:sodipodi="http://sodipodi.sourceforge.net/DTD/sodipodi-0.dtd"
   xmlns:inkscape="http://www.inkscape.org/namespaces/inkscape"
   width="179.87354mm"
   height="58.175987mm"
   viewBox="0 0 179.87354 58.175987"
   version="1.1"
   id="svg8"
   inkscape:version="0.92.4 (5da689c313, 2019-01-14)"
   sodipodi:docname="social_01.svg">
  <defs
     id="defs2" />
  <sodipodi:namedview
     id="base"
     pagecolor="#ffffff"
     bordercolor="#666666"
     borderopacity="1.0"
     inkscape:pageopacity="0.0"
     inkscape:pageshadow="2"
     inkscape:zoom="0.35"
     inkscape:cx="-130"
     inkscape:cy="-260.15135"
     inkscape:document-units="mm"
     inkscape:current-layer="layer1"
     showgrid="false"
     fit-margin-top="0"
     fit-margin-left="0"
     fit-margin-right="0"
     fit-margin-bottom="0"
     inkscape:snap-text-baseline="false"
     inkscape:window-width="1600"
     inkscape:window-height="837"
     inkscape:window-x="-8"
     inkscape:window-y="-8"
     inkscape:window-maximized="1" />
  <metadata
     id="metadata5">
    <rdf:RDF>
      <cc:Work
         rdf:about="">
        <dc:format>image/svg+xml</dc:format>
        <dc:type
           rdf:resource="http://purl.org/dc/dcmitype/StillImage" />
        <dc:title></dc:title>
      </cc:Work>
    </rdf:RDF>
  </metadata>
  <g
     inkscape:label="Layer 1"
     inkscape:groupmode="layer"
     id="layer1"
     transform="translate(-27.214287,-21.825635)">
    <path
       inkscape:connector-curvature="0"
       id="path828"
       d="m 34.110339,79.729765 c -0.07026,-0.20265 -0.368054,-2.57111 -0.661759,-5.26324 -0.609735,-5.5889 -2.428177,-21.66513 -4.010352,-35.45417 -0.592753,-5.16599 -1.222224,-10.7024 -1.398824,-12.30313 -0.1766,-1.60073 -0.38822,-2.73182 -0.470266,-2.51354 -0.08205,0.21828 -0.195453,-0.22568 -0.252014,-0.98659 l -0.102837,-1.38346 3.174999,0.16679 c 1.74625,0.0917 3.234532,0.24368 3.307292,0.33765 0.138892,0.17938 4.456373,0.45245 44.185414,2.79461 13.460675,0.79355 28.224428,1.68342 32.808338,1.97749 4.58391,0.29407 23.69344,1.42672 42.46562,2.517 30.58262,1.77623 39.56229,2.31567 50.27083,3.01996 1.74625,0.11484 3.30396,0.16194 3.46158,0.10465 0.18075,-0.0657 0.24308,0.19213 0.1688,0.69826 -0.0648,0.44132 -0.19994,0.75162 -0.30037,0.68955 -0.10043,-0.0621 -0.99505,5.20767 -1.98805,11.71052 -0.99299,6.50285 -2.36307,15.48168 -3.04462,19.95296 -0.68155,4.47128 -1.32442,8.21485 -1.42861,8.31903 -0.19866,0.19867 -3.09623,0.32069 -23.85623,1.00463 -6.985,0.23012 -17.87921,0.59307 -24.20937,0.80657 -6.33016,0.21348 -18.77219,0.62796 -27.64896,0.92106 -8.87677,0.29309 -25.009733,0.82639 -35.851042,1.1851 -10.841301,0.35871 -23.819113,0.78055 -28.839581,0.93743 -11.863653,0.37072 -21.048627,0.74342 -23.60789,0.95795 -1.623634,0.1361 -2.070639,0.0955 -2.172098,-0.19708 z"
       style="fill:#fd6462;stroke-width:0.26458332" />
  </g>
</svg>
