<?xml version="1.0" encoding="utf-8"?>
<!-- Generator: Adobe Illustrator 22.0.0, SVG Export Plug-In . SVG Version: 6.00 Build 0)  -->
<svg version="1.1" id="Layer_1" xmlns="http://www.w3.org/2000/svg" xmlns:xlink="http://www.w3.org/1999/xlink" x="0px" y="0px"
	 viewBox="0 0 110 210" style="enable-background:new 0 0 110 210;" xml:space="preserve">
<style type="text/css">
	.st0{display:none;}
	.st1{display:inline;}
	.st2{display:inline;fill:#EBEDED;}
	.st3{fill:#16484E;}
	.st4{display:inline;fill:#16484E;}
	.st5{fill:#FF0B0B;}
	.st6{fill:#FFFFFF;}
	.st7{display:inline;opacity:0.5;fill:#16484E;}
	.st8{opacity:0.5;fill:#16484E;}
</style>
<g id="_x30_14" class="st0">
	<g id="_x30_06_2_" class="st1">
		<g class="st0">
			<path class="st2" d="M87.9,62.2v-4.9c-3.8,1.3-7.5,2.6-11.2,3.8c-6.8,2.3-13.6,4.6-20.4,7c-0.8,0.3-1.5,0.5-2.4,0.2
				C45,65.2,36,62.2,27.1,59.1c-0.5-0.2-1.1,0.2-1.1,0.8l0,4.8c0,0.1,0,0.3,0,0.5c-0.1,5.8,0,11.7-0.1,17.6c0,1.3,0.4,2.3,1.3,3.3
				c14.2,15.6,41,15.8,55.4,0.3c0.8-0.9,1.1-1.8,1.1-3c0-4.8,0-9.5,0-14.3c0-0.7-0.6-1.1-1.3-0.9l-3.3,1.2c0,4.4,0,8.7,0,13
				c0,0.7-0.3,1.1-0.8,1.6c-12.9,12.4-34.1,12.3-46.8-0.2c-0.7-0.7-1.1-1.3-1.1-2.3c0.1-4.9,0.1-9.9,0-14.9c0-1.3,0.3-1.5,1.5-1
				c6.8,2.4,13.6,4.6,20.4,7c1.7,0.6,3.3,0.6,5,0c7.1-2.5,14.3-4.9,21.8-7.5c0,0,0,0,0,0l5.2-1.8c0,0,0,0,0,0c0.3-0.1,0.7-0.2,1-0.3
				l0.1,0v0C86.2,62.7,87.1,62.5,87.9,62.2z"/>
			<path class="st2" d="M101.8,51.6c-14.5-4.8-28.9-9.9-43.4-14.7c-1.4-0.5-2.8-0.9-4.3-0.5c-0.4,0.1-0.7,0.3-1.1,0.4
				C37.8,42,22.6,47.1,7.5,52.3C6.2,52.7,5,53.2,5,54.8c0,1.6,1.2,2.1,2.5,2.5c4.9,1.6,9.7,3.3,14.6,5l0.1-4.8
				c-2.1-0.7-4.1-1.4-6.2-2.1c-0.4-0.1-0.8-0.3-1.5-0.6c5.9-2,11.6-4,17.2-5.9c7.1-2.4,14.2-4.8,21.3-7.3c1.2-0.4,2.3-0.4,3.5,0
				c12.2,4.2,24.5,8.4,36.8,12.6c0.5,0.2,1,0.3,1.9,0.7c-0.5,0.2-1,0.3-1.5,0.5c-0.8,0.3-1.4,1.1-1.4,1.9l0,3.8
				c0.1,0.1,0.1,0.3,0.1,0.5c-0.5,3.9,1.2,8.1-1.1,11.8C91,73.8,91.1,74.4,91,75c0,2.8,0,5.7,0,8.5c0,2.4,1.4,3.8,3.6,3.9
				c2.3,0,3.8-1.5,3.8-3.9c0-2.9,0-5.8,0-8.7c0-0.6,0-1.3-0.4-1.7C96.7,71.7,97,70,97,68.3c0-2.3,0.1-4.5,0-6.7
				c-0.1-1.8,0.4-2.7,2.2-3.2c1.9-0.6,4.1-0.7,5.5-2.6c0.1-0.3,0.1-0.6,0.2-0.9C104.6,52.8,103.3,52.1,101.8,51.6z"/>
		</g>
		<g>
			<path class="st3" d="M87.9,62.2v-1c0-1.9-1.9-3.2-3.7-2.6c-2.5,0.9-5,1.7-7.5,2.6c-6.8,2.3-13.6,4.6-20.4,7
				c-0.8,0.3-1.5,0.5-2.4,0.2C45,65.2,36,62.2,27.1,59.1c-0.5-0.2-1.1,0.2-1.1,0.8l0,4.8c0,0.1,0,0.3,0,0.5
				c-0.1,5.8,0,11.7-0.1,17.6c0,1.3,0.4,2.3,1.3,3.3c14.2,15.6,41,15.8,55.4,0.3c0.8-0.9,1.1-1.8,1.1-3c0-4.8,0-9.5,0-14.3
				c0-0.7-0.6-1.1-1.3-0.9l-3.3,1.2c0,4.4,0,8.7,0,13c0,0.7-0.3,1.1-0.8,1.6c-12.9,12.4-34.1,12.3-46.8-0.2
				c-0.7-0.7-1.1-1.3-1.1-2.3c0.1-4.9,0.1-9.9,0-14.9c0-1.3,0.3-1.5,1.5-1c6.8,2.4,13.6,4.6,20.4,7c1.7,0.6,3.3,0.6,5,0
				c7.1-2.5,14.3-4.9,21.8-7.5c0,0,0,0,0,0l5.2-1.8c0,0,0,0,0,0c0.3-0.1,0.7-0.2,1-0.3l0.1,0v0C86.2,62.7,87.1,62.5,87.9,62.2z"/>
			<path class="st3" d="M5,54.8c0,1.6,1.2,2.1,2.5,2.5c3.6,1.2,7.2,2.5,10.8,3.7c1.9,0.6,3.9-0.7,3.9-2.7l0-0.8
				c-2.1-0.7-4.1-1.4-6.2-2.1c-0.4-0.1-0.8-0.3-1.5-0.6c5.9-2,11.6-4,17.2-5.9c7.1-2.4,14.2-4.8,21.3-7.3c1.2-0.4,2.3-0.4,3.5,0
				c12.2,4.2,24.5,8.4,36.8,12.6c0.5,0.2,1,0.3,1.9,0.7c-0.5,0.2-1,0.3-1.5,0.5c-0.8,0.3-1.4,1.1-1.4,1.9l0,3.8
				c0.1,0.1,0.1,0.3,0.1,0.5c-0.5,3.9,1.2,8.1-1.1,11.8C91,73.8,91.1,74.4,91,75c0,2.8,0,5.7,0,8.5c0,2.4,1.4,3.8,3.6,3.9
				c2.3,0,3.8-1.5,3.8-3.9c0-2.9,0-5.8,0-8.7c0-0.6,0-1.3-0.4-1.7C96.7,71.7,97,70,97,68.3c0-2.3,0.1-4.5,0-6.7
				c-0.1-1.8,0.4-2.7,2.2-3.2c1.9-0.6,4.1-0.7,5.5-2.6c0.1-0.3,0.1-0.6,0.2-0.9c-0.3-2-1.6-2.7-3-3.2c-14.5-4.8-28.9-9.9-43.4-14.7
				c-1.4-0.5-2.8-0.9-4.3-0.5c-0.4,0.1-0.7,0.3-1.1,0.4C37.8,42,22.6,47.1,7.5,52.3C6.2,52.7,5,53.2,5,54.8"/>
		</g>
	</g>
	<path class="st4" d="M77,127.9c-2.5,3.1-6,3.9-6.9,4C81,136.7,94.3,149,98,164.5c0.4,1.6-0.9,3.1-2.5,3.1H11.2
		c2.2-19.1,21-36.7,40.4-38.3c1.1,0.1,2.2,0.2,3.3,0.2c16.7,0,30.2-13.5,30.2-30.2c0-3.1-0.5-6.1-1.3-8.9c-1.1,1.4-2.6,3.1-4.8,4.7
		c0.2,1.4,0.4,2.8,0.4,4.2c0,13.5-10.9,24.4-24.4,24.4s-24.4-10.9-24.4-24.4c0-1.2,0.1-2.5,0.3-3.7c-2.2-1.1-3.9-2.5-5.2-3.7
		c-0.6,2.3-0.9,4.8-0.9,7.3c0,11.1,6,20.8,15,26.1c-19.9,6.8-35.1,25.8-34.8,48c0,0.2,0,0.4,0,0.6h0.6h5.4h88h3.6h1.3
		c0.7,0,1.2-0.5,1.2-1.2c0,0,0,0,0,0C105,153.1,93.6,136,77,127.9z"/>
</g>
<g id="_x30_15" class="st0">
	<path class="st4" d="M105,83.5V75c0-1.7-1.4-3.1-3.1-3.1H8.1C6.4,71.9,5,73.3,5,75v8.6H105z"/>
	<rect x="78.8" y="121.7" class="st4" width="22.3" height="11.7"/>
	<g class="st1">
		<path class="st3" d="M13.4,132.2c-1.7-0.7-3-1.6-3.9-2.8c-0.9-1.2-1.4-2.5-1.4-4c0-1.1,0.3-2.1,0.9-2.9c0.6-0.8,1.3-1.2,2.2-1.2
			c0.6,0,1,0.2,1.4,0.5c0.4,0.4,0.6,0.8,0.6,1.4c0,0.6-0.3,1.3-0.9,2.1c-0.3,0.5-0.6,0.9-0.7,1.2c-0.1,0.3-0.2,0.6-0.2,1
			c0,0.9,0.3,1.8,0.9,2.6c0.6,0.8,1.4,1.4,2.4,1.8c1,0.4,2.1,0.6,3.5,0.6h0.2v-16.7l-1.5-0.8c-1.4-0.8-2.4-1.5-3.2-2
			c-0.7-0.5-1.4-1.1-2-1.7c-1.5-1.7-2.3-3.6-2.3-5.8c0-1.4,0.3-2.6,1-3.8c0.6-1.2,1.5-2.1,2.7-2.9c1.5-0.9,3.2-1.4,5.2-1.6v-3.9H5
			v40.9c0,1.7,1.4,3.1,3.1,3.1h10.2v-4.1C16.7,133.2,15.1,132.9,13.4,132.2z"/>
		<path class="st3" d="M22.8,131.4c0.7-0.6,1.3-1.4,1.8-2.5c0.4-1.1,0.7-2.2,0.7-3.4c0-3.4-1.9-6.4-5.8-8.9v16
			c0.8-0.1,1.4-0.2,1.9-0.4C21.9,132,22.4,131.7,22.8,131.4z"/>
		<path class="st3" d="M13.3,100.5c-0.5,1-0.8,2-0.8,3.2c0,1.4,0.4,2.7,1.2,3.8c0.4,0.6,0.9,1.2,1.5,1.6c0.6,0.4,1.5,1.1,2.9,1.9
			l0.3,0.2V97.8c-1.2,0.1-2.1,0.3-2.9,0.6C14.5,98.9,13.8,99.6,13.3,100.5z"/>
		<path class="st3" d="M19.5,93.4v3.9c1.8,0.1,3.3,0.5,4.7,1.2c1.1,0.6,2,1.3,2.7,2.2c0.6,0.9,1,2,1,3.1c0,0.9-0.3,1.6-0.8,2.2
			c-0.5,0.6-1.1,0.9-1.9,0.9c-0.6,0-1-0.2-1.4-0.6c-0.4-0.4-0.6-0.9-0.6-1.5c0-0.4,0.1-0.7,0.2-1.1l0.5-1c0.2-0.4,0.2-0.8,0.2-1.3
			c0-0.7-0.2-1.3-0.6-1.9c-0.4-0.5-1-0.9-1.7-1.2c-0.6-0.2-1.4-0.4-2.3-0.5v14l0.3,0.2c3.1,1.8,5.2,3.4,6.5,4.9c0.8,1,1.5,2.1,2,3.3
			c0.5,1.2,0.7,2.4,0.7,3.7c0,1.7-0.4,3.3-1.2,4.6c-0.8,1.4-2,2.5-3.4,3.2c-1.4,0.7-3,1.2-4.8,1.4v4.2h82.5c1.7,0,3.1-1.4,3.1-3.1
			V93.4H19.5z M101.8,134H78.3v-12.9h23.5V134z"/>
	</g>
</g>
<g id="_x30_16" class="st0">
	<g class="st1">
		<g>
			<g>
				<path class="st5" d="M17.1,69.8c0,2.9-0.5,4.7-3.1,4.7h-0.6c-0.3,0-0.6,0.3-0.6,0.7v1.6c0,0.4-0.3,0.7-0.7,0.7h-0.2
					c-0.4,0-0.7-0.3-0.7-0.7V66c0-0.4,0.3-0.7,0.7-0.7h2C16.1,65.3,17.1,66.6,17.1,69.8z M15.5,69.8c0-2.9-0.7-2.9-1.6-2.9h-0.5
					c-0.3,0-0.5,0.3-0.5,0.7v4.6c0,0.4,0.3,0.7,0.6,0.7H14C14.9,73,15.5,73,15.5,69.8z"/>
				<path class="st5" d="M22.5,77.6H22c-0.4,0-0.9-0.3-1.1-0.6l-1.2-1.8c-0.2-0.3-0.5-0.6-0.7-0.6c-0.1,0-0.3,0.3-0.3,0.7v1.6
					c0,0.4-0.3,0.7-0.7,0.7H18c-0.4,0-0.7-0.3-0.7-0.7V66c0-0.4,0.3-0.7,0.7-0.7h2c2.1,0,3.3,2.4,3.3,4.8c0,1.1-0.2,2.1-0.7,2.9
					c-0.2,0.4-0.5,0.7-0.8,0.9c-0.3,0.3-0.4,0.6-0.2,1l1.3,2.1C23.1,77.3,22.9,77.6,22.5,77.6z M21.1,72.2c0.3-0.5,0.5-1.3,0.5-2.1
					c0-1.6-0.6-3.2-1.6-3.2h-0.5c-0.3,0-0.5,0.3-0.5,0.7v4.6c0,0.4,0.3,0.7,0.6,0.7h0.6C20.3,73,20.7,73,21.1,72.2z"/>
				<path class="st5" d="M31.3,71.4c0,4.2-1.2,6.3-3.7,6.3S24,75.6,24,71.4c0-4.2,1.2-6.3,3.7-6.3S31.3,67.2,31.3,71.4z M29.7,71.4
					c0-4.7-1.5-4.7-2.1-4.7c-0.6,0-2.1,0-2.1,4.7c0,4.7,1.6,4.7,2.1,4.7C28.1,76.1,29.7,76.1,29.7,71.4z"/>
				<path class="st5" d="M38.9,77.6h-0.4c-0.4,0-0.8-0.3-1-0.6L36,73.6c-0.2-0.4-0.4-0.4-0.6,0l-1.5,3.4c-0.2,0.4-0.6,0.6-1,0.6
					h-0.4c-0.4,0-0.6-0.3-0.4-0.6l2.4-5.3c0.2-0.4,0.2-0.9,0-1.3l-2-4.4c-0.2-0.4,0-0.6,0.4-0.6h0.4c0.4,0,0.8,0.3,1,0.6l1.1,2.5
					c0.2,0.4,0.4,0.4,0.6,0l1.1-2.5c0.2-0.4,0.6-0.6,1-0.6h0.4c0.4,0,0.6,0.3,0.4,0.6l-2,4.4c-0.2,0.4-0.2,0.9,0,1.3l2.4,5.3
					C39.5,77.3,39.3,77.6,38.9,77.6z"/>
				<path class="st5" d="M41.8,66v10.9c0,0.4-0.3,0.7-0.7,0.7h-0.2c-0.4,0-0.7-0.3-0.7-0.7V66c0-0.4,0.3-0.7,0.7-0.7h0.2
					C41.5,65.3,41.8,65.6,41.8,66z"/>
				<path class="st5" d="M49.7,66v10.9c0,0.4-0.3,0.7-0.7,0.7h-0.2c-0.4,0-0.7-0.3-0.7-0.7v-5.5c0-0.4-0.1-0.4-0.3,0l-1.5,4.2
					c-0.1,0.4-0.3,0.4-0.5,0l-1.5-4.1c-0.1-0.4-0.2-0.4-0.2,0v5.4c0,0.4-0.3,0.7-0.7,0.7h-0.2c-0.4,0-0.7-0.3-0.7-0.7V66
					c0-0.4,0.3-0.7,0.7-0.7c0.4,0,0.8,0.3,0.9,0.6l1.7,4.8c0.1,0.4,0.3,0.4,0.5,0l1.8-4.8c0.1-0.4,0.5-0.6,0.9-0.6
					C49.4,65.3,49.7,65.6,49.7,66z"/>
				<path class="st5" d="M57.7,77.6h-0.3c-0.4,0-0.8-0.3-0.9-0.7l-0.3-1.3c-0.1-0.4-0.5-0.7-0.9-0.7h-1.9c-0.4,0-0.8,0.3-0.9,0.7
					l-0.4,1.3c-0.1,0.4-0.5,0.7-0.9,0.7H51c-0.4,0-0.6-0.3-0.5-0.7l3.1-11.1c0.1-0.4,0.5-0.7,0.8-0.7c0.3,0,0.7,0.3,0.8,0.7l3,11.1
					C58.3,77.3,58.1,77.6,57.7,77.6z M55.4,72.6l-0.8-3c-0.1-0.4-0.3-0.4-0.4,0l-0.8,3c-0.1,0.4,0.1,0.7,0.5,0.7h1
					C55.3,73.3,55.5,73,55.4,72.6z"/>
				<path class="st5" d="M68.1,66v0.2c0,0.4-0.3,0.7-0.7,0.7h-0.7c-0.4,0-0.7,0.3-0.7,0.7v9.3c0,0.4-0.3,0.7-0.7,0.7h-0.2
					c-0.4,0-0.7-0.3-0.7-0.7v-9.3c0-0.4-0.3-0.7-0.7-0.7h-0.7c-0.4,0-0.7-0.3-0.7-0.7V66c0-0.4,0.3-0.7,0.7-0.7h4.4
					C67.8,65.3,68.1,65.6,68.1,66z"/>
				<path class="st5" d="M75,66v5.6c0,4.2-0.3,6.1-3,6.1c-2.6,0-3-2.1-3-6.1V66c0-0.4,0.3-0.7,0.7-0.7h0.2c0.4,0,0.7,0.3,0.7,0.7
					v5.6c0,4.5,0.6,4.5,1.4,4.5c1,0,1.4,0,1.4-4.5V66c0-0.4,0.3-0.7,0.7-0.7h0.2C74.7,65.3,75,65.6,75,66z"/>
				<path class="st5" d="M81,77.6h-0.5c-0.4,0-0.9-0.3-1.1-0.6l-1.2-1.8c-0.2-0.3-0.5-0.6-0.7-0.6c-0.1,0-0.3,0.3-0.3,0.7v1.6
					c0,0.4-0.3,0.7-0.7,0.7h-0.2c-0.4,0-0.7-0.3-0.7-0.7V66c0-0.4,0.3-0.7,0.7-0.7h2c2.1,0,3.3,2.4,3.3,4.8c0,1.1-0.2,2.1-0.7,2.9
					c-0.2,0.4-0.5,0.7-0.8,0.9c-0.3,0.3-0.4,0.6-0.2,1l1.3,2.1C81.6,77.3,81.4,77.6,81,77.6z M79.6,72.2c0.3-0.5,0.5-1.3,0.5-2.1
					c0-1.6-0.6-3.2-1.6-3.2h-0.5c-0.3,0-0.5,0.3-0.5,0.7v4.6c0,0.4,0.3,0.7,0.6,0.7h0.6C78.8,73,79.2,73,79.6,72.2z"/>
				<path class="st5" d="M89.6,66v10.9c0,0.4-0.3,0.7-0.7,0.7h-0.2c-0.4,0-0.7-0.3-0.7-0.7v-5.5c0-0.4-0.1-0.4-0.3,0l-1.5,4.2
					c-0.1,0.4-0.3,0.4-0.5,0l-1.5-4.1c-0.1-0.4-0.2-0.4-0.2,0v5.4c0,0.4-0.3,0.7-0.7,0.7h-0.2c-0.4,0-0.7-0.3-0.7-0.7V66
					c0-0.4,0.3-0.7,0.7-0.7c0.4,0,0.8,0.3,0.9,0.6l1.7,4.8c0.1,0.4,0.3,0.4,0.5,0l1.8-4.8c0.1-0.4,0.5-0.6,0.9-0.6
					C89.3,65.3,89.6,65.6,89.6,66z"/>
				<path class="st5" d="M97.6,77.6h-0.3c-0.4,0-0.8-0.3-0.9-0.7l-0.3-1.3c-0.1-0.4-0.5-0.7-0.9-0.7h-1.9c-0.4,0-0.8,0.3-0.9,0.7
					l-0.4,1.3c-0.1,0.4-0.5,0.7-0.9,0.7H91c-0.4,0-0.6-0.3-0.5-0.7l3.1-11.1c0.1-0.4,0.5-0.7,0.8-0.7c0.3,0,0.7,0.3,0.8,0.7l3,11.1
					C98.2,77.3,98,77.6,97.6,77.6z M95.3,72.6l-0.8-3c-0.1-0.4-0.3-0.4-0.4,0l-0.8,3c-0.1,0.4,0.1,0.7,0.5,0.7h1
					C95.2,73.3,95.4,73,95.3,72.6z"/>
			</g>
			<g>
				<path class="st5" d="M27,110.3v0.6c0,0.9-0.7,1.7-1.6,1.7H12c-0.9,0-1.1-0.5-0.5-1.2l2-2.1c2.7-2.8,9.9-11.4,9.9-16.8
					c0-3.4-1.7-5.2-3.3-5.2c-0.7,0-1.3,0.3-1.8,0.9c-0.3,0.4-0.7,1.1-0.9,2.2c-0.2,0.9-0.9,1.6-1.8,1.6H15c-0.9,0-1.6-0.7-1.5-1.6
					c0.2-1.9,0.8-3.4,1.8-4.6c1.2-1.5,2.9-2.4,4.8-2.4c1.9,0,3.7,0.9,5,2.5c1.4,1.7,2.1,3.9,2.1,6.6c0,4.9-3.8,10.9-7,14.9
					c-0.5,0.7-0.3,1.3,0.6,1.3h4.5C26.2,108.7,27,109.4,27,110.3z"/>
				<path class="st5" d="M44,92.5c0,0.3,0,0.6,0,0.8c0,3.1-1.8,7.7-5.4,13.7c-0.8,1.5-1.7,2.9-2.5,4.1c-0.5,0.7-1.6,1.4-2.6,1.4
					h-1.4c-0.9,0-1.2-0.6-0.7-1.4c1.4-2,3.1-4.7,4.7-7.5c0.4-0.8,0.7-1.4,0.5-1.4h-0.2c-4.2,0-7.5-4.3-7.5-9.7
					c0-5.4,3.2-9.7,7.5-9.7C40.7,82.9,44,87.1,44,92.5z M40.1,92.5c0-3.1-1.6-5.8-3.6-5.8c-2,0-3.7,2.6-3.7,5.8
					c0,3.1,1.7,5.8,3.7,5.8C38.5,98.3,40.1,95.7,40.1,92.5z"/>
				<path class="st5" d="M62.5,81.7l-12.4,31.8c-0.3,0.9-1.3,1.6-2.2,1.6H47c-0.9,0-1.4-0.7-1.1-1.6l12.4-31.8
					c0.3-0.9,1.3-1.5,2.2-1.5h0.8C62.4,80.2,62.8,80.9,62.5,81.7z"/>
				<path class="st5" d="M81.4,97.9c0,3.7,0,14.8-8.5,14.8c-8.5,0-8.5-11.2-8.5-14.8c0-3.7,0-14.8,8.5-14.8
					C81.4,83,81.4,94.2,81.4,97.9z M77.5,97.9c0-11-3.4-11-4.7-11c-1.2,0-4.6,0-4.6,11c0,11,3.4,11,4.6,11
					C74.1,108.8,77.5,108.8,77.5,97.9z"/>
				<path class="st5" d="M98.2,103.2c0,5.4-3.3,9.7-7.5,9.7c-4.2,0-7.5-4.3-7.5-9.7v-0.7c0-4.6,3.9-12.5,6.8-17.9
					c0.5-0.8,1.6-1.4,2.5-1.4h1.1c0.9,0,1.2,0.6,0.8,1.4c-1.2,2.2-2.7,4.9-3.9,7.5c-0.4,0.8-0.5,1.4-0.3,1.4h0.5
					C94.9,93.6,98.2,97.8,98.2,103.2z M94.3,103.2c0-3.1-1.6-5.8-3.6-5.8c-2,0-3.7,2.7-3.7,5.8c0,3.1,1.7,5.8,3.7,5.8
					C92.7,109,94.3,106.3,94.3,103.2z"/>
			</g>
		</g>
		<g>
			<polygon class="st5" points="7.8,80.6 7.8,61.3 27.4,61.3 27.4,58.5 5,58.5 5,80.6 			"/>
			<polygon class="st5" points="7.8,96.7 5,96.7 5,118.8 27.4,118.8 27.4,116 7.8,116 			"/>
			<polygon class="st5" points="101.8,80.6 104.6,80.6 104.6,58.5 82.2,58.5 82.2,61.3 101.8,61.3 			"/>
			<polygon class="st5" points="101.8,96.7 101.8,116 82.2,116 82.2,118.8 104.6,118.8 104.6,96.7 			"/>
		</g>
	</g>
	<g class="st1">
		<path class="st5" d="M30,63.1l-2.3,1.6c-0.1,0-0.2,0.1-0.4,0.1h-0.2c-0.2,0-0.3,0-0.2-0.1l1.3-1.6c0.1,0,0.2-0.1,0.4-0.1h1.1
			C30,63.1,30,63.1,30,63.1z"/>
	</g>
	<g class="st1">
		<rect x="9.7" y="118.3" transform="matrix(0.979 -0.2037 0.2037 0.979 -25.2478 14.2718)" width="93.9" height="22.9"/>
		<g>
			<path class="st6" d="M21.6,131.6l1.2,5.4c0.9,4,1,5.9-1.6,6.5c-2.5,0.5-3.4-1.3-4.2-5.2l-1.2-5.4c-0.1-0.4,0.2-0.7,0.5-0.8l0.2,0
				c0.4-0.1,0.7,0.2,0.8,0.5l1.2,5.4c0.9,4.3,1.6,4.2,2.3,4c0.9-0.2,1.4-0.3,0.4-4.6l-1.2-5.4c-0.1-0.4,0.2-0.7,0.5-0.8l0.2,0
				C21.1,131,21.5,131.3,21.6,131.6z"/>
			<path class="st6" d="M28.8,140.8l0,0.2c0.1,0.4-0.2,0.7-0.5,0.8l-2.9,0.6c-0.4,0.1-0.7-0.2-0.8-0.5l-2.3-10.4
				c-0.1-0.4,0.2-0.7,0.5-0.8l0.2,0c0.4-0.1,0.7,0.2,0.8,0.5l1.9,8.9c0.1,0.4,0.4,0.6,0.8,0.5l1.4-0.3
				C28.4,140.1,28.8,140.4,28.8,140.8z"/>
			<path class="st6" d="M32.9,129.2l0,0.2c0.1,0.4-0.2,0.7-0.5,0.8l-0.7,0.1c-0.4,0.1-0.6,0.4-0.5,0.8l1.9,8.9
				c0.1,0.4-0.2,0.7-0.5,0.8l-0.2,0c-0.4,0.1-0.7-0.2-0.8-0.5l-1.9-8.9c-0.1-0.4-0.4-0.6-0.8-0.5l-0.7,0.1c-0.4,0.1-0.7-0.2-0.8-0.5
				l0-0.2c-0.1-0.4,0.2-0.7,0.5-0.8l4.2-0.9C32.5,128.6,32.8,128.8,32.9,129.2z"/>
			<path class="st6" d="M35.4,128.6l2.3,10.4c0.1,0.4-0.2,0.7-0.5,0.8l-0.2,0c-0.4,0.1-0.7-0.2-0.8-0.5L33.9,129
				c-0.1-0.4,0.2-0.7,0.5-0.8l0.2,0C35,128,35.3,128.3,35.4,128.6z"/>
			<path class="st6" d="M43.2,126.9l2.3,10.4c0.1,0.4-0.2,0.7-0.5,0.8l-0.2,0c-0.4,0.1-0.7-0.2-0.8-0.5l-1.2-5.3
				c-0.1-0.4-0.2-0.4-0.2,0l-0.6,4.3c-0.1,0.4-0.3,0.4-0.5,0.1l-2.3-3.6c-0.2-0.3-0.3-0.3-0.2,0.1l1.1,5.2c0.1,0.4-0.2,0.7-0.5,0.8
				l-0.2,0c-0.4,0.1-0.7-0.2-0.8-0.5l-2.3-10.4c-0.1-0.4,0.2-0.7,0.5-0.8c0.4-0.1,0.8,0.1,1,0.4l2.7,4.2c0.2,0.3,0.4,0.3,0.4-0.1
				l0.7-5c0.1-0.4,0.4-0.7,0.8-0.8C42.8,126.3,43.2,126.5,43.2,126.9z"/>
			<path class="st6" d="M53.4,136.4l-0.3,0.1c-0.4,0.1-0.8-0.1-1-0.4l-0.6-1.2c-0.2-0.3-0.6-0.5-1-0.5l-1.8,0.4
				c-0.4,0.1-0.7,0.5-0.7,0.8l-0.1,1.3c0,0.4-0.3,0.7-0.7,0.8l-0.3,0.1c-0.4,0.1-0.7-0.1-0.6-0.5L47,126c0-0.4,0.3-0.7,0.6-0.8
				c0.3-0.1,0.7,0.1,0.9,0.5l5.3,9.9C54,136,53.8,136.3,53.4,136.4z M50.1,132.2l-1.4-2.7c-0.2-0.3-0.3-0.3-0.4,0.1l-0.2,3
				c0,0.4,0.3,0.6,0.6,0.5l1-0.2C50.2,132.8,50.3,132.5,50.1,132.2z"/>
			<path class="st6" d="M59.6,132c0.4,1.8-0.5,3.2-2.3,3.6c-1.7,0.4-3.1-1-3.7-1.8c-0.2-0.3-0.1-0.7,0.2-0.9l0.2-0.1
				c0.3-0.2,0.7-0.1,1,0.2c0.4,0.5,1.2,1.2,2,1c0.9-0.2,1.3-0.8,1.1-1.8c-0.2-1.1-1.3-1.8-2.5-2.4c-1.2-0.7-2.6-1.5-3-3
				c-0.3-1.6,0.5-3,2-3.4c1.1-0.2,2.3,0.2,3,1.3c0.2,0.3,0.1,0.7-0.3,0.9l-0.2,0.1c-0.3,0.2-0.7,0-1-0.2c-0.3-0.3-0.7-0.6-1.3-0.5
				c-0.8,0.2-1,0.9-0.8,1.5c0.2,0.9,1.1,1.4,2.2,2C57.7,129.3,59.2,130.2,59.6,132z"/>
			<path class="st6" d="M67.6,121.6l0.5,10.8c0,0.4-0.3,0.8-0.6,0.8l-0.7,0.1c-0.4,0.1-0.8-0.1-0.9-0.5l-4-10
				c-0.2-0.4,0-0.7,0.4-0.8l0.2-0.1c0.4-0.1,0.8,0.1,0.9,0.5l2.7,6.7c0.1,0.4,0.2,0.3,0.2,0l-0.3-7.3c0-0.4,0.3-0.7,0.6-0.8l0.3-0.1
				C67.3,121,67.6,121.2,67.6,121.6z"/>
			<path class="st6" d="M76.7,131.3l-0.3,0.1c-0.4,0.1-0.8-0.1-1-0.4l-0.6-1.2c-0.2-0.3-0.6-0.5-1-0.5l-1.8,0.4
				c-0.4,0.1-0.7,0.5-0.7,0.8l-0.1,1.3c0,0.4-0.3,0.7-0.7,0.8l-0.3,0.1c-0.4,0.1-0.7-0.1-0.6-0.5l0.7-11.2c0-0.4,0.3-0.7,0.6-0.8
				c0.3-0.1,0.7,0.1,0.9,0.5l5.3,9.9C77.2,130.9,77,131.2,76.7,131.3z M73.4,127.1l-1.4-2.7c-0.2-0.3-0.3-0.3-0.4,0.1l-0.2,3
				c0,0.4,0.3,0.6,0.6,0.5l1-0.2C73.4,127.7,73.6,127.4,73.4,127.1z"/>
			<path class="st6" d="M82.8,123.8l0.8,3.5c0.1,0.4,0.2,0.7,0.1,0.7l0,0.1c-0.2,0.9-1.1,2-2.4,2.3c-3.4,0.7-4.8-2.4-5.4-5.2
				c-0.5-2.1-0.4-3.7,0.1-4.9c0.5-1.1,1.4-1.8,2.6-2c0.9-0.2,1.7,0,2.5,0.5c0.3,0.2,0.3,0.7,0,0.9l-0.1,0.2c-0.3,0.3-0.7,0.3-1,0.1
				c-0.3-0.2-0.7-0.2-1-0.1c-0.7,0.2-2.5,0.6-1.5,5c1,4.5,2.8,4.1,3.5,4c0.3-0.1,0.5-0.2,0.7-0.4c0.3-0.3,0.3-0.9,0.3-1.2l-0.3-1.6
				c-0.1-0.4-0.4-0.6-0.8-0.5l-0.3,0.1c-0.4,0.1-0.7-0.2-0.8-0.5l0-0.2c-0.1-0.4,0.2-0.7,0.5-0.8l1.8-0.4
				C82.3,123.2,82.7,123.4,82.8,123.8z"/>
			<path class="st6" d="M91.8,128l-0.3,0.1c-0.4,0.1-0.8-0.1-1-0.4l-0.6-1.2c-0.2-0.3-0.6-0.5-1-0.5l-1.8,0.4
				c-0.4,0.1-0.7,0.5-0.7,0.8l-0.1,1.3c0,0.4-0.3,0.7-0.7,0.8l-0.3,0.1c-0.4,0.1-0.7-0.1-0.6-0.5l0.7-11.2c0-0.4,0.3-0.7,0.6-0.8
				c0.3-0.1,0.7,0.1,0.9,0.5l5.3,9.9C92.3,127.6,92.2,127.9,91.8,128z M88.5,123.8l-1.4-2.7c-0.2-0.3-0.3-0.3-0.4,0.1l-0.2,3
				c0,0.4,0.3,0.6,0.6,0.5l1-0.2C88.5,124.4,88.7,124.1,88.5,123.8z"/>
			<path class="st6" d="M98,123.6c0.4,1.8-0.5,3.2-2.3,3.6c-1.7,0.4-3.1-1-3.7-1.8c-0.2-0.3-0.1-0.7,0.2-0.9l0.2-0.1
				c0.3-0.2,0.7-0.1,1,0.2c0.4,0.5,1.2,1.2,2,1c0.9-0.2,1.3-0.8,1.1-1.8c-0.2-1.1-1.3-1.8-2.5-2.4c-1.2-0.7-2.6-1.5-3-3
				c-0.3-1.6,0.5-3,2-3.4c1.1-0.2,2.3,0.2,3,1.3c0.2,0.3,0.1,0.7-0.3,0.9l-0.2,0.1c-0.3,0.2-0.7,0-1-0.2c-0.3-0.3-0.7-0.6-1.3-0.5
				c-0.8,0.2-1,0.9-0.8,1.5c0.2,0.9,1.1,1.4,2.2,2C96.1,120.9,97.6,121.7,98,123.6z"/>
		</g>
		<g>
			<path class="st6" d="M20.9,129l-2.3,1.6c-0.1,0-0.2,0.1-0.4,0.1H18c-0.2,0-0.3,0-0.2-0.1l1.3-1.6c0.1,0,0.2-0.1,0.4-0.1h1.1
				C20.8,128.9,20.9,129,20.9,129z"/>
		</g>
	</g>
</g>
<g class="st0">
	<path class="st7" d="M22.4,77.5v2h80.4v56.1H20.1v-30.7c-0.5,0.3-1.1,0.6-1.8,0.8V138H105V77.5H22.4z"/>
	<g class="st1">
		<path class="st3" d="M55.5,134.7h-10v-1.4h1.9V82h-1.9v-1.4h8.1v52.7h1.9V134.7z"/>
		<path class="st3" d="M77.4,127.1c0,2.2-0.9,4-2.7,5.6c-1.8,1.5-4,2.3-6.6,2.3c-2.5,0-4.7-0.8-6.5-2.3c-1.8-1.5-2.7-3.4-2.7-5.6
			v-13.9c0-3.3,1.8-5.7,5.4-7.2c-3.6-1.4-5.4-3.8-5.4-7.2V88.1c0-2.2,0.9-4,2.7-5.6c1.8-1.5,4-2.3,6.5-2.3c2.6,0,4.8,0.8,6.6,2.3
			c1.8,1.5,2.7,3.4,2.7,5.6v10.8c0,3.4-1.8,5.8-5.4,7.2c3.6,1.5,5.4,3.9,5.4,7.2V127.1z M71.2,102.3V84.7c0-0.9-0.3-1.6-0.9-2.2
			c-0.6-0.6-1.3-0.9-2.2-0.9c-0.9,0-1.6,0.3-2.2,0.9c-0.6,0.6-0.9,1.3-0.9,2.2v17.6c0,0.9,0.3,1.6,0.9,2.2c0.6,0.6,1.3,0.9,2.2,0.9
			c0.9,0,1.6-0.3,2.2-0.9C70.9,103.9,71.2,103.1,71.2,102.3z M71.2,130.5v-20.7c0-0.9-0.3-1.6-0.9-2.2c-0.6-0.6-1.3-0.9-2.2-0.9
			c-0.9,0-1.6,0.3-2.2,0.9c-0.6,0.6-0.9,1.3-0.9,2.2v20.7c0,0.9,0.3,1.6,0.9,2.2c0.6,0.6,1.3,0.9,2.2,0.9c0.9,0,1.6-0.3,2.2-0.9
			S71.2,131.4,71.2,130.5z"/>
		<path class="st3" d="M100.6,127.1c0,2.2-0.9,4-2.7,5.6c-1.8,1.5-4,2.3-6.6,2.3c-2.5,0-4.7-0.8-6.5-2.3c-1.8-1.5-2.7-3.4-2.7-5.6
			V88.1c0-2.2,0.9-4,2.7-5.6c1.8-1.5,4-2.3,6.5-2.3c2.6,0,4.8,0.8,6.6,2.3c1.8,1.5,2.7,3.4,2.7,5.6V127.1z M94.4,130.5V84.7
			c0-0.9-0.3-1.6-0.9-2.2c-0.6-0.6-1.3-0.9-2.2-0.9c-0.9,0-1.6,0.3-2.2,0.9c-0.6,0.6-0.9,1.3-0.9,2.2v45.9c0,0.9,0.3,1.6,0.9,2.2
			c0.6,0.6,1.3,0.9,2.2,0.9c0.9,0,1.6-0.3,2.2-0.9C94.1,132.1,94.4,131.4,94.4,130.5z"/>
	</g>
	<g class="st1">
		<path class="st3" d="M32.9,133.7h-1.2c-1.6,0-2.4-0.8-2.4-2.5v-8.5c0-0.4-0.1-0.7-0.4-1c-0.3-0.3-0.6-0.4-1-0.4h-1.2v11.7h0.9v0.6
			h-4.4v-0.6H24v-22.7h-0.9v-0.6h4.8c1.1,0,2.1,0.3,2.9,1c0.8,0.7,1.2,1.5,1.2,2.5v4.6c0,1.5-0.8,2.6-2.4,3.2
			c1.6,0.7,2.4,1.7,2.4,3.2v7.9c0,0.6,0.3,0.9,0.8,0.9h0.1V133.7z M29.3,119.3v-7.6c0-0.4-0.1-0.7-0.4-1c-0.3-0.3-0.6-0.4-1-0.4
			h-1.2v10.4h1.2c0.4,0,0.7-0.1,1-0.4C29.1,120.1,29.3,119.7,29.3,119.3z"/>
		<path class="st3" d="M42,130.2c0,0.9-0.3,1.7-1,2.3c-0.7,0.7-1.5,1-2.5,1.1v2.1h-0.8v-2.1c-1-0.1-1.9-0.5-2.5-1.1
			c-0.7-0.7-1-1.4-1-2.4v-3.7h2.7v5.2c0,0.9,0.4,1.4,1.2,1.4c0.8,0,1.2-0.5,1.2-1.4v-4c0-1.1-0.3-2.1-0.8-3l-3.4-5.3
			c-0.6-0.9-0.9-1.9-0.9-3.1v-3.1c0-0.9,0.3-1.7,1-2.3c0.7-0.7,1.5-1,2.5-1.1v-2.1h0.8v2.1c1,0.1,1.9,0.5,2.5,1.1
			c0.7,0.7,1,1.4,1,2.3v3.7h-2.7v-5.2c0-0.9-0.4-1.4-1.2-1.4c-0.8,0-1.2,0.5-1.2,1.4v3.8c0,1.1,0.3,2.1,0.8,3l3.4,5.3
			c0.6,0.9,0.9,2,0.9,3.1V130.2z"/>
	</g>
	<g class="st1">
		<path class="st3" d="M14.9,103.1c0,0.5,0.2,1,0.6,1.3c0.4,0.4,0.8,0.6,1.3,0.6c0.5,0,1-0.2,1.3-0.6c0.4-0.4,0.6-0.8,0.6-1.3V90.2
			c0-1.2-0.6-1.8-1.9-1.8c-0.7,0-1.3,0.3-1.9,0.8V103.1z"/>
		<path class="st3" d="M5,71.1v36.5h36.5V71.1H5z M22.4,82.5h-3.8v-7.4c0-0.5-0.2-1-0.6-1.3c-0.4-0.4-0.8-0.6-1.3-0.6
			c-0.5,0-1,0.2-1.3,0.6c-0.4,0.4-0.6,0.8-0.6,1.3v13.3c0.7-0.6,1.7-0.9,2.9-0.9c3.1,0,4.7,1.4,4.7,4.3v9.2c0,1.3-0.6,2.4-1.7,3.4
			c-1.1,0.9-2.4,1.4-4,1.4c-1.5,0-2.9-0.5-4-1.4c-1.1-0.9-1.7-2.1-1.7-3.4V77.2c0-1.3,0.6-2.4,1.7-3.4c1.1-0.9,2.4-1.4,4-1.4
			c1.6,0,2.9,0.5,4,1.4c1.1,0.9,1.7,2.1,1.7,3.4V82.5z M35.6,105.6h-6.2v-0.9h1.2l-1.8-8l-2.3,8h1.2v0.9h-3.6v-0.9h1.2l3.1-10.1
			l-3-12.7h-1.2v-0.9h6.2v0.9h-1.2l1.7,7.6l2.2-7.6h-1.2v-0.9h3.6v0.9h-1.2l-3,9.8l3.1,13h1.2V105.6z"/>
	</g>
</g>
<g>
	<path class="st3" d="M67.7,138.9c0.3-0.1,0.6-0.2,1-0.3c0,0,0,0,0,0C68.4,138.7,68,138.7,67.7,138.9z"/>
	<path class="st3" d="M78.3,132.9c0.2,0.1,0.4-0.1,0.6,0.1c0,0,0,0,0,0c0,0,0,0,0-0.1C78.7,132.6,78.7,132.6,78.3,132.9z"/>
	<polygon class="st3" points="78.9,132.9 78.9,132.9 78.9,132.9 	"/>
	<path class="st3" d="M75.1,134.8c0-0.1-0.1-0.2-0.2-0.1c-0.1,0-0.1,0.2,0,0.2c0.1,0.1,0.2,0.3,0.2,0.4c0-0.1,0-0.1,0.1-0.2
		C75.2,135,75.2,134.9,75.1,134.8z"/>
	<path class="st3" d="M81.3,130.8c0-0.1-0.1-0.1-0.2-0.1c-0.1,0-0.1,0-0.1,0.1c0,0.1,0,0.1,0.1,0.2c0.1,0.1,0.2,0.1,0.2,0.2
		c0,0,0.1,0,0.1-0.1C81.3,131,81.3,130.9,81.3,130.8z"/>
	<polygon class="st3" points="33.9,139.7 33.9,139.7 33.9,139.7 	"/>
	<polygon class="st3" points="94.3,107 94.3,107 94.3,107 	"/>
	<g>
		<path class="st3" d="M103.7,106.2c-0.2-0.7-1-1.1-1.7-0.9c-2.6,0.8-5.3,1.7-8,2.5c-0.3,0.1-0.5,0.1-0.5,0.5c0,0.2-0.1,0.3-0.3,0.3
			c-0.2,0-0.3-0.1-0.4-0.2c-0.1-0.1-0.1-0.3-0.2-0.2c-0.4,0.1-0.8,0.1-1.1,0.4c0.3,0.1,0.1,0.3,0,0.4c-0.1,0.1-0.3,0.2-0.5,0.1
			c-0.1-0.1-0.2-0.2-0.3-0.4c-0.3,0-0.2,0.5-0.5,0.3c-0.3-0.1-0.5,0-0.7,0c-3.8,1.2-7.5,2.3-11.3,3.5c-0.3,0.1-0.7,0-0.8,0.5
			c0,0-0.1,0.1-0.1,0.1c-0.6-0.4-1,0.1-1.6,0.2c-0.2,0-0.3,0.1-0.4,0.3c-0.1,0.3-0.4,0.4-0.6,0.2c-0.2-0.2-0.3-0.2-0.5-0.1
			c-1.7,0.5-3.4,1.1-5.2,1.6c0.1,0.2,0.1,0.4-0.1,0.5c-0.3,0.1-0.2-0.2-0.3-0.3c-0.1,0.1-0.3,0-0.4,0.3c0,0-0.1,0.2-0.1,0.1
			c-0.2-0.3-0.4-0.1-0.6,0c-0.1,0.1-0.1,0.2-0.2,0.2c-0.1,0.5-0.1,0.5-0.6,0.3c-0.1,0-0.1-0.1-0.1-0.2c-0.1,0-0.1,0-0.2,0
			c-1,0.3-2,0.6-3,0.9c-0.1,0-0.2,0.1-0.2,0.1c0,0.4-0.4,0.3-0.6,0.3c-0.3-0.1-0.5,0-0.7,0.1c-7.9,2.5-15.8,4.9-23.7,7.4
			c0.1,0.3,0.1,0.6-0.2,0.6c-0.3,0.1-0.3-0.2-0.3-0.4c0,0,0,0,0,0c-3.5,1.1-7,2.2-10.5,3.3c-0.2,0.1-0.5,0-0.6,0.4
			c0,0.1-0.2,0.1-0.2,0c-0.1-0.2-0.3-0.1-0.4,0c-1.6,0.5-3.3,1-4.9,1.5c-0.1,0-0.4,0-0.2,0.3c0.1,0.1-0.1,0.2-0.2,0.2
			c-0.1,0-0.3,0.1-0.3-0.1c0-0.3-0.2-0.2-0.4-0.1c-1.3,0.4-2.7,0.8-4,1.2c0,0.3,0.1,0.6-0.2,0.9c0.1,0.4,0.3,0.9,0.4,1.3
			c0.1,0.2,0.1,0.2,0.3,0.2c1.1-0.4,2.2-0.7,3.3-1c0.1-0.1,0.1-0.3,0.2-0.4c0.2-0.1,0.3,0.1,0.4,0.1l1.5-0.5
			c0.1-0.1,0.2-0.2,0.3-0.1l2.7-0.8c0.1-0.1,0-0.4,0.2-0.4c0.2,0,0,0.2,0.1,0.3l10.2-3.2c0.1-0.3,0.2-0.4,0.5-0.1c0,0,0,0,0.1-0.1
			c-0.1-0.1-0.2-0.3,0-0.4c0.2-0.1,0.4,0,0.4,0.3l3.3-1c0.1-0.3,0.2-0.3,0.5-0.1l24.7-7.7c0-0.1,0.1-0.2,0.1-0.3
			c0-0.3,0.1-0.4,0.4-0.3c0.3,0.1-0.1,0.3,0,0.4l1.6-0.5c-0.1-0.1-0.3-0.1-0.2-0.4c0-0.1,0.1-0.2,0.2-0.2c0.3,0,0.3,0.2,0.4,0.4
			l4.4-1.4c0-0.1,0.1-0.2,0.1-0.2c0.1,0,0.1,0.1,0.1,0.1l12.7-3.9c0.1-0.3,0.3-0.5,0.7-0.2c5.9-1.8,11.9-3.7,17.8-5.5
			c0.3-0.1,0.3-0.2,0.2-0.5C103.9,106.7,103.8,106.4,103.7,106.2z M27.2,130.5C27.1,130.5,27.1,130.5,27.2,130.5
			c-0.1-0.1-0.1-0.2,0-0.2c0,0,0.1,0,0.1,0C27.3,130.4,27.2,130.5,27.2,130.5z M28,130.6c-0.1-0.1-0.4-0.2-0.2-0.4
			c0.1-0.1,0.3-0.2,0.4-0.1C28.5,130.3,28.1,130.4,28,130.6z M28.4,129.5c-0.1,0-0.2,0-0.2-0.1c0-0.1,0-0.2,0.1-0.2
			c0.1,0,0.1,0,0.2,0.1C28.5,129.4,28.5,129.5,28.4,129.5z M33.6,128.8c-0.2,0.1-0.4,0-0.5-0.2c-0.1-0.2,0-0.4,0.2-0.4
			c0.2-0.1,0.3,0,0.4,0.2C33.8,128.5,33.8,128.7,33.6,128.8z M43.8,125.5c-0.1-0.1,0.1-0.2,0.2-0.2c0.3-0.1,0.2,0.3,0.4,0.3
			C44.1,125.8,43.9,125.7,43.8,125.5z M48.9,122.8c-0.1,0-0.2,0-0.2-0.1c0-0.1,0-0.1,0.1-0.2c0.1,0,0.2,0,0.2,0.1
			C48.9,122.7,49,122.7,48.9,122.8z M53.3,121.6c-0.1,0-0.3,0.1-0.3-0.1c0-0.2,0-0.3,0.2-0.4c0.2,0,0.3,0.1,0.3,0.2
			C53.5,121.5,53.4,121.6,53.3,121.6z M56,120.8c-0.1,0.2-0.2,0.3-0.4,0.4c-0.1,0-0.1,0.2-0.3,0.1c-0.1-0.1,0-0.2,0.1-0.3
			c0-0.3,0-0.5,0.4-0.5C56,120.4,56.1,120.6,56,120.8z M58.7,120.9c-0.2,0-0.2-0.1-0.3-0.3c0-0.1,0-0.2,0.1-0.2c0.1,0,0.3,0,0.3,0.2
			C58.8,120.7,58.8,120.8,58.7,120.9z M61.6,118.6c0,0,0,0.1-0.1,0.1c-0.1,0-0.1-0.1-0.1-0.2c0-0.1,0.1-0.1,0.1-0.1
			C61.5,118.4,61.6,118.4,61.6,118.6z M62.5,118.9c-0.2,0.1-0.4,0-0.4-0.1c0-0.3,0.3-0.5,0.5-0.7c0.1-0.1,0.2,0.1,0.2,0.2
			C63,118.6,62.6,118.7,62.5,118.9z M63.3,119.2c-0.1,0-0.1,0-0.2-0.1c0-0.1,0-0.2,0.1-0.2c0.1,0,0.1,0,0.2,0.1
			C63.5,119.1,63.4,119.2,63.3,119.2z M64.2,117.9c-0.1,0-0.3-0.1-0.3-0.2c0-0.2,0.1-0.2,0.2-0.3c0.1,0,0.2,0,0.3,0.1
			C64.4,117.7,64.3,117.9,64.2,117.9z M69.8,117.1c-0.2,0.1-0.3-0.1-0.4-0.3c-0.1-0.2-0.1-0.3,0.1-0.4c0.2-0.1,0.4,0,0.4,0.2
			C70,116.9,70,117.1,69.8,117.1z M70.6,117c0,0.1,0,0.2-0.1,0.2c-0.1,0-0.2,0-0.2-0.2c0-0.1,0-0.2,0.1-0.2
			C70.5,116.9,70.6,116.9,70.6,117z M73,115c-0.1,0-0.3-0.1-0.4-0.2c0-0.1,0-0.2,0.1-0.2c0.1,0,0.3,0,0.3,0.2
			C73.1,114.8,73.1,115,73,115z M74,115.6c0,0-0.1-0.1-0.1-0.1c0-0.1,0-0.1,0.1-0.1c0.1,0,0.1,0,0.2,0.1
			C74.1,115.5,74.1,115.6,74,115.6z M77.6,114.7c-0.1,0-0.2,0-0.2-0.1c0-0.1,0-0.2,0.1-0.2c0.1,0,0.2,0,0.2,0.1
			C77.7,114.6,77.7,114.7,77.6,114.7z M78.3,113.7c-0.1,0-0.1-0.1-0.2-0.1c-0.1-0.1,0-0.1,0.1-0.2c0.1,0,0.2,0,0.2,0.1
			C78.4,113.6,78.4,113.7,78.3,113.7z M79.8,114c0,0-0.1,0-0.2-0.1c-0.1-0.1,0-0.2,0.1-0.2c0.1,0,0.2,0,0.2,0.1
			C79.9,113.9,79.8,114,79.8,114z M82.5,113.8c-0.1,0.1-0.2,0-0.2-0.1c0-0.1-0.1-0.2,0-0.2c0.1,0,0.2,0,0.2,0.1
			C82.6,113.6,82.5,113.7,82.5,113.8z M86.4,111.4c-0.2,0-0.3,0-0.3-0.2c0-0.2,0-0.3,0.1-0.3c0.2,0,0.3,0.1,0.3,0.2
			C86.6,111.4,86.5,111.4,86.4,111.4z M89.3,110.5c-0.2,0.1-0.4,0-0.4-0.2c0-0.2,0-0.4,0.2-0.4c0.2-0.1,0.4,0.1,0.5,0.3
			C89.6,110.2,89.5,110.4,89.3,110.5z M95.3,108.5c0,0.4-0.2,0.3-0.5,0.3c-0.2,0-0.2-0.2-0.2-0.4c0.1-0.2,0.2-0.3,0.3-0.3
			C95.2,108.1,95.3,108.3,95.3,108.5z"/>
		<path class="st3" d="M36.5,128.2"/>
		<path class="st3" d="M40.1,127.1c0.2,0,0.3-0.1,0.5-0.1C40.4,126.9,40.3,126.9,40.1,127.1z"/>
		<path class="st3" d="M93.3,110.4c0,0.2,0,0.3,0.3,0.2c0.1,0,0.3,0.1,0.3,0.3c0,0.2-0.1,0.4-0.3,0.5c-0.2,0.1-0.3-0.1-0.5-0.3
			c-0.3,0.7-0.5,1.4-0.8,2.1c-0.4,1-0.9,2-1.3,3c-0.8,1.6-1.8,3.2-2.7,4.7c-0.3,0.4-0.6,0.7-0.8,1.2c-0.2,0.3-0.5,0.6-0.5,1
			c0,0.1-0.1,0.3-0.2,0.3c-0.4-0.1-0.5,0.2-0.6,0.4c-0.6,0.8-1.3,1.5-2,2.3c-0.1,0.1-0.3,0.3-0.3,0.5c0,0.1,0,0.1-0.1,0.2
			c-0.9,0.4-1.4,1.3-2.1,1.9c0,0.5-0.5,0.5-0.8,0.8c-0.9,0.7-1.8,1.4-2.7,2.1c-1.4,1-2.9,2-4.5,2.9c-0.2,0.1-0.6,0.2-0.4,0.6
			c0,0.1-0.1,0.2-0.2,0.1c-0.5-0.3-0.8,0.1-1.2,0.2c-0.8,0.4-1.7,0.7-2.4,1.2c-0.4,0.3-0.9,0.3-1.3,0.5c-1,0.3-1.8,0.7-2.8,1
			c-2.4,0.6-4.8,1.2-7.3,1.5c-0.2,0-0.5,0-0.6,0.4c0,0.2-0.4,0.3-0.5,0c-0.1-0.3-0.2-0.2-0.4-0.2c-2.4,0.2-4.9,0.2-7.3,0
			c-0.4,0-0.8-0.1-1.2-0.1c0,0,0,0,0,0c0,0,0,0,0,0c0,0.2,0.1,0.3,0.2,0.4c0.1,0.1,0.3,0,0.3,0.2c-0.1,0.2-0.2,0-0.3,0
			c-0.6-0.1-0.6-0.1-0.6-0.7c-0.3,0-0.7-0.1-1-0.1l0,0c0,0,0,0,0,0h0c0,0,0,0,0,0c0,0.1,0,0.1,0.1,0.2c0,0.1,0.1,0.2,0,0.3
			c-0.1,0-0.2,0-0.2-0.1c-0.1-0.1,0-0.2,0.1-0.3c0,0,0.1-0.1,0.2-0.1c0,0,0,0,0,0c-1.1-0.2-2.3-0.5-3.4-0.7c-1.9-0.4-3.8-1-5.6-1.8
			c-0.9-0.3-1.7-0.8-2.6-1.1c-0.5-0.1-0.8-0.4-1.2-0.6c-0.5-0.2-0.9-0.5-1.4-0.7c-0.2-0.1-0.6-0.2-0.7-0.3c-0.3-0.3-0.5-0.5-1-0.3
			c0,0-0.1-0.1-0.1-0.1c-0.1-0.7-0.8-0.8-1.2-1.1c-0.8-0.5-1.5-1.1-2.2-1.6l-2.1,0.6c2.6,2.1,5.5,4,8.5,5.5c2.4,1.2,4.9,2.1,7.4,2.8
			c3.5,1,7,1.5,10.6,1.6c3.2,0.1,6.3-0.1,9.5-0.8c0.9-0.2,1.7-0.4,2.6-0.6c0,0,0,0,0,0c0.3-0.1,0.6-0.3,1-0.2
			c0.4-0.1,0.8-0.3,1.2-0.4c0.1-0.2,0.2-0.3,0.4-0.1c0.1,0,0.3-0.1,0.4-0.1c-0.1-0.1-0.1-0.2-0.2-0.3c0-0.1,0-0.2,0.1-0.2
			c0.1,0,0.1,0,0.2,0c0,0.3,0.3,0.2,0.5,0.3c0.1,0,0.3-0.1,0.4-0.1c0.3-0.3,0.6-0.2,0.9-0.4c0,0,0,0,0,0c0,0,0,0,0,0
			c2.1-0.6,4.1-1.6,6-2.6c0.2-0.1,0.3-0.2,0.4-0.3c0.1-0.1,0.1-0.2,0.1-0.3c0,0.1,0,0.1,0,0.1c0-0.1-0.1-0.3-0.2-0.4
			c-0.2-0.1-0.2-0.3-0.1-0.5c0.1-0.1,0.2-0.2,0.3-0.1c0.2,0.1,0.2,0.3,0.2,0.5c0,0.1,0,0.1,0,0.2c0,0-0.1,0-0.1,0c0,0,0,0.1,0,0.1
			c0.2,0.2,0.4,0.1,0.6,0c1-0.6,1.9-1.2,2.8-1.8c0.1-0.1,0.3-0.2,0.3-0.4c0,0,0,0-0.1,0c-0.2,0-0.4,0.1-0.6,0.1
			c-0.1,0-0.2-0.1-0.3-0.2c0-0.2,0.1-0.2,0.2-0.2c0.2-0.1,0.6-0.1,0.9-0.1c0,0.2-0.2,0.2-0.2,0.3c0,0,0,0.1,0.1,0.1
			c0.2,0,0.3-0.1,0.4-0.1c0.7-0.5,1.3-1.1,2-1.6c0,0,0,0,0-0.1c0,0,0,0,0,0c-0.1,0-0.1,0-0.2,0c-0.2,0-0.4-0.1-0.3-0.3
			c0-0.2,0.2-0.3,0.4-0.3c0.2,0,0.3,0.1,0.3,0.4c0,0.1,0,0.1,0.1,0.2c0,0,0,0,0,0c0,0,0,0,0.1,0c0.2-0.1,0.4-0.2,0.5-0.4
			c1.4-1.2,2.7-2.6,4-3.9c0.9-0.9,1.7-2,2.4-3c2-2.7,3.7-5.7,5.1-8.8c0.5-1.2,1-2.4,1.4-3.7c0.2-0.5,0.3-1,0.5-1.5L93.3,110.4z
			 M27.5,131.7c-0.1,0-0.2,0-0.2-0.1c0-0.1,0-0.2,0.1-0.3c0.1-0.1,0.2,0.1,0.3,0.1C27.7,131.6,27.7,131.7,27.5,131.7z M29,133.4
			c-0.1,0-0.2,0-0.2-0.1c0-0.1,0-0.2,0.1-0.3c0.1,0,0.1,0.1,0.2,0.1C29.1,133.3,29.1,133.4,29,133.4z M30.3,133.9
			c0,0.1,0,0.2-0.1,0.2c-0.2,0.1-0.3,0-0.3-0.1c0-0.1,0.1-0.2,0.2-0.3C30.2,133.7,30.2,133.8,30.3,133.9z M33.2,135.7
			c0,0.2,0.1,0.4-0.2,0.4c-0.2,0-0.4-0.1-0.4-0.3c-0.1-0.2,0.1-0.3,0.2-0.4C33,135.5,33.2,135.5,33.2,135.7z M36.1,136.7
			c0,0.1,0,0.2-0.1,0.2c-0.1,0-0.1,0-0.1-0.1c0-0.1,0-0.1,0.1-0.2C36.1,136.6,36.1,136.6,36.1,136.7z M39.9,139.2
			c-0.1,0-0.1,0-0.1-0.1c0-0.1,0-0.1,0.1-0.1c0.1,0,0.1,0,0.1,0.1C40,139.1,40,139.1,39.9,139.2z M46,139.9c0,0-0.1,0-0.1-0.1
			c0,0,0-0.1,0.1-0.1c0,0,0.1,0,0.1,0.1C46.1,139.8,46.1,139.9,46,139.9z M48.9,141c-0.2,0-0.3,0-0.4-0.1c-0.1-0.2,0.1-0.4,0.3-0.5
			c0.2-0.1,0.3,0.1,0.3,0.2C49.1,140.8,49.1,140.9,48.9,141z M54,141.1c-0.1,0-0.1,0-0.1-0.1c0-0.1,0-0.1,0.1-0.1
			c0.1,0,0.1,0,0.1,0.1C54.1,141,54,141.1,54,141.1z M54,140c0,0.1,0,0.3-0.2,0.3c-0.1,0-0.2-0.1-0.2-0.2c0-0.1,0-0.3,0.1-0.3
			C53.9,139.9,54,139.9,54,140z M56.5,141c-0.2,0.1-0.3-0.1-0.3-0.2c-0.1-0.2,0-0.3,0.1-0.3c0.2-0.1,0.3,0,0.4,0.1
			C56.7,140.8,56.7,140.9,56.5,141z M63.9,139.2c0,0-0.1,0-0.1,0c0-0.1,0-0.1,0-0.1c0.1,0,0.1,0,0.1,0.1
			C64,139.1,64,139.2,63.9,139.2z M67.4,138.3c-0.1,0-0.3,0-0.3-0.2c0-0.1,0.1-0.2,0.2-0.2c0.1-0.1,0.2,0,0.3,0.1
			C67.6,138.2,67.5,138.3,67.4,138.3z M71,137.1c-0.2,0-0.4,0-0.4-0.2c-0.1-0.2,0.1-0.3,0.2-0.4c0.2-0.1,0.3,0.1,0.4,0.2
			C71.2,136.9,71.2,137.1,71,137.1z M77.8,133.2c-0.1,0-0.1,0-0.1-0.1c0-0.1,0-0.1,0.1-0.2c0,0,0.1,0.1,0.1,0.1
			C77.9,133.1,77.9,133.1,77.8,133.2z M78.9,131.3c0,0,0,0.1-0.1,0.1c-0.1,0-0.1,0-0.1-0.1c0-0.1,0-0.1,0.1-0.1
			C78.9,131.2,79,131.2,78.9,131.3z M79.3,131.2c-0.1,0-0.1,0-0.1-0.1c0,0,0-0.1,0.1-0.1c0.1,0,0.1,0,0.1,0.1
			C79.3,131.1,79.3,131.1,79.3,131.2z M82.7,128.5c-0.1,0-0.2-0.1-0.3-0.1c-0.1-0.1,0-0.2,0.1-0.2c0.2-0.1,0.2,0,0.3,0.1
			C82.8,128.4,82.8,128.5,82.7,128.5z M83.4,128.3c0,0.1,0,0.2-0.1,0.3c-0.1,0-0.2-0.1-0.2-0.2c0-0.1,0-0.2,0.2-0.2
			C83.4,128.1,83.4,128.2,83.4,128.3z M88.7,122.7c-0.2,0.1-0.3,0-0.4-0.2c-0.1-0.2,0-0.3,0.2-0.4c0.2-0.1,0.3,0,0.4,0.2
			C88.9,122.4,88.8,122.6,88.7,122.7z M88.8,121.7c-0.1,0-0.1,0-0.2-0.1c0-0.1,0-0.1,0.1-0.1c0,0,0.1,0,0.1,0.1
			C88.8,121.6,88.8,121.7,88.8,121.7z M88.8,121.2c-0.1,0-0.3-0.1-0.3-0.2c-0.1-0.2,0.1-0.2,0.2-0.2c0.1,0,0.2,0,0.3,0.1
			C89,121,89,121.2,88.8,121.2z M90.2,119.5c-0.1,0-0.2,0-0.3-0.2c0-0.1,0-0.2,0.2-0.3c0.1,0,0.3,0,0.3,0.2
			C90.5,119.3,90.4,119.4,90.2,119.5z M90.7,118.5c-0.1,0-0.1,0-0.2-0.1c0-0.1,0-0.1,0.1-0.1c0.1,0,0.1,0,0.2,0.1
			C90.7,118.4,90.7,118.5,90.7,118.5z M91.5,118.2c-0.2,0.1-0.3,0-0.4-0.2c-0.1-0.1-0.1-0.3,0.1-0.4c0.2,0,0.4,0.1,0.5,0.2
			C91.7,118,91.6,118.1,91.5,118.2z M92.7,114.6C92.6,114.6,92.6,114.5,92.7,114.6c-0.1-0.1,0-0.2,0-0.2
			C92.7,114.5,92.7,114.5,92.7,114.6C92.7,114.6,92.7,114.6,92.7,114.6z"/>
		<path class="st8" d="M90.8,111.2c0,0,0.1,0,0.1,0c0.2,0.1,0.3,0.2,0.2,0.4c-0.1,0.2-0.3,0.2-0.4,0.1c-0.2-0.1-0.2-0.3-0.1-0.4
			c0,0,0-0.1,0.1-0.1l-0.7,0.2c-0.1,0.2-0.1,0.5-0.2,0.7c-0.1,0.5-0.3,0.8-0.6,1.2c-0.4,0.8-0.7,1.7-1.2,2.5c-1.1,2-2.3,4-3.8,5.8
			c-0.1,0.2-0.3,0.3-0.1,0.6c0.1,0.1-0.1,0.4-0.3,0.3c-0.2-0.1-0.3,0-0.4,0.1c-1.5,1.7-3.1,3.3-4.8,4.8c-0.3,0.2-0.6,0.5-0.9,0.7
			c0,0,0,0,0,0c0,0,0,0,0,0c0.1,0.1,0.2,0.1,0.3,0.1c0.1,0,0.2-0.2,0.3,0c0.1,0.1-0.1,0.1-0.2,0.2c-0.4,0.4-0.4,0.4-0.8,0
			c-0.2,0.2-0.5,0.4-0.7,0.6l0,0c0,0,0,0,0,0l0,0c0,0,0,0,0,0c0,0,0.1,0,0.1,0.1c0.1,0.1,0.2,0.1,0.2,0.2c0,0.1-0.1,0.1-0.2,0.1
			c-0.2,0-0.2-0.1-0.2-0.2c0-0.1,0-0.1,0-0.2c0,0,0,0,0,0c-0.9,0.6-1.8,1.2-2.7,1.8c-1.5,1-3.2,1.8-4.8,2.5c-0.8,0.3-1.7,0.6-2.4,1
			c-0.4,0.2-0.8,0.2-1.2,0.4c-0.5,0.2-0.9,0.3-1.4,0.4c-0.2,0.1-0.5,0.3-0.6,0.3c-0.4,0-0.7,0-0.9,0.4c0,0-0.1,0-0.1,0
			c-0.5-0.4-1,0-1.5,0c-1.5,0.3-3,0.5-4.6,0.6c0,0,0,0,0,0c-0.4,0.5-0.9,0-1.3,0.1c-0.5,0.1-1,0.1-1.5,0.1c-1,0-2.1,0.1-3.1,0
			c-0.8-0.1-1.6-0.1-2.4-0.3c0,0-0.1,0-0.1,0c-0.8,0.3-1.5-0.4-2.2-0.4c-0.8,0-1.6-0.3-2.4-0.5c-1.4-0.4-2.7-0.8-4-1.3
			c-0.6-0.2-1.2-0.4-1.8-0.7c-1.1-0.5-2.3-1-3.3-1.6c-1.1-0.6-2.2-1.3-3.3-2.1l-2,0.6c0.6,0.5,1.3,0.9,1.9,1.3
			c0.5,0.3,1,0.6,1.5,0.9c0,0,0,0,0,0c0.3,0.2,0.6,0.2,0.8,0.5c0.6,0.3,1.1,0.6,1.7,0.9c0.1-0.1,0.2-0.1,0.4-0.1
			c0.1,0.1,0.1,0.2,0,0.3c0.1,0.1,0.3,0.1,0.4,0.2c0.3,0,0.6,0.3,0.9,0.4c0,0,0,0,0,0c0.5,0.3,1.1,0.5,1.6,0.8
			c0.8,0.4,1.7,0.7,2.6,1c1.1,0.3,2.2,0.8,3.4,0.8c0.1,0,0.1,0,0.2,0.1c0.3,0.2,0.6,0.3,0.9,0.3c1.6,0.4,3.2,0.5,4.9,0.7
			c0.2,0,0.4,0,0.5-0.1c0.1-0.1,0.1-0.1,0.2,0c0.3,0.2,0.6,0.2,1,0.2c0.8,0,1.6,0,2.3,0c4.3-0.1,8.6-0.9,12.7-2.3
			c2.3-0.8,4.6-1.8,6.7-3c2.9-1.6,5.6-3.6,8-5.9c2.1-2,4.1-4.2,5.7-6.8c0.4-0.7,0.9-1.4,1.3-2.1c0,0,0,0,0,0
			c0.2-0.3,0.2-0.6,0.5-0.8c0.2-0.4,0.4-0.7,0.6-1.1c-0.1-0.2-0.1-0.3,0.2-0.3c0.1-0.1,0.1-0.3,0.2-0.4c-0.1,0-0.2-0.1-0.3-0.1
			c-0.1,0-0.1-0.1-0.1-0.2c0-0.1,0.1-0.1,0.1-0.1c0.2,0.2,0.3-0.1,0.5-0.1c0.1-0.1,0.1-0.3,0.2-0.4c0-0.3,0.3-0.6,0.4-0.9
			c0,0,0,0,0,0c0,0,0,0,0,0c0.6-1.1,1-2.1,1.4-3.3L90.8,111.2z M30.4,130.9c0,0.1-0.1,0.1-0.2,0.1c-0.1,0-0.2-0.1-0.1-0.2
			c0.1-0.1,0.2-0.1,0.3-0.1C30.5,130.7,30.5,130.8,30.4,130.9z M35.7,133.5c-0.1,0.1-0.2,0.1-0.4,0.1c-0.1,0-0.1-0.1-0.1-0.2
			c0.1-0.1,0.3,0,0.4,0C35.7,133.3,35.7,133.4,35.7,133.5z M44.5,136.3c0.1-0.1,0.3-0.3,0.5-0.1c0.1,0.1,0.2,0.2,0.1,0.4
			c-0.1,0.1-0.3,0.2-0.5,0.1C44.5,136.6,44.3,136.4,44.5,136.3z M45.3,137.3c0,0,0,0.1-0.1,0.2c-0.1,0.1-0.2,0.1-0.3,0
			c-0.1-0.1,0-0.2,0.1-0.3c0.1,0,0.1,0,0.2-0.1c0.1,0,0.1-0.4,0.3-0.2C45.6,137,45.4,137.1,45.3,137.3z M52.6,137.9
			c0,0.1-0.1,0.1-0.2,0c-0.1-0.1-0.1-0.1,0-0.2c0,0,0.1-0.1,0.1,0C52.6,137.7,52.7,137.8,52.6,137.9z M55.6,138
			c0,0.1-0.1,0.1-0.2,0.1c-0.1,0-0.1-0.1-0.1-0.1c0-0.1,0.1-0.1,0.2-0.1C55.6,137.9,55.6,138,55.6,138z M59,136.8
			c0,0.1-0.1,0.2-0.2,0.1c-0.1-0.1-0.2-0.1-0.1-0.2c0.1-0.1,0.2-0.1,0.3-0.1C59.1,136.6,59,136.7,59,136.8z M61.1,137
			c0,0.1-0.1,0.1-0.2,0c-0.1-0.1-0.1-0.1-0.1-0.2c0-0.1,0.1-0.1,0.2,0C61.1,136.8,61.1,136.9,61.1,137z M62.3,136.7
			c-0.1,0.2-0.2,0.2-0.3,0.1c-0.1-0.1-0.1-0.2,0-0.3c0.1-0.1,0.2-0.1,0.2,0C62.3,136.5,62.3,136.6,62.3,136.7z M65.5,136.2
			c-0.1,0.1-0.3,0.2-0.5,0.1c-0.2-0.1-0.2-0.3-0.1-0.4c0.1-0.2,0.2-0.3,0.4-0.2C65.5,135.9,65.7,136,65.5,136.2z M68,134.6
			c0,0-0.1,0-0.1,0c-0.1,0-0.1-0.1,0-0.2c0-0.1,0.1,0,0.1,0C68,134.5,68,134.5,68,134.6z M72,133.5c0,0.1-0.1,0.1-0.1,0
			c-0.1,0-0.1-0.1,0-0.1c0,0,0.1-0.1,0.1-0.1C72.1,133.4,72.1,133.5,72,133.5z M76.6,130c0,0-0.1,0-0.1,0c0,0,0-0.1,0-0.1
			c0,0,0.1,0,0.1,0C76.6,129.9,76.6,129.9,76.6,130z M79.2,128.8c-0.1,0.1-0.2,0.2-0.4,0.2c-0.2-0.1-0.2-0.3-0.1-0.5
			c0.1-0.2,0.2-0.1,0.4-0.1C79.2,128.5,79.2,128.6,79.2,128.8z M82,125.1c-0.1,0.1-0.2,0.1-0.3,0c-0.1-0.1-0.2-0.2-0.1-0.3
			c0.1-0.1,0.2-0.1,0.3-0.1C82,124.9,82.1,125,82,125.1z M82.6,125.5c0,0.1-0.1,0.1-0.1,0c-0.1,0-0.1-0.1,0-0.1c0,0,0.1-0.1,0.1-0.1
			C82.6,125.4,82.6,125.5,82.6,125.5z M84.1,123.8c-0.1,0.1-0.2,0.1-0.4,0.1c-0.1-0.1-0.2-0.2-0.1-0.3c0.1-0.1,0.2-0.2,0.3-0.1
			C84.1,123.5,84.2,123.6,84.1,123.8z M87.8,117.7C87.8,117.7,87.8,117.7,87.8,117.7c-0.2,0-0.2,0-0.2-0.1c0-0.1,0.1-0.1,0.1,0
			C87.9,117.6,87.9,117.6,87.8,117.7z M89.5,114.8c-0.1,0.1-0.2,0.2-0.3,0.1c-0.1-0.1-0.1-0.2,0-0.3c0.1-0.1,0.2-0.1,0.2-0.1
			C89.6,114.6,89.6,114.7,89.5,114.8z"/>
	</g>
	<g>
		<path class="st3" d="M42.6,61.2c-0.2,0.1-0.5,0.1-0.7,0.2C42.3,61.7,42.5,61.6,42.6,61.2z"/>
		<path class="st3" d="M44.2,60.8C44.2,60.8,44.2,60.8,44.2,60.8C44.2,60.8,44.2,60.8,44.2,60.8c-0.3,0-0.6,0.1-0.9,0.2
			C43.6,61,43.9,60.9,44.2,60.8z"/>
		<path class="st3" d="M66.3,61.2c0.1,0,0.1-0.1,0.1-0.2c0,0,0,0,0,0C66.4,61.1,66.3,61.2,66.3,61.2z"/>
		<path class="st3" d="M91.1,66.6c0.1,0.1,0.3,0.2,0.2,0.4C91.2,67.1,91.1,67,91,67c-0.2,0-0.1-0.2-0.2-0.3l-11.2,3.5
			c0.1,0.2,0.1,0.3-0.1,0.4c0.2,0.6,0.2,0.6-0.2,0.6l0,0c-0.2-0.1-0.2-0.3-0.2-0.3c0.2-0.2,0-0.3-0.1-0.5l-20.9,6.5
			c-0.1,0.3-0.2,0.5-0.5,0.2c-0.3,0.1-0.3,0.1-0.6,0.2c0,0.3-0.2,0.3-0.3,0.2c-0.6,0-0.9,0-1.5,0.1c-0.5,0.6,0.1,0.4,0,0.7
			c0,0.1-0.1,0.1-0.2,0.1c-0.2,0-0.1-0.2-0.1-0.4l-9.2,2.9c0,0.1-0.1,0.1-0.1,0.2c-0.1,0.1,0.1,0.4-0.2,0.4c-0.2,0-0.1-0.3-0.2-0.4
			L28.5,86c0,0.2,0.1,0.4-0.2,0.5c-0.1,0-0.4,0-0.3-0.3l-6.2,1.9c0,0.1,0.2,0.1,0.1,0.2c0,0.1-0.1,0.1-0.2,0.1c-0.1-0.1,0-0.2,0-0.3
			c-5.8,1.8-11.6,3.6-17.4,5.4C4,93.6,3.9,93.7,4,94c0.1,0.2,0.2,0.5,0.2,0.7c0.2,0.7,1,1.1,1.6,0.9c0.3-0.1,0.5-0.2,0.8-0.2
			C6.9,95.3,7,94.9,7.2,95c0.3,0.1,0.5,0,0.7-0.1c2.2-0.7,4.4-1.4,6.7-2.1c13.4-4.2,26.7-8.3,40.1-12.5c0-0.1-0.2-0.3,0-0.3
			c0.2-0.1,0.4-0.1,0.5,0.2c2.6-0.8,5.3-1.6,7.9-2.5c-0.1-0.1-0.1-0.2,0-0.3c0.2-0.1,0.2,0.1,0.3,0.2c0,0,0,0,0,0
			c6.5-2,13.1-4.1,19.6-6.1c0.3-0.1,0.6-0.2,0.8-0.4c0.2-0.2,0.3-0.1,0.4,0.1c2.4-0.7,4.7-1.5,7.1-2.2c0.5-0.1,0.8-0.7,0.6-1.1
			c-0.1-0.4-0.2-0.8-0.3-1.2C91.4,66.4,91.3,66.5,91.1,66.6z M8.5,93.9c0,0.2-0.1,0.3-0.2,0.4c-0.1,0-0.3,0-0.3-0.2
			c0-0.2,0.1-0.3,0.2-0.3C8.4,93.7,8.5,93.7,8.5,93.9z M9.3,94.1c-0.2,0-0.4,0-0.4-0.2c-0.1-0.2,0-0.3,0.2-0.3c0.2,0,0.3,0,0.4,0.2
			C9.4,93.9,9.5,94,9.3,94.1z M9.7,93.1c-0.1,0-0.2,0-0.2-0.1c0-0.2,0-0.3,0.2-0.4c0.1-0.1,0.2,0,0.2,0.1C9.8,92.8,9.9,93,9.7,93.1z
			 M12,93.1c-0.2-0.1-0.3,0.1-0.4,0.1c-0.1,0.1-0.1,0.3-0.3,0.1c-0.2-0.1-0.2-0.3-0.1-0.5c0.2-0.3,0.5,0,0.7-0.1
			c0.2-0.1,0.4,0,0.4,0.2C12.3,93,12.2,93.2,12,93.1z M14.3,90.9c0,0.3-0.2,0.2-0.4,0.3c0-0.2,0-0.4,0.2-0.5
			C14.3,90.6,14.4,90.8,14.3,90.9z M17.5,91.4c-0.1,0-0.3,0-0.3-0.2c-0.1-0.2,0-0.2,0.1-0.3c0.1,0,0.3,0,0.3,0.1
			C17.7,91.2,17.7,91.4,17.5,91.4z M18.9,89.8c-0.2,0-0.3,0-0.3-0.2c0-0.2,0-0.3,0.2-0.4c0.1,0,0.3,0.1,0.3,0.2
			C19.2,89.7,19,89.8,18.9,89.8z M21.2,89.2c-0.1,0-0.3,0-0.3-0.2c0-0.2,0.1-0.3,0.2-0.4c0.1-0.1,0.2,0,0.2,0.2
			C21.3,89,21.3,89.2,21.2,89.2z M24.5,89.4L24.5,89.4c0,0.2,0,0.5-0.4,0.3c-0.2-0.1-0.4-0.3-0.6-0.3c-0.1-0.1-0.1-0.1,0-0.2
			c0.1-0.1,0.1-0.1,0.2,0c0.2,0,0.2-0.1,0.4-0.2C24.4,89,24.6,89,24.5,89.4z M26.3,88.7c0,0.3-0.3,0.2-0.5,0.3
			c0.1-0.3,0-0.5,0.3-0.5C26.1,88.5,26.3,88.6,26.3,88.7z M28.1,88.1c0,0.1,0,0.2-0.2,0.3c-0.1,0-0.3,0-0.3-0.2
			c0-0.2,0.1-0.2,0.2-0.2C27.9,88,28.1,87.9,28.1,88.1z M30.2,87.8c0,0.1,0,0.1-0.1,0.1c-0.1,0-0.1,0-0.1-0.1c0,0,0-0.1,0.1-0.1
			C30.1,87.7,30.2,87.7,30.2,87.8z M31.8,86c-0.1,0-0.2,0-0.2-0.1c0-0.1,0-0.1,0.1-0.1c0.1,0,0.2,0,0.2,0C32,85.9,31.9,86,31.8,86z
			 M32.8,86.1c-0.1,0-0.3,0.1-0.3-0.1c0-0.3,0.2-0.4,0.4-0.6c0.1-0.1,0.2,0,0.2,0.1C33,85.7,33.2,86.1,32.8,86.1z M37.1,84.2
			c-0.1,0-0.2-0.1-0.2-0.2c0-0.3,0.3-0.2,0.5-0.2C37.3,84,37.4,84.2,37.1,84.2z M37.7,85c0,0-0.1-0.1-0.1-0.1c0-0.1,0-0.2,0.1-0.2
			c0.1,0,0.1,0,0.1,0.1C37.8,84.9,37.8,85,37.7,85z M39.2,83.5c0-0.1,0-0.1,0.1-0.1c0.1,0,0.2,0,0.2,0.1c0,0-0.1,0.1-0.1,0.1
			C39.3,83.6,39.2,83.6,39.2,83.5z M39.6,84c-0.1-0.1,0-0.2,0.1-0.2c0.1,0,0.2-0.1,0.3,0c0,0.1,0,0.3-0.2,0.3
			C39.7,84.2,39.6,84.1,39.6,84z M40.5,84.3c0,0.2-0.2,0.2-0.3,0.2c-0.1,0.1-0.2,0-0.2-0.1c0-0.1,0-0.3,0.1-0.3
			C40.3,84.1,40.5,84.1,40.5,84.3z M42.2,82.9c0,0.1,0,0.2-0.1,0.3C42,83.1,42,83,42,83c0-0.1,0-0.2,0.1-0.2
			C42.2,82.7,42.2,82.8,42.2,82.9z M45,82c-0.2,0-0.3,0-0.3-0.2c-0.1-0.2,0-0.2,0.2-0.2c0.2-0.1,0.3,0,0.4,0.1
			C45.3,81.8,45.2,81.9,45,82z M46.1,82c0,0.1,0,0.1-0.1,0.1c-0.1,0-0.1-0.1-0.1-0.2c0-0.1,0-0.1,0.1-0.1C46,81.9,46,81.9,46.1,82z
			 M47.5,82.2c-0.1,0.1-0.3,0-0.3-0.2c0-0.2,0.1-0.4,0.4-0.5c0.2,0,0.2,0.1,0.3,0.2C47.7,81.9,47.6,82.1,47.5,82.2z M51.5,79.9
			c-0.2,0.1-0.4,0-0.4-0.2c-0.1-0.2,0-0.3,0.2-0.4c0.2,0,0.3,0.1,0.4,0.3C51.7,79.7,51.7,79.9,51.5,79.9z M54.5,79.4
			c0,0.1,0,0.1-0.1,0.2c-0.1,0-0.2,0-0.2-0.1c0-0.1,0-0.1,0.1-0.1C54.4,79.2,54.4,79.3,54.5,79.4z M56.8,78c-0.1,0-0.2,0-0.2-0.1
			c0-0.1,0-0.1,0.1-0.1c0.1,0,0.2,0,0.2,0.1C57,78,56.9,78,56.8,78z M59.7,77.8c-0.1,0-0.2,0-0.2-0.1c0-0.1,0-0.2,0.1-0.2
			c0.1,0,0.2,0,0.2,0.1C59.9,77.7,59.8,77.8,59.7,77.8z M60.8,77.7c-0.2,0.1-0.3-0.1-0.3-0.2c-0.1-0.1,0-0.2,0.1-0.2
			c0.1,0,0.3,0,0.5,0C61,77.5,60.9,77.6,60.8,77.7z M69.2,73.5c0.1-0.1,0.1,0,0.2,0.1c0,0.1,0,0.2-0.1,0.2c-0.1,0-0.1,0-0.2,0
			C69.1,73.6,69.2,73.6,69.2,73.5z M63.5,76.1c-0.2,0.1-0.3,0-0.4-0.2c-0.1-0.2,0-0.4,0.2-0.5c0.2-0.1,0.3,0,0.3,0.1
			C63.8,75.8,63.7,76,63.5,76.1z M68.7,74.4C68.7,74.4,68.7,74.4,68.7,74.4c0,0,0,0.1-0.1,0.1c0,0,0,0,0,0c-0.2,0.1-0.3,0-0.4-0.2
			c0-0.2,0.1-0.3,0.3-0.3C68.8,74,68.8,74.2,68.7,74.4z M69.9,75.2c-0.2,0-0.4,0-0.4-0.2c-0.1-0.2,0.1-0.3,0.2-0.4
			c0.2-0.1,0.4,0.1,0.4,0.3C70.1,75,70.1,75.1,69.9,75.2z M71.1,74c-0.1,0-0.1,0-0.2-0.1c0-0.1,0-0.2,0.1-0.2c0.1,0,0.2,0,0.2,0.1
			C71.3,74,71.2,74,71.1,74z M71.4,73.4c-0.1,0-0.1,0-0.2-0.1c0-0.1,0-0.2,0.1-0.2c0.1,0,0.2,0,0.2,0.1
			C71.5,73.4,71.4,73.4,71.4,73.4z M72.4,73.4c-0.2,0.1-0.4,0.7-0.7,0.1c0.1-0.2,0.3-0.2,0.3-0.5c0-0.2,0.3-0.2,0.5-0.1
			C72.7,73.1,72.6,73.3,72.4,73.4z M77.5,71.7c0-0.3-0.3-0.4-0.2-0.6c0.1-0.2,0.3,0,0.4,0C77.9,71.3,77.7,71.4,77.5,71.7z
			 M78.4,71.1c-0.1,0-0.1,0-0.2-0.1c0-0.1,0-0.2,0.1-0.2c0.1,0,0.2,0,0.2,0.1C78.5,71,78.4,71,78.4,71.1z M79.3,72
			c-0.2,0.1-0.4,0-0.4-0.2c0-0.2,0.1-0.3,0.3-0.4c0.2-0.1,0.3,0.1,0.3,0.2C79.6,71.8,79.5,71.9,79.3,72z M80.3,71
			c-0.1,0-0.2,0-0.2-0.1c0-0.1,0-0.1,0.1-0.2c0.1,0,0.2,0,0.2,0.1C80.4,70.9,80.4,71,80.3,71z M81.3,70.9c-0.1,0-0.2,0.1-0.3-0.1
			c0-0.2,0-0.3,0.2-0.4c0.1,0,0.3,0,0.3,0.2C81.5,70.8,81.4,70.9,81.3,70.9z M82.4,70.2c0,0.1,0,0.2-0.1,0.3c-0.2,0-0.2-0.2-0.3-0.3
			C81.9,70.1,82,70,82,70C82.2,70,82.4,69.9,82.4,70.2z M87.4,70c-0.1,0.2-0.2,0.2-0.4,0.1c-0.1-0.1-0.2-0.2-0.2-0.4
			c0-0.2,0.1-0.3,0.3-0.2C87.4,69.7,87.8,69.7,87.4,70z M87.8,68.5c-0.2,0.1-0.3,0-0.4-0.2c-0.1-0.2,0-0.4,0.2-0.5
			c0.2-0.1,0.3,0.1,0.4,0.2C88,68.2,88,68.4,87.8,68.5z M88.7,68.5c-0.2,0.1-0.4,0-0.4-0.2c-0.1-0.2,0.1-0.3,0.3-0.4
			c0.2,0,0.4,0,0.4,0.2C89,68.2,88.8,68.4,88.7,68.5z M90.7,67.5c0,0.1,0,0.3-0.1,0.3c-0.1,0-0.2,0-0.2-0.1c0-0.1-0.1-0.3,0.2-0.4
			C90.6,67.4,90.7,67.4,90.7,67.5z"/>
		<path class="st3" d="M55,77.9C55,77.9,55,77.8,55,77.9c0-0.1-0.1-0.1-0.1-0.1C55,77.8,55,77.9,55,77.9z"/>
		<path class="st3" d="M21.8,88.1C21.8,88.1,21.7,88.1,21.8,88.1C21.8,88.2,21.8,88.2,21.8,88.1z"/>
		<path class="st3" d="M63.1,77.8c0.1,0,0.2-0.1,0.3-0.1c0,0,0,0,0,0C63.3,77.7,63.2,77.6,63.1,77.8z"/>
		<path class="st3" d="M14.8,90.3c0,0,0-0.1,0-0.1c0.1-0.2,0.2-0.4,0-0.6c-0.1-0.1,0-0.2,0-0.2c0.6-0.3,0.6-1,0.8-1.5
			c0.9-2.2,1.9-4.3,3.1-6.3c0.2-0.4,0.6-0.7,0.7-1.1c0.2-0.6,0.7-0.9,1-1.4c0.3-0.5,0.7-1,1.1-1.5c0.4-0.5,0.8-1,1.2-1.5
			c0.5-0.6,1-1.2,1.6-1.8c0.3-0.2-0.1-0.6,0.1-0.6c0.2,0,0.4,0,0.6-0.2c0.8-0.8,1.6-1.6,2.5-2.3c0.2-0.2,0.4-0.4,0.3-0.7
			c0-0.1-0.1-0.2,0-0.2c0.1-0.1,0.2,0,0.2,0.1c0.1,0.2,0.2,0.2,0.4,0c1.3-1.1,2.7-2,4.2-3c-0.1,0-0.2,0-0.3,0
			c-0.2,0-0.4-0.1-0.3-0.4c0.1-0.2,0.2-0.3,0.4-0.2c0.6,0.1,1.1,0.1,1.6-0.3c0.2-0.2,0.3-0.6,0.8-0.5c0.1,0,0.1-0.2,0-0.3
			c0-0.1,0-0.2,0.1-0.2c0.1-0.1,0.2-0.1,0.3,0c0.2,0.2,0.3,0.1,0.5,0c0.5-0.2,1-0.5,1.5-0.7c0.2-0.1,0.3-0.1,0.1-0.4
			c-0.1-0.2-0.1-0.3,0.1-0.4c0.2,0,0.4-0.1,0.4,0.2c0,0.3,0.2,0.2,0.3,0.1c0.6-0.2,1.1-0.5,1.7-0.7c1-0.4,2-0.8,3.1-1
			c0.4-0.1,0.8-0.2,1.2-0.3c1.6-0.5,3.2-0.7,4.8-1c0.5-0.1,1.1-0.1,1.6-0.2c1-0.2,2.1-0.1,3.1-0.2c0.2,0,0.3,0.1,0.4-0.2
			c0-0.3,0.3-0.2,0.3-0.1c0.1,0.3,0.3,0.3,0.5,0.3c2.6,0,5.1,0.3,7.6,0.7c1.6,0.3,3.2,0.7,4.8,1.2c0.9,0.3,1.7,0.6,2.6,0.9
			c0.9,0.3,1.8,0.7,2.6,1.1c1.5,0.7,2.9,1.5,4.3,2.4c1.2,0.8,2.4,1.5,3.5,2.4l1.8-0.6c0,0,0,0,0,0c-0.1-0.3-0.2-0.5-0.4-0.7
			c-0.9-0.8-2-1.4-3-2.1c-0.3-0.2-0.6-0.2-0.9-0.4c-0.7-0.7-1.7-1.1-2.5-1.6c-1.5-0.9-3.2-1.5-4.8-2.2c-1.2-0.5-2.4-0.9-3.7-1.3
			c-0.2-0.1-0.5-0.2-0.7,0c0,0,0,0,0,0c0,0,0,0,0,0c0,0,0,0,0,0c0,0,0,0,0,0c0,0,0,0,0,0c0,0.1,0.2,0.3,0,0.4c0,0-0.1,0-0.2,0
			c-0.1,0-0.2-0.1-0.2-0.2c0-0.2,0.2-0.2,0.3-0.2c0,0,0-0.1,0-0.1c-0.1-0.2-0.3-0.2-0.5-0.3c-2.9-0.8-5.9-1.2-8.9-1.3
			c-1.2-0.1-2.5-0.1-3.7,0c-0.9,0.1-1.9-0.1-2.8,0.4c-0.1,0-0.2,0-0.2,0c-0.2-0.1-0.5-0.1-0.7,0c-1.8,0.2-3.5,0.6-5.3,1.1
			c0,0,0,0,0,0c-0.3,0.1-0.6,0.3-1,0.2c-0.2,0.1-0.4,0.1-0.6,0.2c0,0.2,0,0.5-0.2,0.5c-0.2,0.1-0.4-0.1-0.5-0.3
			c-0.4,0.1-0.9,0.3-1.3,0.4c-0.2,0.4-0.6,0.2-1,0.3c-0.9,0.3-1.8,0.6-2.6,0.9c-0.4,0.1-0.7,0.3-0.6,0.8c-0.1-0.4-0.2-0.5-0.6-0.3
			c-0.7,0.4-1.4,0.7-2.1,1.1c-1,0.5-2,1.1-3,1.8c-1.8,1.2-3.6,2.5-5.2,4c-0.2,0.2-0.4,0.4-0.1,0.7c0.1,0.1,0.1,0.1,0,0.2
			c-0.1,0.1-0.2,0-0.2,0c-0.3-0.3-0.5-0.1-0.7,0.1c-0.5,0.4-0.9,0.9-1.4,1.4c-2.9,2.9-5.2,6.3-7.2,9.9c-1.2,2.2-2.1,4.5-2.9,6.9
			c-0.2,0.4-0.3,0.9-0.4,1.4L14.8,90.3z M80.3,67.9c0.1,0,0.1,0,0.1,0c0,0.1,0,0.1-0.1,0.1c-0.1,0-0.1,0-0.1-0.1
			C80.3,68,80.3,67.9,80.3,67.9z M79.5,68.5c0-0.2,0.2-0.4,0.3-0.6c0.1-0.1,0.1,0,0.2,0.1c0.1,0.3-0.2,0.4-0.3,0.5
			C79.6,68.7,79.5,68.6,79.5,68.5z M78.3,67.3c0-0.2,0-0.5,0.2-0.6c0.2-0.1,0.4,0.1,0.4,0.2c0,0.3-0.4,0.3-0.5,0.5
			C78.3,67.5,78.3,67.4,78.3,67.3z M77.9,67.3c0.1,0,0.2,0,0.2,0.1c0,0.1,0.1,0.2-0.1,0.2c-0.1,0-0.2-0.1-0.3-0.2
			C77.7,67.4,77.8,67.3,77.9,67.3z M77.2,66.9c0.1,0,0.1,0,0.1,0.1c0,0.1,0,0.1-0.1,0.1c-0.1,0-0.1,0-0.1-0.1
			C77.1,67,77.1,67,77.2,66.9z M76.6,66.3c0.1,0,0.3,0,0.3,0.1c0.1,0.1-0.1,0.2-0.1,0.2c-0.1,0-0.2,0-0.2-0.1
			C76.5,66.4,76.5,66.3,76.6,66.3z M75.6,65.2c0,0.1,0,0.1-0.1,0.2c-0.1,0-0.1,0-0.1-0.1c0-0.1,0-0.1,0.1-0.1
			C75.5,65.2,75.6,65.2,75.6,65.2z M75,64.9c0-0.1,0-0.2,0.1-0.2c0.1,0,0.1,0,0.2,0.1c0,0.1,0,0.2-0.2,0.2C75.1,65.1,75,65,75,64.9z
			 M73.9,64.2c0.3-0.1,0.4,0.2,0.4,0.4c0.1,0.2,0.2,0.4-0.1,0.4c-0.3,0-0.4-0.3-0.5-0.5C73.7,64.4,73.8,64.2,73.9,64.2z M72.2,64.4
			c0,0,0-0.1,0.1-0.1c0.1,0,0.1,0,0.1,0.1c0,0,0,0.1-0.1,0.1C72.2,64.5,72.2,64.5,72.2,64.4z M70.7,63.9
			C70.8,63.9,70.8,63.9,70.7,63.9c0.1,0.1,0,0.1,0,0.2C70.7,64,70.7,64,70.7,63.9C70.7,63.9,70.7,63.9,70.7,63.9z M67,61.8
			c0.1,0,0.1,0,0.2,0c0,0.1,0,0.1-0.1,0.2c-0.1,0-0.2,0-0.2-0.1C66.9,61.9,66.9,61.8,67,61.8z M65,61.1c0.2,0,0.3,0,0.4,0.2
			c0,0.2,0,0.3-0.2,0.4c-0.2,0-0.3,0-0.4-0.2C64.7,61.4,64.8,61.2,65,61.1z M37.3,63.5c0.1,0,0.1,0,0.1,0.1c0,0.1,0,0.1-0.1,0.2
			c-0.1,0-0.1-0.1-0.2-0.1C37.1,63.6,37.2,63.6,37.3,63.5z M34.1,65.2c0.1,0,0.1,0,0.2,0.1c0,0.1,0,0.2-0.1,0.2
			c-0.1,0-0.1,0-0.2-0.1C34,65.3,34,65.2,34.1,65.2z M33.2,66c0-0.1,0.1-0.1,0.1-0.2c0.1,0,0.1,0,0.2,0.1c0,0.1-0.1,0.1-0.1,0.2
			C33.2,66.2,33.2,66.2,33.2,66z M32,67.6c0,0,0,0.1-0.1,0.1c0,0-0.1,0-0.1-0.1c0,0,0-0.1,0.1-0.1C31.9,67.5,32,67.5,32,67.6z
			 M31.4,67c0.2-0.1,0.3,0.1,0.4,0.2c0,0.2,0,0.3-0.1,0.3c-0.2,0-0.4,0-0.5-0.2C31.1,67.2,31.2,67,31.4,67z M28.9,68.5
			c0.1,0,0.1,0,0.1,0c0,0.1,0,0.1-0.1,0.2c-0.1,0-0.1,0-0.1-0.1C28.8,68.6,28.8,68.5,28.9,68.5z M23.7,73.2c0.1,0,0.2,0,0.3,0.1
			c0.1,0.2-0.1,0.2-0.2,0.2c-0.1,0-0.2,0.1-0.3-0.1C23.5,73.3,23.6,73.2,23.7,73.2z M22.5,75.4c0,0,0-0.1,0.1-0.1
			c0.1,0,0.1,0,0.1,0.1c0,0,0,0.1-0.1,0.1C22.6,75.5,22.5,75.5,22.5,75.4z M20.8,77.2c0.2-0.1,0.3-0.1,0.4,0.1
			c0.1,0.2,0,0.3-0.2,0.4c-0.2,0.1-0.3-0.1-0.4-0.2C20.5,77.4,20.6,77.3,20.8,77.2z M18.9,80c0.1-0.1,0.2,0,0.3,0.1
			c0,0.1,0,0.2-0.1,0.2c-0.1,0-0.2,0-0.3-0.1C18.8,80.2,18.8,80.1,18.9,80z M16.9,83.2c0.1,0,0.2,0,0.3,0.2c0,0.1,0,0.2-0.1,0.2
			c-0.1,0-0.3,0-0.3-0.2C16.7,83.3,16.8,83.3,16.9,83.2z M14.1,88.5c0.2-0.1,0.3,0,0.4,0.1c0.1,0.2-0.1,0.3-0.2,0.5
			c-0.2,0-0.3,0-0.3-0.2C13.8,88.7,13.8,88.5,14.1,88.5z"/>
		<path class="st8" d="M16.7,89.7c-0.3-0.2-0.4-0.1-0.5,0.2L16.7,89.7z"/>
		<path class="st8" d="M17.6,89.4c0-0.1,0-0.1,0-0.2c0.1-0.1,0.2-0.3,0.4-0.1c0.2,0.2,0.2,0,0.3-0.1c0.2-0.5,0.4-1.1,0.7-1.6
			c0.4-0.9,0.8-1.8,1.3-2.7c0.2-0.3,0.4-0.7,0.6-1c0.7-1.4,1.6-2.6,2.5-3.8c0.3-0.4,0.7-0.8,0.9-1.2c0.6-0.8,1.3-1.5,1.9-2.2
			c0.1-0.1,0.3-0.2,0.1-0.4c-0.2-0.2,0-0.3,0.2-0.2c0.3,0.1,0.4,0,0.5-0.2c1.7-1.7,3.5-3.2,5.5-4.5c1.3-0.9,2.6-1.7,4-2.4
			c0.7-0.4,1.5-0.7,2.3-1.1c0.8-0.4,1.6-0.7,2.4-1c1.4-0.5,2.9-0.9,4.4-1.3c1.3-0.3,2.6-0.6,3.9-0.7c0.4-0.4,0.8-0.1,1.3-0.1
			c0.4-0.1,0.9-0.2,1.3-0.1c0.2,0,0.4-0.2,0.6,0c0.1,0,0.3,0.1,0.3-0.2c0-0.2,0.2-0.3,0.4-0.3c0.2,0,0.3,0.1,0.3,0.3
			c0,0.2,0.2,0.2,0.3,0.2c0.6,0,1.3,0,1.9,0c0.2,0,0.5,0.1,0.6-0.2c0,0,0.1,0,0.1,0c0.7,0.5,1.4,0.3,2.2,0.4
			c1.6,0.2,3.2,0.4,4.7,0.8c1.9,0.4,3.8,1,5.6,1.7c1.6,0.6,3.1,1.3,4.6,2.1c0.6,0.3,1.2,0.8,1.9,1.1c0.5,0.3,0.9,0.6,1.4,0.9
			l0.7-0.2c0,0-0.1-0.1-0.1-0.1c-0.1-0.1-0.1-0.2-0.2-0.3c-0.2,0-0.3,0-0.5,0.2c0,0.1-0.1,0.1-0.2,0.1c0,0-0.1-0.2-0.1-0.2
			c0.2-0.1,0.2-0.4,0.5-0.5c0.2-0.1,0.3,0.1,0.3,0.2c0.1,0.1,0.3,0.1,0.4,0.3c0,0.1,0.1,0.2,0.1,0.2l1-0.3c-0.5-0.4-1-0.7-1.5-1
			c-0.5-0.3-1.1-0.7-1.6-1c-0.2-0.1-0.4-0.2-0.5,0.1c0-0.1,0-0.3,0-0.4c-0.7-0.4-1.5-0.8-2.2-1.1c-0.1,0-0.2,0.1-0.4,0
			c-0.4-0.3-0.8-0.4-1.2-0.7c0,0,0,0,0,0c-0.8-0.4-1.5-0.8-2.3-1.1c-2.1-0.8-4.3-1.4-6.6-1.9c-0.5-0.1-1.1-0.1-1.6-0.2
			c-0.9-0.2-1.8-0.3-2.7-0.3c-0.3,0-0.6,0-1-0.1c-0.4-0.1-0.9-0.2-1.3,0c0,0,0,0,0,0.1c0,0,0,0,0,0c0.1,0.1,0.4,0,0.4,0.3
			c0,0.1-0.1,0.2-0.2,0.1c-0.3-0.1-0.2-0.3-0.2-0.4c0,0,0,0,0,0c0,0,0,0,0,0c0,0,0,0,0,0c0,0,0,0,0,0c0,0,0,0,0,0
			c-0.2-0.2-0.5-0.1-0.7-0.1c0,0,0,0.1-0.1,0c-0.1-0.1-0.2-0.1-0.4-0.1c-1.4,0-2.9,0.1-4.3,0.2c-0.3,0-0.4,0.4-0.6,0.3
			c-0.2-0.2-0.5-0.2-0.7-0.2c-1.1,0.1-2.2,0.4-3.4,0.6c-0.3,0-0.5,0.3-0.8,0.3c-0.9,0-1.8,0.4-2.7,0.6c-1.6,0.4-3.1,1.1-4.6,1.7
			c-1.1,0.5-2.2,1-3.2,1.6c-0.2,0.1-0.5,0.2-0.5,0.5c0,0,0,0,0,0c0,0,0,0,0,0c0,0,0,0,0,0c0,0,0,0,0,0c0,0,0,0,0,0
			c0.1,0.1,0.3,0.1,0.3,0.3c0,0-0.1,0.1-0.1,0.1c-0.1,0-0.2,0.1-0.2,0c-0.1-0.1,0-0.2,0.1-0.4c0,0,0,0-0.1-0.1
			c-0.2,0-0.4,0.1-0.5,0.2c-2.4,1.4-4.7,3.1-6.7,5c-0.9,0.8-1.7,1.6-2.5,2.5c-0.6,0.7-1.3,1.2-1.6,2.1c0,0.1-0.1,0.1-0.2,0.1
			c-0.2,0.1-0.3,0.3-0.5,0.4c-1,1.3-1.9,2.7-2.7,4.2c0,0,0,0,0,0c-0.2,0.3-0.2,0.6-0.5,0.8c-0.1,0.2-0.2,0.4-0.3,0.5
			c0.2,0.1,0.3,0.3,0.2,0.5c-0.1,0.2-0.3,0.2-0.5,0.1c-0.2,0.4-0.4,0.8-0.6,1.1c0.1,0.4-0.3,0.6-0.4,0.9c-0.4,0.8-0.8,1.6-1.1,2.3
			c-0.1,0.3-0.3,0.6,0.1,0.9L17.6,89.4z M76.2,69.5c0.1-0.1,0.2-0.4,0.4-0.2c0.2,0.1,0.3,0.2,0.2,0.3c0,0.1-0.6,0.2-0.7,0.1
			C76.1,69.6,76.1,69.5,76.2,69.5z M72.4,67.2c0.1-0.2,0.2-0.1,0.4,0c0.1,0.1,0.3,0.1,0.2,0.2c-0.1,0.2-0.3,0.1-0.4,0
			C72.4,67.4,72.3,67.3,72.4,67.2z M68.9,65.5c0-0.1,0.1-0.1,0.1,0c0,0,0.1,0.1,0.1,0.1c0,0.1-0.1,0.1-0.2,0
			C68.9,65.7,68.9,65.6,68.9,65.5z M66.9,65.7c0-0.1,0.1-0.1,0.2,0c0,0,0,0.1,0,0.1c0,0.1-0.1,0.1-0.1,0
			C66.9,65.8,66.9,65.7,66.9,65.7z M58.7,63.7c0.1-0.2,0.3-0.2,0.5-0.1c0.1,0.1,0.1,0.2,0.1,0.4c-0.1,0.2-0.3,0.2-0.4,0.1
			C58.6,64,58.6,63.9,58.7,63.7z M56,63.8c0,0.1-0.1,0.1-0.2,0.1c-0.1,0-0.1-0.1-0.1-0.1c0.1-0.1,0.1-0.2,0.2-0.1
			C56,63.6,56,63.7,56,63.8z M55.6,62.5C55.6,62.5,55.6,62.5,55.6,62.5C55.6,62.5,55.6,62.5,55.6,62.5
			C55.6,62.5,55.6,62.5,55.6,62.5c0.1,0,0.2,0.1,0.2,0.2c0,0.1-0.1,0.1-0.1,0.1C55.6,62.7,55.6,62.6,55.6,62.5z M55.5,63.2
			c0.1-0.1,0.2-0.1,0.3,0c0.1,0,0.1,0.1,0,0.2c-0.1,0.1-0.2,0.2-0.3,0.1C55.4,63.4,55.4,63.3,55.5,63.2z M54.3,63.3
			c0.1-0.1,0.2-0.1,0.3-0.1c0.1,0.1,0.1,0.2,0,0.3c-0.1,0.1-0.2,0.1-0.3,0C54.2,63.5,54.3,63.4,54.3,63.3z M53.6,63.3
			c0-0.1,0-0.1,0.1-0.1c0.1,0,0.1,0.1,0.1,0.1C53.8,63.4,53.7,63.4,53.6,63.3C53.6,63.4,53.6,63.3,53.6,63.3z M51,63.4
			c0-0.1,0.1,0,0.1,0c0.1,0,0.1,0.1,0,0.1c0,0.1-0.1,0.1-0.1,0C51,63.5,51,63.4,51,63.4z M48.1,63.3c0-0.1,0.1-0.1,0.1-0.1
			c0.1,0,0.1,0.1,0,0.1C48.3,63.4,48.2,63.4,48.1,63.3C48.1,63.4,48.1,63.3,48.1,63.3z M47.8,63.7c0-0.1,0.1-0.1,0.2,0
			c0.3,0.1,0.1,0.4,0.1,0.6c0,0.1-0.1,0.1-0.2,0.1C47.8,64.1,47.9,63.9,47.8,63.7z M46.1,63.7c0.1-0.2,0.3-0.2,0.4-0.1
			c0.2,0.2-0.1,0.4,0,0.6c-0.1,0.1-0.1,0.1-0.2,0C46.2,64.1,46.1,63.9,46.1,63.7z M46.1,64.5c0.1-0.1,0.1-0.1,0.2-0.1
			c0.1,0.1,0.2,0.1,0.1,0.2c-0.1,0.1-0.2,0.1-0.3,0C46,64.7,46.1,64.6,46.1,64.5z M45.4,64.7c0-0.1,0.1,0,0.1,0c0.1,0,0.1,0.1,0,0.1
			c0,0.1-0.1,0.1-0.2,0C45.4,64.8,45.4,64.8,45.4,64.7z M44.6,64.7c0.1-0.1,0.2-0.2,0.3-0.1c0.1,0,0.1,0.2,0.1,0.3
			c0,0.1-0.2,0.1-0.2,0.1C44.6,64.9,44.5,64.8,44.6,64.7z M43.1,64.7c0-0.1,0.1-0.1,0.1-0.1c0.1,0,0.1,0.1,0.1,0.2
			c0,0.1-0.1,0.1-0.1,0C43.1,64.8,43.1,64.8,43.1,64.7z M42.6,64.6c0-0.1,0.1-0.1,0.2,0c0.1,0.1,0.1,0.2,0,0.2c0,0.1-0.1,0.1-0.2,0
			C42.6,64.8,42.5,64.7,42.6,64.6z M41.4,65.1c0.2-0.3,0.4-0.2,0.6,0c0.2,0.1,0.4,0.1,0.2,0.3c-0.2,0.2-0.5,0.1-0.7,0
			C41.4,65.4,41.3,65.2,41.4,65.1z M40.4,66.3c0-0.1,0.1-0.1,0.2,0c0,0,0,0.1,0,0.1c0,0.1-0.1,0.1-0.1,0
			C40.4,66.4,40.4,66.3,40.4,66.3z M39.2,67c0,0,0.1,0,0.1,0c0,0,0,0.1,0,0.1c0,0-0.1,0-0.1,0C39.2,67.1,39.2,67,39.2,67z
			 M35.3,68.1c0-0.1,0.1-0.1,0.2-0.1c0.1,0,0.1,0.1,0.1,0.2c0,0.1-0.1,0.1-0.2,0.1C35.3,68.2,35.3,68.1,35.3,68.1z M33.6,69
			c0.1-0.1,0.2-0.2,0.4-0.1c0.1,0.1,0.2,0.2,0.1,0.4c-0.1,0.1-0.2,0.2-0.4,0.1C33.5,69.4,33.5,69.2,33.6,69z M17,88.9
			c0-0.1,0.1-0.1,0.2,0c0.1,0,0.1,0.1,0,0.2c-0.1,0.1-0.1,0.1-0.2,0C16.9,89.1,16.9,89,17,88.9z"/>
	</g>
	<g>
		<path d="M29.3,108l2.2,17.1c0.1,0.6-0.3,1.2-0.9,1.4l-1,0.3c-0.5,0.2-1.2-0.1-1.5-0.7l-7.8-15.4c-0.3-0.5,0-1.1,0.6-1.3l0.4-0.1
			c0.6-0.2,1.2,0.1,1.5,0.6l5.2,10.3c0.3,0.6,0.4,0.5,0.3-0.1l-1.5-11.5c-0.1-0.6,0.4-1.2,0.9-1.4l0.4-0.1
			C28.7,107,29.2,107.4,29.3,108z"/>
		<path d="M47.9,121.3l-0.5,0.1c-0.5,0.2-1.3-0.1-1.6-0.6l-1.1-1.8c-0.3-0.5-1.1-0.8-1.6-0.6l-2.8,0.9c-0.6,0.2-1,0.8-1,1.4l0.1,2.1
			c0,0.6-0.4,1.2-1,1.4l-0.4,0.1c-0.6,0.2-1.1-0.1-1.1-0.7l-0.5-17.9c0-0.6,0.4-1.2,0.9-1.4c0.5-0.2,1.2,0.1,1.5,0.6l9.7,15.1
			C48.6,120.6,48.4,121.1,47.9,121.3z M42,115l-2.6-4c-0.3-0.5-0.6-0.4-0.5,0.2L39,116c0,0.6,0.5,1,1.1,0.8l1.5-0.5
			C42.2,116.1,42.4,115.5,42,115z"/>
		<path d="M59.3,107.6L61,113c0.2,0.6,0.3,1.1,0.3,1.1l0,0.1c-0.1,1.5-1.4,3.4-3.4,4c-5.3,1.6-8-3.1-9.3-7.5c-1-3.3-1.2-5.8-0.5-7.8
			c0.6-1.8,2-3,3.9-3.6c1.4-0.4,2.7-0.2,4,0.5c0.5,0.3,0.6,1,0.2,1.5l-0.2,0.3c-0.4,0.5-1.1,0.5-1.6,0.3c-0.5-0.2-1.1-0.3-1.6-0.1
			c-1.1,0.3-3.9,1.2-1.8,8.2c2.2,7,5,6.1,6.1,5.8c0.5-0.1,0.8-0.4,1.1-0.7c0.4-0.4,0.4-1.4,0.2-2l-0.8-2.5c-0.2-0.5-0.8-0.9-1.4-0.7
			l-0.4,0.1c-0.6,0.2-1.2-0.1-1.4-0.7l-0.1-0.3c-0.2-0.6,0.1-1.2,0.7-1.4l2.8-0.9C58.6,106.7,59.2,107.1,59.3,107.6z"/>
		<path d="M77.1,112.2l-0.5,0.1c-0.5,0.2-1.3-0.1-1.6-0.6l-1.1-1.8c-0.3-0.5-1.1-0.8-1.6-0.6l-2.8,0.9c-0.6,0.2-1,0.8-1,1.4l0.1,2.1
			c0,0.6-0.4,1.2-1,1.4l-0.4,0.1c-0.6,0.2-1.1-0.1-1.1-0.7l-0.5-17.9c0-0.6,0.4-1.2,0.9-1.4c0.5-0.2,1.2,0.1,1.5,0.6l9.7,15.1
			C77.9,111.5,77.7,112,77.1,112.2z M71.3,106l-2.6-4c-0.3-0.5-0.6-0.4-0.5,0.2l0.1,4.8c0,0.6,0.5,1,1.1,0.8l1.5-0.5
			C71.4,107,71.7,106.4,71.3,106z"/>
		<path d="M89.2,103.5c0.9,2.8-0.4,5.2-3.2,6.1c-2.7,0.8-5-1.1-6.1-2.3c-0.4-0.4-0.3-1.1,0.2-1.5l0.3-0.2c0.5-0.3,1.2-0.2,1.6,0.2
			c0.8,0.8,2,1.8,3.3,1.4c1.4-0.4,1.9-1.5,1.5-2.9c-0.5-1.8-2.4-2.6-4.3-3.5c-2-1-4.4-2-5.1-4.4c-0.8-2.5,0.5-4.9,2.8-5.6
			c1.8-0.5,3.6,0.1,5,1.6c0.4,0.4,0.2,1.1-0.3,1.5L84.6,94c-0.5,0.3-1.2,0.2-1.6-0.2c-0.5-0.5-1.2-0.9-2.1-0.6
			c-1.2,0.4-1.4,1.5-1.1,2.4c0.4,1.3,2,2,3.7,2.8C85.8,99.5,88.3,100.6,89.2,103.5z"/>
	</g>
	<g>
		<path d="M33.5,102.8l0.1,0.3c0.1,0.5-0.1,0.9-0.5,1.1l-3.6,1.1c-0.5,0.1-0.9-0.1-1.1-0.6l-4-12.8c-0.1-0.4,0.1-0.9,0.6-1.1
			l0.3-0.1c0.5-0.1,0.9,0.1,1.1,0.5l3.4,10.9c0.1,0.5,0.6,0.7,1.1,0.6l1.7-0.5C32.9,102.1,33.4,102.3,33.5,102.8z"/>
		<path d="M40.2,86.9l0.1,0.3c0.1,0.5-0.1,0.9-0.6,1.1L39,88.5c-0.5,0.1-0.7,0.6-0.6,1.1l3.4,10.9c0.1,0.5-0.1,0.9-0.6,1.1l-0.3,0.1
			c-0.5,0.1-0.9-0.1-1.1-0.6l-3.4-10.9c-0.1-0.5-0.6-0.7-1.1-0.6l-0.8,0.3c-0.5,0.1-0.9-0.1-1.1-0.6l-0.1-0.3
			c-0.1-0.4,0.1-0.9,0.6-1.1l5.2-1.6C39.6,86.3,40.1,86.5,40.2,86.9z"/>
		<path d="M46.2,85.1l4,12.8c0.1,0.5-0.1,0.9-0.5,1.1l-0.3,0.1c-0.5,0.1-0.9-0.1-1.1-0.6l-4-12.8c-0.1-0.4,0.1-0.9,0.6-1.1l0.3-0.1
			C45.6,84.4,46,84.7,46.2,85.1z"/>
		<path d="M58.6,81.3l4,12.8c0.1,0.5-0.1,0.9-0.5,1.1l-0.3,0.1c-0.5,0.1-0.9-0.1-1.1-0.6l-2-6.5c-0.1-0.5-0.3-0.4-0.3,0L58,93.7
			c0,0.5-0.3,0.6-0.6,0.2l-3.2-4.3c-0.3-0.4-0.4-0.3-0.3,0.1l2,6.4c0.1,0.5-0.1,0.9-0.6,1.1l-0.3,0.1c-0.5,0.1-0.9-0.1-1.1-0.6
			l-4-12.8c-0.1-0.4,0.1-0.9,0.6-1c0.5-0.1,1,0.1,1.3,0.4l3.8,5c0.3,0.4,0.5,0.3,0.5-0.2l0.3-6.3c0-0.5,0.4-1,0.9-1.1
			C58,80.6,58.4,80.8,58.6,81.3z"/>
		<path d="M75.1,91.2l-0.4,0.1c-0.4,0.1-1-0.1-1.3-0.5l-0.9-1.4c-0.3-0.4-0.8-0.6-1.3-0.5l-2.2,0.7c-0.5,0.1-0.8,0.7-0.8,1.1l0,1.7
			c0,0.5-0.3,1-0.8,1.1l-0.3,0.1c-0.5,0.1-0.8-0.1-0.9-0.6l-0.4-14.2c0-0.5,0.3-0.9,0.7-1.1c0.4-0.1,0.9,0.1,1.2,0.5l7.7,11.9
			C75.7,90.6,75.6,91.1,75.1,91.2z M70.5,86.3l-2-3.2c-0.2-0.4-0.5-0.3-0.4,0.1l0.1,3.8c0,0.5,0.4,0.8,0.8,0.6l1.2-0.4
			C70.6,87.1,70.8,86.7,70.5,86.3z"/>
		<path d="M85.3,84.1c0.7,2.2-0.3,4.1-2.5,4.8c-2.1,0.7-3.9-0.9-4.8-1.8c-0.3-0.3-0.2-0.9,0.1-1.2l0.3-0.2c0.4-0.3,0.9-0.2,1.2,0.1
			c0.6,0.6,1.6,1.4,2.6,1.1c1.1-0.4,1.5-1.1,1.2-2.3c-0.4-1.4-1.9-2.1-3.4-2.7c-1.6-0.8-3.4-1.6-4-3.5c-0.6-1.9,0.4-3.8,2.2-4.4
			c1.4-0.4,2.8,0,3.9,1.3c0.3,0.4,0.2,0.9-0.2,1.1l-0.2,0.1c-0.4,0.3-0.9,0.1-1.3-0.2c-0.4-0.4-1-0.7-1.6-0.5
			c-0.9,0.3-1.1,1.2-0.9,1.9c0.3,1.1,1.5,1.6,3,2.2C82.6,81,84.6,81.9,85.3,84.1z"/>
		<g>
			<path d="M20.6,93l2.1,6.6c1.5,4.9,1.9,7.3-1.4,8.3c-3.1,1-4.4-1.3-5.9-6.1l-2.1-6.6c-0.1-0.5,0.1-0.9,0.5-1.1l0.3-0.1
				c0.5-0.1,0.9,0.1,1.1,0.6l2.1,6.6c1.6,5.3,2.4,5.1,3.4,4.8c1.2-0.4,1.7-0.5,0.1-5.8l-2.1-6.6c-0.1-0.5,0.1-0.9,0.6-1.1l0.3-0.1
				C20,92.3,20.5,92.6,20.6,93z"/>
			<g>
				<path d="M19,88.1l-1.7,4.2c0,0.1-0.1,0.3-0.2,0.4l-0.1,0c-0.1,0.1-0.2,0.1-0.2,0l0.7-3.9c0,0,0-0.1,0-0.1
					c0.1-0.1,0.2-0.2,0.4-0.3l1-0.3C18.9,88,19,88,19,88.1z"/>
			</g>
		</g>
	</g>
</g>
</svg>
